{
 "cells": [
  {
   "cell_type": "markdown",
   "id": "2ca4a1bd-26b8-481f-a83b-10120aedb444",
   "metadata": {},
   "source": [
    "midi = converter.parse(midi_file)\n",
    "\n",
    "This line of code converts and \"MIDI files\" into \"music21streams\" -> it is a format that is easier to work with and analyze programmatically"
   ]
  },
  {
   "cell_type": "markdown",
   "id": "08e1aa5e-eb2b-4168-8155-248d6d0fa891",
   "metadata": {},
   "source": [
    "Music21 streams -> represent data in a structured and accessible way, readable for humans. It helps to work with notes, chords and measures"
   ]
  },
  {
   "cell_type": "code",
   "execution_count": 10,
   "id": "5f9459fc-1200-45a8-b06a-b150c6a82b74",
   "metadata": {},
   "outputs": [],
   "source": [
    "import tensorflow \n",
    "import numpy as np \n",
    "import pandas as pd \n",
    "from collections import Counter\n",
    "import random\n",
    "import IPython\n",
    "from IPython.display import Image, Audio\n",
    "import music21\n",
    "from music21 import *\n",
    "import matplotlib.pyplot as plt \n",
    "from sklearn.model_selection import train_test_split\n",
    "from tensorflow.keras.models import Sequential\n",
    "from tensorflow.keras.layers import LSTM, Dense, Dropout\n",
    "import tensorflow.keras.backend as K\n",
    "from tensorflow.keras.optimizers import Adamax\n",
    "import seaborn as sns\n",
    "import matplotlib.pyplot as plt\n",
    "import matplotlib.patches as mpatches\n",
    "%matplotlib inline\n",
    "import sys\n",
    "import warnings\n",
    "warnings.filterwarnings(\"ignore\")\n",
    "warnings.simplefilter(\"ignore\")\n",
    "np.random.seed(42)"
   ]
  },
  {
   "cell_type": "code",
   "execution_count": 14,
   "id": "99a22666-260c-40fb-a00d-c3eb67317441",
   "metadata": {},
   "outputs": [],
   "source": [
    "import os\n",
    "\n",
    "#Loading the list of chopin's midi files as stream \n",
    "filepath = \"/home/sergi_carapuig/code/MarkBerkovics/BandIt/raw_data/\"\n",
    "#Getting midi files\n",
    "all_midis= []\n",
    "for i in os.listdir(filepath):\n",
    "    if i.endswith(\".mid\"):\n",
    "        tr = filepath+i\n",
    "        midi = converter.parse(tr)\n",
    "        all_midis.append(midi)"
   ]
  },
  {
   "cell_type": "code",
   "execution_count": 15,
   "id": "6781b020-7387-4b4a-bd85-099d4491d989",
   "metadata": {},
   "outputs": [
    {
     "data": {
      "text/plain": [
       "10"
      ]
     },
     "execution_count": 15,
     "metadata": {},
     "output_type": "execute_result"
    }
   ],
   "source": [
    "len(all_midis)"
   ]
  },
  {
   "cell_type": "code",
   "execution_count": 24,
   "id": "591b9f9f-bb4f-4bb0-b8d3-2a4fef5ecc9e",
   "metadata": {},
   "outputs": [
    {
     "name": "stdout",
     "output_type": "stream",
     "text": [
      "<class 'mido.midifiles.midifiles.MidiFile'>\n"
     ]
    }
   ],
   "source": [
    "from mido import MidiFile\n",
    "\n",
    "#Exploration of our first file in midi format\n",
    "first_track_name = os.listdir(filepath)[0]\n",
    "first_track = MidiFile(\"raw_data/\" + first_track_name, clip=True)\n",
    "print(type(first_track))"
   ]
  },
  {
   "cell_type": "code",
   "execution_count": 29,
   "id": "9af28af6-52a4-42f9-be56-809b0aecf179",
   "metadata": {},
   "outputs": [
    {
     "data": {
      "text/plain": [
       "MidiFile(type=1, ticks_per_beat=384, tracks=[\n",
       "  MidiTrack([\n",
       "    MetaMessage('midi_port', port=0, time=0),\n",
       "    Message('sysex', data=(126, 127, 9, 1), time=0),\n",
       "    MetaMessage('midi_port', port=0, time=0),\n",
       "    MetaMessage('time_signature', numerator=4, denominator=4, clocks_per_click=24, notated_32nd_notes_per_beat=8, time=0),\n",
       "    MetaMessage('key_signature', key='C', time=0),\n",
       "    MetaMessage('set_tempo', tempo=540541, time=0),\n",
       "    MetaMessage('end_of_track', time=0)]),\n",
       "  MidiTrack([\n",
       "    MetaMessage('midi_port', port=0, time=0),\n",
       "    MetaMessage('end_of_track', time=0)]),\n",
       "  MidiTrack([\n",
       "    MetaMessage('midi_port', port=0, time=0),\n",
       "    MetaMessage('track_name', name='thingswedo', time=0),\n",
       "    Message('control_change', channel=1, control=7, value=120, time=0),\n",
       "    Message('control_change', channel=1, control=121, value=0, time=324),\n",
       "    Message('control_change', channel=1, control=121, value=0, time=4),\n",
       "    Message('control_change', channel=1, control=121, value=0, time=4),\n",
       "    Message('control_change', channel=1, control=121, value=0, time=4),\n",
       "    Message('control_change', channel=1, control=121, value=0, time=4),\n",
       "    Message('control_change', channel=1, control=121, value=0, time=4),\n",
       "    Message('control_change', channel=1, control=121, value=0, time=4),\n",
       "    Message('control_change', channel=1, control=121, value=0, time=4),\n",
       "    Message('control_change', channel=1, control=120, value=0, time=4),\n",
       "    Message('control_change', channel=1, control=121, value=0, time=28),\n",
       "    Message('control_change', channel=1, control=121, value=0, time=0),\n",
       "    Message('control_change', channel=1, control=121, value=0, time=0),\n",
       "    Message('control_change', channel=1, control=121, value=0, time=0),\n",
       "    Message('control_change', channel=1, control=121, value=0, time=0),\n",
       "    Message('control_change', channel=1, control=121, value=0, time=0),\n",
       "    Message('control_change', channel=1, control=0, value=0, time=108),\n",
       "    Message('control_change', channel=1, control=32, value=0, time=0),\n",
       "    Message('program_change', channel=1, program=33, time=0),\n",
       "    Message('control_change', channel=1, control=11, value=127, time=4),\n",
       "    Message('control_change', channel=1, control=10, value=64, time=0),\n",
       "    Message('control_change', channel=1, control=7, value=100, time=0),\n",
       "    Message('control_change', channel=1, control=93, value=60, time=4),\n",
       "    Message('control_change', channel=1, control=91, value=0, time=0),\n",
       "    MetaMessage('midi_port', port=0, time=1516),\n",
       "    Message('sysex', data=(65, 16, 66, 18, 64, 1, 16, 3, 0, 1, 2, 2, 2, 4, 1, 2, 2, 1, 0, 0, 0, 0, 0, 27), time=0),\n",
       "    MetaMessage('midi_port', port=0, time=0),\n",
       "    MetaMessage('midi_port', port=0, time=96),\n",
       "    Message('sysex', data=(65, 16, 66, 18, 64, 1, 62, 25, 104), time=0),\n",
       "    MetaMessage('midi_port', port=0, time=0),\n",
       "    MetaMessage('midi_port', port=0, time=8),\n",
       "    Message('sysex', data=(65, 16, 66, 18, 64, 1, 60, 43, 88), time=0),\n",
       "    MetaMessage('midi_port', port=0, time=0),\n",
       "    MetaMessage('midi_port', port=0, time=10),\n",
       "    Message('sysex', data=(65, 16, 66, 18, 64, 1, 61, 3, 127), time=0),\n",
       "    MetaMessage('midi_port', port=0, time=0),\n",
       "    MetaMessage('midi_port', port=0, time=10),\n",
       "    Message('sysex', data=(65, 16, 66, 18, 64, 1, 59, 7, 125), time=0),\n",
       "    MetaMessage('midi_port', port=0, time=0),\n",
       "    MetaMessage('midi_port', port=0, time=10),\n",
       "    Message('sysex', data=(65, 16, 66, 18, 64, 1, 52, 53, 86), time=0),\n",
       "    MetaMessage('midi_port', port=0, time=0),\n",
       "    MetaMessage('midi_port', port=0, time=10),\n",
       "    Message('sysex', data=(65, 16, 66, 18, 64, 1, 50, 0, 13), time=0),\n",
       "    MetaMessage('midi_port', port=0, time=0),\n",
       "    MetaMessage('midi_port', port=0, time=144),\n",
       "    Message('sysex', data=(65, 16, 69, 18, 16, 1, 0, 31, 17, 21, 21, 17, 23, 23, 23, 31, 17, 23, 23, 19, 23, 23, 23, 31, 2, 10, 10, 6, 6, 10, 10, 31, 11, 11, 11, 11, 11, 11, 8, 31, 7, 23, 20, 20, 23, 23, 7, 31, 17, 23, 23, 19, 23, 23, 17, 16, 16, 16, 16, 16, 16, 16, 16, 16, 16, 16, 16, 16, 16, 16, 16, 1), time=0),\n",
       "    MetaMessage('midi_port', port=0, time=0),\n",
       "    Message('note_on', channel=1, note=33, velocity=100, time=768),\n",
       "    Message('note_on', channel=1, note=33, velocity=0, time=952),\n",
       "    Message('note_on', channel=1, note=33, velocity=100, time=72),\n",
       "    Message('note_on', channel=1, note=45, velocity=100, time=128),\n",
       "    Message('note_on', channel=1, note=33, velocity=0, time=16),\n",
       "    Message('note_on', channel=1, note=45, velocity=0, time=92),\n",
       "    Message('note_on', channel=1, note=47, velocity=100, time=20),\n",
       "    Message('note_on', channel=1, note=47, velocity=0, time=128),\n",
       "    Message('note_on', channel=1, note=45, velocity=100, time=0),\n",
       "    Message('note_on', channel=1, note=45, velocity=0, time=100),\n",
       "    Message('note_on', channel=1, note=33, velocity=100, time=28),\n",
       "    Message('note_on', channel=1, note=33, velocity=0, time=936),\n",
       "    Message('note_on', channel=1, note=33, velocity=100, time=88),\n",
       "    Message('note_on', channel=1, note=33, velocity=0, time=436),\n",
       "    Message('note_on', channel=1, note=33, velocity=100, time=76),\n",
       "    Message('note_on', channel=1, note=33, velocity=0, time=960),\n",
       "    Message('note_on', channel=1, note=33, velocity=100, time=64),\n",
       "    Message('note_on', channel=1, note=45, velocity=100, time=128),\n",
       "    Message('note_on', channel=1, note=33, velocity=0, time=20),\n",
       "    Message('note_on', channel=1, note=45, velocity=0, time=84),\n",
       "    Message('note_on', channel=1, note=47, velocity=100, time=24),\n",
       "    Message('note_on', channel=1, note=47, velocity=0, time=124),\n",
       "    Message('note_on', channel=1, note=45, velocity=100, time=4),\n",
       "    Message('note_on', channel=1, note=45, velocity=0, time=120),\n",
       "    Message('note_on', channel=1, note=33, velocity=100, time=8),\n",
       "    Message('note_on', channel=1, note=33, velocity=0, time=896),\n",
       "    Message('note_on', channel=1, note=33, velocity=100, time=128),\n",
       "    Message('note_on', channel=1, note=33, velocity=0, time=440),\n",
       "    Message('note_on', channel=1, note=33, velocity=100, time=72),\n",
       "    Message('note_on', channel=1, note=33, velocity=0, time=932),\n",
       "    Message('note_on', channel=1, note=33, velocity=100, time=92),\n",
       "    Message('note_on', channel=1, note=45, velocity=100, time=128),\n",
       "    Message('note_on', channel=1, note=33, velocity=0, time=8),\n",
       "    Message('note_on', channel=1, note=45, velocity=0, time=92),\n",
       "    Message('note_on', channel=1, note=47, velocity=100, time=28),\n",
       "    Message('note_on', channel=1, note=47, velocity=0, time=112),\n",
       "    Message('note_on', channel=1, note=45, velocity=100, time=16),\n",
       "    Message('note_on', channel=1, note=45, velocity=0, time=88),\n",
       "    Message('note_on', channel=1, note=33, velocity=100, time=40),\n",
       "    Message('note_on', channel=1, note=33, velocity=0, time=932),\n",
       "    Message('note_on', channel=1, note=33, velocity=100, time=92),\n",
       "    Message('note_on', channel=1, note=33, velocity=0, time=424),\n",
       "    Message('note_on', channel=1, note=33, velocity=100, time=88),\n",
       "    Message('note_on', channel=1, note=33, velocity=0, time=944),\n",
       "    Message('note_on', channel=1, note=33, velocity=100, time=80),\n",
       "    Message('note_on', channel=1, note=33, velocity=0, time=404),\n",
       "    Message('note_on', channel=1, note=33, velocity=100, time=108),\n",
       "    Message('note_on', channel=1, note=33, velocity=0, time=696),\n",
       "    Message('note_on', channel=1, note=33, velocity=100, time=72),\n",
       "    Message('note_on', channel=1, note=33, velocity=0, time=280),\n",
       "    Message('note_on', channel=1, note=33, velocity=100, time=104),\n",
       "    Message('note_on', channel=1, note=33, velocity=0, time=304),\n",
       "    Message('note_on', channel=1, note=34, velocity=100, time=80),\n",
       "    Message('note_on', channel=1, note=34, velocity=0, time=508),\n",
       "    Message('note_on', channel=1, note=34, velocity=100, time=132),\n",
       "    Message('note_on', channel=1, note=34, velocity=0, time=128),\n",
       "    Message('note_on', channel=1, note=46, velocity=100, time=0),\n",
       "    Message('note_on', channel=1, note=46, velocity=0, time=224),\n",
       "    Message('note_on', channel=1, note=34, velocity=100, time=32),\n",
       "    Message('note_on', channel=1, note=34, velocity=0, time=144),\n",
       "    Message('note_on', channel=1, note=34, velocity=100, time=240),\n",
       "    Message('note_on', channel=1, note=42, velocity=100, time=128),\n",
       "    Message('note_on', channel=1, note=34, velocity=0, time=4),\n",
       "    Message('note_on', channel=1, note=42, velocity=0, time=540),\n",
       "    Message('note_on', channel=1, note=42, velocity=100, time=96),\n",
       "    Message('note_on', channel=1, note=42, velocity=0, time=124),\n",
       "    Message('note_on', channel=1, note=37, velocity=100, time=4),\n",
       "    Message('note_on', channel=1, note=37, velocity=0, time=256),\n",
       "    Message('note_on', channel=1, note=42, velocity=100, time=0),\n",
       "    Message('note_on', channel=1, note=42, velocity=0, time=304),\n",
       "    Message('note_on', channel=1, note=42, velocity=100, time=80),\n",
       "    Message('note_on', channel=1, note=42, velocity=0, time=124),\n",
       "    Message('note_on', channel=1, note=37, velocity=100, time=4),\n",
       "    Message('note_on', channel=1, note=37, velocity=0, time=532),\n",
       "    Message('note_on', channel=1, note=37, velocity=100, time=108),\n",
       "    Message('note_on', channel=1, note=37, velocity=0, time=116),\n",
       "    Message('note_on', channel=1, note=36, velocity=100, time=12),\n",
       "    Message('note_on', channel=1, note=36, velocity=0, time=244),\n",
       "    Message('note_on', channel=1, note=48, velocity=100, time=12),\n",
       "    Message('note_on', channel=1, note=48, velocity=0, time=360),\n",
       "    Message('note_on', channel=1, note=36, velocity=100, time=24),\n",
       "    Message('note_on', channel=1, note=39, velocity=100, time=128),\n",
       "    Message('note_on', channel=1, note=36, velocity=0, time=8),\n",
       "    Message('note_on', channel=1, note=39, velocity=0, time=568),\n",
       "    Message('note_on', channel=1, note=39, velocity=100, time=64),\n",
       "    Message('note_on', channel=1, note=39, velocity=0, time=124),\n",
       "    Message('note_on', channel=1, note=46, velocity=100, time=4),\n",
       "    Message('note_on', channel=1, note=46, velocity=0, time=232),\n",
       "    Message('note_on', channel=1, note=39, velocity=100, time=24),\n",
       "    Message('note_on', channel=1, note=39, velocity=0, time=312),\n",
       "    Message('note_on', channel=1, note=39, velocity=100, time=72),\n",
       "    Message('note_on', channel=1, note=39, velocity=0, time=124),\n",
       "    Message('note_on', channel=1, note=42, velocity=100, time=4),\n",
       "    Message('note_on', channel=1, note=42, velocity=0, time=552),\n",
       "    Message('note_on', channel=1, note=42, velocity=100, time=88),\n",
       "    Message('note_on', channel=1, note=30, velocity=100, time=128),\n",
       "    Message('note_on', channel=1, note=42, velocity=0, time=4),\n",
       "    Message('note_on', channel=1, note=30, velocity=0, time=240),\n",
       "    Message('note_on', channel=1, note=42, velocity=100, time=12),\n",
       "    Message('note_on', channel=1, note=42, velocity=0, time=328),\n",
       "    Message('note_on', channel=1, note=42, velocity=100, time=56),\n",
       "    Message('note_on', channel=1, note=41, velocity=100, time=128),\n",
       "    Message('note_on', channel=1, note=42, velocity=0, time=8),\n",
       "    Message('note_on', channel=1, note=41, velocity=0, time=536),\n",
       "    Message('note_on', channel=1, note=41, velocity=100, time=96),\n",
       "    Message('note_on', channel=1, note=39, velocity=100, time=128),\n",
       "    Message('note_on', channel=1, note=41, velocity=0, time=8),\n",
       "    Message('note_on', channel=1, note=39, velocity=0, time=328),\n",
       "    Message('note_on', channel=1, note=39, velocity=100, time=48),\n",
       "    Message('note_on', channel=1, note=39, velocity=0, time=372),\n",
       "    Message('note_on', channel=1, note=37, velocity=100, time=12),\n",
       "    Message('note_on', channel=1, note=37, velocity=0, time=516),\n",
       "    Message('note_on', channel=1, note=37, velocity=100, time=124),\n",
       "    Message('note_on', channel=1, note=37, velocity=0, time=128),\n",
       "    Message('note_on', channel=1, note=32, velocity=100, time=0),\n",
       "    Message('note_on', channel=1, note=32, velocity=0, time=284),\n",
       "    Message('note_on', channel=1, note=32, velocity=100, time=100),\n",
       "    Message('note_on', channel=1, note=32, velocity=0, time=384),\n",
       "    Message('note_on', channel=1, note=37, velocity=100, time=0),\n",
       "    Message('note_on', channel=1, note=37, velocity=0, time=240),\n",
       "    Message('note_on', channel=1, note=34, velocity=100, time=1296),\n",
       "    Message('note_on', channel=1, note=34, velocity=0, time=508),\n",
       "    Message('note_on', channel=1, note=34, velocity=100, time=132),\n",
       "    Message('note_on', channel=1, note=34, velocity=0, time=128),\n",
       "    Message('note_on', channel=1, note=46, velocity=100, time=0),\n",
       "    Message('note_on', channel=1, note=46, velocity=0, time=224),\n",
       "    Message('note_on', channel=1, note=34, velocity=100, time=32),\n",
       "    Message('note_on', channel=1, note=34, velocity=0, time=144),\n",
       "    Message('note_on', channel=1, note=34, velocity=100, time=240),\n",
       "    Message('note_on', channel=1, note=42, velocity=100, time=128),\n",
       "    Message('note_on', channel=1, note=34, velocity=0, time=4),\n",
       "    Message('note_on', channel=1, note=42, velocity=0, time=540),\n",
       "    Message('note_on', channel=1, note=42, velocity=100, time=96),\n",
       "    Message('note_on', channel=1, note=42, velocity=0, time=124),\n",
       "    Message('note_on', channel=1, note=37, velocity=100, time=4),\n",
       "    Message('note_on', channel=1, note=37, velocity=0, time=256),\n",
       "    Message('note_on', channel=1, note=42, velocity=100, time=0),\n",
       "    Message('note_on', channel=1, note=42, velocity=0, time=304),\n",
       "    Message('note_on', channel=1, note=42, velocity=100, time=80),\n",
       "    Message('note_on', channel=1, note=42, velocity=0, time=124),\n",
       "    Message('note_on', channel=1, note=37, velocity=100, time=4),\n",
       "    Message('note_on', channel=1, note=37, velocity=0, time=532),\n",
       "    Message('note_on', channel=1, note=37, velocity=100, time=108),\n",
       "    Message('note_on', channel=1, note=37, velocity=0, time=116),\n",
       "    Message('note_on', channel=1, note=36, velocity=100, time=12),\n",
       "    Message('note_on', channel=1, note=36, velocity=0, time=244),\n",
       "    Message('note_on', channel=1, note=48, velocity=100, time=12),\n",
       "    Message('note_on', channel=1, note=48, velocity=0, time=360),\n",
       "    Message('note_on', channel=1, note=36, velocity=100, time=24),\n",
       "    Message('note_on', channel=1, note=39, velocity=100, time=128),\n",
       "    Message('note_on', channel=1, note=36, velocity=0, time=8),\n",
       "    Message('note_on', channel=1, note=39, velocity=0, time=568),\n",
       "    Message('note_on', channel=1, note=39, velocity=100, time=64),\n",
       "    Message('note_on', channel=1, note=39, velocity=0, time=124),\n",
       "    Message('note_on', channel=1, note=46, velocity=100, time=4),\n",
       "    Message('note_on', channel=1, note=46, velocity=0, time=232),\n",
       "    Message('note_on', channel=1, note=39, velocity=100, time=24),\n",
       "    Message('note_on', channel=1, note=39, velocity=0, time=312),\n",
       "    Message('note_on', channel=1, note=39, velocity=100, time=72),\n",
       "    Message('note_on', channel=1, note=39, velocity=0, time=124),\n",
       "    Message('note_on', channel=1, note=42, velocity=100, time=4),\n",
       "    Message('note_on', channel=1, note=42, velocity=0, time=552),\n",
       "    Message('note_on', channel=1, note=42, velocity=100, time=88),\n",
       "    Message('note_on', channel=1, note=30, velocity=100, time=128),\n",
       "    Message('note_on', channel=1, note=42, velocity=0, time=4),\n",
       "    Message('note_on', channel=1, note=30, velocity=0, time=240),\n",
       "    Message('note_on', channel=1, note=42, velocity=100, time=12),\n",
       "    Message('note_on', channel=1, note=42, velocity=0, time=328),\n",
       "    Message('note_on', channel=1, note=42, velocity=100, time=56),\n",
       "    Message('note_on', channel=1, note=41, velocity=100, time=128),\n",
       "    Message('note_on', channel=1, note=42, velocity=0, time=8),\n",
       "    Message('note_on', channel=1, note=41, velocity=0, time=536),\n",
       "    Message('note_on', channel=1, note=41, velocity=100, time=96),\n",
       "    Message('note_on', channel=1, note=39, velocity=100, time=128),\n",
       "    Message('note_on', channel=1, note=41, velocity=0, time=8),\n",
       "    Message('note_on', channel=1, note=39, velocity=0, time=328),\n",
       "    Message('note_on', channel=1, note=39, velocity=100, time=48),\n",
       "    Message('note_on', channel=1, note=39, velocity=0, time=372),\n",
       "    Message('note_on', channel=1, note=37, velocity=100, time=12),\n",
       "    Message('note_on', channel=1, note=37, velocity=0, time=516),\n",
       "    Message('note_on', channel=1, note=37, velocity=100, time=124),\n",
       "    Message('note_on', channel=1, note=37, velocity=0, time=128),\n",
       "    Message('note_on', channel=1, note=32, velocity=100, time=0),\n",
       "    Message('note_on', channel=1, note=32, velocity=0, time=284),\n",
       "    Message('note_on', channel=1, note=32, velocity=100, time=100),\n",
       "    Message('note_on', channel=1, note=32, velocity=0, time=384),\n",
       "    Message('note_on', channel=1, note=37, velocity=100, time=0),\n",
       "    Message('note_on', channel=1, note=37, velocity=0, time=240),\n",
       "    Message('note_on', channel=1, note=37, velocity=100, time=1296),\n",
       "    Message('note_on', channel=1, note=37, velocity=0, time=368),\n",
       "    Message('note_on', channel=1, note=34, velocity=100, time=16),\n",
       "    Message('note_on', channel=1, note=34, velocity=0, time=352),\n",
       "    Message('note_on', channel=1, note=32, velocity=100, time=32),\n",
       "    Message('note_on', channel=1, note=34, velocity=100, time=384),\n",
       "    Message('note_on', channel=1, note=32, velocity=0, time=20),\n",
       "    Message('note_on', channel=1, note=34, velocity=0, time=352),\n",
       "    Message('note_on', channel=1, note=37, velocity=100, time=12),\n",
       "    Message('note_on', channel=1, note=37, velocity=0, time=384),\n",
       "    Message('note_on', channel=1, note=34, velocity=100, time=0),\n",
       "    Message('note_on', channel=1, note=34, velocity=0, time=372),\n",
       "    Message('note_on', channel=1, note=32, velocity=100, time=12),\n",
       "    Message('note_on', channel=1, note=34, velocity=100, time=384),\n",
       "    Message('note_on', channel=1, note=32, velocity=0, time=16),\n",
       "    Message('note_on', channel=1, note=34, velocity=0, time=264),\n",
       "    Message('note_on', channel=1, note=39, velocity=100, time=104),\n",
       "    Message('note_on', channel=1, note=39, velocity=0, time=536),\n",
       "    Message('note_on', channel=1, note=39, velocity=100, time=104),\n",
       "    Message('note_on', channel=1, note=39, velocity=0, time=112),\n",
       "    Message('note_on', channel=1, note=37, velocity=100, time=16),\n",
       "    Message('note_on', channel=1, note=37, velocity=0, time=560),\n",
       "    Message('note_on', channel=1, note=37, velocity=100, time=80),\n",
       "    Message('note_on', channel=1, note=37, velocity=0, time=108),\n",
       "    Message('note_on', channel=1, note=36, velocity=100, time=20),\n",
       "    Message('note_on', channel=1, note=36, velocity=0, time=548),\n",
       "    Message('note_on', channel=1, note=36, velocity=100, time=92),\n",
       "    Message('note_on', channel=1, note=36, velocity=0, time=116),\n",
       "    Message('note_on', channel=1, note=32, velocity=100, time=12),\n",
       "    Message('note_on', channel=1, note=32, velocity=0, time=116),\n",
       "    Message('note_on', channel=1, note=32, velocity=100, time=140),\n",
       "    Message('note_on', channel=1, note=32, velocity=0, time=216),\n",
       "    Message('note_on', channel=1, note=32, velocity=100, time=40),\n",
       "    Message('note_on', channel=1, note=32, velocity=0, time=72),\n",
       "    Message('note_on', channel=1, note=33, velocity=100, time=56),\n",
       "    Message('note_on', channel=1, note=33, velocity=0, time=80),\n",
       "    Message('note_on', channel=1, note=34, velocity=100, time=48),\n",
       "    Message('note_on', channel=1, note=34, velocity=0, time=520),\n",
       "    Message('note_on', channel=1, note=34, velocity=100, time=120),\n",
       "    Message('note_on', channel=1, note=34, velocity=0, time=116),\n",
       "    Message('note_on', channel=1, note=32, velocity=100, time=12),\n",
       "    Message('note_on', channel=1, note=32, velocity=0, time=568),\n",
       "    Message('note_on', channel=1, note=32, velocity=100, time=72),\n",
       "    Message('note_on', channel=1, note=32, velocity=0, time=116),\n",
       "    Message('note_on', channel=1, note=30, velocity=100, time=12),\n",
       "    Message('note_on', channel=1, note=30, velocity=0, time=540),\n",
       "    Message('note_on', channel=1, note=30, velocity=100, time=100),\n",
       "    Message('note_on', channel=1, note=30, velocity=0, time=112),\n",
       "    Message('note_on', channel=1, note=31, velocity=100, time=16),\n",
       "    Message('note_on', channel=1, note=31, velocity=0, time=292),\n",
       "    Message('note_on', channel=1, note=31, velocity=100, time=92),\n",
       "    Message('note_on', channel=1, note=31, velocity=0, time=296),\n",
       "    Message('note_on', channel=1, note=32, velocity=100, time=88),\n",
       "    Message('note_on', channel=1, note=32, velocity=0, time=276),\n",
       "    Message('note_on', channel=1, note=32, velocity=100, time=108),\n",
       "    Message('note_on', channel=1, note=32, velocity=0, time=268),\n",
       "    Message('note_on', channel=1, note=33, velocity=100, time=116),\n",
       "    Message('note_on', channel=1, note=33, velocity=0, time=236),\n",
       "    Message('note_on', channel=1, note=33, velocity=100, time=148),\n",
       "    Message('note_on', channel=1, note=33, velocity=0, time=264),\n",
       "    Message('note_on', channel=1, note=34, velocity=100, time=120),\n",
       "    Message('note_on', channel=1, note=34, velocity=0, time=268),\n",
       "    Message('note_on', channel=1, note=34, velocity=100, time=116),\n",
       "    Message('note_on', channel=1, note=34, velocity=0, time=248),\n",
       "    Message('note_on', channel=1, note=30, velocity=100, time=136),\n",
       "    Message('note_on', channel=1, note=30, velocity=0, time=1496),\n",
       "    Message('note_on', channel=1, note=33, velocity=100, time=40),\n",
       "    Message('note_on', channel=1, note=33, velocity=0, time=952),\n",
       "    Message('note_on', channel=1, note=33, velocity=100, time=72),\n",
       "    Message('note_on', channel=1, note=45, velocity=100, time=128),\n",
       "    Message('note_on', channel=1, note=33, velocity=0, time=16),\n",
       "    Message('note_on', channel=1, note=45, velocity=0, time=92),\n",
       "    Message('note_on', channel=1, note=47, velocity=100, time=20),\n",
       "    Message('note_on', channel=1, note=47, velocity=0, time=128),\n",
       "    Message('note_on', channel=1, note=45, velocity=100, time=0),\n",
       "    Message('note_on', channel=1, note=45, velocity=0, time=100),\n",
       "    Message('note_on', channel=1, note=33, velocity=100, time=28),\n",
       "    Message('note_on', channel=1, note=33, velocity=0, time=936),\n",
       "    Message('note_on', channel=1, note=33, velocity=100, time=88),\n",
       "    Message('note_on', channel=1, note=33, velocity=0, time=436),\n",
       "    Message('note_on', channel=1, note=33, velocity=100, time=76),\n",
       "    Message('note_on', channel=1, note=33, velocity=0, time=960),\n",
       "    Message('note_on', channel=1, note=33, velocity=100, time=64),\n",
       "    Message('note_on', channel=1, note=45, velocity=100, time=128),\n",
       "    Message('note_on', channel=1, note=33, velocity=0, time=20),\n",
       "    Message('note_on', channel=1, note=45, velocity=0, time=84),\n",
       "    Message('note_on', channel=1, note=47, velocity=100, time=24),\n",
       "    Message('note_on', channel=1, note=47, velocity=0, time=124),\n",
       "    Message('note_on', channel=1, note=45, velocity=100, time=4),\n",
       "    Message('note_on', channel=1, note=45, velocity=0, time=120),\n",
       "    Message('note_on', channel=1, note=33, velocity=100, time=8),\n",
       "    Message('note_on', channel=1, note=33, velocity=0, time=896),\n",
       "    Message('note_on', channel=1, note=33, velocity=100, time=128),\n",
       "    Message('note_on', channel=1, note=33, velocity=0, time=440),\n",
       "    Message('note_on', channel=1, note=33, velocity=100, time=72),\n",
       "    Message('note_on', channel=1, note=33, velocity=0, time=932),\n",
       "    Message('note_on', channel=1, note=33, velocity=100, time=92),\n",
       "    Message('note_on', channel=1, note=45, velocity=100, time=128),\n",
       "    Message('note_on', channel=1, note=33, velocity=0, time=8),\n",
       "    Message('note_on', channel=1, note=45, velocity=0, time=92),\n",
       "    Message('note_on', channel=1, note=47, velocity=100, time=28),\n",
       "    Message('note_on', channel=1, note=47, velocity=0, time=112),\n",
       "    Message('note_on', channel=1, note=45, velocity=100, time=16),\n",
       "    Message('note_on', channel=1, note=45, velocity=0, time=88),\n",
       "    Message('note_on', channel=1, note=33, velocity=100, time=40),\n",
       "    Message('note_on', channel=1, note=33, velocity=0, time=932),\n",
       "    Message('note_on', channel=1, note=33, velocity=100, time=92),\n",
       "    Message('note_on', channel=1, note=33, velocity=0, time=424),\n",
       "    Message('note_on', channel=1, note=33, velocity=100, time=88),\n",
       "    Message('note_on', channel=1, note=33, velocity=0, time=944),\n",
       "    Message('note_on', channel=1, note=33, velocity=100, time=80),\n",
       "    Message('note_on', channel=1, note=33, velocity=0, time=404),\n",
       "    Message('note_on', channel=1, note=33, velocity=100, time=108),\n",
       "    Message('note_on', channel=1, note=33, velocity=0, time=696),\n",
       "    Message('note_on', channel=1, note=33, velocity=100, time=72),\n",
       "    Message('note_on', channel=1, note=33, velocity=0, time=280),\n",
       "    Message('note_on', channel=1, note=33, velocity=100, time=104),\n",
       "    Message('note_on', channel=1, note=33, velocity=0, time=304),\n",
       "    Message('note_on', channel=1, note=33, velocity=100, time=80),\n",
       "    Message('note_on', channel=1, note=33, velocity=0, time=944),\n",
       "    Message('note_on', channel=1, note=33, velocity=100, time=80),\n",
       "    Message('note_on', channel=1, note=33, velocity=0, time=404),\n",
       "    Message('note_on', channel=1, note=33, velocity=100, time=108),\n",
       "    Message('note_on', channel=1, note=33, velocity=0, time=696),\n",
       "    Message('note_on', channel=1, note=33, velocity=100, time=72),\n",
       "    Message('note_on', channel=1, note=33, velocity=0, time=280),\n",
       "    Message('note_on', channel=1, note=33, velocity=100, time=104),\n",
       "    Message('note_on', channel=1, note=33, velocity=0, time=304),\n",
       "    Message('note_on', channel=1, note=34, velocity=100, time=80),\n",
       "    Message('note_on', channel=1, note=34, velocity=0, time=508),\n",
       "    Message('note_on', channel=1, note=34, velocity=100, time=132),\n",
       "    Message('note_on', channel=1, note=34, velocity=0, time=128),\n",
       "    Message('note_on', channel=1, note=46, velocity=100, time=0),\n",
       "    Message('note_on', channel=1, note=46, velocity=0, time=224),\n",
       "    Message('note_on', channel=1, note=34, velocity=100, time=32),\n",
       "    Message('note_on', channel=1, note=34, velocity=0, time=144),\n",
       "    Message('note_on', channel=1, note=34, velocity=100, time=240),\n",
       "    Message('note_on', channel=1, note=42, velocity=100, time=128),\n",
       "    Message('note_on', channel=1, note=34, velocity=0, time=4),\n",
       "    Message('note_on', channel=1, note=42, velocity=0, time=540),\n",
       "    Message('note_on', channel=1, note=42, velocity=100, time=96),\n",
       "    Message('note_on', channel=1, note=42, velocity=0, time=124),\n",
       "    Message('note_on', channel=1, note=37, velocity=100, time=4),\n",
       "    Message('note_on', channel=1, note=37, velocity=0, time=256),\n",
       "    Message('note_on', channel=1, note=42, velocity=100, time=0),\n",
       "    Message('note_on', channel=1, note=42, velocity=0, time=304),\n",
       "    Message('note_on', channel=1, note=42, velocity=100, time=80),\n",
       "    Message('note_on', channel=1, note=42, velocity=0, time=124),\n",
       "    Message('note_on', channel=1, note=37, velocity=100, time=4),\n",
       "    Message('note_on', channel=1, note=37, velocity=0, time=532),\n",
       "    Message('note_on', channel=1, note=37, velocity=100, time=108),\n",
       "    Message('note_on', channel=1, note=37, velocity=0, time=116),\n",
       "    Message('note_on', channel=1, note=36, velocity=100, time=12),\n",
       "    Message('note_on', channel=1, note=36, velocity=0, time=244),\n",
       "    Message('note_on', channel=1, note=48, velocity=100, time=12),\n",
       "    Message('note_on', channel=1, note=48, velocity=0, time=360),\n",
       "    Message('note_on', channel=1, note=36, velocity=100, time=24),\n",
       "    Message('note_on', channel=1, note=39, velocity=100, time=128),\n",
       "    Message('note_on', channel=1, note=36, velocity=0, time=8),\n",
       "    Message('note_on', channel=1, note=39, velocity=0, time=568),\n",
       "    Message('note_on', channel=1, note=39, velocity=100, time=64),\n",
       "    Message('note_on', channel=1, note=39, velocity=0, time=124),\n",
       "    Message('note_on', channel=1, note=46, velocity=100, time=4),\n",
       "    Message('note_on', channel=1, note=46, velocity=0, time=232),\n",
       "    Message('note_on', channel=1, note=39, velocity=100, time=24),\n",
       "    Message('note_on', channel=1, note=39, velocity=0, time=312),\n",
       "    Message('note_on', channel=1, note=39, velocity=100, time=72),\n",
       "    Message('note_on', channel=1, note=39, velocity=0, time=124),\n",
       "    Message('note_on', channel=1, note=42, velocity=100, time=4),\n",
       "    Message('note_on', channel=1, note=42, velocity=0, time=552),\n",
       "    Message('note_on', channel=1, note=42, velocity=100, time=88),\n",
       "    Message('note_on', channel=1, note=30, velocity=100, time=128),\n",
       "    Message('note_on', channel=1, note=42, velocity=0, time=4),\n",
       "    Message('note_on', channel=1, note=30, velocity=0, time=240),\n",
       "    Message('note_on', channel=1, note=42, velocity=100, time=12),\n",
       "    Message('note_on', channel=1, note=42, velocity=0, time=328),\n",
       "    Message('note_on', channel=1, note=42, velocity=100, time=56),\n",
       "    Message('note_on', channel=1, note=41, velocity=100, time=128),\n",
       "    Message('note_on', channel=1, note=42, velocity=0, time=8),\n",
       "    Message('note_on', channel=1, note=41, velocity=0, time=536),\n",
       "    Message('note_on', channel=1, note=41, velocity=100, time=96),\n",
       "    Message('note_on', channel=1, note=39, velocity=100, time=128),\n",
       "    Message('note_on', channel=1, note=41, velocity=0, time=8),\n",
       "    Message('note_on', channel=1, note=39, velocity=0, time=328),\n",
       "    Message('note_on', channel=1, note=39, velocity=100, time=48),\n",
       "    Message('note_on', channel=1, note=39, velocity=0, time=372),\n",
       "    Message('note_on', channel=1, note=37, velocity=100, time=12),\n",
       "    Message('note_on', channel=1, note=37, velocity=0, time=516),\n",
       "    Message('note_on', channel=1, note=37, velocity=100, time=124),\n",
       "    Message('note_on', channel=1, note=37, velocity=0, time=128),\n",
       "    Message('note_on', channel=1, note=32, velocity=100, time=0),\n",
       "    Message('note_on', channel=1, note=32, velocity=0, time=284),\n",
       "    Message('note_on', channel=1, note=32, velocity=100, time=100),\n",
       "    Message('note_on', channel=1, note=32, velocity=0, time=384),\n",
       "    Message('note_on', channel=1, note=37, velocity=100, time=0),\n",
       "    Message('note_on', channel=1, note=37, velocity=0, time=240),\n",
       "    Message('note_on', channel=1, note=37, velocity=100, time=1296),\n",
       "    Message('note_on', channel=1, note=37, velocity=0, time=368),\n",
       "    Message('note_on', channel=1, note=34, velocity=100, time=16),\n",
       "    Message('note_on', channel=1, note=34, velocity=0, time=352),\n",
       "    Message('note_on', channel=1, note=32, velocity=100, time=32),\n",
       "    Message('note_on', channel=1, note=34, velocity=100, time=384),\n",
       "    Message('note_on', channel=1, note=32, velocity=0, time=20),\n",
       "    Message('note_on', channel=1, note=34, velocity=0, time=352),\n",
       "    Message('note_on', channel=1, note=37, velocity=100, time=12),\n",
       "    Message('note_on', channel=1, note=37, velocity=0, time=384),\n",
       "    Message('note_on', channel=1, note=34, velocity=100, time=0),\n",
       "    Message('note_on', channel=1, note=34, velocity=0, time=372),\n",
       "    Message('note_on', channel=1, note=32, velocity=100, time=12),\n",
       "    Message('note_on', channel=1, note=34, velocity=100, time=384),\n",
       "    Message('note_on', channel=1, note=32, velocity=0, time=16),\n",
       "    Message('note_on', channel=1, note=34, velocity=0, time=264),\n",
       "    Message('note_on', channel=1, note=39, velocity=100, time=104),\n",
       "    Message('note_on', channel=1, note=39, velocity=0, time=536),\n",
       "    Message('note_on', channel=1, note=39, velocity=100, time=104),\n",
       "    Message('note_on', channel=1, note=39, velocity=0, time=112),\n",
       "    Message('note_on', channel=1, note=37, velocity=100, time=16),\n",
       "    Message('note_on', channel=1, note=37, velocity=0, time=560),\n",
       "    Message('note_on', channel=1, note=37, velocity=100, time=80),\n",
       "    Message('note_on', channel=1, note=37, velocity=0, time=108),\n",
       "    Message('note_on', channel=1, note=36, velocity=100, time=20),\n",
       "    Message('note_on', channel=1, note=36, velocity=0, time=548),\n",
       "    Message('note_on', channel=1, note=36, velocity=100, time=92),\n",
       "    Message('note_on', channel=1, note=36, velocity=0, time=116),\n",
       "    Message('note_on', channel=1, note=32, velocity=100, time=12),\n",
       "    Message('note_on', channel=1, note=32, velocity=0, time=116),\n",
       "    Message('note_on', channel=1, note=32, velocity=100, time=140),\n",
       "    Message('note_on', channel=1, note=32, velocity=0, time=216),\n",
       "    Message('note_on', channel=1, note=32, velocity=100, time=40),\n",
       "    Message('note_on', channel=1, note=32, velocity=0, time=72),\n",
       "    Message('note_on', channel=1, note=33, velocity=100, time=56),\n",
       "    Message('note_on', channel=1, note=33, velocity=0, time=80),\n",
       "    Message('note_on', channel=1, note=34, velocity=100, time=48),\n",
       "    Message('note_on', channel=1, note=34, velocity=0, time=520),\n",
       "    Message('note_on', channel=1, note=34, velocity=100, time=120),\n",
       "    Message('note_on', channel=1, note=34, velocity=0, time=116),\n",
       "    Message('note_on', channel=1, note=32, velocity=100, time=12),\n",
       "    Message('note_on', channel=1, note=32, velocity=0, time=568),\n",
       "    Message('note_on', channel=1, note=32, velocity=100, time=72),\n",
       "    Message('note_on', channel=1, note=32, velocity=0, time=116),\n",
       "    Message('note_on', channel=1, note=30, velocity=100, time=12),\n",
       "    Message('note_on', channel=1, note=30, velocity=0, time=540),\n",
       "    Message('note_on', channel=1, note=30, velocity=100, time=100),\n",
       "    Message('note_on', channel=1, note=30, velocity=0, time=112),\n",
       "    Message('note_on', channel=1, note=31, velocity=100, time=16),\n",
       "    Message('note_on', channel=1, note=31, velocity=0, time=292),\n",
       "    Message('note_on', channel=1, note=31, velocity=100, time=92),\n",
       "    Message('note_on', channel=1, note=31, velocity=0, time=296),\n",
       "    Message('note_on', channel=1, note=32, velocity=100, time=88),\n",
       "    Message('note_on', channel=1, note=32, velocity=0, time=276),\n",
       "    Message('note_on', channel=1, note=32, velocity=100, time=108),\n",
       "    Message('note_on', channel=1, note=32, velocity=0, time=268),\n",
       "    Message('note_on', channel=1, note=33, velocity=100, time=116),\n",
       "    Message('note_on', channel=1, note=33, velocity=0, time=236),\n",
       "    Message('note_on', channel=1, note=33, velocity=100, time=148),\n",
       "    Message('note_on', channel=1, note=33, velocity=0, time=264),\n",
       "    Message('note_on', channel=1, note=34, velocity=100, time=120),\n",
       "    Message('note_on', channel=1, note=34, velocity=0, time=268),\n",
       "    Message('note_on', channel=1, note=34, velocity=100, time=116),\n",
       "    Message('note_on', channel=1, note=34, velocity=0, time=248),\n",
       "    Message('note_on', channel=1, note=30, velocity=100, time=136),\n",
       "    Message('note_on', channel=1, note=30, velocity=0, time=1532),\n",
       "    Message('note_on', channel=1, note=33, velocity=100, time=4),\n",
       "    Message('note_on', channel=1, note=33, velocity=0, time=952),\n",
       "    Message('note_on', channel=1, note=33, velocity=100, time=72),\n",
       "    Message('note_on', channel=1, note=45, velocity=100, time=128),\n",
       "    Message('note_on', channel=1, note=33, velocity=0, time=16),\n",
       "    Message('note_on', channel=1, note=45, velocity=0, time=92),\n",
       "    Message('note_on', channel=1, note=47, velocity=100, time=20),\n",
       "    Message('note_on', channel=1, note=47, velocity=0, time=128),\n",
       "    Message('note_on', channel=1, note=45, velocity=100, time=0),\n",
       "    Message('note_on', channel=1, note=45, velocity=0, time=100),\n",
       "    Message('note_on', channel=1, note=33, velocity=100, time=28),\n",
       "    Message('note_on', channel=1, note=33, velocity=0, time=936),\n",
       "    Message('note_on', channel=1, note=33, velocity=100, time=88),\n",
       "    Message('note_on', channel=1, note=33, velocity=0, time=436),\n",
       "    Message('note_on', channel=1, note=33, velocity=100, time=76),\n",
       "    Message('note_on', channel=1, note=33, velocity=0, time=960),\n",
       "    Message('note_on', channel=1, note=33, velocity=100, time=64),\n",
       "    Message('note_on', channel=1, note=45, velocity=100, time=128),\n",
       "    Message('note_on', channel=1, note=33, velocity=0, time=20),\n",
       "    Message('note_on', channel=1, note=45, velocity=0, time=84),\n",
       "    Message('note_on', channel=1, note=47, velocity=100, time=24),\n",
       "    Message('note_on', channel=1, note=47, velocity=0, time=124),\n",
       "    Message('note_on', channel=1, note=45, velocity=100, time=4),\n",
       "    Message('note_on', channel=1, note=45, velocity=0, time=120),\n",
       "    Message('note_on', channel=1, note=33, velocity=100, time=8),\n",
       "    Message('note_on', channel=1, note=33, velocity=0, time=896),\n",
       "    Message('note_on', channel=1, note=33, velocity=100, time=128),\n",
       "    Message('note_on', channel=1, note=33, velocity=0, time=440),\n",
       "    Message('note_on', channel=1, note=33, velocity=100, time=72),\n",
       "    Message('note_on', channel=1, note=33, velocity=0, time=932),\n",
       "    Message('note_on', channel=1, note=33, velocity=100, time=92),\n",
       "    Message('note_on', channel=1, note=45, velocity=100, time=128),\n",
       "    Message('note_on', channel=1, note=33, velocity=0, time=8),\n",
       "    Message('note_on', channel=1, note=45, velocity=0, time=92),\n",
       "    Message('note_on', channel=1, note=47, velocity=100, time=28),\n",
       "    Message('note_on', channel=1, note=47, velocity=0, time=112),\n",
       "    Message('note_on', channel=1, note=45, velocity=100, time=16),\n",
       "    Message('note_on', channel=1, note=45, velocity=0, time=88),\n",
       "    Message('note_on', channel=1, note=33, velocity=100, time=40),\n",
       "    Message('note_on', channel=1, note=33, velocity=0, time=932),\n",
       "    Message('note_on', channel=1, note=33, velocity=100, time=92),\n",
       "    Message('note_on', channel=1, note=33, velocity=0, time=424),\n",
       "    Message('note_on', channel=1, note=33, velocity=100, time=88),\n",
       "    Message('note_on', channel=1, note=33, velocity=0, time=944),\n",
       "    Message('note_on', channel=1, note=33, velocity=100, time=80),\n",
       "    Message('note_on', channel=1, note=33, velocity=0, time=404),\n",
       "    Message('note_on', channel=1, note=33, velocity=100, time=108),\n",
       "    Message('note_on', channel=1, note=33, velocity=0, time=696),\n",
       "    Message('note_on', channel=1, note=33, velocity=100, time=72),\n",
       "    Message('note_on', channel=1, note=33, velocity=0, time=280),\n",
       "    Message('note_on', channel=1, note=33, velocity=100, time=104),\n",
       "    Message('note_on', channel=1, note=33, velocity=0, time=304),\n",
       "    Message('note_on', channel=1, note=34, velocity=100, time=80),\n",
       "    Message('note_on', channel=1, note=34, velocity=0, time=508),\n",
       "    Message('note_on', channel=1, note=34, velocity=100, time=132),\n",
       "    Message('note_on', channel=1, note=34, velocity=0, time=128),\n",
       "    Message('note_on', channel=1, note=46, velocity=100, time=0),\n",
       "    Message('note_on', channel=1, note=46, velocity=0, time=224),\n",
       "    Message('note_on', channel=1, note=34, velocity=100, time=32),\n",
       "    Message('note_on', channel=1, note=34, velocity=0, time=144),\n",
       "    Message('note_on', channel=1, note=34, velocity=100, time=240),\n",
       "    Message('note_on', channel=1, note=42, velocity=100, time=128),\n",
       "    Message('note_on', channel=1, note=34, velocity=0, time=4),\n",
       "    Message('note_on', channel=1, note=42, velocity=0, time=540),\n",
       "    Message('note_on', channel=1, note=42, velocity=100, time=96),\n",
       "    Message('note_on', channel=1, note=42, velocity=0, time=124),\n",
       "    Message('note_on', channel=1, note=37, velocity=100, time=4),\n",
       "    Message('note_on', channel=1, note=37, velocity=0, time=256),\n",
       "    Message('note_on', channel=1, note=42, velocity=100, time=0),\n",
       "    Message('note_on', channel=1, note=42, velocity=0, time=304),\n",
       "    Message('note_on', channel=1, note=42, velocity=100, time=80),\n",
       "    Message('note_on', channel=1, note=42, velocity=0, time=124),\n",
       "    Message('note_on', channel=1, note=37, velocity=100, time=4),\n",
       "    Message('note_on', channel=1, note=37, velocity=0, time=532),\n",
       "    Message('note_on', channel=1, note=37, velocity=100, time=108),\n",
       "    Message('note_on', channel=1, note=37, velocity=0, time=116),\n",
       "    Message('note_on', channel=1, note=36, velocity=100, time=12),\n",
       "    Message('note_on', channel=1, note=36, velocity=0, time=244),\n",
       "    Message('note_on', channel=1, note=48, velocity=100, time=12),\n",
       "    Message('note_on', channel=1, note=48, velocity=0, time=360),\n",
       "    Message('note_on', channel=1, note=36, velocity=100, time=24),\n",
       "    Message('note_on', channel=1, note=39, velocity=100, time=128),\n",
       "    Message('note_on', channel=1, note=36, velocity=0, time=8),\n",
       "    Message('note_on', channel=1, note=39, velocity=0, time=568),\n",
       "    Message('note_on', channel=1, note=39, velocity=100, time=64),\n",
       "    Message('note_on', channel=1, note=39, velocity=0, time=124),\n",
       "    Message('note_on', channel=1, note=46, velocity=100, time=4),\n",
       "    Message('note_on', channel=1, note=46, velocity=0, time=232),\n",
       "    Message('note_on', channel=1, note=39, velocity=100, time=24),\n",
       "    Message('note_on', channel=1, note=39, velocity=0, time=312),\n",
       "    Message('note_on', channel=1, note=39, velocity=100, time=72),\n",
       "    Message('note_on', channel=1, note=39, velocity=0, time=124),\n",
       "    Message('note_on', channel=1, note=42, velocity=100, time=4),\n",
       "    Message('note_on', channel=1, note=42, velocity=0, time=552),\n",
       "    Message('note_on', channel=1, note=42, velocity=100, time=88),\n",
       "    Message('note_on', channel=1, note=30, velocity=100, time=128),\n",
       "    Message('note_on', channel=1, note=42, velocity=0, time=4),\n",
       "    Message('note_on', channel=1, note=30, velocity=0, time=240),\n",
       "    Message('note_on', channel=1, note=42, velocity=100, time=12),\n",
       "    Message('note_on', channel=1, note=42, velocity=0, time=328),\n",
       "    Message('note_on', channel=1, note=42, velocity=100, time=56),\n",
       "    Message('note_on', channel=1, note=41, velocity=100, time=128),\n",
       "    Message('note_on', channel=1, note=42, velocity=0, time=8),\n",
       "    Message('note_on', channel=1, note=41, velocity=0, time=536),\n",
       "    Message('note_on', channel=1, note=41, velocity=100, time=96),\n",
       "    Message('note_on', channel=1, note=39, velocity=100, time=128),\n",
       "    Message('note_on', channel=1, note=41, velocity=0, time=8),\n",
       "    Message('note_on', channel=1, note=39, velocity=0, time=328),\n",
       "    Message('note_on', channel=1, note=39, velocity=100, time=48),\n",
       "    Message('note_on', channel=1, note=39, velocity=0, time=372),\n",
       "    Message('note_on', channel=1, note=37, velocity=100, time=12),\n",
       "    Message('note_on', channel=1, note=37, velocity=0, time=516),\n",
       "    Message('note_on', channel=1, note=37, velocity=100, time=124),\n",
       "    Message('note_on', channel=1, note=37, velocity=0, time=128),\n",
       "    Message('note_on', channel=1, note=32, velocity=100, time=0),\n",
       "    Message('note_on', channel=1, note=32, velocity=0, time=284),\n",
       "    Message('note_on', channel=1, note=32, velocity=100, time=100),\n",
       "    Message('note_on', channel=1, note=32, velocity=0, time=384),\n",
       "    Message('note_on', channel=1, note=37, velocity=100, time=0),\n",
       "    Message('note_on', channel=1, note=37, velocity=0, time=516),\n",
       "    Message('note_on', channel=1, note=37, velocity=100, time=124),\n",
       "    Message('note_on', channel=1, note=37, velocity=0, time=128),\n",
       "    Message('note_on', channel=1, note=32, velocity=100, time=0),\n",
       "    Message('note_on', channel=1, note=32, velocity=0, time=284),\n",
       "    Message('note_on', channel=1, note=32, velocity=100, time=100),\n",
       "    Message('note_on', channel=1, note=32, velocity=0, time=384),\n",
       "    Message('note_on', channel=1, note=37, velocity=100, time=0),\n",
       "    Message('note_on', channel=1, note=37, velocity=0, time=516),\n",
       "    Message('note_on', channel=1, note=37, velocity=100, time=124),\n",
       "    Message('note_on', channel=1, note=37, velocity=0, time=128),\n",
       "    Message('note_on', channel=1, note=32, velocity=100, time=0),\n",
       "    Message('note_on', channel=1, note=32, velocity=0, time=284),\n",
       "    Message('note_on', channel=1, note=32, velocity=100, time=100),\n",
       "    Message('note_on', channel=1, note=32, velocity=0, time=384),\n",
       "    Message('note_on', channel=1, note=37, velocity=100, time=0),\n",
       "    Message('note_on', channel=1, note=37, velocity=0, time=516),\n",
       "    Message('note_on', channel=1, note=37, velocity=100, time=124),\n",
       "    Message('note_on', channel=1, note=37, velocity=0, time=128),\n",
       "    Message('note_on', channel=1, note=32, velocity=100, time=0),\n",
       "    Message('note_on', channel=1, note=32, velocity=0, time=284),\n",
       "    Message('note_on', channel=1, note=32, velocity=100, time=100),\n",
       "    Message('note_on', channel=1, note=32, velocity=0, time=384),\n",
       "    Message('note_on', channel=1, note=37, velocity=100, time=0),\n",
       "    Message('note_on', channel=1, note=37, velocity=0, time=516),\n",
       "    Message('note_on', channel=1, note=37, velocity=100, time=124),\n",
       "    Message('note_on', channel=1, note=37, velocity=0, time=128),\n",
       "    Message('note_on', channel=1, note=32, velocity=100, time=0),\n",
       "    Message('note_on', channel=1, note=32, velocity=0, time=284),\n",
       "    Message('note_on', channel=1, note=32, velocity=100, time=100),\n",
       "    Message('note_on', channel=1, note=32, velocity=0, time=384),\n",
       "    Message('note_on', channel=1, note=37, velocity=100, time=0),\n",
       "    Message('note_on', channel=1, note=37, velocity=0, time=516),\n",
       "    Message('note_on', channel=1, note=37, velocity=100, time=124),\n",
       "    Message('note_on', channel=1, note=37, velocity=0, time=128),\n",
       "    Message('note_on', channel=1, note=32, velocity=100, time=0),\n",
       "    Message('note_on', channel=1, note=32, velocity=0, time=284),\n",
       "    Message('note_on', channel=1, note=32, velocity=100, time=100),\n",
       "    Message('note_on', channel=1, note=32, velocity=0, time=384),\n",
       "    Message('note_on', channel=1, note=37, velocity=100, time=0),\n",
       "    Message('note_on', channel=1, note=37, velocity=0, time=516),\n",
       "    Message('note_on', channel=1, note=37, velocity=100, time=124),\n",
       "    Message('note_on', channel=1, note=37, velocity=0, time=128),\n",
       "    Message('note_on', channel=1, note=32, velocity=100, time=0),\n",
       "    Message('note_on', channel=1, note=32, velocity=0, time=284),\n",
       "    Message('note_on', channel=1, note=32, velocity=100, time=100),\n",
       "    Message('note_on', channel=1, note=32, velocity=0, time=384),\n",
       "    Message('note_on', channel=1, note=37, velocity=100, time=0),\n",
       "    Message('note_on', channel=1, note=37, velocity=0, time=516),\n",
       "    Message('note_on', channel=1, note=37, velocity=100, time=124),\n",
       "    Message('note_on', channel=1, note=37, velocity=0, time=128),\n",
       "    Message('note_on', channel=1, note=32, velocity=100, time=0),\n",
       "    Message('note_on', channel=1, note=32, velocity=0, time=284),\n",
       "    Message('note_on', channel=1, note=32, velocity=100, time=100),\n",
       "    Message('note_on', channel=1, note=32, velocity=0, time=384),\n",
       "    Message('note_on', channel=1, note=37, velocity=100, time=0),\n",
       "    Message('note_on', channel=1, note=37, velocity=0, time=516),\n",
       "    Message('note_on', channel=1, note=37, velocity=100, time=124),\n",
       "    Message('note_on', channel=1, note=37, velocity=0, time=128),\n",
       "    Message('note_on', channel=1, note=32, velocity=100, time=0),\n",
       "    Message('note_on', channel=1, note=32, velocity=0, time=284),\n",
       "    Message('note_on', channel=1, note=32, velocity=100, time=100),\n",
       "    Message('note_on', channel=1, note=32, velocity=0, time=384),\n",
       "    Message('note_on', channel=1, note=37, velocity=100, time=0),\n",
       "    Message('note_on', channel=1, note=37, velocity=0, time=516),\n",
       "    Message('note_on', channel=1, note=37, velocity=100, time=124),\n",
       "    Message('note_on', channel=1, note=37, velocity=0, time=128),\n",
       "    Message('note_on', channel=1, note=32, velocity=100, time=0),\n",
       "    Message('note_on', channel=1, note=32, velocity=0, time=284),\n",
       "    Message('note_on', channel=1, note=32, velocity=100, time=100),\n",
       "    Message('note_on', channel=1, note=32, velocity=0, time=384),\n",
       "    Message('note_on', channel=1, note=37, velocity=100, time=0),\n",
       "    Message('note_on', channel=1, note=37, velocity=0, time=516),\n",
       "    Message('note_on', channel=1, note=37, velocity=100, time=124),\n",
       "    Message('note_on', channel=1, note=37, velocity=0, time=128),\n",
       "    Message('note_on', channel=1, note=32, velocity=100, time=0),\n",
       "    Message('note_on', channel=1, note=32, velocity=0, time=284),\n",
       "    Message('note_on', channel=1, note=32, velocity=100, time=100),\n",
       "    Message('note_on', channel=1, note=32, velocity=0, time=384),\n",
       "    Message('note_on', channel=1, note=37, velocity=100, time=0),\n",
       "    Message('note_on', channel=1, note=37, velocity=0, time=516),\n",
       "    Message('note_on', channel=1, note=37, velocity=100, time=124),\n",
       "    Message('note_on', channel=1, note=37, velocity=0, time=128),\n",
       "    Message('note_on', channel=1, note=32, velocity=100, time=0),\n",
       "    Message('note_on', channel=1, note=32, velocity=0, time=284),\n",
       "    Message('note_on', channel=1, note=32, velocity=100, time=100),\n",
       "    Message('note_on', channel=1, note=32, velocity=0, time=384),\n",
       "    Message('note_on', channel=1, note=37, velocity=100, time=0),\n",
       "    Message('note_on', channel=1, note=37, velocity=0, time=516),\n",
       "    Message('note_on', channel=1, note=37, velocity=100, time=124),\n",
       "    Message('note_on', channel=1, note=37, velocity=0, time=128),\n",
       "    Message('note_on', channel=1, note=32, velocity=100, time=0),\n",
       "    Message('note_on', channel=1, note=32, velocity=0, time=284),\n",
       "    Message('note_on', channel=1, note=32, velocity=100, time=100),\n",
       "    Message('note_on', channel=1, note=32, velocity=0, time=384),\n",
       "    Message('note_on', channel=1, note=37, velocity=100, time=0),\n",
       "    Message('note_on', channel=1, note=37, velocity=0, time=516),\n",
       "    Message('note_on', channel=1, note=37, velocity=100, time=124),\n",
       "    Message('note_on', channel=1, note=37, velocity=0, time=128),\n",
       "    Message('note_on', channel=1, note=32, velocity=100, time=0),\n",
       "    Message('note_on', channel=1, note=32, velocity=0, time=284),\n",
       "    Message('note_on', channel=1, note=32, velocity=100, time=100),\n",
       "    Message('note_on', channel=1, note=32, velocity=0, time=384),\n",
       "    Message('note_on', channel=1, note=37, velocity=100, time=0),\n",
       "    Message('note_on', channel=1, note=37, velocity=0, time=516),\n",
       "    Message('note_on', channel=1, note=37, velocity=100, time=124),\n",
       "    Message('note_on', channel=1, note=37, velocity=0, time=128),\n",
       "    Message('note_on', channel=1, note=32, velocity=100, time=0),\n",
       "    Message('note_on', channel=1, note=32, velocity=0, time=284),\n",
       "    Message('note_on', channel=1, note=32, velocity=100, time=100),\n",
       "    Message('note_on', channel=1, note=32, velocity=0, time=384),\n",
       "    Message('note_on', channel=1, note=37, velocity=100, time=0),\n",
       "    Message('note_on', channel=1, note=37, velocity=0, time=176),\n",
       "    MetaMessage('end_of_track', time=0)]),\n",
       "  MidiTrack([\n",
       "    MetaMessage('midi_port', port=0, time=0),\n",
       "    MetaMessage('track_name', name='piano    ', time=0),\n",
       "    Message('control_change', channel=2, control=0, value=0, time=492),\n",
       "    Message('control_change', channel=2, control=32, value=0, time=0),\n",
       "    Message('program_change', channel=2, program=0, time=0),\n",
       "    Message('control_change', channel=2, control=7, value=100, time=4),\n",
       "    Message('control_change', channel=2, control=10, value=64, time=0),\n",
       "    Message('control_change', channel=2, control=11, value=127, time=0),\n",
       "    Message('control_change', channel=2, control=91, value=110, time=4),\n",
       "    Message('control_change', channel=2, control=93, value=0, time=0),\n",
       "    Message('note_on', channel=2, note=45, velocity=127, time=2572),\n",
       "    Message('note_on', channel=2, note=55, velocity=127, time=0),\n",
       "    Message('note_on', channel=2, note=59, velocity=127, time=0),\n",
       "    Message('note_on', channel=2, note=62, velocity=127, time=0),\n",
       "    Message('note_on', channel=2, note=67, velocity=127, time=0),\n",
       "    Message('control_change', channel=2, control=64, value=127, time=56),\n",
       "    Message('note_on', channel=2, note=55, velocity=0, time=588),\n",
       "    Message('note_on', channel=2, note=45, velocity=0, time=36),\n",
       "    Message('note_on', channel=2, note=59, velocity=0, time=4),\n",
       "    Message('note_on', channel=2, note=62, velocity=0, time=12),\n",
       "    Message('note_on', channel=2, note=67, velocity=0, time=0),\n",
       "    Message('note_on', channel=2, note=45, velocity=127, time=72),\n",
       "    Message('note_on', channel=2, note=55, velocity=127, time=256),\n",
       "    Message('note_on', channel=2, note=59, velocity=127, time=0),\n",
       "    Message('note_on', channel=2, note=62, velocity=127, time=0),\n",
       "    Message('note_on', channel=2, note=67, velocity=127, time=0),\n",
       "    Message('note_on', channel=2, note=45, velocity=0, time=12),\n",
       "    Message('note_on', channel=2, note=45, velocity=127, time=116),\n",
       "    Message('note_on', channel=2, note=55, velocity=0, time=52),\n",
       "    Message('note_on', channel=2, note=67, velocity=0, time=36),\n",
       "    Message('note_on', channel=2, note=59, velocity=0, time=20),\n",
       "    Message('note_on', channel=2, note=62, velocity=0, time=12),\n",
       "    Message('note_on', channel=2, note=55, velocity=127, time=8),\n",
       "    Message('note_on', channel=2, note=45, velocity=0, time=56),\n",
       "    Message('note_on', channel=2, note=55, velocity=0, time=28),\n",
       "    Message('note_on', channel=2, note=59, velocity=127, time=44),\n",
       "    Message('note_on', channel=2, note=59, velocity=0, time=44),\n",
       "    Message('control_change', channel=2, control=64, value=0, time=52),\n",
       "    Message('note_on', channel=2, note=45, velocity=127, time=32),\n",
       "    Message('note_on', channel=2, note=57, velocity=127, time=0),\n",
       "    Message('note_on', channel=2, note=62, velocity=127, time=0),\n",
       "    Message('note_on', channel=2, note=66, velocity=127, time=0),\n",
       "    Message('control_change', channel=2, control=64, value=127, time=356),\n",
       "    Message('note_on', channel=2, note=45, velocity=0, time=276),\n",
       "    Message('note_on', channel=2, note=45, velocity=127, time=136),\n",
       "    Message('note_on', channel=2, note=66, velocity=0, time=48),\n",
       "    Message('note_on', channel=2, note=57, velocity=0, time=4),\n",
       "    Message('note_on', channel=2, note=62, velocity=0, time=12),\n",
       "    Message('note_on', channel=2, note=45, velocity=0, time=168),\n",
       "    Message('note_on', channel=2, note=57, velocity=127, time=24),\n",
       "    Message('note_on', channel=2, note=62, velocity=127, time=0),\n",
       "    Message('note_on', channel=2, note=66, velocity=126, time=0),\n",
       "    Message('note_on', channel=2, note=45, velocity=127, time=128),\n",
       "    Message('note_on', channel=2, note=57, velocity=0, time=36),\n",
       "    Message('note_on', channel=2, note=66, velocity=0, time=32),\n",
       "    Message('note_on', channel=2, note=62, velocity=0, time=4),\n",
       "    Message('note_on', channel=2, note=57, velocity=127, time=56),\n",
       "    Message('note_on', channel=2, note=45, velocity=0, time=56),\n",
       "    Message('note_on', channel=2, note=57, velocity=0, time=40),\n",
       "    Message('note_on', channel=2, note=62, velocity=127, time=32),\n",
       "    Message('note_on', channel=2, note=62, velocity=0, time=44),\n",
       "    Message('control_change', channel=2, control=64, value=0, time=36),\n",
       "    Message('note_on', channel=2, note=45, velocity=127, time=48),\n",
       "    Message('note_on', channel=2, note=55, velocity=127, time=0),\n",
       "    Message('note_on', channel=2, note=57, velocity=127, time=0),\n",
       "    Message('note_on', channel=2, note=59, velocity=127, time=0),\n",
       "    Message('note_on', channel=2, note=64, velocity=122, time=0),\n",
       "    Message('note_on', channel=2, note=59, velocity=0, time=148),\n",
       "    Message('control_change', channel=2, control=64, value=127, time=220),\n",
       "    Message('note_on', channel=2, note=45, velocity=0, time=232),\n",
       "    Message('note_on', channel=2, note=45, velocity=122, time=168),\n",
       "    Message('note_on', channel=2, note=57, velocity=0, time=60),\n",
       "    Message('note_on', channel=2, note=64, velocity=0, time=12),\n",
       "    Message('note_on', channel=2, note=55, velocity=0, time=0),\n",
       "    Message('note_on', channel=2, note=55, velocity=127, time=184),\n",
       "    Message('note_on', channel=2, note=57, velocity=127, time=0),\n",
       "    Message('note_on', channel=2, note=64, velocity=127, time=0),\n",
       "    Message('note_on', channel=2, note=45, velocity=0, time=52),\n",
       "    Message('note_on', channel=2, note=45, velocity=122, time=76),\n",
       "    Message('note_on', channel=2, note=55, velocity=0, time=56),\n",
       "    Message('note_on', channel=2, note=55, velocity=127, time=72),\n",
       "    Message('note_on', channel=2, note=64, velocity=0, time=4),\n",
       "    Message('note_on', channel=2, note=57, velocity=0, time=0),\n",
       "    Message('note_on', channel=2, note=45, velocity=0, time=8),\n",
       "    Message('note_on', channel=2, note=55, velocity=0, time=52),\n",
       "    Message('note_on', channel=2, note=45, velocity=122, time=64),\n",
       "    Message('note_on', channel=2, note=45, velocity=0, time=76),\n",
       "    Message('control_change', channel=2, control=64, value=0, time=16),\n",
       "    Message('note_on', channel=2, note=45, velocity=127, time=36),\n",
       "    Message('note_on', channel=2, note=57, velocity=127, time=0),\n",
       "    Message('note_on', channel=2, note=62, velocity=127, time=0),\n",
       "    Message('note_on', channel=2, note=66, velocity=126, time=0),\n",
       "    Message('control_change', channel=2, control=64, value=127, time=324),\n",
       "    Message('note_on', channel=2, note=45, velocity=0, time=316),\n",
       "    Message('note_on', channel=2, note=57, velocity=0, time=88),\n",
       "    Message('note_on', channel=2, note=66, velocity=0, time=0),\n",
       "    Message('note_on', channel=2, note=62, velocity=0, time=8),\n",
       "    Message('note_on', channel=2, note=45, velocity=127, time=32),\n",
       "    Message('note_on', channel=2, note=57, velocity=127, time=256),\n",
       "    Message('note_on', channel=2, note=62, velocity=127, time=0),\n",
       "    Message('note_on', channel=2, note=66, velocity=126, time=0),\n",
       "    Message('note_on', channel=2, note=69, velocity=127, time=0),\n",
       "    Message('note_on', channel=2, note=45, velocity=0, time=16),\n",
       "    Message('note_on', channel=2, note=45, velocity=127, time=112),\n",
       "    Message('note_on', channel=2, note=57, velocity=0, time=40),\n",
       "    Message('note_on', channel=2, note=69, velocity=0, time=24),\n",
       "    Message('note_on', channel=2, note=62, velocity=0, time=48),\n",
       "    Message('note_on', channel=2, note=66, velocity=0, time=12),\n",
       "    Message('note_on', channel=2, note=57, velocity=127, time=4),\n",
       "    Message('note_on', channel=2, note=45, velocity=0, time=16),\n",
       "    Message('note_on', channel=2, note=57, velocity=0, time=52),\n",
       "    Message('note_on', channel=2, note=45, velocity=122, time=60),\n",
       "    Message('note_on', channel=2, note=45, velocity=0, time=72),\n",
       "    Message('control_change', channel=2, control=64, value=0, time=20),\n",
       "    Message('note_on', channel=2, note=45, velocity=127, time=36),\n",
       "    Message('note_on', channel=2, note=55, velocity=127, time=0),\n",
       "    Message('note_on', channel=2, note=59, velocity=127, time=0),\n",
       "    Message('note_on', channel=2, note=62, velocity=127, time=0),\n",
       "    Message('note_on', channel=2, note=67, velocity=127, time=0),\n",
       "    Message('control_change', channel=2, control=64, value=127, time=336),\n",
       "    Message('note_on', channel=2, note=45, velocity=0, time=304),\n",
       "    Message('note_on', channel=2, note=45, velocity=127, time=128),\n",
       "    Message('note_on', channel=2, note=59, velocity=0, time=20),\n",
       "    Message('note_on', channel=2, note=67, velocity=0, time=4),\n",
       "    Message('note_on', channel=2, note=55, velocity=0, time=0),\n",
       "    Message('note_on', channel=2, note=62, velocity=0, time=0),\n",
       "    Message('note_on', channel=2, note=55, velocity=127, time=232),\n",
       "    Message('note_on', channel=2, note=59, velocity=127, time=0),\n",
       "    Message('note_on', channel=2, note=62, velocity=127, time=0),\n",
       "    Message('note_on', channel=2, note=67, velocity=127, time=0),\n",
       "    Message('note_on', channel=2, note=45, velocity=0, time=132),\n",
       "    Message('note_on', channel=2, note=55, velocity=0, time=40),\n",
       "    Message('note_on', channel=2, note=59, velocity=0, time=64),\n",
       "    Message('note_on', channel=2, note=67, velocity=0, time=12),\n",
       "    Message('note_on', channel=2, note=55, velocity=127, time=8),\n",
       "    Message('note_on', channel=2, note=62, velocity=0, time=88),\n",
       "    Message('note_on', channel=2, note=55, velocity=0, time=12),\n",
       "    Message('note_on', channel=2, note=59, velocity=127, time=28),\n",
       "    Message('note_on', channel=2, note=59, velocity=0, time=40),\n",
       "    Message('control_change', channel=2, control=64, value=0, time=36),\n",
       "    Message('note_on', channel=2, note=45, velocity=127, time=52),\n",
       "    Message('note_on', channel=2, note=57, velocity=127, time=0),\n",
       "    Message('note_on', channel=2, note=62, velocity=127, time=0),\n",
       "    Message('note_on', channel=2, note=66, velocity=127, time=0),\n",
       "    Message('control_change', channel=2, control=64, value=127, time=320),\n",
       "    Message('note_on', channel=2, note=45, velocity=0, time=320),\n",
       "    Message('note_on', channel=2, note=45, velocity=127, time=128),\n",
       "    Message('note_on', channel=2, note=66, velocity=0, time=20),\n",
       "    Message('note_on', channel=2, note=57, velocity=0, time=12),\n",
       "    Message('note_on', channel=2, note=62, velocity=0, time=0),\n",
       "    Message('note_on', channel=2, note=45, velocity=0, time=212),\n",
       "    Message('note_on', channel=2, note=57, velocity=127, time=12),\n",
       "    Message('note_on', channel=2, note=62, velocity=127, time=0),\n",
       "    Message('note_on', channel=2, note=66, velocity=127, time=0),\n",
       "    Message('note_on', channel=2, note=45, velocity=127, time=128),\n",
       "    Message('note_on', channel=2, note=57, velocity=0, time=36),\n",
       "    Message('note_on', channel=2, note=66, velocity=0, time=12),\n",
       "    Message('note_on', channel=2, note=62, velocity=0, time=52),\n",
       "    Message('note_on', channel=2, note=57, velocity=127, time=28),\n",
       "    Message('note_on', channel=2, note=45, velocity=0, time=40),\n",
       "    Message('note_on', channel=2, note=57, velocity=0, time=52),\n",
       "    Message('note_on', channel=2, note=62, velocity=127, time=36),\n",
       "    Message('note_on', channel=2, note=62, velocity=0, time=36),\n",
       "    Message('control_change', channel=2, control=64, value=0, time=40),\n",
       "    Message('note_on', channel=2, note=45, velocity=127, time=52),\n",
       "    Message('note_on', channel=2, note=55, velocity=127, time=0),\n",
       "    Message('note_on', channel=2, note=57, velocity=127, time=0),\n",
       "    Message('note_on', channel=2, note=60, velocity=127, time=0),\n",
       "    Message('note_on', channel=2, note=64, velocity=127, time=0),\n",
       "    Message('control_change', channel=2, control=64, value=127, time=424),\n",
       "    Message('note_on', channel=2, note=55, velocity=0, time=808),\n",
       "    Message('note_on', channel=2, note=60, velocity=0, time=8),\n",
       "    Message('note_on', channel=2, note=57, velocity=0, time=0),\n",
       "    Message('note_on', channel=2, note=64, velocity=0, time=8),\n",
       "    Message('note_on', channel=2, note=45, velocity=0, time=4),\n",
       "    Message('control_change', channel=2, control=64, value=0, time=1780),\n",
       "    Message('note_on', channel=2, note=46, velocity=124, time=40),\n",
       "    Message('note_on', channel=2, note=53, velocity=110, time=0),\n",
       "    Message('note_on', channel=2, note=58, velocity=100, time=0),\n",
       "    Message('note_on', channel=2, note=61, velocity=114, time=0),\n",
       "    Message('note_on', channel=2, note=65, velocity=110, time=0),\n",
       "    Message('note_on', channel=2, note=58, velocity=0, time=96),\n",
       "    Message('note_on', channel=2, note=61, velocity=0, time=4),\n",
       "    Message('note_on', channel=2, note=46, velocity=0, time=28),\n",
       "    Message('note_on', channel=2, note=53, velocity=0, time=0),\n",
       "    Message('note_on', channel=2, note=65, velocity=0, time=8),\n",
       "    Message('note_on', channel=2, note=53, velocity=110, time=248),\n",
       "    Message('note_on', channel=2, note=58, velocity=124, time=0),\n",
       "    Message('note_on', channel=2, note=61, velocity=114, time=0),\n",
       "    Message('note_on', channel=2, note=65, velocity=110, time=0),\n",
       "    Message('note_on', channel=2, note=65, velocity=0, time=240),\n",
       "    Message('note_on', channel=2, note=61, velocity=0, time=8),\n",
       "    Message('note_on', channel=2, note=58, velocity=0, time=0),\n",
       "    Message('note_on', channel=2, note=53, velocity=0, time=4),\n",
       "    Message('note_on', channel=2, note=46, velocity=100, time=4),\n",
       "    Message('note_on', channel=2, note=46, velocity=0, time=120),\n",
       "    Message('note_on', channel=2, note=53, velocity=110, time=8),\n",
       "    Message('note_on', channel=2, note=58, velocity=100, time=0),\n",
       "    Message('note_on', channel=2, note=61, velocity=100, time=0),\n",
       "    Message('note_on', channel=2, note=65, velocity=95, time=0),\n",
       "    Message('note_on', channel=2, note=65, velocity=0, time=232),\n",
       "    Message('note_on', channel=2, note=53, velocity=0, time=8),\n",
       "    Message('note_on', channel=2, note=61, velocity=0, time=4),\n",
       "    Message('note_on', channel=2, note=58, velocity=0, time=0),\n",
       "    Message('note_on', channel=2, note=46, velocity=114, time=12),\n",
       "    Message('note_on', channel=2, note=46, velocity=0, time=104),\n",
       "    Message('note_on', channel=2, note=53, velocity=121, time=24),\n",
       "    Message('note_on', channel=2, note=58, velocity=114, time=0),\n",
       "    Message('note_on', channel=2, note=61, velocity=114, time=0),\n",
       "    Message('note_on', channel=2, note=65, velocity=110, time=0),\n",
       "    Message('note_on', channel=2, note=65, velocity=0, time=184),\n",
       "    Message('note_on', channel=2, note=53, velocity=0, time=0),\n",
       "    Message('note_on', channel=2, note=61, velocity=0, time=16),\n",
       "    Message('note_on', channel=2, note=58, velocity=0, time=8),\n",
       "    Message('note_on', channel=2, note=46, velocity=114, time=48),\n",
       "    Message('note_on', channel=2, note=46, velocity=0, time=72),\n",
       "    Message('note_on', channel=2, note=42, velocity=100, time=56),\n",
       "    Message('note_on', channel=2, note=54, velocity=114, time=0),\n",
       "    Message('note_on', channel=2, note=58, velocity=100, time=0),\n",
       "    Message('note_on', channel=2, note=61, velocity=114, time=0),\n",
       "    Message('note_on', channel=2, note=63, velocity=114, time=0),\n",
       "    Message('note_on', channel=2, note=42, velocity=0, time=132),\n",
       "    Message('note_on', channel=2, note=54, velocity=0, time=4),\n",
       "    Message('note_on', channel=2, note=58, velocity=0, time=4),\n",
       "    Message('note_on', channel=2, note=61, velocity=0, time=4),\n",
       "    Message('note_on', channel=2, note=63, velocity=0, time=0),\n",
       "    Message('note_on', channel=2, note=54, velocity=114, time=240),\n",
       "    Message('note_on', channel=2, note=58, velocity=124, time=0),\n",
       "    Message('note_on', channel=2, note=61, velocity=114, time=0),\n",
       "    Message('note_on', channel=2, note=63, velocity=114, time=0),\n",
       "    Message('note_on', channel=2, note=42, velocity=100, time=256),\n",
       "    Message('note_on', channel=2, note=63, velocity=0, time=8),\n",
       "    Message('note_on', channel=2, note=54, velocity=0, time=4),\n",
       "    Message('note_on', channel=2, note=58, velocity=0, time=8),\n",
       "    Message('note_on', channel=2, note=61, velocity=0, time=0),\n",
       "    Message('note_on', channel=2, note=42, velocity=0, time=108),\n",
       "    Message('note_on', channel=2, note=54, velocity=100, time=0),\n",
       "    Message('note_on', channel=2, note=58, velocity=100, time=0),\n",
       "    Message('note_on', channel=2, note=61, velocity=100, time=0),\n",
       "    Message('note_on', channel=2, note=63, velocity=114, time=0),\n",
       "    Message('note_on', channel=2, note=63, velocity=0, time=252),\n",
       "    Message('note_on', channel=2, note=54, velocity=0, time=4),\n",
       "    Message('note_on', channel=2, note=42, velocity=114, time=0),\n",
       "    Message('note_on', channel=2, note=61, velocity=0, time=8),\n",
       "    Message('note_on', channel=2, note=58, velocity=0, time=4),\n",
       "    Message('note_on', channel=2, note=42, velocity=0, time=100),\n",
       "    Message('note_on', channel=2, note=54, velocity=114, time=16),\n",
       "    Message('note_on', channel=2, note=58, velocity=114, time=0),\n",
       "    Message('note_on', channel=2, note=61, velocity=114, time=0),\n",
       "    Message('note_on', channel=2, note=63, velocity=114, time=0),\n",
       "    Message('note_on', channel=2, note=63, velocity=0, time=180),\n",
       "    Message('note_on', channel=2, note=54, velocity=0, time=20),\n",
       "    Message('note_on', channel=2, note=61, velocity=0, time=8),\n",
       "    Message('note_on', channel=2, note=58, velocity=0, time=4),\n",
       "    Message('note_on', channel=2, note=42, velocity=114, time=44),\n",
       "    Message('note_on', channel=2, note=42, velocity=0, time=68),\n",
       "    Message('note_on', channel=2, note=37, velocity=114, time=60),\n",
       "    Message('note_on', channel=2, note=53, velocity=95, time=0),\n",
       "    Message('note_on', channel=2, note=56, velocity=114, time=0),\n",
       "    Message('note_on', channel=2, note=61, velocity=100, time=0),\n",
       "    Message('note_on', channel=2, note=56, velocity=0, time=136),\n",
       "    Message('note_on', channel=2, note=61, velocity=0, time=24),\n",
       "    Message('note_on', channel=2, note=53, velocity=0, time=0),\n",
       "    Message('note_on', channel=2, note=37, velocity=0, time=4),\n",
       "    Message('note_on', channel=2, note=53, velocity=121, time=220),\n",
       "    Message('note_on', channel=2, note=56, velocity=124, time=0),\n",
       "    Message('note_on', channel=2, note=61, velocity=124, time=0),\n",
       "    Message('note_on', channel=2, note=61, velocity=0, time=196),\n",
       "    Message('note_on', channel=2, note=56, velocity=0, time=8),\n",
       "    Message('note_on', channel=2, note=53, velocity=0, time=8),\n",
       "    Message('note_on', channel=2, note=37, velocity=84, time=44),\n",
       "    Message('note_on', channel=2, note=37, velocity=0, time=44),\n",
       "    Message('note_on', channel=2, note=36, velocity=110, time=84),\n",
       "    Message('note_on', channel=2, note=51, velocity=100, time=0),\n",
       "    Message('note_on', channel=2, note=56, velocity=114, time=0),\n",
       "    Message('note_on', channel=2, note=60, velocity=121, time=0),\n",
       "    Message('note_on', channel=2, note=60, velocity=0, time=216),\n",
       "    Message('note_on', channel=2, note=56, velocity=0, time=8),\n",
       "    Message('note_on', channel=2, note=51, velocity=0, time=88),\n",
       "    Message('note_on', channel=2, note=51, velocity=124, time=72),\n",
       "    Message('note_on', channel=2, note=56, velocity=124, time=0),\n",
       "    Message('note_on', channel=2, note=60, velocity=121, time=0),\n",
       "    Message('note_on', channel=2, note=36, velocity=0, time=48),\n",
       "    Message('note_on', channel=2, note=56, velocity=0, time=120),\n",
       "    Message('note_on', channel=2, note=51, velocity=0, time=12),\n",
       "    Message('note_on', channel=2, note=60, velocity=0, time=0),\n",
       "    Message('note_on', channel=2, note=36, velocity=121, time=76),\n",
       "    Message('note_on', channel=2, note=36, velocity=0, time=80),\n",
       "    Message('note_on', channel=2, note=39, velocity=114, time=48),\n",
       "    Message('note_on', channel=2, note=51, velocity=100, time=0),\n",
       "    Message('note_on', channel=2, note=55, velocity=110, time=0),\n",
       "    Message('note_on', channel=2, note=58, velocity=100, time=0),\n",
       "    Message('note_on', channel=2, note=51, velocity=0, time=124),\n",
       "    Message('note_on', channel=2, note=39, velocity=0, time=0),\n",
       "    Message('note_on', channel=2, note=58, velocity=0, time=4),\n",
       "    Message('note_on', channel=2, note=55, velocity=0, time=8),\n",
       "    Message('note_on', channel=2, note=51, velocity=114, time=248),\n",
       "    Message('note_on', channel=2, note=55, velocity=124, time=0),\n",
       "    Message('note_on', channel=2, note=58, velocity=114, time=0),\n",
       "    Message('note_on', channel=2, note=51, velocity=0, time=256),\n",
       "    Message('note_on', channel=2, note=39, velocity=100, time=0),\n",
       "    Message('note_on', channel=2, note=58, velocity=0, time=8),\n",
       "    Message('note_on', channel=2, note=55, velocity=0, time=20),\n",
       "    Message('note_on', channel=2, note=39, velocity=0, time=96),\n",
       "    Message('note_on', channel=2, note=51, velocity=114, time=4),\n",
       "    Message('note_on', channel=2, note=55, velocity=121, time=0),\n",
       "    Message('note_on', channel=2, note=58, velocity=114, time=0),\n",
       "    Message('note_on', channel=2, note=39, velocity=100, time=256),\n",
       "    Message('note_on', channel=2, note=51, velocity=0, time=8),\n",
       "    Message('note_on', channel=2, note=58, velocity=0, time=24),\n",
       "    Message('note_on', channel=2, note=55, velocity=0, time=8),\n",
       "    Message('note_on', channel=2, note=39, velocity=0, time=84),\n",
       "    Message('note_on', channel=2, note=51, velocity=114, time=4),\n",
       "    Message('note_on', channel=2, note=55, velocity=121, time=0),\n",
       "    Message('note_on', channel=2, note=58, velocity=114, time=0),\n",
       "    Message('note_on', channel=2, note=63, velocity=100, time=0),\n",
       "    Message('note_on', channel=2, note=63, velocity=0, time=184),\n",
       "    Message('note_on', channel=2, note=51, velocity=0, time=32),\n",
       "    Message('note_on', channel=2, note=55, velocity=0, time=0),\n",
       "    Message('note_on', channel=2, note=58, velocity=0, time=8),\n",
       "    Message('note_on', channel=2, note=39, velocity=114, time=32),\n",
       "    Message('note_on', channel=2, note=39, velocity=0, time=64),\n",
       "    Message('note_on', channel=2, note=42, velocity=114, time=64),\n",
       "    Message('note_on', channel=2, note=49, velocity=100, time=0),\n",
       "    Message('note_on', channel=2, note=54, velocity=114, time=0),\n",
       "    Message('note_on', channel=2, note=58, velocity=114, time=0),\n",
       "    Message('note_on', channel=2, note=54, velocity=0, time=120),\n",
       "    Message('note_on', channel=2, note=58, velocity=0, time=20),\n",
       "    Message('note_on', channel=2, note=49, velocity=0, time=0),\n",
       "    Message('note_on', channel=2, note=42, velocity=0, time=4),\n",
       "    Message('note_on', channel=2, note=49, velocity=114, time=240),\n",
       "    Message('note_on', channel=2, note=54, velocity=114, time=0),\n",
       "    Message('note_on', channel=2, note=58, velocity=114, time=0),\n",
       "    Message('note_on', channel=2, note=61, velocity=100, time=0),\n",
       "    Message('note_on', channel=2, note=42, velocity=114, time=256),\n",
       "    Message('note_on', channel=2, note=49, velocity=0, time=8),\n",
       "    Message('note_on', channel=2, note=61, velocity=0, time=8),\n",
       "    Message('note_on', channel=2, note=54, velocity=0, time=0),\n",
       "    Message('note_on', channel=2, note=58, velocity=0, time=0),\n",
       "    Message('note_on', channel=2, note=42, velocity=0, time=96),\n",
       "    Message('note_on', channel=2, note=49, velocity=114, time=16),\n",
       "    Message('note_on', channel=2, note=54, velocity=100, time=0),\n",
       "    Message('note_on', channel=2, note=58, velocity=114, time=0),\n",
       "    Message('note_on', channel=2, note=61, velocity=100, time=0),\n",
       "    Message('note_on', channel=2, note=49, velocity=0, time=252),\n",
       "    Message('note_on', channel=2, note=61, velocity=0, time=4),\n",
       "    Message('note_on', channel=2, note=42, velocity=114, time=0),\n",
       "    Message('note_on', channel=2, note=58, velocity=0, time=4),\n",
       "    Message('note_on', channel=2, note=54, velocity=0, time=4),\n",
       "    Message('note_on', channel=2, note=42, velocity=0, time=108),\n",
       "    Message('note_on', channel=2, note=49, velocity=114, time=12),\n",
       "    Message('note_on', channel=2, note=54, velocity=114, time=0),\n",
       "    Message('note_on', channel=2, note=58, velocity=114, time=0),\n",
       "    Message('note_on', channel=2, note=61, velocity=100, time=0),\n",
       "    Message('note_on', channel=2, note=49, velocity=0, time=116),\n",
       "    Message('note_on', channel=2, note=54, velocity=0, time=44),\n",
       "    Message('note_on', channel=2, note=58, velocity=0, time=8),\n",
       "    Message('note_on', channel=2, note=61, velocity=0, time=8),\n",
       "    Message('note_on', channel=2, note=42, velocity=114, time=80),\n",
       "    Message('note_on', channel=2, note=42, velocity=0, time=40),\n",
       "    Message('note_on', channel=2, note=41, velocity=95, time=88),\n",
       "    Message('note_on', channel=2, note=53, velocity=110, time=0),\n",
       "    Message('note_on', channel=2, note=58, velocity=100, time=0),\n",
       "    Message('note_on', channel=2, note=61, velocity=114, time=0),\n",
       "    Message('note_on', channel=2, note=65, velocity=95, time=0),\n",
       "    Message('note_on', channel=2, note=65, velocity=0, time=296),\n",
       "    Message('note_on', channel=2, note=53, velocity=0, time=12),\n",
       "    Message('note_on', channel=2, note=58, velocity=0, time=4),\n",
       "    Message('note_on', channel=2, note=61, velocity=0, time=4),\n",
       "    Message('note_on', channel=2, note=53, velocity=110, time=68),\n",
       "    Message('note_on', channel=2, note=58, velocity=124, time=0),\n",
       "    Message('note_on', channel=2, note=61, velocity=114, time=0),\n",
       "    Message('note_on', channel=2, note=65, velocity=121, time=0),\n",
       "    Message('note_on', channel=2, note=41, velocity=0, time=56),\n",
       "    Message('note_on', channel=2, note=65, velocity=0, time=40),\n",
       "    Message('note_on', channel=2, note=53, velocity=0, time=4),\n",
       "    Message('note_on', channel=2, note=61, velocity=0, time=4),\n",
       "    Message('note_on', channel=2, note=58, velocity=0, time=4),\n",
       "    Message('note_on', channel=2, note=41, velocity=121, time=148),\n",
       "    Message('note_on', channel=2, note=41, velocity=0, time=80),\n",
       "    Message('note_on', channel=2, note=39, velocity=100, time=48),\n",
       "    Message('note_on', channel=2, note=54, velocity=100, time=0),\n",
       "    Message('note_on', channel=2, note=58, velocity=100, time=0),\n",
       "    Message('note_on', channel=2, note=61, velocity=114, time=0),\n",
       "    Message('note_on', channel=2, note=63, velocity=114, time=0),\n",
       "    Message('note_on', channel=2, note=63, velocity=0, time=300),\n",
       "    Message('note_on', channel=2, note=54, velocity=0, time=4),\n",
       "    Message('note_on', channel=2, note=61, velocity=0, time=8),\n",
       "    Message('note_on', channel=2, note=58, velocity=0, time=0),\n",
       "    Message('note_on', channel=2, note=54, velocity=114, time=72),\n",
       "    Message('note_on', channel=2, note=58, velocity=73, time=0),\n",
       "    Message('note_on', channel=2, note=61, velocity=114, time=0),\n",
       "    Message('note_on', channel=2, note=63, velocity=124, time=0),\n",
       "    Message('note_on', channel=2, note=39, velocity=0, time=24),\n",
       "    Message('note_on', channel=2, note=63, velocity=0, time=148),\n",
       "    Message('note_on', channel=2, note=58, velocity=0, time=20),\n",
       "    Message('note_on', channel=2, note=54, velocity=0, time=4),\n",
       "    Message('note_on', channel=2, note=61, velocity=0, time=4),\n",
       "    Message('note_on', channel=2, note=39, velocity=114, time=56),\n",
       "    Message('note_on', channel=2, note=39, velocity=0, time=68),\n",
       "    Message('note_on', channel=2, note=37, velocity=114, time=60),\n",
       "    Message('note_on', channel=2, note=53, velocity=110, time=0),\n",
       "    Message('note_on', channel=2, note=56, velocity=114, time=0),\n",
       "    Message('note_on', channel=2, note=61, velocity=114, time=0),\n",
       "    Message('note_on', channel=2, note=53, velocity=0, time=288),\n",
       "    Message('note_on', channel=2, note=61, velocity=0, time=12),\n",
       "    Message('note_on', channel=2, note=56, velocity=0, time=4),\n",
       "    Message('note_on', channel=2, note=53, velocity=121, time=80),\n",
       "    Message('note_on', channel=2, note=56, velocity=124, time=0),\n",
       "    Message('note_on', channel=2, note=61, velocity=114, time=0),\n",
       "    Message('note_on', channel=2, note=37, velocity=0, time=68),\n",
       "    Message('note_on', channel=2, note=61, velocity=0, time=36),\n",
       "    Message('note_on', channel=2, note=56, velocity=0, time=16),\n",
       "    Message('note_on', channel=2, note=53, velocity=0, time=8),\n",
       "    Message('note_on', channel=2, note=37, velocity=114, time=128),\n",
       "    Message('note_on', channel=2, note=37, velocity=0, time=92),\n",
       "    Message('note_on', channel=2, note=44, velocity=114, time=36),\n",
       "    Message('note_on', channel=2, note=49, velocity=114, time=0),\n",
       "    Message('note_on', channel=2, note=54, velocity=114, time=0),\n",
       "    Message('note_on', channel=2, note=58, velocity=114, time=0),\n",
       "    Message('note_on', channel=2, note=58, velocity=0, time=296),\n",
       "    Message('note_on', channel=2, note=49, velocity=0, time=0),\n",
       "    Message('note_on', channel=2, note=54, velocity=0, time=8),\n",
       "    Message('note_on', channel=2, note=49, velocity=114, time=80),\n",
       "    Message('note_on', channel=2, note=54, velocity=114, time=0),\n",
       "    Message('note_on', channel=2, note=58, velocity=114, time=0),\n",
       "    Message('note_on', channel=2, note=44, velocity=0, time=68),\n",
       "    Message('note_on', channel=2, note=58, velocity=0, time=188),\n",
       "    Message('note_on', channel=2, note=44, velocity=114, time=0),\n",
       "    Message('note_on', channel=2, note=54, velocity=0, time=12),\n",
       "    Message('note_on', channel=2, note=49, velocity=0, time=12),\n",
       "    Message('note_on', channel=2, note=44, velocity=0, time=48),\n",
       "    Message('note_on', channel=2, note=37, velocity=124, time=56),\n",
       "    Message('note_on', channel=2, note=49, velocity=114, time=0),\n",
       "    Message('note_on', channel=2, note=53, velocity=121, time=0),\n",
       "    Message('note_on', channel=2, note=56, velocity=124, time=0),\n",
       "    Message('note_on', channel=2, note=49, velocity=0, time=752),\n",
       "    Message('note_on', channel=2, note=56, velocity=0, time=8),\n",
       "    Message('note_on', channel=2, note=53, velocity=0, time=0),\n",
       "    Message('note_on', channel=2, note=37, velocity=0, time=8),\n",
       "    Message('note_on', channel=2, note=36, velocity=127, time=0),\n",
       "    Message('note_on', channel=2, note=48, velocity=127, time=0),\n",
       "    Message('note_on', channel=2, note=36, velocity=0, time=232),\n",
       "    Message('note_on', channel=2, note=48, velocity=0, time=4),\n",
       "    Message('note_on', channel=2, note=37, velocity=126, time=20),\n",
       "    Message('note_on', channel=2, note=49, velocity=126, time=0),\n",
       "    Message('note_on', channel=2, note=37, velocity=0, time=112),\n",
       "    Message('note_on', channel=2, note=49, velocity=0, time=8),\n",
       "    Message('note_on', channel=2, note=32, velocity=127, time=8),\n",
       "    Message('note_on', channel=2, note=44, velocity=126, time=0),\n",
       "    Message('note_on', channel=2, note=32, velocity=0, time=204),\n",
       "    Message('note_on', channel=2, note=44, velocity=0, time=12),\n",
       "    Message('note_on', channel=2, note=33, velocity=127, time=40),\n",
       "    Message('note_on', channel=2, note=45, velocity=127, time=0),\n",
       "    Message('note_on', channel=2, note=33, velocity=0, time=120),\n",
       "    Message('note_on', channel=2, note=45, velocity=0, time=8),\n",
       "    Message('note_on', channel=2, note=46, velocity=124, time=0),\n",
       "    Message('note_on', channel=2, note=53, velocity=110, time=0),\n",
       "    Message('note_on', channel=2, note=58, velocity=100, time=0),\n",
       "    Message('note_on', channel=2, note=61, velocity=114, time=0),\n",
       "    Message('note_on', channel=2, note=65, velocity=110, time=0),\n",
       "    Message('note_on', channel=2, note=58, velocity=0, time=96),\n",
       "    Message('note_on', channel=2, note=61, velocity=0, time=4),\n",
       "    Message('note_on', channel=2, note=46, velocity=0, time=28),\n",
       "    Message('note_on', channel=2, note=53, velocity=0, time=0),\n",
       "    Message('note_on', channel=2, note=65, velocity=0, time=8),\n",
       "    Message('note_on', channel=2, note=53, velocity=110, time=248),\n",
       "    Message('note_on', channel=2, note=58, velocity=124, time=0),\n",
       "    Message('note_on', channel=2, note=61, velocity=114, time=0),\n",
       "    Message('note_on', channel=2, note=65, velocity=110, time=0),\n",
       "    Message('note_on', channel=2, note=65, velocity=0, time=240),\n",
       "    Message('note_on', channel=2, note=61, velocity=0, time=8),\n",
       "    Message('note_on', channel=2, note=58, velocity=0, time=0),\n",
       "    Message('note_on', channel=2, note=53, velocity=0, time=4),\n",
       "    Message('note_on', channel=2, note=46, velocity=100, time=4),\n",
       "    Message('note_on', channel=2, note=46, velocity=0, time=120),\n",
       "    Message('note_on', channel=2, note=53, velocity=110, time=8),\n",
       "    Message('note_on', channel=2, note=58, velocity=100, time=0),\n",
       "    Message('note_on', channel=2, note=61, velocity=100, time=0),\n",
       "    Message('note_on', channel=2, note=65, velocity=95, time=0),\n",
       "    Message('note_on', channel=2, note=65, velocity=0, time=232),\n",
       "    Message('note_on', channel=2, note=53, velocity=0, time=8),\n",
       "    Message('note_on', channel=2, note=61, velocity=0, time=4),\n",
       "    Message('note_on', channel=2, note=58, velocity=0, time=0),\n",
       "    Message('note_on', channel=2, note=46, velocity=114, time=12),\n",
       "    Message('note_on', channel=2, note=46, velocity=0, time=104),\n",
       "    Message('note_on', channel=2, note=53, velocity=121, time=24),\n",
       "    Message('note_on', channel=2, note=58, velocity=114, time=0),\n",
       "    Message('note_on', channel=2, note=61, velocity=114, time=0),\n",
       "    Message('note_on', channel=2, note=65, velocity=110, time=0),\n",
       "    Message('note_on', channel=2, note=65, velocity=0, time=184),\n",
       "    Message('note_on', channel=2, note=53, velocity=0, time=0),\n",
       "    Message('note_on', channel=2, note=61, velocity=0, time=16),\n",
       "    Message('note_on', channel=2, note=58, velocity=0, time=8),\n",
       "    Message('note_on', channel=2, note=46, velocity=114, time=48),\n",
       "    Message('note_on', channel=2, note=46, velocity=0, time=72),\n",
       "    Message('note_on', channel=2, note=42, velocity=100, time=56),\n",
       "    Message('note_on', channel=2, note=54, velocity=114, time=0),\n",
       "    Message('note_on', channel=2, note=58, velocity=100, time=0),\n",
       "    Message('note_on', channel=2, note=61, velocity=114, time=0),\n",
       "    Message('note_on', channel=2, note=63, velocity=114, time=0),\n",
       "    Message('note_on', channel=2, note=42, velocity=0, time=132),\n",
       "    Message('note_on', channel=2, note=54, velocity=0, time=4),\n",
       "    Message('note_on', channel=2, note=58, velocity=0, time=4),\n",
       "    Message('note_on', channel=2, note=61, velocity=0, time=4),\n",
       "    Message('note_on', channel=2, note=63, velocity=0, time=0),\n",
       "    Message('note_on', channel=2, note=54, velocity=114, time=240),\n",
       "    Message('note_on', channel=2, note=58, velocity=124, time=0),\n",
       "    Message('note_on', channel=2, note=61, velocity=114, time=0),\n",
       "    Message('note_on', channel=2, note=63, velocity=114, time=0),\n",
       "    Message('note_on', channel=2, note=42, velocity=100, time=256),\n",
       "    Message('note_on', channel=2, note=63, velocity=0, time=8),\n",
       "    Message('note_on', channel=2, note=54, velocity=0, time=4),\n",
       "    Message('note_on', channel=2, note=58, velocity=0, time=8),\n",
       "    Message('note_on', channel=2, note=61, velocity=0, time=0),\n",
       "    Message('note_on', channel=2, note=42, velocity=0, time=108),\n",
       "    Message('note_on', channel=2, note=54, velocity=100, time=0),\n",
       "    Message('note_on', channel=2, note=58, velocity=100, time=0),\n",
       "    Message('note_on', channel=2, note=61, velocity=100, time=0),\n",
       "    Message('note_on', channel=2, note=63, velocity=114, time=0),\n",
       "    Message('note_on', channel=2, note=63, velocity=0, time=252),\n",
       "    Message('note_on', channel=2, note=54, velocity=0, time=4),\n",
       "    Message('note_on', channel=2, note=42, velocity=114, time=0),\n",
       "    Message('note_on', channel=2, note=61, velocity=0, time=8),\n",
       "    Message('note_on', channel=2, note=58, velocity=0, time=4),\n",
       "    Message('note_on', channel=2, note=42, velocity=0, time=100),\n",
       "    Message('note_on', channel=2, note=54, velocity=114, time=16),\n",
       "    Message('note_on', channel=2, note=58, velocity=114, time=0),\n",
       "    Message('note_on', channel=2, note=61, velocity=114, time=0),\n",
       "    Message('note_on', channel=2, note=63, velocity=114, time=0),\n",
       "    Message('note_on', channel=2, note=63, velocity=0, time=180),\n",
       "    Message('note_on', channel=2, note=54, velocity=0, time=20),\n",
       "    Message('note_on', channel=2, note=61, velocity=0, time=8),\n",
       "    Message('note_on', channel=2, note=58, velocity=0, time=4),\n",
       "    Message('note_on', channel=2, note=42, velocity=114, time=44),\n",
       "    Message('note_on', channel=2, note=42, velocity=0, time=68),\n",
       "    Message('note_on', channel=2, note=37, velocity=114, time=60),\n",
       "    Message('note_on', channel=2, note=53, velocity=95, time=0),\n",
       "    Message('note_on', channel=2, note=56, velocity=114, time=0),\n",
       "    Message('note_on', channel=2, note=61, velocity=100, time=0),\n",
       "    Message('note_on', channel=2, note=56, velocity=0, time=136),\n",
       "    Message('note_on', channel=2, note=61, velocity=0, time=24),\n",
       "    Message('note_on', channel=2, note=53, velocity=0, time=0),\n",
       "    Message('note_on', channel=2, note=37, velocity=0, time=4),\n",
       "    Message('note_on', channel=2, note=53, velocity=121, time=220),\n",
       "    Message('note_on', channel=2, note=56, velocity=124, time=0),\n",
       "    Message('note_on', channel=2, note=61, velocity=124, time=0),\n",
       "    Message('note_on', channel=2, note=61, velocity=0, time=196),\n",
       "    Message('note_on', channel=2, note=56, velocity=0, time=8),\n",
       "    Message('note_on', channel=2, note=53, velocity=0, time=8),\n",
       "    Message('note_on', channel=2, note=37, velocity=84, time=44),\n",
       "    Message('note_on', channel=2, note=37, velocity=0, time=44),\n",
       "    Message('note_on', channel=2, note=36, velocity=110, time=84),\n",
       "    Message('note_on', channel=2, note=51, velocity=100, time=0),\n",
       "    Message('note_on', channel=2, note=56, velocity=114, time=0),\n",
       "    Message('note_on', channel=2, note=60, velocity=121, time=0),\n",
       "    Message('note_on', channel=2, note=60, velocity=0, time=216),\n",
       "    Message('note_on', channel=2, note=56, velocity=0, time=8),\n",
       "    Message('note_on', channel=2, note=51, velocity=0, time=88),\n",
       "    Message('note_on', channel=2, note=51, velocity=124, time=72),\n",
       "    Message('note_on', channel=2, note=56, velocity=124, time=0),\n",
       "    Message('note_on', channel=2, note=60, velocity=121, time=0),\n",
       "    Message('note_on', channel=2, note=36, velocity=0, time=48),\n",
       "    Message('note_on', channel=2, note=56, velocity=0, time=120),\n",
       "    Message('note_on', channel=2, note=51, velocity=0, time=12),\n",
       "    Message('note_on', channel=2, note=60, velocity=0, time=0),\n",
       "    Message('note_on', channel=2, note=36, velocity=121, time=76),\n",
       "    Message('note_on', channel=2, note=36, velocity=0, time=80),\n",
       "    Message('note_on', channel=2, note=39, velocity=114, time=48),\n",
       "    Message('note_on', channel=2, note=51, velocity=100, time=0),\n",
       "    Message('note_on', channel=2, note=55, velocity=110, time=0),\n",
       "    Message('note_on', channel=2, note=58, velocity=100, time=0),\n",
       "    Message('note_on', channel=2, note=51, velocity=0, time=124),\n",
       "    Message('note_on', channel=2, note=39, velocity=0, time=0),\n",
       "    Message('note_on', channel=2, note=58, velocity=0, time=4),\n",
       "    Message('note_on', channel=2, note=55, velocity=0, time=8),\n",
       "    Message('note_on', channel=2, note=51, velocity=114, time=248),\n",
       "    Message('note_on', channel=2, note=55, velocity=124, time=0),\n",
       "    Message('note_on', channel=2, note=58, velocity=114, time=0),\n",
       "    Message('note_on', channel=2, note=51, velocity=0, time=256),\n",
       "    Message('note_on', channel=2, note=39, velocity=100, time=0),\n",
       "    Message('note_on', channel=2, note=58, velocity=0, time=8),\n",
       "    Message('note_on', channel=2, note=55, velocity=0, time=20),\n",
       "    Message('note_on', channel=2, note=39, velocity=0, time=96),\n",
       "    Message('note_on', channel=2, note=51, velocity=114, time=4),\n",
       "    Message('note_on', channel=2, note=55, velocity=121, time=0),\n",
       "    Message('note_on', channel=2, note=58, velocity=114, time=0),\n",
       "    Message('note_on', channel=2, note=39, velocity=100, time=256),\n",
       "    Message('note_on', channel=2, note=51, velocity=0, time=8),\n",
       "    Message('note_on', channel=2, note=58, velocity=0, time=24),\n",
       "    Message('note_on', channel=2, note=55, velocity=0, time=8),\n",
       "    Message('note_on', channel=2, note=39, velocity=0, time=84),\n",
       "    Message('note_on', channel=2, note=51, velocity=114, time=4),\n",
       "    Message('note_on', channel=2, note=55, velocity=121, time=0),\n",
       "    Message('note_on', channel=2, note=58, velocity=114, time=0),\n",
       "    Message('note_on', channel=2, note=63, velocity=100, time=0),\n",
       "    Message('note_on', channel=2, note=63, velocity=0, time=184),\n",
       "    Message('note_on', channel=2, note=51, velocity=0, time=32),\n",
       "    Message('note_on', channel=2, note=55, velocity=0, time=0),\n",
       "    Message('note_on', channel=2, note=58, velocity=0, time=8),\n",
       "    Message('note_on', channel=2, note=39, velocity=114, time=32),\n",
       "    Message('note_on', channel=2, note=39, velocity=0, time=64),\n",
       "    Message('note_on', channel=2, note=42, velocity=114, time=64),\n",
       "    Message('note_on', channel=2, note=49, velocity=100, time=0),\n",
       "    Message('note_on', channel=2, note=54, velocity=114, time=0),\n",
       "    Message('note_on', channel=2, note=58, velocity=114, time=0),\n",
       "    Message('note_on', channel=2, note=54, velocity=0, time=120),\n",
       "    Message('note_on', channel=2, note=58, velocity=0, time=20),\n",
       "    Message('note_on', channel=2, note=49, velocity=0, time=0),\n",
       "    Message('note_on', channel=2, note=42, velocity=0, time=4),\n",
       "    Message('note_on', channel=2, note=49, velocity=114, time=240),\n",
       "    Message('note_on', channel=2, note=54, velocity=114, time=0),\n",
       "    Message('note_on', channel=2, note=58, velocity=114, time=0),\n",
       "    Message('note_on', channel=2, note=61, velocity=100, time=0),\n",
       "    Message('note_on', channel=2, note=42, velocity=114, time=256),\n",
       "    Message('note_on', channel=2, note=49, velocity=0, time=8),\n",
       "    Message('note_on', channel=2, note=61, velocity=0, time=8),\n",
       "    Message('note_on', channel=2, note=54, velocity=0, time=0),\n",
       "    Message('note_on', channel=2, note=58, velocity=0, time=0),\n",
       "    Message('note_on', channel=2, note=42, velocity=0, time=96),\n",
       "    Message('note_on', channel=2, note=49, velocity=114, time=16),\n",
       "    Message('note_on', channel=2, note=54, velocity=100, time=0),\n",
       "    Message('note_on', channel=2, note=58, velocity=114, time=0),\n",
       "    Message('note_on', channel=2, note=61, velocity=100, time=0),\n",
       "    Message('note_on', channel=2, note=49, velocity=0, time=252),\n",
       "    Message('note_on', channel=2, note=61, velocity=0, time=4),\n",
       "    Message('note_on', channel=2, note=42, velocity=114, time=0),\n",
       "    Message('note_on', channel=2, note=58, velocity=0, time=4),\n",
       "    Message('note_on', channel=2, note=54, velocity=0, time=4),\n",
       "    Message('note_on', channel=2, note=42, velocity=0, time=108),\n",
       "    Message('note_on', channel=2, note=49, velocity=114, time=12),\n",
       "    Message('note_on', channel=2, note=54, velocity=114, time=0),\n",
       "    Message('note_on', channel=2, note=58, velocity=114, time=0),\n",
       "    Message('note_on', channel=2, note=61, velocity=100, time=0),\n",
       "    Message('note_on', channel=2, note=49, velocity=0, time=116),\n",
       "    Message('note_on', channel=2, note=54, velocity=0, time=44),\n",
       "    Message('note_on', channel=2, note=58, velocity=0, time=8),\n",
       "    Message('note_on', channel=2, note=61, velocity=0, time=8),\n",
       "    Message('note_on', channel=2, note=42, velocity=114, time=80),\n",
       "    Message('note_on', channel=2, note=42, velocity=0, time=40),\n",
       "    Message('note_on', channel=2, note=41, velocity=95, time=88),\n",
       "    Message('note_on', channel=2, note=53, velocity=110, time=0),\n",
       "    Message('note_on', channel=2, note=58, velocity=100, time=0),\n",
       "    Message('note_on', channel=2, note=61, velocity=114, time=0),\n",
       "    Message('note_on', channel=2, note=65, velocity=95, time=0),\n",
       "    Message('note_on', channel=2, note=65, velocity=0, time=296),\n",
       "    Message('note_on', channel=2, note=53, velocity=0, time=12),\n",
       "    Message('note_on', channel=2, note=58, velocity=0, time=4),\n",
       "    Message('note_on', channel=2, note=61, velocity=0, time=4),\n",
       "    Message('note_on', channel=2, note=53, velocity=110, time=68),\n",
       "    Message('note_on', channel=2, note=58, velocity=124, time=0),\n",
       "    Message('note_on', channel=2, note=61, velocity=114, time=0),\n",
       "    Message('note_on', channel=2, note=65, velocity=121, time=0),\n",
       "    Message('note_on', channel=2, note=41, velocity=0, time=56),\n",
       "    Message('note_on', channel=2, note=65, velocity=0, time=40),\n",
       "    Message('note_on', channel=2, note=53, velocity=0, time=4),\n",
       "    Message('note_on', channel=2, note=61, velocity=0, time=4),\n",
       "    Message('note_on', channel=2, note=58, velocity=0, time=4),\n",
       "    Message('note_on', channel=2, note=41, velocity=121, time=148),\n",
       "    Message('note_on', channel=2, note=41, velocity=0, time=80),\n",
       "    Message('note_on', channel=2, note=39, velocity=100, time=48),\n",
       "    Message('note_on', channel=2, note=54, velocity=100, time=0),\n",
       "    Message('note_on', channel=2, note=58, velocity=100, time=0),\n",
       "    Message('note_on', channel=2, note=61, velocity=114, time=0),\n",
       "    Message('note_on', channel=2, note=63, velocity=114, time=0),\n",
       "    Message('note_on', channel=2, note=63, velocity=0, time=300),\n",
       "    Message('note_on', channel=2, note=54, velocity=0, time=4),\n",
       "    Message('note_on', channel=2, note=61, velocity=0, time=8),\n",
       "    Message('note_on', channel=2, note=58, velocity=0, time=0),\n",
       "    Message('note_on', channel=2, note=54, velocity=114, time=72),\n",
       "    Message('note_on', channel=2, note=58, velocity=73, time=0),\n",
       "    Message('note_on', channel=2, note=61, velocity=114, time=0),\n",
       "    Message('note_on', channel=2, note=63, velocity=124, time=0),\n",
       "    Message('note_on', channel=2, note=39, velocity=0, time=24),\n",
       "    Message('note_on', channel=2, note=63, velocity=0, time=148),\n",
       "    Message('note_on', channel=2, note=58, velocity=0, time=20),\n",
       "    Message('note_on', channel=2, note=54, velocity=0, time=4),\n",
       "    Message('note_on', channel=2, note=61, velocity=0, time=4),\n",
       "    Message('note_on', channel=2, note=39, velocity=114, time=56),\n",
       "    Message('note_on', channel=2, note=39, velocity=0, time=68),\n",
       "    Message('note_on', channel=2, note=37, velocity=114, time=60),\n",
       "    Message('note_on', channel=2, note=53, velocity=110, time=0),\n",
       "    Message('note_on', channel=2, note=56, velocity=114, time=0),\n",
       "    Message('note_on', channel=2, note=61, velocity=114, time=0),\n",
       "    Message('note_on', channel=2, note=53, velocity=0, time=288),\n",
       "    Message('note_on', channel=2, note=61, velocity=0, time=12),\n",
       "    Message('note_on', channel=2, note=56, velocity=0, time=4),\n",
       "    Message('note_on', channel=2, note=53, velocity=121, time=80),\n",
       "    Message('note_on', channel=2, note=56, velocity=124, time=0),\n",
       "    Message('note_on', channel=2, note=61, velocity=114, time=0),\n",
       "    Message('note_on', channel=2, note=37, velocity=0, time=68),\n",
       "    Message('note_on', channel=2, note=61, velocity=0, time=36),\n",
       "    Message('note_on', channel=2, note=56, velocity=0, time=16),\n",
       "    Message('note_on', channel=2, note=53, velocity=0, time=8),\n",
       "    Message('note_on', channel=2, note=37, velocity=114, time=128),\n",
       "    Message('note_on', channel=2, note=37, velocity=0, time=92),\n",
       "    Message('note_on', channel=2, note=44, velocity=114, time=36),\n",
       "    Message('note_on', channel=2, note=49, velocity=114, time=0),\n",
       "    Message('note_on', channel=2, note=54, velocity=114, time=0),\n",
       "    Message('note_on', channel=2, note=58, velocity=114, time=0),\n",
       "    Message('note_on', channel=2, note=58, velocity=0, time=296),\n",
       "    Message('note_on', channel=2, note=49, velocity=0, time=0),\n",
       "    Message('note_on', channel=2, note=54, velocity=0, time=8),\n",
       "    Message('note_on', channel=2, note=49, velocity=114, time=80),\n",
       "    Message('note_on', channel=2, note=54, velocity=114, time=0),\n",
       "    Message('note_on', channel=2, note=58, velocity=114, time=0),\n",
       "    Message('note_on', channel=2, note=44, velocity=0, time=68),\n",
       "    Message('note_on', channel=2, note=58, velocity=0, time=188),\n",
       "    Message('note_on', channel=2, note=44, velocity=114, time=0),\n",
       "    Message('note_on', channel=2, note=54, velocity=0, time=12),\n",
       "    Message('note_on', channel=2, note=49, velocity=0, time=12),\n",
       "    Message('note_on', channel=2, note=44, velocity=0, time=48),\n",
       "    Message('note_on', channel=2, note=37, velocity=124, time=56),\n",
       "    Message('note_on', channel=2, note=49, velocity=114, time=0),\n",
       "    Message('note_on', channel=2, note=53, velocity=121, time=0),\n",
       "    Message('note_on', channel=2, note=56, velocity=124, time=0),\n",
       "    Message('note_on', channel=2, note=56, velocity=0, time=96),\n",
       "    Message('note_on', channel=2, note=37, velocity=0, time=0),\n",
       "    Message('note_on', channel=2, note=49, velocity=0, time=0),\n",
       "    Message('note_on', channel=2, note=53, velocity=0, time=0),\n",
       "    Message('note_on', channel=2, note=49, velocity=98, time=1440),\n",
       "    Message('note_on', channel=2, note=68, velocity=98, time=0),\n",
       "    Message('note_on', channel=2, note=73, velocity=98, time=0),\n",
       "    Message('note_on', channel=2, note=77, velocity=95, time=0),\n",
       "    Message('note_on', channel=2, note=73, velocity=0, time=36),\n",
       "    Message('note_on', channel=2, note=77, velocity=0, time=12),\n",
       "    Message('note_on', channel=2, note=68, velocity=0, time=4),\n",
       "    Message('note_on', channel=2, note=68, velocity=86, time=76),\n",
       "    Message('note_on', channel=2, note=73, velocity=98, time=0),\n",
       "    Message('note_on', channel=2, note=77, velocity=95, time=0),\n",
       "    Message('note_on', channel=2, note=77, velocity=0, time=44),\n",
       "    Message('note_on', channel=2, note=73, velocity=0, time=0),\n",
       "    Message('note_on', channel=2, note=68, velocity=0, time=16),\n",
       "    Message('note_on', channel=2, note=68, velocity=63, time=68),\n",
       "    Message('note_on', channel=2, note=73, velocity=86, time=0),\n",
       "    Message('note_on', channel=2, note=77, velocity=82, time=0),\n",
       "    Message('note_on', channel=2, note=77, velocity=0, time=40),\n",
       "    Message('note_on', channel=2, note=68, velocity=0, time=8),\n",
       "    Message('note_on', channel=2, note=73, velocity=0, time=4),\n",
       "    Message('note_on', channel=2, note=49, velocity=0, time=52),\n",
       "    Message('note_on', channel=2, note=46, velocity=98, time=24),\n",
       "    Message('note_on', channel=2, note=68, velocity=72, time=0),\n",
       "    Message('note_on', channel=2, note=73, velocity=86, time=0),\n",
       "    Message('note_on', channel=2, note=77, velocity=95, time=0),\n",
       "    Message('note_on', channel=2, note=73, velocity=0, time=56),\n",
       "    Message('note_on', channel=2, note=68, velocity=0, time=0),\n",
       "    Message('note_on', channel=2, note=77, velocity=0, time=8),\n",
       "    Message('note_on', channel=2, note=68, velocity=72, time=64),\n",
       "    Message('note_on', channel=2, note=73, velocity=86, time=0),\n",
       "    Message('note_on', channel=2, note=77, velocity=82, time=0),\n",
       "    Message('note_on', channel=2, note=77, velocity=0, time=52),\n",
       "    Message('note_on', channel=2, note=73, velocity=0, time=4),\n",
       "    Message('note_on', channel=2, note=68, velocity=0, time=0),\n",
       "    Message('note_on', channel=2, note=68, velocity=63, time=72),\n",
       "    Message('note_on', channel=2, note=73, velocity=86, time=0),\n",
       "    Message('note_on', channel=2, note=77, velocity=82, time=0),\n",
       "    Message('note_on', channel=2, note=77, velocity=0, time=52),\n",
       "    Message('note_on', channel=2, note=68, velocity=0, time=4),\n",
       "    Message('note_on', channel=2, note=73, velocity=0, time=4),\n",
       "    Message('note_on', channel=2, note=46, velocity=0, time=36),\n",
       "    Message('note_on', channel=2, note=44, velocity=86, time=32),\n",
       "    Message('note_on', channel=2, note=68, velocity=72, time=0),\n",
       "    Message('note_on', channel=2, note=73, velocity=86, time=0),\n",
       "    Message('note_on', channel=2, note=77, velocity=95, time=0),\n",
       "    Message('note_on', channel=2, note=68, velocity=0, time=60),\n",
       "    Message('note_on', channel=2, note=73, velocity=0, time=4),\n",
       "    Message('note_on', channel=2, note=77, velocity=0, time=8),\n",
       "    Message('note_on', channel=2, note=68, velocity=63, time=56),\n",
       "    Message('note_on', channel=2, note=73, velocity=86, time=0),\n",
       "    Message('note_on', channel=2, note=77, velocity=82, time=0),\n",
       "    Message('note_on', channel=2, note=68, velocity=0, time=56),\n",
       "    Message('note_on', channel=2, note=77, velocity=0, time=8),\n",
       "    Message('note_on', channel=2, note=73, velocity=0, time=0),\n",
       "    Message('note_on', channel=2, note=68, velocity=63, time=64),\n",
       "    Message('note_on', channel=2, note=73, velocity=86, time=0),\n",
       "    Message('note_on', channel=2, note=77, velocity=95, time=0),\n",
       "    Message('note_on', channel=2, note=73, velocity=0, time=56),\n",
       "    Message('note_on', channel=2, note=77, velocity=0, time=4),\n",
       "    Message('note_on', channel=2, note=68, velocity=0, time=0),\n",
       "    Message('note_on', channel=2, note=44, velocity=0, time=44),\n",
       "    Message('note_on', channel=2, note=46, velocity=98, time=24),\n",
       "    Message('note_on', channel=2, note=68, velocity=72, time=0),\n",
       "    Message('note_on', channel=2, note=73, velocity=98, time=0),\n",
       "    Message('note_on', channel=2, note=77, velocity=95, time=0),\n",
       "    Message('note_on', channel=2, note=73, velocity=0, time=56),\n",
       "    Message('note_on', channel=2, note=68, velocity=0, time=4),\n",
       "    Message('note_on', channel=2, note=77, velocity=0, time=4),\n",
       "    Message('note_on', channel=2, note=68, velocity=72, time=64),\n",
       "    Message('note_on', channel=2, note=73, velocity=86, time=0),\n",
       "    Message('note_on', channel=2, note=77, velocity=82, time=0),\n",
       "    Message('note_on', channel=2, note=77, velocity=0, time=52),\n",
       "    Message('note_on', channel=2, note=73, velocity=0, time=4),\n",
       "    Message('note_on', channel=2, note=68, velocity=0, time=8),\n",
       "    Message('note_on', channel=2, note=68, velocity=63, time=64),\n",
       "    Message('note_on', channel=2, note=73, velocity=86, time=0),\n",
       "    Message('note_on', channel=2, note=77, velocity=82, time=0),\n",
       "    Message('note_on', channel=2, note=77, velocity=0, time=52),\n",
       "    Message('note_on', channel=2, note=73, velocity=0, time=4),\n",
       "    Message('note_on', channel=2, note=68, velocity=0, time=0),\n",
       "    Message('note_on', channel=2, note=46, velocity=0, time=40),\n",
       "    Message('note_on', channel=2, note=49, velocity=98, time=32),\n",
       "    Message('note_on', channel=2, note=68, velocity=72, time=0),\n",
       "    Message('note_on', channel=2, note=73, velocity=86, time=0),\n",
       "    Message('note_on', channel=2, note=77, velocity=95, time=0),\n",
       "    Message('note_on', channel=2, note=73, velocity=0, time=60),\n",
       "    Message('note_on', channel=2, note=68, velocity=0, time=0),\n",
       "    Message('note_on', channel=2, note=77, velocity=0, time=4),\n",
       "    Message('note_on', channel=2, note=68, velocity=63, time=64),\n",
       "    Message('note_on', channel=2, note=73, velocity=72, time=0),\n",
       "    Message('note_on', channel=2, note=77, velocity=82, time=0),\n",
       "    Message('note_on', channel=2, note=77, velocity=0, time=56),\n",
       "    Message('note_on', channel=2, note=73, velocity=0, time=0),\n",
       "    Message('note_on', channel=2, note=68, velocity=0, time=4),\n",
       "    Message('note_on', channel=2, note=68, velocity=72, time=68),\n",
       "    Message('note_on', channel=2, note=73, velocity=86, time=0),\n",
       "    Message('note_on', channel=2, note=77, velocity=82, time=0),\n",
       "    Message('note_on', channel=2, note=77, velocity=0, time=48),\n",
       "    Message('note_on', channel=2, note=73, velocity=0, time=8),\n",
       "    Message('note_on', channel=2, note=68, velocity=0, time=0),\n",
       "    Message('note_on', channel=2, note=49, velocity=0, time=48),\n",
       "    Message('note_on', channel=2, note=46, velocity=98, time=24),\n",
       "    Message('note_on', channel=2, note=68, velocity=72, time=0),\n",
       "    Message('note_on', channel=2, note=73, velocity=98, time=0),\n",
       "    Message('note_on', channel=2, note=77, velocity=95, time=0),\n",
       "    Message('note_on', channel=2, note=73, velocity=0, time=56),\n",
       "    Message('note_on', channel=2, note=68, velocity=0, time=0),\n",
       "    Message('note_on', channel=2, note=77, velocity=0, time=4),\n",
       "    Message('note_on', channel=2, note=68, velocity=63, time=68),\n",
       "    Message('note_on', channel=2, note=73, velocity=86, time=0),\n",
       "    Message('note_on', channel=2, note=77, velocity=82, time=0),\n",
       "    Message('note_on', channel=2, note=73, velocity=0, time=52),\n",
       "    Message('note_on', channel=2, note=77, velocity=0, time=4),\n",
       "    Message('note_on', channel=2, note=68, velocity=0, time=0),\n",
       "    Message('note_on', channel=2, note=68, velocity=63, time=72),\n",
       "    Message('note_on', channel=2, note=73, velocity=86, time=0),\n",
       "    Message('note_on', channel=2, note=77, velocity=82, time=0),\n",
       "    Message('note_on', channel=2, note=77, velocity=0, time=56),\n",
       "    Message('note_on', channel=2, note=73, velocity=0, time=0),\n",
       "    Message('note_on', channel=2, note=68, velocity=0, time=4),\n",
       "    Message('note_on', channel=2, note=46, velocity=0, time=44),\n",
       "    Message('note_on', channel=2, note=44, velocity=98, time=24),\n",
       "    Message('note_on', channel=2, note=68, velocity=72, time=0),\n",
       "    Message('note_on', channel=2, note=73, velocity=98, time=0),\n",
       "    Message('note_on', channel=2, note=77, velocity=95, time=0),\n",
       "    Message('note_on', channel=2, note=73, velocity=0, time=52),\n",
       "    Message('note_on', channel=2, note=77, velocity=0, time=4),\n",
       "    Message('note_on', channel=2, note=68, velocity=0, time=0),\n",
       "    Message('note_on', channel=2, note=68, velocity=72, time=72),\n",
       "    Message('note_on', channel=2, note=73, velocity=98, time=0),\n",
       "    Message('note_on', channel=2, note=77, velocity=82, time=0),\n",
       "    Message('note_on', channel=2, note=77, velocity=0, time=48),\n",
       "    Message('note_on', channel=2, note=73, velocity=0, time=8),\n",
       "    Message('note_on', channel=2, note=68, velocity=0, time=0),\n",
       "    Message('note_on', channel=2, note=68, velocity=72, time=72),\n",
       "    Message('note_on', channel=2, note=73, velocity=86, time=0),\n",
       "    Message('note_on', channel=2, note=77, velocity=95, time=0),\n",
       "    Message('note_on', channel=2, note=77, velocity=0, time=48),\n",
       "    Message('note_on', channel=2, note=73, velocity=0, time=4),\n",
       "    Message('note_on', channel=2, note=68, velocity=0, time=4),\n",
       "    Message('note_on', channel=2, note=44, velocity=0, time=36),\n",
       "    Message('note_on', channel=2, note=46, velocity=98, time=36),\n",
       "    Message('note_on', channel=2, note=68, velocity=72, time=0),\n",
       "    Message('note_on', channel=2, note=73, velocity=86, time=0),\n",
       "    Message('note_on', channel=2, note=77, velocity=82, time=0),\n",
       "    Message('note_on', channel=2, note=73, velocity=0, time=60),\n",
       "    Message('note_on', channel=2, note=68, velocity=0, time=0),\n",
       "    Message('note_on', channel=2, note=77, velocity=0, time=4),\n",
       "    Message('note_on', channel=2, note=68, velocity=63, time=64),\n",
       "    Message('note_on', channel=2, note=73, velocity=98, time=0),\n",
       "    Message('note_on', channel=2, note=77, velocity=82, time=0),\n",
       "    Message('note_on', channel=2, note=77, velocity=0, time=32),\n",
       "    Message('note_on', channel=2, note=68, velocity=0, time=16),\n",
       "    Message('note_on', channel=2, note=73, velocity=0, time=4),\n",
       "    Message('note_on', channel=2, note=68, velocity=55, time=76),\n",
       "    Message('note_on', channel=2, note=73, velocity=86, time=0),\n",
       "    Message('note_on', channel=2, note=77, velocity=49, time=0),\n",
       "    Message('note_on', channel=2, note=77, velocity=0, time=20),\n",
       "    Message('note_on', channel=2, note=73, velocity=0, time=32),\n",
       "    Message('note_on', channel=2, note=68, velocity=0, time=12),\n",
       "    Message('note_on', channel=2, note=46, velocity=0, time=28),\n",
       "    Message('note_on', channel=2, note=51, velocity=86, time=36),\n",
       "    Message('note_on', channel=2, note=66, velocity=86, time=0),\n",
       "    Message('note_on', channel=2, note=70, velocity=86, time=0),\n",
       "    Message('note_on', channel=2, note=75, velocity=98, time=0),\n",
       "    Message('note_on', channel=2, note=66, velocity=0, time=312),\n",
       "    Message('note_on', channel=2, note=75, velocity=0, time=16),\n",
       "    Message('note_on', channel=2, note=70, velocity=0, time=0),\n",
       "    Message('note_on', channel=2, note=66, velocity=98, time=56),\n",
       "    Message('note_on', channel=2, note=70, velocity=98, time=0),\n",
       "    Message('note_on', channel=2, note=75, velocity=98, time=0),\n",
       "    Message('note_on', channel=2, note=51, velocity=0, time=156),\n",
       "    Message('control_change', channel=2, control=64, value=127, time=44),\n",
       "    Message('note_on', channel=2, note=51, velocity=98, time=56),\n",
       "    Message('note_on', channel=2, note=75, velocity=0, time=4),\n",
       "    Message('control_change', channel=2, control=64, value=0, time=4),\n",
       "    Message('note_on', channel=2, note=70, velocity=0, time=4),\n",
       "    Message('note_on', channel=2, note=66, velocity=0, time=20),\n",
       "    Message('note_on', channel=2, note=51, velocity=0, time=64),\n",
       "    Message('note_on', channel=2, note=49, velocity=98, time=32),\n",
       "    Message('note_on', channel=2, note=65, velocity=82, time=0),\n",
       "    Message('note_on', channel=2, note=68, velocity=98, time=0),\n",
       "    Message('note_on', channel=2, note=73, velocity=98, time=0),\n",
       "    Message('control_change', channel=2, control=64, value=127, time=192),\n",
       "    Message('note_on', channel=2, note=65, velocity=0, time=96),\n",
       "    Message('note_on', channel=2, note=73, velocity=0, time=16),\n",
       "    Message('note_on', channel=2, note=68, velocity=0, time=0),\n",
       "    Message('note_on', channel=2, note=65, velocity=104, time=80),\n",
       "    Message('note_on', channel=2, note=68, velocity=98, time=0),\n",
       "    Message('note_on', channel=2, note=73, velocity=98, time=0),\n",
       "    Message('note_on', channel=2, note=68, velocity=0, time=68),\n",
       "    Message('note_on', channel=2, note=73, velocity=0, time=12),\n",
       "    Message('note_on', channel=2, note=65, velocity=0, time=4),\n",
       "    Message('note_on', channel=2, note=49, velocity=0, time=4),\n",
       "    Message('note_on', channel=2, note=49, velocity=72, time=168),\n",
       "    Message('note_on', channel=2, note=49, velocity=0, time=44),\n",
       "    Message('control_change', channel=2, control=64, value=0, time=28),\n",
       "    Message('note_on', channel=2, note=48, velocity=104, time=56),\n",
       "    Message('note_on', channel=2, note=63, velocity=86, time=0),\n",
       "    Message('note_on', channel=2, note=68, velocity=98, time=0),\n",
       "    Message('note_on', channel=2, note=72, velocity=95, time=0),\n",
       "    Message('control_change', channel=2, control=64, value=127, time=100),\n",
       "    Message('note_on', channel=2, note=63, velocity=0, time=184),\n",
       "    Message('note_on', channel=2, note=72, velocity=0, time=16),\n",
       "    Message('note_on', channel=2, note=68, velocity=0, time=8),\n",
       "    Message('note_on', channel=2, note=63, velocity=98, time=76),\n",
       "    Message('note_on', channel=2, note=68, velocity=98, time=0),\n",
       "    Message('note_on', channel=2, note=72, velocity=106, time=0),\n",
       "    Message('note_on', channel=2, note=48, velocity=0, time=132),\n",
       "    Message('note_on', channel=2, note=48, velocity=82, time=124),\n",
       "    Message('note_on', channel=2, note=48, velocity=0, time=56),\n",
       "    Message('note_on', channel=2, note=63, velocity=0, time=0),\n",
       "    Message('note_on', channel=2, note=72, velocity=0, time=8),\n",
       "    Message('note_on', channel=2, note=68, velocity=0, time=4),\n",
       "    Message('control_change', channel=2, control=64, value=0, time=4),\n",
       "    Message('note_on', channel=2, note=44, velocity=98, time=56),\n",
       "    Message('note_on', channel=2, note=63, velocity=98, time=0),\n",
       "    Message('note_on', channel=2, note=68, velocity=98, time=0),\n",
       "    Message('note_on', channel=2, note=72, velocity=95, time=0),\n",
       "    Message('note_on', channel=2, note=63, velocity=0, time=128),\n",
       "    Message('note_on', channel=2, note=72, velocity=0, time=8),\n",
       "    Message('note_on', channel=2, note=68, velocity=0, time=8),\n",
       "    Message('note_on', channel=2, note=63, velocity=98, time=112),\n",
       "    Message('note_on', channel=2, note=68, velocity=98, time=0),\n",
       "    Message('note_on', channel=2, note=72, velocity=104, time=0),\n",
       "    Message('control_change', channel=2, control=64, value=127, time=32),\n",
       "    Message('note_on', channel=2, note=44, velocity=0, time=172),\n",
       "    Message('note_on', channel=2, note=63, velocity=0, time=8),\n",
       "    Message('note_on', channel=2, note=68, velocity=0, time=12),\n",
       "    Message('note_on', channel=2, note=72, velocity=0, time=0),\n",
       "    Message('note_on', channel=2, note=44, velocity=98, time=32),\n",
       "    Message('note_on', channel=2, note=63, velocity=98, time=0),\n",
       "    Message('note_on', channel=2, note=68, velocity=86, time=0),\n",
       "    Message('note_on', channel=2, note=72, velocity=104, time=0),\n",
       "    Message('note_on', channel=2, note=63, velocity=0, time=80),\n",
       "    Message('note_on', channel=2, note=68, velocity=0, time=4),\n",
       "    Message('note_on', channel=2, note=44, velocity=0, time=4),\n",
       "    Message('note_on', channel=2, note=72, velocity=0, time=24),\n",
       "    Message('note_on', channel=2, note=45, velocity=104, time=16),\n",
       "    Message('control_change', channel=2, control=64, value=0, time=40),\n",
       "    Message('note_on', channel=2, note=45, velocity=0, time=48),\n",
       "    Message('note_on', channel=2, note=46, velocity=98, time=40),\n",
       "    Message('note_on', channel=2, note=65, velocity=95, time=0),\n",
       "    Message('note_on', channel=2, note=70, velocity=98, time=0),\n",
       "    Message('note_on', channel=2, note=73, velocity=106, time=0),\n",
       "    Message('note_on', channel=2, note=65, velocity=0, time=268),\n",
       "    Message('note_on', channel=2, note=73, velocity=0, time=20),\n",
       "    Message('note_on', channel=2, note=70, velocity=0, time=4),\n",
       "    Message('control_change', channel=2, control=64, value=127, time=44),\n",
       "    Message('note_on', channel=2, note=65, velocity=104, time=48),\n",
       "    Message('note_on', channel=2, note=70, velocity=98, time=0),\n",
       "    Message('note_on', channel=2, note=73, velocity=106, time=0),\n",
       "    Message('note_on', channel=2, note=46, velocity=0, time=88),\n",
       "    Message('note_on', channel=2, note=73, velocity=0, time=52),\n",
       "    Message('note_on', channel=2, note=70, velocity=0, time=4),\n",
       "    Message('note_on', channel=2, note=65, velocity=0, time=16),\n",
       "    Message('note_on', channel=2, note=46, velocity=98, time=96),\n",
       "    Message('note_on', channel=2, note=46, velocity=0, time=40),\n",
       "    Message('control_change', channel=2, control=64, value=0, time=64),\n",
       "    Message('note_on', channel=2, note=44, velocity=98, time=24),\n",
       "    Message('note_on', channel=2, note=63, velocity=86, time=0),\n",
       "    Message('note_on', channel=2, note=68, velocity=86, time=0),\n",
       "    Message('note_on', channel=2, note=72, velocity=95, time=0),\n",
       "    Message('control_change', channel=2, control=64, value=127, time=84),\n",
       "    Message('note_on', channel=2, note=63, velocity=0, time=192),\n",
       "    Message('note_on', channel=2, note=72, velocity=0, time=20),\n",
       "    Message('note_on', channel=2, note=68, velocity=0, time=0),\n",
       "    Message('note_on', channel=2, note=63, velocity=98, time=88),\n",
       "    Message('note_on', channel=2, note=68, velocity=98, time=0),\n",
       "    Message('note_on', channel=2, note=72, velocity=106, time=0),\n",
       "    Message('note_on', channel=2, note=44, velocity=0, time=36),\n",
       "    Message('note_on', channel=2, note=63, velocity=0, time=32),\n",
       "    Message('note_on', channel=2, note=68, velocity=0, time=4),\n",
       "    Message('note_on', channel=2, note=72, velocity=0, time=8),\n",
       "    Message('note_on', channel=2, note=44, velocity=98, time=176),\n",
       "    Message('note_on', channel=2, note=44, velocity=0, time=40),\n",
       "    Message('control_change', channel=2, control=64, value=0, time=32),\n",
       "    Message('note_on', channel=2, note=42, velocity=98, time=56),\n",
       "    Message('note_on', channel=2, note=61, velocity=86, time=0),\n",
       "    Message('note_on', channel=2, note=66, velocity=86, time=0),\n",
       "    Message('note_on', channel=2, note=70, velocity=98, time=0),\n",
       "    Message('control_change', channel=2, control=64, value=127, time=68),\n",
       "    Message('note_on', channel=2, note=61, velocity=0, time=236),\n",
       "    Message('note_on', channel=2, note=42, velocity=0, time=24),\n",
       "    Message('note_on', channel=2, note=70, velocity=0, time=4),\n",
       "    Message('note_on', channel=2, note=66, velocity=0, time=4),\n",
       "    Message('note_on', channel=2, note=61, velocity=98, time=48),\n",
       "    Message('note_on', channel=2, note=66, velocity=98, time=0),\n",
       "    Message('note_on', channel=2, note=70, velocity=106, time=0),\n",
       "    Message('note_on', channel=2, note=61, velocity=0, time=116),\n",
       "    Message('note_on', channel=2, note=66, velocity=0, time=4),\n",
       "    Message('note_on', channel=2, note=70, velocity=0, time=16),\n",
       "    Message('note_on', channel=2, note=42, velocity=98, time=120),\n",
       "    Message('note_on', channel=2, note=42, velocity=0, time=56),\n",
       "    Message('control_change', channel=2, control=64, value=0, time=16),\n",
       "    Message('note_on', channel=2, note=43, velocity=95, time=56),\n",
       "    Message('note_on', channel=2, note=63, velocity=86, time=0),\n",
       "    Message('note_on', channel=2, note=67, velocity=95, time=0),\n",
       "    Message('note_on', channel=2, note=70, velocity=98, time=0),\n",
       "    Message('control_change', channel=2, control=64, value=127, time=100),\n",
       "    Message('note_on', channel=2, note=63, velocity=0, time=172),\n",
       "    Message('note_on', channel=2, note=67, velocity=0, time=20),\n",
       "    Message('note_on', channel=2, note=70, velocity=0, time=12),\n",
       "    Message('note_on', channel=2, note=43, velocity=0, time=76),\n",
       "    Message('note_on', channel=2, note=63, velocity=98, time=4),\n",
       "    Message('note_on', channel=2, note=67, velocity=104, time=0),\n",
       "    Message('note_on', channel=2, note=70, velocity=98, time=0),\n",
       "    Message('note_on', channel=2, note=63, velocity=0, time=56),\n",
       "    Message('note_on', channel=2, note=67, velocity=0, time=8),\n",
       "    Message('note_on', channel=2, note=70, velocity=0, time=4),\n",
       "    Message('control_change', channel=2, control=64, value=0, time=276),\n",
       "    Message('note_on', channel=2, note=32, velocity=86, time=40),\n",
       "    Message('note_on', channel=2, note=44, velocity=98, time=0),\n",
       "    Message('note_on', channel=2, note=63, velocity=86, time=0),\n",
       "    Message('note_on', channel=2, note=68, velocity=72, time=0),\n",
       "    Message('note_on', channel=2, note=72, velocity=104, time=0),\n",
       "    Message('note_on', channel=2, note=68, velocity=0, time=172),\n",
       "    Message('note_on', channel=2, note=63, velocity=0, time=24),\n",
       "    Message('note_on', channel=2, note=72, velocity=0, time=8),\n",
       "    Message('note_on', channel=2, note=32, velocity=0, time=12),\n",
       "    Message('note_on', channel=2, note=44, velocity=0, time=28),\n",
       "    Message('note_on', channel=2, note=32, velocity=86, time=140),\n",
       "    Message('note_on', channel=2, note=44, velocity=86, time=0),\n",
       "    Message('note_on', channel=2, note=63, velocity=98, time=0),\n",
       "    Message('note_on', channel=2, note=68, velocity=86, time=0),\n",
       "    Message('note_on', channel=2, note=72, velocity=104, time=0),\n",
       "    Message('note_on', channel=2, note=63, velocity=0, time=236),\n",
       "    Message('note_on', channel=2, note=44, velocity=0, time=12),\n",
       "    Message('note_on', channel=2, note=72, velocity=0, time=4),\n",
       "    Message('note_on', channel=2, note=32, velocity=0, time=4),\n",
       "    Message('note_on', channel=2, note=68, velocity=0, time=16),\n",
       "    Message('note_on', channel=2, note=33, velocity=82, time=112),\n",
       "    Message('note_on', channel=2, note=45, velocity=71, time=0),\n",
       "    Message('note_on', channel=2, note=64, velocity=82, time=0),\n",
       "    Message('note_on', channel=2, note=69, velocity=95, time=0),\n",
       "    Message('note_on', channel=2, note=72, velocity=82, time=0),\n",
       "    Message('note_on', channel=2, note=33, velocity=0, time=256),\n",
       "    Message('note_on', channel=2, note=45, velocity=0, time=16),\n",
       "    Message('note_on', channel=2, note=64, velocity=0, time=0),\n",
       "    Message('note_on', channel=2, note=72, velocity=0, time=4),\n",
       "    Message('note_on', channel=2, note=69, velocity=0, time=4),\n",
       "    Message('note_on', channel=2, note=33, velocity=82, time=104),\n",
       "    Message('note_on', channel=2, note=45, velocity=95, time=0),\n",
       "    Message('note_on', channel=2, note=64, velocity=95, time=0),\n",
       "    Message('note_on', channel=2, note=69, velocity=95, time=0),\n",
       "    Message('note_on', channel=2, note=72, velocity=104, time=0),\n",
       "    Message('note_on', channel=2, note=33, velocity=0, time=188),\n",
       "    Message('note_on', channel=2, note=45, velocity=0, time=60),\n",
       "    Message('note_on', channel=2, note=64, velocity=0, time=24),\n",
       "    Message('note_on', channel=2, note=69, velocity=0, time=12),\n",
       "    Message('note_on', channel=2, note=72, velocity=0, time=20),\n",
       "    Message('note_on', channel=2, note=34, velocity=86, time=80),\n",
       "    Message('note_on', channel=2, note=46, velocity=86, time=0),\n",
       "    Message('note_on', channel=2, note=65, velocity=95, time=0),\n",
       "    Message('note_on', channel=2, note=70, velocity=98, time=0),\n",
       "    Message('note_on', channel=2, note=73, velocity=98, time=0),\n",
       "    Message('note_on', channel=2, note=34, velocity=0, time=224),\n",
       "    Message('note_on', channel=2, note=46, velocity=0, time=36),\n",
       "    Message('note_on', channel=2, note=70, velocity=0, time=12),\n",
       "    Message('note_on', channel=2, note=73, velocity=0, time=0),\n",
       "    Message('note_on', channel=2, note=65, velocity=0, time=8),\n",
       "    Message('note_on', channel=2, note=34, velocity=98, time=104),\n",
       "    Message('note_on', channel=2, note=46, velocity=98, time=0),\n",
       "    Message('note_on', channel=2, note=65, velocity=95, time=0),\n",
       "    Message('note_on', channel=2, note=70, velocity=86, time=0),\n",
       "    Message('note_on', channel=2, note=73, velocity=98, time=0),\n",
       "    Message('control_change', channel=2, control=64, value=127, time=32),\n",
       "    Message('note_on', channel=2, note=73, velocity=0, time=32),\n",
       "    Message('note_on', channel=2, note=70, velocity=0, time=0),\n",
       "    Message('note_on', channel=2, note=65, velocity=0, time=16),\n",
       "    Message('note_on', channel=2, note=34, velocity=0, time=0),\n",
       "    Message('note_on', channel=2, note=46, velocity=0, time=12),\n",
       "    Message('control_change', channel=2, control=64, value=0, time=268),\n",
       "    Message('note_on', channel=2, note=42, velocity=106, time=24),\n",
       "    Message('note_on', channel=2, note=54, velocity=98, time=0),\n",
       "    Message('note_on', channel=2, note=57, velocity=104, time=0),\n",
       "    Message('note_on', channel=2, note=61, velocity=98, time=0),\n",
       "    Message('note_on', channel=2, note=64, velocity=104, time=0),\n",
       "    Message('control_change', channel=2, control=64, value=127, time=476),\n",
       "    Message('note_on', channel=2, note=54, velocity=0, time=128),\n",
       "    Message('note_on', channel=2, note=42, velocity=0, time=4),\n",
       "    Message('note_on', channel=2, note=64, velocity=0, time=24),\n",
       "    Message('note_on', channel=2, note=57, velocity=0, time=0),\n",
       "    Message('note_on', channel=2, note=61, velocity=0, time=4),\n",
       "    Message('control_change', channel=2, control=64, value=0, time=844),\n",
       "    Message('note_on', channel=2, note=45, velocity=127, time=56),\n",
       "    Message('note_on', channel=2, note=55, velocity=127, time=0),\n",
       "    Message('note_on', channel=2, note=59, velocity=127, time=0),\n",
       "    Message('note_on', channel=2, note=62, velocity=127, time=0),\n",
       "    Message('note_on', channel=2, note=67, velocity=127, time=0),\n",
       "    Message('control_change', channel=2, control=64, value=127, time=56),\n",
       "    Message('note_on', channel=2, note=55, velocity=0, time=588),\n",
       "    Message('note_on', channel=2, note=45, velocity=0, time=36),\n",
       "    Message('note_on', channel=2, note=59, velocity=0, time=4),\n",
       "    Message('note_on', channel=2, note=62, velocity=0, time=12),\n",
       "    Message('note_on', channel=2, note=67, velocity=0, time=0),\n",
       "    Message('note_on', channel=2, note=45, velocity=127, time=72),\n",
       "    Message('note_on', channel=2, note=55, velocity=127, time=256),\n",
       "    Message('note_on', channel=2, note=59, velocity=127, time=0),\n",
       "    Message('note_on', channel=2, note=62, velocity=127, time=0),\n",
       "    Message('note_on', channel=2, note=67, velocity=127, time=0),\n",
       "    Message('note_on', channel=2, note=45, velocity=0, time=12),\n",
       "    Message('note_on', channel=2, note=45, velocity=127, time=116),\n",
       "    Message('note_on', channel=2, note=55, velocity=0, time=52),\n",
       "    Message('note_on', channel=2, note=67, velocity=0, time=36),\n",
       "    Message('note_on', channel=2, note=59, velocity=0, time=20),\n",
       "    Message('note_on', channel=2, note=62, velocity=0, time=12),\n",
       "    Message('note_on', channel=2, note=55, velocity=127, time=8),\n",
       "    Message('note_on', channel=2, note=45, velocity=0, time=56),\n",
       "    Message('note_on', channel=2, note=55, velocity=0, time=28),\n",
       "    Message('note_on', channel=2, note=59, velocity=127, time=44),\n",
       "    Message('note_on', channel=2, note=59, velocity=0, time=44),\n",
       "    Message('control_change', channel=2, control=64, value=0, time=52),\n",
       "    Message('note_on', channel=2, note=45, velocity=127, time=32),\n",
       "    Message('note_on', channel=2, note=57, velocity=127, time=0),\n",
       "    Message('note_on', channel=2, note=62, velocity=127, time=0),\n",
       "    Message('note_on', channel=2, note=66, velocity=127, time=0),\n",
       "    Message('control_change', channel=2, control=64, value=127, time=356),\n",
       "    Message('note_on', channel=2, note=45, velocity=0, time=276),\n",
       "    Message('note_on', channel=2, note=45, velocity=127, time=136),\n",
       "    Message('note_on', channel=2, note=66, velocity=0, time=48),\n",
       "    Message('note_on', channel=2, note=57, velocity=0, time=4),\n",
       "    Message('note_on', channel=2, note=62, velocity=0, time=12),\n",
       "    Message('note_on', channel=2, note=45, velocity=0, time=168),\n",
       "    Message('note_on', channel=2, note=57, velocity=127, time=24),\n",
       "    Message('note_on', channel=2, note=62, velocity=127, time=0),\n",
       "    Message('note_on', channel=2, note=66, velocity=126, time=0),\n",
       "    Message('note_on', channel=2, note=45, velocity=127, time=128),\n",
       "    Message('note_on', channel=2, note=57, velocity=0, time=36),\n",
       "    Message('note_on', channel=2, note=66, velocity=0, time=32),\n",
       "    Message('note_on', channel=2, note=62, velocity=0, time=4),\n",
       "    Message('note_on', channel=2, note=57, velocity=127, time=56),\n",
       "    Message('note_on', channel=2, note=45, velocity=0, time=56),\n",
       "    Message('note_on', channel=2, note=57, velocity=0, time=40),\n",
       "    Message('note_on', channel=2, note=62, velocity=127, time=32),\n",
       "    Message('note_on', channel=2, note=62, velocity=0, time=44),\n",
       "    Message('control_change', channel=2, control=64, value=0, time=36),\n",
       "    Message('note_on', channel=2, note=45, velocity=127, time=48),\n",
       "    Message('note_on', channel=2, note=55, velocity=127, time=0),\n",
       "    Message('note_on', channel=2, note=57, velocity=127, time=0),\n",
       "    Message('note_on', channel=2, note=59, velocity=127, time=0),\n",
       "    Message('note_on', channel=2, note=64, velocity=122, time=0),\n",
       "    Message('note_on', channel=2, note=59, velocity=0, time=148),\n",
       "    Message('control_change', channel=2, control=64, value=127, time=220),\n",
       "    Message('note_on', channel=2, note=45, velocity=0, time=232),\n",
       "    Message('note_on', channel=2, note=45, velocity=122, time=168),\n",
       "    Message('note_on', channel=2, note=57, velocity=0, time=60),\n",
       "    Message('note_on', channel=2, note=64, velocity=0, time=12),\n",
       "    Message('note_on', channel=2, note=55, velocity=0, time=0),\n",
       "    Message('note_on', channel=2, note=55, velocity=127, time=184),\n",
       "    Message('note_on', channel=2, note=57, velocity=127, time=0),\n",
       "    Message('note_on', channel=2, note=64, velocity=127, time=0),\n",
       "    Message('note_on', channel=2, note=45, velocity=0, time=52),\n",
       "    Message('note_on', channel=2, note=45, velocity=122, time=76),\n",
       "    Message('note_on', channel=2, note=55, velocity=0, time=56),\n",
       "    Message('note_on', channel=2, note=55, velocity=127, time=72),\n",
       "    Message('note_on', channel=2, note=64, velocity=0, time=4),\n",
       "    Message('note_on', channel=2, note=57, velocity=0, time=0),\n",
       "    Message('note_on', channel=2, note=45, velocity=0, time=8),\n",
       "    Message('note_on', channel=2, note=55, velocity=0, time=52),\n",
       "    Message('note_on', channel=2, note=45, velocity=122, time=64),\n",
       "    Message('note_on', channel=2, note=45, velocity=0, time=76),\n",
       "    Message('control_change', channel=2, control=64, value=0, time=16),\n",
       "    Message('note_on', channel=2, note=45, velocity=127, time=36),\n",
       "    Message('note_on', channel=2, note=57, velocity=127, time=0),\n",
       "    Message('note_on', channel=2, note=62, velocity=127, time=0),\n",
       "    Message('note_on', channel=2, note=66, velocity=126, time=0),\n",
       "    Message('control_change', channel=2, control=64, value=127, time=324),\n",
       "    Message('note_on', channel=2, note=45, velocity=0, time=316),\n",
       "    Message('note_on', channel=2, note=57, velocity=0, time=88),\n",
       "    Message('note_on', channel=2, note=66, velocity=0, time=0),\n",
       "    Message('note_on', channel=2, note=62, velocity=0, time=8),\n",
       "    Message('note_on', channel=2, note=45, velocity=127, time=32),\n",
       "    Message('note_on', channel=2, note=57, velocity=127, time=256),\n",
       "    Message('note_on', channel=2, note=62, velocity=127, time=0),\n",
       "    Message('note_on', channel=2, note=66, velocity=126, time=0),\n",
       "    Message('note_on', channel=2, note=69, velocity=127, time=0),\n",
       "    Message('note_on', channel=2, note=45, velocity=0, time=16),\n",
       "    Message('note_on', channel=2, note=45, velocity=127, time=112),\n",
       "    Message('note_on', channel=2, note=57, velocity=0, time=40),\n",
       "    Message('note_on', channel=2, note=69, velocity=0, time=24),\n",
       "    Message('note_on', channel=2, note=62, velocity=0, time=48),\n",
       "    Message('note_on', channel=2, note=66, velocity=0, time=12),\n",
       "    Message('note_on', channel=2, note=57, velocity=127, time=4),\n",
       "    Message('note_on', channel=2, note=45, velocity=0, time=16),\n",
       "    Message('note_on', channel=2, note=57, velocity=0, time=52),\n",
       "    Message('note_on', channel=2, note=45, velocity=122, time=60),\n",
       "    Message('note_on', channel=2, note=45, velocity=0, time=72),\n",
       "    Message('control_change', channel=2, control=64, value=0, time=20),\n",
       "    Message('note_on', channel=2, note=45, velocity=127, time=36),\n",
       "    Message('note_on', channel=2, note=55, velocity=127, time=0),\n",
       "    Message('note_on', channel=2, note=59, velocity=127, time=0),\n",
       "    Message('note_on', channel=2, note=62, velocity=127, time=0),\n",
       "    Message('note_on', channel=2, note=67, velocity=127, time=0),\n",
       "    Message('control_change', channel=2, control=64, value=127, time=336),\n",
       "    Message('note_on', channel=2, note=45, velocity=0, time=304),\n",
       "    Message('note_on', channel=2, note=45, velocity=127, time=128),\n",
       "    Message('note_on', channel=2, note=59, velocity=0, time=20),\n",
       "    Message('note_on', channel=2, note=67, velocity=0, time=4),\n",
       "    Message('note_on', channel=2, note=55, velocity=0, time=0),\n",
       "    Message('note_on', channel=2, note=62, velocity=0, time=0),\n",
       "    Message('note_on', channel=2, note=55, velocity=127, time=232),\n",
       "    Message('note_on', channel=2, note=59, velocity=127, time=0),\n",
       "    Message('note_on', channel=2, note=62, velocity=127, time=0),\n",
       "    Message('note_on', channel=2, note=67, velocity=127, time=0),\n",
       "    Message('note_on', channel=2, note=45, velocity=0, time=132),\n",
       "    Message('note_on', channel=2, note=55, velocity=0, time=40),\n",
       "    Message('note_on', channel=2, note=59, velocity=0, time=64),\n",
       "    Message('note_on', channel=2, note=67, velocity=0, time=12),\n",
       "    Message('note_on', channel=2, note=55, velocity=127, time=8),\n",
       "    Message('note_on', channel=2, note=62, velocity=0, time=88),\n",
       "    Message('note_on', channel=2, note=55, velocity=0, time=12),\n",
       "    Message('note_on', channel=2, note=59, velocity=127, time=28),\n",
       "    Message('note_on', channel=2, note=59, velocity=0, time=40),\n",
       "    Message('control_change', channel=2, control=64, value=0, time=36),\n",
       "    Message('note_on', channel=2, note=45, velocity=127, time=52),\n",
       "    Message('note_on', channel=2, note=57, velocity=127, time=0),\n",
       "    Message('note_on', channel=2, note=62, velocity=127, time=0),\n",
       "    Message('note_on', channel=2, note=66, velocity=127, time=0),\n",
       "    Message('control_change', channel=2, control=64, value=127, time=320),\n",
       "    Message('note_on', channel=2, note=45, velocity=0, time=320),\n",
       "    Message('note_on', channel=2, note=45, velocity=127, time=128),\n",
       "    Message('note_on', channel=2, note=66, velocity=0, time=20),\n",
       "    Message('note_on', channel=2, note=57, velocity=0, time=12),\n",
       "    Message('note_on', channel=2, note=62, velocity=0, time=0),\n",
       "    Message('note_on', channel=2, note=45, velocity=0, time=212),\n",
       "    Message('note_on', channel=2, note=57, velocity=127, time=12),\n",
       "    Message('note_on', channel=2, note=62, velocity=127, time=0),\n",
       "    Message('note_on', channel=2, note=66, velocity=127, time=0),\n",
       "    Message('note_on', channel=2, note=45, velocity=127, time=128),\n",
       "    Message('note_on', channel=2, note=57, velocity=0, time=36),\n",
       "    Message('note_on', channel=2, note=66, velocity=0, time=12),\n",
       "    Message('note_on', channel=2, note=62, velocity=0, time=52),\n",
       "    Message('note_on', channel=2, note=57, velocity=127, time=28),\n",
       "    Message('note_on', channel=2, note=45, velocity=0, time=40),\n",
       "    Message('note_on', channel=2, note=57, velocity=0, time=52),\n",
       "    Message('note_on', channel=2, note=62, velocity=127, time=36),\n",
       "    Message('note_on', channel=2, note=62, velocity=0, time=36),\n",
       "    Message('control_change', channel=2, control=64, value=0, time=40),\n",
       "    Message('note_on', channel=2, note=45, velocity=127, time=52),\n",
       "    Message('note_on', channel=2, note=55, velocity=127, time=0),\n",
       "    Message('note_on', channel=2, note=57, velocity=127, time=0),\n",
       "    Message('note_on', channel=2, note=60, velocity=127, time=0),\n",
       "    Message('note_on', channel=2, note=64, velocity=127, time=0),\n",
       "    Message('control_change', channel=2, control=64, value=127, time=424),\n",
       "    Message('control_change', channel=2, control=64, value=0, time=2608),\n",
       "    Message('note_on', channel=2, note=64, velocity=0, time=40),\n",
       "    Message('note_on', channel=2, note=57, velocity=0, time=0),\n",
       "    Message('note_on', channel=2, note=45, velocity=0, time=0),\n",
       "    Message('note_on', channel=2, note=55, velocity=0, time=0),\n",
       "    Message('note_on', channel=2, note=60, velocity=0, time=0),\n",
       "    Message('note_on', channel=2, note=45, velocity=127, time=0),\n",
       "    Message('note_on', channel=2, note=55, velocity=127, time=0),\n",
       "    Message('note_on', channel=2, note=57, velocity=127, time=0),\n",
       "    Message('note_on', channel=2, note=60, velocity=127, time=0),\n",
       "    Message('note_on', channel=2, note=64, velocity=127, time=0),\n",
       "    Message('note_on', channel=2, note=55, velocity=0, time=1232),\n",
       "    Message('note_on', channel=2, note=60, velocity=0, time=8),\n",
       "    Message('note_on', channel=2, note=57, velocity=0, time=0),\n",
       "    Message('note_on', channel=2, note=64, velocity=0, time=8),\n",
       "    Message('note_on', channel=2, note=45, velocity=0, time=4),\n",
       "    Message('note_on', channel=2, note=46, velocity=124, time=1820),\n",
       "    Message('note_on', channel=2, note=53, velocity=110, time=0),\n",
       "    Message('note_on', channel=2, note=58, velocity=100, time=0),\n",
       "    Message('note_on', channel=2, note=61, velocity=114, time=0),\n",
       "    Message('note_on', channel=2, note=65, velocity=110, time=0),\n",
       "    Message('note_on', channel=2, note=58, velocity=0, time=96),\n",
       "    Message('note_on', channel=2, note=61, velocity=0, time=4),\n",
       "    Message('note_on', channel=2, note=46, velocity=0, time=28),\n",
       "    Message('note_on', channel=2, note=53, velocity=0, time=0),\n",
       "    Message('note_on', channel=2, note=65, velocity=0, time=8),\n",
       "    Message('note_on', channel=2, note=53, velocity=110, time=248),\n",
       "    Message('note_on', channel=2, note=58, velocity=124, time=0),\n",
       "    Message('note_on', channel=2, note=61, velocity=114, time=0),\n",
       "    Message('note_on', channel=2, note=65, velocity=110, time=0),\n",
       "    Message('note_on', channel=2, note=65, velocity=0, time=240),\n",
       "    Message('note_on', channel=2, note=61, velocity=0, time=8),\n",
       "    Message('note_on', channel=2, note=58, velocity=0, time=0),\n",
       "    Message('note_on', channel=2, note=53, velocity=0, time=4),\n",
       "    Message('note_on', channel=2, note=46, velocity=100, time=4),\n",
       "    Message('note_on', channel=2, note=46, velocity=0, time=120),\n",
       "    Message('note_on', channel=2, note=53, velocity=110, time=8),\n",
       "    Message('note_on', channel=2, note=58, velocity=100, time=0),\n",
       "    Message('note_on', channel=2, note=61, velocity=100, time=0),\n",
       "    Message('note_on', channel=2, note=65, velocity=95, time=0),\n",
       "    Message('note_on', channel=2, note=65, velocity=0, time=232),\n",
       "    Message('note_on', channel=2, note=53, velocity=0, time=8),\n",
       "    Message('note_on', channel=2, note=61, velocity=0, time=4),\n",
       "    Message('note_on', channel=2, note=58, velocity=0, time=0),\n",
       "    Message('note_on', channel=2, note=46, velocity=114, time=12),\n",
       "    Message('note_on', channel=2, note=46, velocity=0, time=104),\n",
       "    Message('note_on', channel=2, note=53, velocity=121, time=24),\n",
       "    Message('note_on', channel=2, note=58, velocity=114, time=0),\n",
       "    Message('note_on', channel=2, note=61, velocity=114, time=0),\n",
       "    Message('note_on', channel=2, note=65, velocity=110, time=0),\n",
       "    Message('note_on', channel=2, note=65, velocity=0, time=184),\n",
       "    Message('note_on', channel=2, note=53, velocity=0, time=0),\n",
       "    Message('note_on', channel=2, note=61, velocity=0, time=16),\n",
       "    Message('note_on', channel=2, note=58, velocity=0, time=8),\n",
       "    Message('note_on', channel=2, note=46, velocity=114, time=48),\n",
       "    Message('note_on', channel=2, note=46, velocity=0, time=72),\n",
       "    Message('note_on', channel=2, note=42, velocity=100, time=56),\n",
       "    Message('note_on', channel=2, note=54, velocity=114, time=0),\n",
       "    Message('note_on', channel=2, note=58, velocity=100, time=0),\n",
       "    Message('note_on', channel=2, note=61, velocity=114, time=0),\n",
       "    Message('note_on', channel=2, note=63, velocity=114, time=0),\n",
       "    Message('note_on', channel=2, note=42, velocity=0, time=132),\n",
       "    Message('note_on', channel=2, note=54, velocity=0, time=4),\n",
       "    Message('note_on', channel=2, note=58, velocity=0, time=4),\n",
       "    Message('note_on', channel=2, note=61, velocity=0, time=4),\n",
       "    Message('note_on', channel=2, note=63, velocity=0, time=0),\n",
       "    Message('note_on', channel=2, note=54, velocity=114, time=240),\n",
       "    Message('note_on', channel=2, note=58, velocity=124, time=0),\n",
       "    Message('note_on', channel=2, note=61, velocity=114, time=0),\n",
       "    Message('note_on', channel=2, note=63, velocity=114, time=0),\n",
       "    Message('note_on', channel=2, note=42, velocity=100, time=256),\n",
       "    Message('note_on', channel=2, note=63, velocity=0, time=8),\n",
       "    Message('note_on', channel=2, note=54, velocity=0, time=4),\n",
       "    Message('note_on', channel=2, note=58, velocity=0, time=8),\n",
       "    Message('note_on', channel=2, note=61, velocity=0, time=0),\n",
       "    Message('note_on', channel=2, note=42, velocity=0, time=108),\n",
       "    Message('note_on', channel=2, note=54, velocity=100, time=0),\n",
       "    Message('note_on', channel=2, note=58, velocity=100, time=0),\n",
       "    Message('note_on', channel=2, note=61, velocity=100, time=0),\n",
       "    Message('note_on', channel=2, note=63, velocity=114, time=0),\n",
       "    Message('note_on', channel=2, note=63, velocity=0, time=252),\n",
       "    Message('note_on', channel=2, note=54, velocity=0, time=4),\n",
       "    Message('note_on', channel=2, note=42, velocity=114, time=0),\n",
       "    Message('note_on', channel=2, note=61, velocity=0, time=8),\n",
       "    Message('note_on', channel=2, note=58, velocity=0, time=4),\n",
       "    Message('note_on', channel=2, note=42, velocity=0, time=100),\n",
       "    Message('note_on', channel=2, note=54, velocity=114, time=16),\n",
       "    Message('note_on', channel=2, note=58, velocity=114, time=0),\n",
       "    Message('note_on', channel=2, note=61, velocity=114, time=0),\n",
       "    Message('note_on', channel=2, note=63, velocity=114, time=0),\n",
       "    Message('note_on', channel=2, note=63, velocity=0, time=180),\n",
       "    Message('note_on', channel=2, note=54, velocity=0, time=20),\n",
       "    Message('note_on', channel=2, note=61, velocity=0, time=8),\n",
       "    Message('note_on', channel=2, note=58, velocity=0, time=4),\n",
       "    Message('note_on', channel=2, note=42, velocity=114, time=44),\n",
       "    Message('note_on', channel=2, note=42, velocity=0, time=68),\n",
       "    Message('note_on', channel=2, note=37, velocity=114, time=60),\n",
       "    Message('note_on', channel=2, note=53, velocity=95, time=0),\n",
       "    Message('note_on', channel=2, note=56, velocity=114, time=0),\n",
       "    Message('note_on', channel=2, note=61, velocity=100, time=0),\n",
       "    Message('note_on', channel=2, note=56, velocity=0, time=136),\n",
       "    Message('note_on', channel=2, note=61, velocity=0, time=24),\n",
       "    Message('note_on', channel=2, note=53, velocity=0, time=0),\n",
       "    Message('note_on', channel=2, note=37, velocity=0, time=4),\n",
       "    Message('note_on', channel=2, note=53, velocity=121, time=220),\n",
       "    Message('note_on', channel=2, note=56, velocity=124, time=0),\n",
       "    Message('note_on', channel=2, note=61, velocity=124, time=0),\n",
       "    Message('note_on', channel=2, note=61, velocity=0, time=196),\n",
       "    Message('note_on', channel=2, note=56, velocity=0, time=8),\n",
       "    Message('note_on', channel=2, note=53, velocity=0, time=8),\n",
       "    Message('note_on', channel=2, note=37, velocity=84, time=44),\n",
       "    Message('note_on', channel=2, note=37, velocity=0, time=44),\n",
       "    Message('note_on', channel=2, note=36, velocity=110, time=84),\n",
       "    Message('note_on', channel=2, note=51, velocity=100, time=0),\n",
       "    Message('note_on', channel=2, note=56, velocity=114, time=0),\n",
       "    Message('note_on', channel=2, note=60, velocity=121, time=0),\n",
       "    Message('note_on', channel=2, note=60, velocity=0, time=216),\n",
       "    Message('note_on', channel=2, note=56, velocity=0, time=8),\n",
       "    Message('note_on', channel=2, note=51, velocity=0, time=88),\n",
       "    Message('note_on', channel=2, note=51, velocity=124, time=72),\n",
       "    Message('note_on', channel=2, note=56, velocity=124, time=0),\n",
       "    Message('note_on', channel=2, note=60, velocity=121, time=0),\n",
       "    Message('note_on', channel=2, note=36, velocity=0, time=48),\n",
       "    Message('note_on', channel=2, note=56, velocity=0, time=120),\n",
       "    Message('note_on', channel=2, note=51, velocity=0, time=12),\n",
       "    Message('note_on', channel=2, note=60, velocity=0, time=0),\n",
       "    Message('note_on', channel=2, note=36, velocity=121, time=76),\n",
       "    Message('note_on', channel=2, note=36, velocity=0, time=80),\n",
       "    Message('note_on', channel=2, note=39, velocity=114, time=48),\n",
       "    Message('note_on', channel=2, note=51, velocity=100, time=0),\n",
       "    Message('note_on', channel=2, note=55, velocity=110, time=0),\n",
       "    Message('note_on', channel=2, note=58, velocity=100, time=0),\n",
       "    Message('note_on', channel=2, note=51, velocity=0, time=124),\n",
       "    Message('note_on', channel=2, note=39, velocity=0, time=0),\n",
       "    Message('note_on', channel=2, note=58, velocity=0, time=4),\n",
       "    Message('note_on', channel=2, note=55, velocity=0, time=8),\n",
       "    Message('note_on', channel=2, note=51, velocity=114, time=248),\n",
       "    Message('note_on', channel=2, note=55, velocity=124, time=0),\n",
       "    Message('note_on', channel=2, note=58, velocity=114, time=0),\n",
       "    Message('note_on', channel=2, note=51, velocity=0, time=256),\n",
       "    Message('note_on', channel=2, note=39, velocity=100, time=0),\n",
       "    Message('note_on', channel=2, note=58, velocity=0, time=8),\n",
       "    Message('note_on', channel=2, note=55, velocity=0, time=20),\n",
       "    Message('note_on', channel=2, note=39, velocity=0, time=96),\n",
       "    Message('note_on', channel=2, note=51, velocity=114, time=4),\n",
       "    Message('note_on', channel=2, note=55, velocity=121, time=0),\n",
       "    Message('note_on', channel=2, note=58, velocity=114, time=0),\n",
       "    Message('note_on', channel=2, note=39, velocity=100, time=256),\n",
       "    Message('note_on', channel=2, note=51, velocity=0, time=8),\n",
       "    Message('note_on', channel=2, note=58, velocity=0, time=24),\n",
       "    Message('note_on', channel=2, note=55, velocity=0, time=8),\n",
       "    Message('note_on', channel=2, note=39, velocity=0, time=84),\n",
       "    Message('note_on', channel=2, note=51, velocity=114, time=4),\n",
       "    Message('note_on', channel=2, note=55, velocity=121, time=0),\n",
       "    Message('note_on', channel=2, note=58, velocity=114, time=0),\n",
       "    Message('note_on', channel=2, note=63, velocity=100, time=0),\n",
       "    Message('note_on', channel=2, note=63, velocity=0, time=184),\n",
       "    Message('note_on', channel=2, note=51, velocity=0, time=32),\n",
       "    Message('note_on', channel=2, note=55, velocity=0, time=0),\n",
       "    Message('note_on', channel=2, note=58, velocity=0, time=8),\n",
       "    Message('note_on', channel=2, note=39, velocity=114, time=32),\n",
       "    Message('note_on', channel=2, note=39, velocity=0, time=64),\n",
       "    Message('note_on', channel=2, note=42, velocity=114, time=64),\n",
       "    Message('note_on', channel=2, note=49, velocity=100, time=0),\n",
       "    Message('note_on', channel=2, note=54, velocity=114, time=0),\n",
       "    Message('note_on', channel=2, note=58, velocity=114, time=0),\n",
       "    Message('note_on', channel=2, note=54, velocity=0, time=120),\n",
       "    Message('note_on', channel=2, note=58, velocity=0, time=20),\n",
       "    Message('note_on', channel=2, note=49, velocity=0, time=0),\n",
       "    Message('note_on', channel=2, note=42, velocity=0, time=4),\n",
       "    Message('note_on', channel=2, note=49, velocity=114, time=240),\n",
       "    Message('note_on', channel=2, note=54, velocity=114, time=0),\n",
       "    Message('note_on', channel=2, note=58, velocity=114, time=0),\n",
       "    Message('note_on', channel=2, note=61, velocity=100, time=0),\n",
       "    Message('note_on', channel=2, note=42, velocity=114, time=256),\n",
       "    Message('note_on', channel=2, note=49, velocity=0, time=8),\n",
       "    Message('note_on', channel=2, note=61, velocity=0, time=8),\n",
       "    Message('note_on', channel=2, note=54, velocity=0, time=0),\n",
       "    Message('note_on', channel=2, note=58, velocity=0, time=0),\n",
       "    Message('note_on', channel=2, note=42, velocity=0, time=96),\n",
       "    Message('note_on', channel=2, note=49, velocity=114, time=16),\n",
       "    Message('note_on', channel=2, note=54, velocity=100, time=0),\n",
       "    Message('note_on', channel=2, note=58, velocity=114, time=0),\n",
       "    Message('note_on', channel=2, note=61, velocity=100, time=0),\n",
       "    Message('note_on', channel=2, note=49, velocity=0, time=252),\n",
       "    Message('note_on', channel=2, note=61, velocity=0, time=4),\n",
       "    Message('note_on', channel=2, note=42, velocity=114, time=0),\n",
       "    Message('note_on', channel=2, note=58, velocity=0, time=4),\n",
       "    Message('note_on', channel=2, note=54, velocity=0, time=4),\n",
       "    Message('note_on', channel=2, note=42, velocity=0, time=108),\n",
       "    Message('note_on', channel=2, note=49, velocity=114, time=12),\n",
       "    Message('note_on', channel=2, note=54, velocity=114, time=0),\n",
       "    Message('note_on', channel=2, note=58, velocity=114, time=0),\n",
       "    Message('note_on', channel=2, note=61, velocity=100, time=0),\n",
       "    Message('note_on', channel=2, note=49, velocity=0, time=116),\n",
       "    Message('note_on', channel=2, note=54, velocity=0, time=44),\n",
       "    Message('note_on', channel=2, note=58, velocity=0, time=8),\n",
       "    Message('note_on', channel=2, note=61, velocity=0, time=8),\n",
       "    Message('note_on', channel=2, note=42, velocity=114, time=80),\n",
       "    Message('note_on', channel=2, note=42, velocity=0, time=40),\n",
       "    Message('note_on', channel=2, note=53, velocity=122, time=88),\n",
       "    Message('note_on', channel=2, note=61, velocity=126, time=0),\n",
       "    Message('note_on', channel=2, note=61, velocity=0, time=328),\n",
       "    Message('note_on', channel=2, note=53, velocity=0, time=16),\n",
       "    Message('note_on', channel=2, note=41, velocity=105, time=32),\n",
       "    Message('note_on', channel=2, note=57, velocity=122, time=4),\n",
       "    Message('note_on', channel=2, note=53, velocity=122, time=4),\n",
       "    Message('note_on', channel=2, note=60, velocity=127, time=4),\n",
       "    Message('note_on', channel=2, note=53, velocity=0, time=72),\n",
       "    Message('note_on', channel=2, note=57, velocity=0, time=4),\n",
       "    Message('note_on', channel=2, note=41, velocity=0, time=4),\n",
       "    Message('note_on', channel=2, note=60, velocity=0, time=8),\n",
       "    Message('note_on', channel=2, note=39, velocity=126, time=284),\n",
       "    Message('note_on', channel=2, note=58, velocity=126, time=8),\n",
       "    Message('note_on', channel=2, note=61, velocity=126, time=0),\n",
       "    Message('note_on', channel=2, note=54, velocity=126, time=4),\n",
       "    Message('note_on', channel=2, note=54, velocity=0, time=316),\n",
       "    Message('note_on', channel=2, note=39, velocity=0, time=0),\n",
       "    Message('note_on', channel=2, note=58, velocity=0, time=4),\n",
       "    Message('note_on', channel=2, note=61, velocity=0, time=24),\n",
       "    Message('note_on', channel=2, note=39, velocity=126, time=16),\n",
       "    Message('note_on', channel=2, note=60, velocity=127, time=16),\n",
       "    Message('note_on', channel=2, note=56, velocity=126, time=4),\n",
       "    Message('note_on', channel=2, note=63, velocity=126, time=0),\n",
       "    Message('note_on', channel=2, note=39, velocity=0, time=76),\n",
       "    Message('note_on', channel=2, note=56, velocity=0, time=8),\n",
       "    Message('note_on', channel=2, note=60, velocity=0, time=16),\n",
       "    Message('note_on', channel=2, note=63, velocity=0, time=4),\n",
       "    Message('note_on', channel=2, note=37, velocity=114, time=280),\n",
       "    Message('note_on', channel=2, note=53, velocity=110, time=0),\n",
       "    Message('note_on', channel=2, note=56, velocity=114, time=0),\n",
       "    Message('note_on', channel=2, note=61, velocity=114, time=0),\n",
       "    Message('note_on', channel=2, note=53, velocity=0, time=288),\n",
       "    Message('note_on', channel=2, note=61, velocity=0, time=12),\n",
       "    Message('note_on', channel=2, note=56, velocity=0, time=4),\n",
       "    Message('note_on', channel=2, note=53, velocity=121, time=80),\n",
       "    Message('note_on', channel=2, note=56, velocity=124, time=0),\n",
       "    Message('note_on', channel=2, note=61, velocity=114, time=0),\n",
       "    Message('note_on', channel=2, note=37, velocity=0, time=68),\n",
       "    Message('note_on', channel=2, note=61, velocity=0, time=36),\n",
       "    Message('note_on', channel=2, note=56, velocity=0, time=16),\n",
       "    Message('note_on', channel=2, note=53, velocity=0, time=8),\n",
       "    Message('note_on', channel=2, note=37, velocity=114, time=128),\n",
       "    Message('note_on', channel=2, note=37, velocity=0, time=92),\n",
       "    Message('note_on', channel=2, note=44, velocity=114, time=36),\n",
       "    Message('note_on', channel=2, note=49, velocity=114, time=0),\n",
       "    Message('note_on', channel=2, note=54, velocity=114, time=0),\n",
       "    Message('note_on', channel=2, note=58, velocity=114, time=0),\n",
       "    Message('note_on', channel=2, note=58, velocity=0, time=296),\n",
       "    Message('note_on', channel=2, note=49, velocity=0, time=0),\n",
       "    Message('note_on', channel=2, note=54, velocity=0, time=8),\n",
       "    Message('note_on', channel=2, note=49, velocity=114, time=80),\n",
       "    Message('note_on', channel=2, note=54, velocity=114, time=0),\n",
       "    Message('note_on', channel=2, note=58, velocity=114, time=0),\n",
       "    Message('note_on', channel=2, note=44, velocity=0, time=68),\n",
       "    Message('note_on', channel=2, note=58, velocity=0, time=188),\n",
       "    Message('note_on', channel=2, note=44, velocity=114, time=0),\n",
       "    Message('note_on', channel=2, note=54, velocity=0, time=12),\n",
       "    Message('note_on', channel=2, note=49, velocity=0, time=12),\n",
       "    Message('note_on', channel=2, note=44, velocity=0, time=48),\n",
       "    Message('note_on', channel=2, note=37, velocity=124, time=56),\n",
       "    Message('note_on', channel=2, note=49, velocity=114, time=0),\n",
       "    Message('note_on', channel=2, note=53, velocity=121, time=0),\n",
       "    Message('note_on', channel=2, note=56, velocity=124, time=0),\n",
       "    Message('note_on', channel=2, note=56, velocity=0, time=96),\n",
       "    Message('note_on', channel=2, note=37, velocity=0, time=0),\n",
       "    Message('note_on', channel=2, note=49, velocity=0, time=0),\n",
       "    Message('note_on', channel=2, note=53, velocity=0, time=0),\n",
       "    Message('note_on', channel=2, note=49, velocity=98, time=1440),\n",
       "    Message('note_on', channel=2, note=68, velocity=98, time=0),\n",
       "    Message('note_on', channel=2, note=73, velocity=98, time=0),\n",
       "    Message('note_on', channel=2, note=77, velocity=95, time=0),\n",
       "    Message('note_on', channel=2, note=73, velocity=0, time=36),\n",
       "    Message('note_on', channel=2, note=77, velocity=0, time=12),\n",
       "    Message('note_on', channel=2, note=68, velocity=0, time=4),\n",
       "    Message('note_on', channel=2, note=68, velocity=86, time=76),\n",
       "    Message('note_on', channel=2, note=73, velocity=98, time=0),\n",
       "    Message('note_on', channel=2, note=77, velocity=95, time=0),\n",
       "    Message('note_on', channel=2, note=77, velocity=0, time=44),\n",
       "    Message('note_on', channel=2, note=73, velocity=0, time=0),\n",
       "    Message('note_on', channel=2, note=68, velocity=0, time=16),\n",
       "    Message('note_on', channel=2, note=68, velocity=63, time=68),\n",
       "    Message('note_on', channel=2, note=73, velocity=86, time=0),\n",
       "    Message('note_on', channel=2, note=77, velocity=82, time=0),\n",
       "    Message('note_on', channel=2, note=77, velocity=0, time=40),\n",
       "    Message('note_on', channel=2, note=68, velocity=0, time=8),\n",
       "    Message('note_on', channel=2, note=73, velocity=0, time=4),\n",
       "    Message('note_on', channel=2, note=49, velocity=0, time=52),\n",
       "    Message('note_on', channel=2, note=46, velocity=98, time=24),\n",
       "    Message('note_on', channel=2, note=68, velocity=72, time=0),\n",
       "    Message('note_on', channel=2, note=73, velocity=86, time=0),\n",
       "    Message('note_on', channel=2, note=77, velocity=95, time=0),\n",
       "    Message('note_on', channel=2, note=73, velocity=0, time=56),\n",
       "    Message('note_on', channel=2, note=68, velocity=0, time=0),\n",
       "    Message('note_on', channel=2, note=77, velocity=0, time=8),\n",
       "    Message('note_on', channel=2, note=68, velocity=72, time=64),\n",
       "    Message('note_on', channel=2, note=73, velocity=86, time=0),\n",
       "    Message('note_on', channel=2, note=77, velocity=82, time=0),\n",
       "    Message('note_on', channel=2, note=77, velocity=0, time=52),\n",
       "    Message('note_on', channel=2, note=73, velocity=0, time=4),\n",
       "    Message('note_on', channel=2, note=68, velocity=0, time=0),\n",
       "    Message('note_on', channel=2, note=68, velocity=63, time=72),\n",
       "    Message('note_on', channel=2, note=73, velocity=86, time=0),\n",
       "    Message('note_on', channel=2, note=77, velocity=82, time=0),\n",
       "    Message('note_on', channel=2, note=77, velocity=0, time=52),\n",
       "    Message('note_on', channel=2, note=68, velocity=0, time=4),\n",
       "    Message('note_on', channel=2, note=73, velocity=0, time=4),\n",
       "    Message('note_on', channel=2, note=46, velocity=0, time=36),\n",
       "    Message('note_on', channel=2, note=44, velocity=86, time=32),\n",
       "    Message('note_on', channel=2, note=68, velocity=72, time=0),\n",
       "    Message('note_on', channel=2, note=73, velocity=86, time=0),\n",
       "    Message('note_on', channel=2, note=77, velocity=95, time=0),\n",
       "    Message('note_on', channel=2, note=68, velocity=0, time=60),\n",
       "    Message('note_on', channel=2, note=73, velocity=0, time=4),\n",
       "    Message('note_on', channel=2, note=77, velocity=0, time=8),\n",
       "    Message('note_on', channel=2, note=68, velocity=63, time=56),\n",
       "    Message('note_on', channel=2, note=73, velocity=86, time=0),\n",
       "    Message('note_on', channel=2, note=77, velocity=82, time=0),\n",
       "    Message('note_on', channel=2, note=68, velocity=0, time=56),\n",
       "    Message('note_on', channel=2, note=77, velocity=0, time=8),\n",
       "    Message('note_on', channel=2, note=73, velocity=0, time=0),\n",
       "    Message('note_on', channel=2, note=68, velocity=63, time=64),\n",
       "    Message('note_on', channel=2, note=73, velocity=86, time=0),\n",
       "    Message('note_on', channel=2, note=77, velocity=95, time=0),\n",
       "    Message('note_on', channel=2, note=73, velocity=0, time=56),\n",
       "    Message('note_on', channel=2, note=77, velocity=0, time=4),\n",
       "    Message('note_on', channel=2, note=68, velocity=0, time=0),\n",
       "    Message('note_on', channel=2, note=44, velocity=0, time=44),\n",
       "    Message('note_on', channel=2, note=46, velocity=98, time=24),\n",
       "    Message('note_on', channel=2, note=68, velocity=72, time=0),\n",
       "    Message('note_on', channel=2, note=73, velocity=98, time=0),\n",
       "    Message('note_on', channel=2, note=77, velocity=95, time=0),\n",
       "    Message('note_on', channel=2, note=73, velocity=0, time=56),\n",
       "    Message('note_on', channel=2, note=68, velocity=0, time=4),\n",
       "    Message('note_on', channel=2, note=77, velocity=0, time=4),\n",
       "    Message('note_on', channel=2, note=68, velocity=72, time=64),\n",
       "    Message('note_on', channel=2, note=73, velocity=86, time=0),\n",
       "    Message('note_on', channel=2, note=77, velocity=82, time=0),\n",
       "    Message('note_on', channel=2, note=77, velocity=0, time=52),\n",
       "    Message('note_on', channel=2, note=73, velocity=0, time=4),\n",
       "    Message('note_on', channel=2, note=68, velocity=0, time=8),\n",
       "    Message('note_on', channel=2, note=68, velocity=63, time=64),\n",
       "    Message('note_on', channel=2, note=73, velocity=86, time=0),\n",
       "    Message('note_on', channel=2, note=77, velocity=82, time=0),\n",
       "    Message('note_on', channel=2, note=77, velocity=0, time=52),\n",
       "    Message('note_on', channel=2, note=73, velocity=0, time=4),\n",
       "    Message('note_on', channel=2, note=68, velocity=0, time=0),\n",
       "    Message('note_on', channel=2, note=46, velocity=0, time=40),\n",
       "    Message('note_on', channel=2, note=49, velocity=98, time=32),\n",
       "    Message('note_on', channel=2, note=68, velocity=72, time=0),\n",
       "    Message('note_on', channel=2, note=73, velocity=86, time=0),\n",
       "    Message('note_on', channel=2, note=77, velocity=95, time=0),\n",
       "    Message('note_on', channel=2, note=73, velocity=0, time=60),\n",
       "    Message('note_on', channel=2, note=68, velocity=0, time=0),\n",
       "    Message('note_on', channel=2, note=77, velocity=0, time=4),\n",
       "    Message('note_on', channel=2, note=68, velocity=63, time=64),\n",
       "    Message('note_on', channel=2, note=73, velocity=72, time=0),\n",
       "    Message('note_on', channel=2, note=77, velocity=82, time=0),\n",
       "    Message('note_on', channel=2, note=77, velocity=0, time=56),\n",
       "    Message('note_on', channel=2, note=73, velocity=0, time=0),\n",
       "    Message('note_on', channel=2, note=68, velocity=0, time=4),\n",
       "    Message('note_on', channel=2, note=68, velocity=72, time=68),\n",
       "    Message('note_on', channel=2, note=73, velocity=86, time=0),\n",
       "    Message('note_on', channel=2, note=77, velocity=82, time=0),\n",
       "    Message('note_on', channel=2, note=77, velocity=0, time=48),\n",
       "    Message('note_on', channel=2, note=73, velocity=0, time=8),\n",
       "    Message('note_on', channel=2, note=68, velocity=0, time=0),\n",
       "    Message('note_on', channel=2, note=49, velocity=0, time=48),\n",
       "    Message('note_on', channel=2, note=46, velocity=98, time=24),\n",
       "    Message('note_on', channel=2, note=68, velocity=72, time=0),\n",
       "    Message('note_on', channel=2, note=73, velocity=98, time=0),\n",
       "    Message('note_on', channel=2, note=77, velocity=95, time=0),\n",
       "    Message('note_on', channel=2, note=73, velocity=0, time=56),\n",
       "    Message('note_on', channel=2, note=68, velocity=0, time=0),\n",
       "    Message('note_on', channel=2, note=77, velocity=0, time=4),\n",
       "    Message('note_on', channel=2, note=68, velocity=63, time=68),\n",
       "    Message('note_on', channel=2, note=73, velocity=86, time=0),\n",
       "    Message('note_on', channel=2, note=77, velocity=82, time=0),\n",
       "    Message('note_on', channel=2, note=73, velocity=0, time=52),\n",
       "    Message('note_on', channel=2, note=77, velocity=0, time=4),\n",
       "    Message('note_on', channel=2, note=68, velocity=0, time=0),\n",
       "    Message('note_on', channel=2, note=68, velocity=63, time=72),\n",
       "    Message('note_on', channel=2, note=73, velocity=86, time=0),\n",
       "    Message('note_on', channel=2, note=77, velocity=82, time=0),\n",
       "    Message('note_on', channel=2, note=77, velocity=0, time=56),\n",
       "    Message('note_on', channel=2, note=73, velocity=0, time=0),\n",
       "    Message('note_on', channel=2, note=68, velocity=0, time=4),\n",
       "    Message('note_on', channel=2, note=46, velocity=0, time=44),\n",
       "    Message('note_on', channel=2, note=44, velocity=98, time=24),\n",
       "    Message('note_on', channel=2, note=68, velocity=72, time=0),\n",
       "    Message('note_on', channel=2, note=73, velocity=98, time=0),\n",
       "    Message('note_on', channel=2, note=77, velocity=95, time=0),\n",
       "    Message('note_on', channel=2, note=73, velocity=0, time=52),\n",
       "    Message('note_on', channel=2, note=77, velocity=0, time=4),\n",
       "    Message('note_on', channel=2, note=68, velocity=0, time=0),\n",
       "    Message('note_on', channel=2, note=68, velocity=72, time=72),\n",
       "    Message('note_on', channel=2, note=73, velocity=98, time=0),\n",
       "    Message('note_on', channel=2, note=77, velocity=82, time=0),\n",
       "    Message('note_on', channel=2, note=77, velocity=0, time=48),\n",
       "    Message('note_on', channel=2, note=73, velocity=0, time=8),\n",
       "    Message('note_on', channel=2, note=68, velocity=0, time=0),\n",
       "    Message('note_on', channel=2, note=68, velocity=72, time=72),\n",
       "    Message('note_on', channel=2, note=73, velocity=86, time=0),\n",
       "    Message('note_on', channel=2, note=77, velocity=95, time=0),\n",
       "    Message('note_on', channel=2, note=77, velocity=0, time=48),\n",
       "    Message('note_on', channel=2, note=73, velocity=0, time=4),\n",
       "    Message('note_on', channel=2, note=68, velocity=0, time=4),\n",
       "    Message('note_on', channel=2, note=44, velocity=0, time=36),\n",
       "    Message('note_on', channel=2, note=46, velocity=98, time=36),\n",
       "    Message('note_on', channel=2, note=68, velocity=72, time=0),\n",
       "    Message('note_on', channel=2, note=73, velocity=86, time=0),\n",
       "    Message('note_on', channel=2, note=77, velocity=82, time=0),\n",
       "    Message('note_on', channel=2, note=73, velocity=0, time=60),\n",
       "    Message('note_on', channel=2, note=68, velocity=0, time=0),\n",
       "    Message('note_on', channel=2, note=77, velocity=0, time=4),\n",
       "    Message('note_on', channel=2, note=68, velocity=63, time=64),\n",
       "    Message('note_on', channel=2, note=73, velocity=98, time=0),\n",
       "    Message('note_on', channel=2, note=77, velocity=82, time=0),\n",
       "    Message('note_on', channel=2, note=77, velocity=0, time=32),\n",
       "    Message('note_on', channel=2, note=68, velocity=0, time=16),\n",
       "    Message('note_on', channel=2, note=73, velocity=0, time=4),\n",
       "    Message('note_on', channel=2, note=68, velocity=55, time=76),\n",
       "    Message('note_on', channel=2, note=73, velocity=86, time=0),\n",
       "    Message('note_on', channel=2, note=77, velocity=49, time=0),\n",
       "    Message('note_on', channel=2, note=77, velocity=0, time=20),\n",
       "    Message('note_on', channel=2, note=73, velocity=0, time=32),\n",
       "    Message('note_on', channel=2, note=68, velocity=0, time=12),\n",
       "    Message('note_on', channel=2, note=46, velocity=0, time=28),\n",
       "    Message('note_on', channel=2, note=51, velocity=86, time=36),\n",
       "    Message('note_on', channel=2, note=66, velocity=86, time=0),\n",
       "    Message('note_on', channel=2, note=70, velocity=86, time=0),\n",
       "    Message('note_on', channel=2, note=75, velocity=98, time=0),\n",
       "    Message('note_on', channel=2, note=66, velocity=0, time=312),\n",
       "    Message('note_on', channel=2, note=75, velocity=0, time=16),\n",
       "    Message('note_on', channel=2, note=70, velocity=0, time=0),\n",
       "    Message('note_on', channel=2, note=66, velocity=98, time=56),\n",
       "    Message('note_on', channel=2, note=70, velocity=98, time=0),\n",
       "    Message('note_on', channel=2, note=75, velocity=98, time=0),\n",
       "    Message('note_on', channel=2, note=51, velocity=0, time=156),\n",
       "    Message('control_change', channel=2, control=64, value=127, time=44),\n",
       "    Message('note_on', channel=2, note=51, velocity=98, time=56),\n",
       "    Message('note_on', channel=2, note=75, velocity=0, time=4),\n",
       "    Message('control_change', channel=2, control=64, value=0, time=4),\n",
       "    Message('note_on', channel=2, note=70, velocity=0, time=4),\n",
       "    Message('note_on', channel=2, note=66, velocity=0, time=20),\n",
       "    Message('note_on', channel=2, note=51, velocity=0, time=64),\n",
       "    Message('note_on', channel=2, note=49, velocity=98, time=32),\n",
       "    Message('note_on', channel=2, note=65, velocity=82, time=0),\n",
       "    Message('note_on', channel=2, note=68, velocity=98, time=0),\n",
       "    Message('note_on', channel=2, note=73, velocity=98, time=0),\n",
       "    Message('control_change', channel=2, control=64, value=127, time=192),\n",
       "    Message('note_on', channel=2, note=65, velocity=0, time=96),\n",
       "    Message('note_on', channel=2, note=73, velocity=0, time=16),\n",
       "    Message('note_on', channel=2, note=68, velocity=0, time=0),\n",
       "    Message('note_on', channel=2, note=65, velocity=104, time=80),\n",
       "    Message('note_on', channel=2, note=68, velocity=98, time=0),\n",
       "    Message('note_on', channel=2, note=73, velocity=98, time=0),\n",
       "    Message('note_on', channel=2, note=68, velocity=0, time=68),\n",
       "    Message('note_on', channel=2, note=73, velocity=0, time=12),\n",
       "    Message('note_on', channel=2, note=65, velocity=0, time=4),\n",
       "    Message('note_on', channel=2, note=49, velocity=0, time=4),\n",
       "    Message('note_on', channel=2, note=49, velocity=72, time=168),\n",
       "    Message('note_on', channel=2, note=49, velocity=0, time=44),\n",
       "    Message('control_change', channel=2, control=64, value=0, time=28),\n",
       "    Message('note_on', channel=2, note=48, velocity=104, time=56),\n",
       "    Message('note_on', channel=2, note=63, velocity=86, time=0),\n",
       "    Message('note_on', channel=2, note=68, velocity=98, time=0),\n",
       "    Message('note_on', channel=2, note=72, velocity=95, time=0),\n",
       "    Message('control_change', channel=2, control=64, value=127, time=100),\n",
       "    Message('note_on', channel=2, note=63, velocity=0, time=184),\n",
       "    Message('note_on', channel=2, note=72, velocity=0, time=16),\n",
       "    Message('note_on', channel=2, note=68, velocity=0, time=8),\n",
       "    Message('note_on', channel=2, note=63, velocity=98, time=76),\n",
       "    Message('note_on', channel=2, note=68, velocity=98, time=0),\n",
       "    Message('note_on', channel=2, note=72, velocity=106, time=0),\n",
       "    Message('note_on', channel=2, note=48, velocity=0, time=132),\n",
       "    Message('note_on', channel=2, note=48, velocity=82, time=124),\n",
       "    Message('note_on', channel=2, note=48, velocity=0, time=56),\n",
       "    Message('note_on', channel=2, note=63, velocity=0, time=0),\n",
       "    Message('note_on', channel=2, note=72, velocity=0, time=8),\n",
       "    Message('note_on', channel=2, note=68, velocity=0, time=4),\n",
       "    Message('control_change', channel=2, control=64, value=0, time=4),\n",
       "    Message('note_on', channel=2, note=44, velocity=98, time=56),\n",
       "    Message('note_on', channel=2, note=63, velocity=98, time=0),\n",
       "    Message('note_on', channel=2, note=68, velocity=98, time=0),\n",
       "    Message('note_on', channel=2, note=72, velocity=95, time=0),\n",
       "    Message('note_on', channel=2, note=63, velocity=0, time=128),\n",
       "    Message('note_on', channel=2, note=72, velocity=0, time=8),\n",
       "    Message('note_on', channel=2, note=68, velocity=0, time=8),\n",
       "    Message('note_on', channel=2, note=63, velocity=98, time=112),\n",
       "    Message('note_on', channel=2, note=68, velocity=98, time=0),\n",
       "    Message('note_on', channel=2, note=72, velocity=104, time=0),\n",
       "    Message('control_change', channel=2, control=64, value=127, time=32),\n",
       "    Message('note_on', channel=2, note=44, velocity=0, time=172),\n",
       "    Message('note_on', channel=2, note=63, velocity=0, time=8),\n",
       "    Message('note_on', channel=2, note=68, velocity=0, time=12),\n",
       "    Message('note_on', channel=2, note=72, velocity=0, time=0),\n",
       "    Message('note_on', channel=2, note=44, velocity=98, time=32),\n",
       "    Message('note_on', channel=2, note=63, velocity=98, time=0),\n",
       "    Message('note_on', channel=2, note=68, velocity=86, time=0),\n",
       "    Message('note_on', channel=2, note=72, velocity=104, time=0),\n",
       "    Message('note_on', channel=2, note=63, velocity=0, time=80),\n",
       "    Message('note_on', channel=2, note=68, velocity=0, time=4),\n",
       "    Message('note_on', channel=2, note=44, velocity=0, time=4),\n",
       "    Message('note_on', channel=2, note=72, velocity=0, time=24),\n",
       "    Message('note_on', channel=2, note=45, velocity=104, time=16),\n",
       "    Message('control_change', channel=2, control=64, value=0, time=40),\n",
       "    Message('note_on', channel=2, note=45, velocity=0, time=48),\n",
       "    Message('note_on', channel=2, note=46, velocity=98, time=40),\n",
       "    Message('note_on', channel=2, note=65, velocity=95, time=0),\n",
       "    Message('note_on', channel=2, note=70, velocity=98, time=0),\n",
       "    Message('note_on', channel=2, note=73, velocity=106, time=0),\n",
       "    Message('note_on', channel=2, note=65, velocity=0, time=268),\n",
       "    Message('note_on', channel=2, note=73, velocity=0, time=20),\n",
       "    Message('note_on', channel=2, note=70, velocity=0, time=4),\n",
       "    Message('control_change', channel=2, control=64, value=127, time=44),\n",
       "    Message('note_on', channel=2, note=65, velocity=104, time=48),\n",
       "    Message('note_on', channel=2, note=70, velocity=98, time=0),\n",
       "    Message('note_on', channel=2, note=73, velocity=106, time=0),\n",
       "    Message('note_on', channel=2, note=46, velocity=0, time=88),\n",
       "    Message('note_on', channel=2, note=73, velocity=0, time=52),\n",
       "    Message('note_on', channel=2, note=70, velocity=0, time=4),\n",
       "    Message('note_on', channel=2, note=65, velocity=0, time=16),\n",
       "    Message('note_on', channel=2, note=46, velocity=98, time=96),\n",
       "    Message('note_on', channel=2, note=46, velocity=0, time=40),\n",
       "    Message('control_change', channel=2, control=64, value=0, time=64),\n",
       "    Message('note_on', channel=2, note=44, velocity=98, time=24),\n",
       "    Message('note_on', channel=2, note=63, velocity=86, time=0),\n",
       "    Message('note_on', channel=2, note=68, velocity=86, time=0),\n",
       "    Message('note_on', channel=2, note=72, velocity=95, time=0),\n",
       "    Message('control_change', channel=2, control=64, value=127, time=84),\n",
       "    Message('note_on', channel=2, note=63, velocity=0, time=192),\n",
       "    Message('note_on', channel=2, note=72, velocity=0, time=20),\n",
       "    Message('note_on', channel=2, note=68, velocity=0, time=0),\n",
       "    Message('note_on', channel=2, note=63, velocity=98, time=88),\n",
       "    Message('note_on', channel=2, note=68, velocity=98, time=0),\n",
       "    Message('note_on', channel=2, note=72, velocity=106, time=0),\n",
       "    Message('note_on', channel=2, note=44, velocity=0, time=36),\n",
       "    Message('note_on', channel=2, note=63, velocity=0, time=32),\n",
       "    Message('note_on', channel=2, note=68, velocity=0, time=4),\n",
       "    Message('note_on', channel=2, note=72, velocity=0, time=8),\n",
       "    Message('note_on', channel=2, note=44, velocity=98, time=176),\n",
       "    Message('note_on', channel=2, note=44, velocity=0, time=40),\n",
       "    Message('control_change', channel=2, control=64, value=0, time=32),\n",
       "    Message('note_on', channel=2, note=42, velocity=98, time=56),\n",
       "    Message('note_on', channel=2, note=61, velocity=86, time=0),\n",
       "    Message('note_on', channel=2, note=66, velocity=86, time=0),\n",
       "    Message('note_on', channel=2, note=70, velocity=98, time=0),\n",
       "    Message('control_change', channel=2, control=64, value=127, time=68),\n",
       "    Message('note_on', channel=2, note=61, velocity=0, time=236),\n",
       "    Message('note_on', channel=2, note=42, velocity=0, time=24),\n",
       "    Message('note_on', channel=2, note=70, velocity=0, time=4),\n",
       "    Message('note_on', channel=2, note=66, velocity=0, time=4),\n",
       "    Message('note_on', channel=2, note=61, velocity=98, time=48),\n",
       "    Message('note_on', channel=2, note=66, velocity=98, time=0),\n",
       "    Message('note_on', channel=2, note=70, velocity=106, time=0),\n",
       "    Message('note_on', channel=2, note=61, velocity=0, time=116),\n",
       "    Message('note_on', channel=2, note=66, velocity=0, time=4),\n",
       "    Message('note_on', channel=2, note=70, velocity=0, time=16),\n",
       "    Message('note_on', channel=2, note=42, velocity=98, time=120),\n",
       "    Message('note_on', channel=2, note=42, velocity=0, time=56),\n",
       "    Message('control_change', channel=2, control=64, value=0, time=16),\n",
       "    Message('note_on', channel=2, note=43, velocity=95, time=56),\n",
       "    Message('note_on', channel=2, note=63, velocity=86, time=0),\n",
       "    Message('note_on', channel=2, note=67, velocity=95, time=0),\n",
       "    Message('note_on', channel=2, note=70, velocity=98, time=0),\n",
       "    Message('control_change', channel=2, control=64, value=127, time=100),\n",
       "    Message('note_on', channel=2, note=63, velocity=0, time=172),\n",
       "    Message('note_on', channel=2, note=67, velocity=0, time=20),\n",
       "    Message('note_on', channel=2, note=70, velocity=0, time=12),\n",
       "    Message('note_on', channel=2, note=43, velocity=0, time=76),\n",
       "    Message('note_on', channel=2, note=63, velocity=98, time=4),\n",
       "    Message('note_on', channel=2, note=67, velocity=104, time=0),\n",
       "    Message('note_on', channel=2, note=70, velocity=98, time=0),\n",
       "    Message('note_on', channel=2, note=63, velocity=0, time=56),\n",
       "    Message('note_on', channel=2, note=67, velocity=0, time=8),\n",
       "    Message('note_on', channel=2, note=70, velocity=0, time=4),\n",
       "    Message('control_change', channel=2, control=64, value=0, time=276),\n",
       "    Message('note_on', channel=2, note=32, velocity=86, time=40),\n",
       "    Message('note_on', channel=2, note=44, velocity=98, time=0),\n",
       "    Message('note_on', channel=2, note=63, velocity=86, time=0),\n",
       "    Message('note_on', channel=2, note=68, velocity=72, time=0),\n",
       "    Message('note_on', channel=2, note=72, velocity=104, time=0),\n",
       "    Message('note_on', channel=2, note=68, velocity=0, time=172),\n",
       "    Message('note_on', channel=2, note=63, velocity=0, time=24),\n",
       "    Message('note_on', channel=2, note=72, velocity=0, time=8),\n",
       "    Message('note_on', channel=2, note=32, velocity=0, time=12),\n",
       "    Message('note_on', channel=2, note=44, velocity=0, time=28),\n",
       "    Message('note_on', channel=2, note=32, velocity=86, time=140),\n",
       "    Message('note_on', channel=2, note=44, velocity=86, time=0),\n",
       "    Message('note_on', channel=2, note=63, velocity=98, time=0),\n",
       "    Message('note_on', channel=2, note=68, velocity=86, time=0),\n",
       "    Message('note_on', channel=2, note=72, velocity=104, time=0),\n",
       "    Message('note_on', channel=2, note=63, velocity=0, time=236),\n",
       "    Message('note_on', channel=2, note=44, velocity=0, time=12),\n",
       "    Message('note_on', channel=2, note=72, velocity=0, time=4),\n",
       "    Message('note_on', channel=2, note=32, velocity=0, time=4),\n",
       "    Message('note_on', channel=2, note=68, velocity=0, time=16),\n",
       "    Message('note_on', channel=2, note=33, velocity=82, time=112),\n",
       "    Message('note_on', channel=2, note=45, velocity=71, time=0),\n",
       "    Message('note_on', channel=2, note=64, velocity=82, time=0),\n",
       "    Message('note_on', channel=2, note=69, velocity=95, time=0),\n",
       "    Message('note_on', channel=2, note=72, velocity=82, time=0),\n",
       "    Message('note_on', channel=2, note=33, velocity=0, time=256),\n",
       "    Message('note_on', channel=2, note=45, velocity=0, time=16),\n",
       "    Message('note_on', channel=2, note=64, velocity=0, time=0),\n",
       "    Message('note_on', channel=2, note=72, velocity=0, time=4),\n",
       "    Message('note_on', channel=2, note=69, velocity=0, time=4),\n",
       "    Message('note_on', channel=2, note=33, velocity=82, time=104),\n",
       "    Message('note_on', channel=2, note=45, velocity=95, time=0),\n",
       "    Message('note_on', channel=2, note=64, velocity=95, time=0),\n",
       "    Message('note_on', channel=2, note=69, velocity=95, time=0),\n",
       "    Message('note_on', channel=2, note=72, velocity=104, time=0),\n",
       "    Message('note_on', channel=2, note=33, velocity=0, time=188),\n",
       "    Message('note_on', channel=2, note=45, velocity=0, time=60),\n",
       "    Message('note_on', channel=2, note=64, velocity=0, time=24),\n",
       "    Message('note_on', channel=2, note=69, velocity=0, time=12),\n",
       "    Message('note_on', channel=2, note=72, velocity=0, time=20),\n",
       "    Message('note_on', channel=2, note=34, velocity=86, time=80),\n",
       "    Message('note_on', channel=2, note=46, velocity=86, time=0),\n",
       "    Message('note_on', channel=2, note=65, velocity=95, time=0),\n",
       "    Message('note_on', channel=2, note=70, velocity=98, time=0),\n",
       "    Message('note_on', channel=2, note=73, velocity=98, time=0),\n",
       "    Message('note_on', channel=2, note=34, velocity=0, time=224),\n",
       "    Message('note_on', channel=2, note=46, velocity=0, time=36),\n",
       "    Message('note_on', channel=2, note=70, velocity=0, time=12),\n",
       "    Message('note_on', channel=2, note=73, velocity=0, time=0),\n",
       "    Message('note_on', channel=2, note=65, velocity=0, time=8),\n",
       "    Message('note_on', channel=2, note=34, velocity=98, time=104),\n",
       "    Message('note_on', channel=2, note=46, velocity=98, time=0),\n",
       "    Message('note_on', channel=2, note=65, velocity=95, time=0),\n",
       "    Message('note_on', channel=2, note=70, velocity=86, time=0),\n",
       "    Message('note_on', channel=2, note=73, velocity=98, time=0),\n",
       "    Message('control_change', channel=2, control=64, value=127, time=32),\n",
       "    Message('note_on', channel=2, note=73, velocity=0, time=32),\n",
       "    Message('note_on', channel=2, note=70, velocity=0, time=0),\n",
       "    Message('note_on', channel=2, note=65, velocity=0, time=16),\n",
       "    Message('note_on', channel=2, note=34, velocity=0, time=0),\n",
       "    Message('note_on', channel=2, note=46, velocity=0, time=12),\n",
       "    Message('control_change', channel=2, control=64, value=0, time=268),\n",
       "    Message('note_on', channel=2, note=42, velocity=106, time=24),\n",
       "    Message('note_on', channel=2, note=54, velocity=98, time=0),\n",
       "    Message('note_on', channel=2, note=57, velocity=104, time=0),\n",
       "    Message('note_on', channel=2, note=61, velocity=98, time=0),\n",
       "    Message('note_on', channel=2, note=64, velocity=104, time=0),\n",
       "    Message('control_change', channel=2, control=64, value=127, time=476),\n",
       "    Message('note_on', channel=2, note=54, velocity=0, time=896),\n",
       "    Message('note_on', channel=2, note=42, velocity=0, time=4),\n",
       "    Message('note_on', channel=2, note=64, velocity=0, time=24),\n",
       "    Message('note_on', channel=2, note=57, velocity=0, time=0),\n",
       "    Message('note_on', channel=2, note=61, velocity=0, time=4),\n",
       "    Message('control_change', channel=2, control=64, value=0, time=76),\n",
       "    Message('note_on', channel=2, note=45, velocity=127, time=56),\n",
       "    Message('note_on', channel=2, note=55, velocity=127, time=0),\n",
       "    Message('note_on', channel=2, note=59, velocity=127, time=0),\n",
       "    Message('note_on', channel=2, note=62, velocity=127, time=0),\n",
       "    Message('note_on', channel=2, note=67, velocity=127, time=0),\n",
       "    Message('control_change', channel=2, control=64, value=127, time=56),\n",
       "    Message('note_on', channel=2, note=55, velocity=0, time=588),\n",
       "    Message('note_on', channel=2, note=45, velocity=0, time=36),\n",
       "    Message('note_on', channel=2, note=59, velocity=0, time=4),\n",
       "    Message('note_on', channel=2, note=62, velocity=0, time=12),\n",
       "    Message('note_on', channel=2, note=67, velocity=0, time=0),\n",
       "    Message('note_on', channel=2, note=45, velocity=127, time=72),\n",
       "    Message('note_on', channel=2, note=55, velocity=127, time=256),\n",
       "    Message('note_on', channel=2, note=59, velocity=127, time=0),\n",
       "    Message('note_on', channel=2, note=62, velocity=127, time=0),\n",
       "    Message('note_on', channel=2, note=67, velocity=127, time=0),\n",
       "    Message('note_on', channel=2, note=45, velocity=0, time=12),\n",
       "    Message('note_on', channel=2, note=45, velocity=127, time=116),\n",
       "    Message('note_on', channel=2, note=55, velocity=0, time=52),\n",
       "    Message('note_on', channel=2, note=67, velocity=0, time=36),\n",
       "    Message('note_on', channel=2, note=59, velocity=0, time=20),\n",
       "    Message('note_on', channel=2, note=62, velocity=0, time=12),\n",
       "    Message('note_on', channel=2, note=55, velocity=127, time=8),\n",
       "    Message('note_on', channel=2, note=45, velocity=0, time=56),\n",
       "    Message('note_on', channel=2, note=55, velocity=0, time=28),\n",
       "    Message('note_on', channel=2, note=59, velocity=127, time=44),\n",
       "    Message('note_on', channel=2, note=59, velocity=0, time=44),\n",
       "    Message('control_change', channel=2, control=64, value=0, time=52),\n",
       "    Message('note_on', channel=2, note=45, velocity=127, time=32),\n",
       "    Message('note_on', channel=2, note=57, velocity=127, time=0),\n",
       "    Message('note_on', channel=2, note=62, velocity=127, time=0),\n",
       "    Message('note_on', channel=2, note=66, velocity=127, time=0),\n",
       "    Message('control_change', channel=2, control=64, value=127, time=356),\n",
       "    Message('note_on', channel=2, note=45, velocity=0, time=276),\n",
       "    Message('note_on', channel=2, note=45, velocity=127, time=136),\n",
       "    Message('note_on', channel=2, note=66, velocity=0, time=48),\n",
       "    Message('note_on', channel=2, note=57, velocity=0, time=4),\n",
       "    Message('note_on', channel=2, note=62, velocity=0, time=12),\n",
       "    Message('note_on', channel=2, note=45, velocity=0, time=168),\n",
       "    Message('note_on', channel=2, note=57, velocity=127, time=24),\n",
       "    Message('note_on', channel=2, note=62, velocity=127, time=0),\n",
       "    Message('note_on', channel=2, note=66, velocity=126, time=0),\n",
       "    Message('note_on', channel=2, note=45, velocity=127, time=128),\n",
       "    Message('note_on', channel=2, note=57, velocity=0, time=36),\n",
       "    Message('note_on', channel=2, note=66, velocity=0, time=32),\n",
       "    Message('note_on', channel=2, note=62, velocity=0, time=4),\n",
       "    Message('note_on', channel=2, note=57, velocity=127, time=56),\n",
       "    Message('note_on', channel=2, note=45, velocity=0, time=56),\n",
       "    Message('note_on', channel=2, note=57, velocity=0, time=40),\n",
       "    Message('note_on', channel=2, note=62, velocity=127, time=32),\n",
       "    Message('note_on', channel=2, note=62, velocity=0, time=44),\n",
       "    Message('control_change', channel=2, control=64, value=0, time=36),\n",
       "    Message('note_on', channel=2, note=45, velocity=127, time=48),\n",
       "    Message('note_on', channel=2, note=55, velocity=127, time=0),\n",
       "    Message('note_on', channel=2, note=57, velocity=127, time=0),\n",
       "    Message('note_on', channel=2, note=59, velocity=127, time=0),\n",
       "    Message('note_on', channel=2, note=64, velocity=122, time=0),\n",
       "    Message('note_on', channel=2, note=59, velocity=0, time=148),\n",
       "    Message('control_change', channel=2, control=64, value=127, time=220),\n",
       "    Message('note_on', channel=2, note=45, velocity=0, time=232),\n",
       "    Message('note_on', channel=2, note=45, velocity=122, time=168),\n",
       "    Message('note_on', channel=2, note=57, velocity=0, time=60),\n",
       "    Message('note_on', channel=2, note=64, velocity=0, time=12),\n",
       "    Message('note_on', channel=2, note=55, velocity=0, time=0),\n",
       "    Message('note_on', channel=2, note=55, velocity=127, time=184),\n",
       "    Message('note_on', channel=2, note=57, velocity=127, time=0),\n",
       "    Message('note_on', channel=2, note=64, velocity=127, time=0),\n",
       "    Message('note_on', channel=2, note=45, velocity=0, time=52),\n",
       "    Message('note_on', channel=2, note=45, velocity=122, time=76),\n",
       "    Message('note_on', channel=2, note=55, velocity=0, time=56),\n",
       "    Message('note_on', channel=2, note=55, velocity=127, time=72),\n",
       "    Message('note_on', channel=2, note=64, velocity=0, time=4),\n",
       "    Message('note_on', channel=2, note=57, velocity=0, time=0),\n",
       "    Message('note_on', channel=2, note=45, velocity=0, time=8),\n",
       "    Message('note_on', channel=2, note=55, velocity=0, time=52),\n",
       "    Message('note_on', channel=2, note=45, velocity=122, time=64),\n",
       "    Message('note_on', channel=2, note=45, velocity=0, time=76),\n",
       "    Message('control_change', channel=2, control=64, value=0, time=16),\n",
       "    Message('note_on', channel=2, note=45, velocity=127, time=36),\n",
       "    Message('note_on', channel=2, note=57, velocity=127, time=0),\n",
       "    Message('note_on', channel=2, note=62, velocity=127, time=0),\n",
       "    Message('note_on', channel=2, note=66, velocity=126, time=0),\n",
       "    Message('control_change', channel=2, control=64, value=127, time=324),\n",
       "    Message('note_on', channel=2, note=45, velocity=0, time=316),\n",
       "    Message('note_on', channel=2, note=57, velocity=0, time=88),\n",
       "    Message('note_on', channel=2, note=66, velocity=0, time=0),\n",
       "    Message('note_on', channel=2, note=62, velocity=0, time=8),\n",
       "    Message('note_on', channel=2, note=45, velocity=127, time=32),\n",
       "    Message('note_on', channel=2, note=57, velocity=127, time=256),\n",
       "    Message('note_on', channel=2, note=62, velocity=127, time=0),\n",
       "    Message('note_on', channel=2, note=66, velocity=126, time=0),\n",
       "    Message('note_on', channel=2, note=69, velocity=127, time=0),\n",
       "    Message('note_on', channel=2, note=45, velocity=0, time=16),\n",
       "    Message('note_on', channel=2, note=45, velocity=127, time=112),\n",
       "    Message('note_on', channel=2, note=57, velocity=0, time=40),\n",
       "    Message('note_on', channel=2, note=69, velocity=0, time=24),\n",
       "    Message('note_on', channel=2, note=62, velocity=0, time=48),\n",
       "    Message('note_on', channel=2, note=66, velocity=0, time=12),\n",
       "    Message('note_on', channel=2, note=57, velocity=127, time=4),\n",
       "    Message('note_on', channel=2, note=45, velocity=0, time=16),\n",
       "    Message('note_on', channel=2, note=57, velocity=0, time=52),\n",
       "    Message('note_on', channel=2, note=45, velocity=122, time=60),\n",
       "    Message('note_on', channel=2, note=45, velocity=0, time=72),\n",
       "    Message('control_change', channel=2, control=64, value=0, time=20),\n",
       "    Message('note_on', channel=2, note=45, velocity=127, time=36),\n",
       "    Message('note_on', channel=2, note=55, velocity=127, time=0),\n",
       "    Message('note_on', channel=2, note=59, velocity=127, time=0),\n",
       "    Message('note_on', channel=2, note=62, velocity=127, time=0),\n",
       "    Message('note_on', channel=2, note=67, velocity=127, time=0),\n",
       "    Message('control_change', channel=2, control=64, value=127, time=336),\n",
       "    Message('note_on', channel=2, note=45, velocity=0, time=304),\n",
       "    Message('note_on', channel=2, note=45, velocity=127, time=128),\n",
       "    Message('note_on', channel=2, note=59, velocity=0, time=20),\n",
       "    Message('note_on', channel=2, note=67, velocity=0, time=4),\n",
       "    Message('note_on', channel=2, note=55, velocity=0, time=0),\n",
       "    Message('note_on', channel=2, note=62, velocity=0, time=0),\n",
       "    Message('note_on', channel=2, note=55, velocity=127, time=232),\n",
       "    Message('note_on', channel=2, note=59, velocity=127, time=0),\n",
       "    Message('note_on', channel=2, note=62, velocity=127, time=0),\n",
       "    Message('note_on', channel=2, note=67, velocity=127, time=0),\n",
       "    Message('note_on', channel=2, note=45, velocity=0, time=132),\n",
       "    Message('note_on', channel=2, note=55, velocity=0, time=40),\n",
       "    Message('note_on', channel=2, note=59, velocity=0, time=64),\n",
       "    Message('note_on', channel=2, note=67, velocity=0, time=12),\n",
       "    Message('note_on', channel=2, note=55, velocity=127, time=8),\n",
       "    Message('note_on', channel=2, note=62, velocity=0, time=88),\n",
       "    Message('note_on', channel=2, note=55, velocity=0, time=12),\n",
       "    Message('note_on', channel=2, note=59, velocity=127, time=28),\n",
       "    Message('note_on', channel=2, note=59, velocity=0, time=40),\n",
       "    Message('control_change', channel=2, control=64, value=0, time=36),\n",
       "    Message('note_on', channel=2, note=45, velocity=127, time=52),\n",
       "    Message('note_on', channel=2, note=57, velocity=127, time=0),\n",
       "    Message('note_on', channel=2, note=62, velocity=127, time=0),\n",
       "    Message('note_on', channel=2, note=66, velocity=127, time=0),\n",
       "    Message('control_change', channel=2, control=64, value=127, time=320),\n",
       "    Message('note_on', channel=2, note=45, velocity=0, time=320),\n",
       "    Message('note_on', channel=2, note=45, velocity=127, time=128),\n",
       "    Message('note_on', channel=2, note=66, velocity=0, time=20),\n",
       "    Message('note_on', channel=2, note=57, velocity=0, time=12),\n",
       "    Message('note_on', channel=2, note=62, velocity=0, time=0),\n",
       "    Message('note_on', channel=2, note=45, velocity=0, time=212),\n",
       "    Message('note_on', channel=2, note=57, velocity=127, time=12),\n",
       "    Message('note_on', channel=2, note=62, velocity=127, time=0),\n",
       "    Message('note_on', channel=2, note=66, velocity=127, time=0),\n",
       "    Message('note_on', channel=2, note=45, velocity=127, time=128),\n",
       "    Message('note_on', channel=2, note=57, velocity=0, time=36),\n",
       "    Message('note_on', channel=2, note=66, velocity=0, time=12),\n",
       "    Message('note_on', channel=2, note=62, velocity=0, time=52),\n",
       "    Message('note_on', channel=2, note=57, velocity=127, time=28),\n",
       "    Message('note_on', channel=2, note=45, velocity=0, time=40),\n",
       "    Message('note_on', channel=2, note=57, velocity=0, time=52),\n",
       "    Message('note_on', channel=2, note=62, velocity=127, time=36),\n",
       "    Message('note_on', channel=2, note=62, velocity=0, time=36),\n",
       "    Message('control_change', channel=2, control=64, value=0, time=40),\n",
       "    Message('note_on', channel=2, note=45, velocity=127, time=52),\n",
       "    Message('note_on', channel=2, note=55, velocity=127, time=0),\n",
       "    Message('note_on', channel=2, note=57, velocity=127, time=0),\n",
       "    Message('note_on', channel=2, note=60, velocity=127, time=0),\n",
       "    Message('note_on', channel=2, note=64, velocity=127, time=0),\n",
       "    Message('control_change', channel=2, control=64, value=127, time=424),\n",
       "    Message('note_on', channel=2, note=55, velocity=0, time=808),\n",
       "    Message('note_on', channel=2, note=60, velocity=0, time=8),\n",
       "    Message('note_on', channel=2, note=57, velocity=0, time=0),\n",
       "    Message('note_on', channel=2, note=64, velocity=0, time=8),\n",
       "    Message('note_on', channel=2, note=45, velocity=0, time=4),\n",
       "    Message('control_change', channel=2, control=64, value=0, time=1780),\n",
       "    Message('note_on', channel=2, note=46, velocity=124, time=40),\n",
       "    Message('note_on', channel=2, note=53, velocity=110, time=0),\n",
       "    Message('note_on', channel=2, note=58, velocity=100, time=0),\n",
       "    Message('note_on', channel=2, note=61, velocity=114, time=0),\n",
       "    Message('note_on', channel=2, note=65, velocity=110, time=0),\n",
       "    Message('note_on', channel=2, note=58, velocity=0, time=96),\n",
       "    Message('note_on', channel=2, note=61, velocity=0, time=4),\n",
       "    Message('note_on', channel=2, note=46, velocity=0, time=28),\n",
       "    Message('note_on', channel=2, note=53, velocity=0, time=0),\n",
       "    Message('note_on', channel=2, note=65, velocity=0, time=8),\n",
       "    Message('note_on', channel=2, note=53, velocity=110, time=248),\n",
       "    Message('note_on', channel=2, note=58, velocity=124, time=0),\n",
       "    Message('note_on', channel=2, note=61, velocity=114, time=0),\n",
       "    Message('note_on', channel=2, note=65, velocity=110, time=0),\n",
       "    Message('note_on', channel=2, note=65, velocity=0, time=240),\n",
       "    Message('note_on', channel=2, note=61, velocity=0, time=8),\n",
       "    Message('note_on', channel=2, note=58, velocity=0, time=0),\n",
       "    Message('note_on', channel=2, note=53, velocity=0, time=4),\n",
       "    Message('note_on', channel=2, note=46, velocity=100, time=4),\n",
       "    Message('note_on', channel=2, note=46, velocity=0, time=120),\n",
       "    Message('note_on', channel=2, note=53, velocity=110, time=8),\n",
       "    Message('note_on', channel=2, note=58, velocity=100, time=0),\n",
       "    Message('note_on', channel=2, note=61, velocity=100, time=0),\n",
       "    Message('note_on', channel=2, note=65, velocity=95, time=0),\n",
       "    Message('note_on', channel=2, note=65, velocity=0, time=232),\n",
       "    Message('note_on', channel=2, note=53, velocity=0, time=8),\n",
       "    Message('note_on', channel=2, note=61, velocity=0, time=4),\n",
       "    Message('note_on', channel=2, note=58, velocity=0, time=0),\n",
       "    Message('note_on', channel=2, note=46, velocity=114, time=12),\n",
       "    Message('note_on', channel=2, note=46, velocity=0, time=104),\n",
       "    Message('note_on', channel=2, note=53, velocity=121, time=24),\n",
       "    Message('note_on', channel=2, note=58, velocity=114, time=0),\n",
       "    Message('note_on', channel=2, note=61, velocity=114, time=0),\n",
       "    Message('note_on', channel=2, note=65, velocity=110, time=0),\n",
       "    Message('note_on', channel=2, note=65, velocity=0, time=184),\n",
       "    Message('note_on', channel=2, note=53, velocity=0, time=0),\n",
       "    Message('note_on', channel=2, note=61, velocity=0, time=16),\n",
       "    Message('note_on', channel=2, note=58, velocity=0, time=8),\n",
       "    Message('note_on', channel=2, note=46, velocity=114, time=48),\n",
       "    Message('note_on', channel=2, note=46, velocity=0, time=72),\n",
       "    Message('note_on', channel=2, note=42, velocity=100, time=56),\n",
       "    Message('note_on', channel=2, note=54, velocity=114, time=0),\n",
       "    Message('note_on', channel=2, note=58, velocity=100, time=0),\n",
       "    Message('note_on', channel=2, note=61, velocity=114, time=0),\n",
       "    Message('note_on', channel=2, note=63, velocity=114, time=0),\n",
       "    Message('note_on', channel=2, note=42, velocity=0, time=132),\n",
       "    Message('note_on', channel=2, note=54, velocity=0, time=4),\n",
       "    Message('note_on', channel=2, note=58, velocity=0, time=4),\n",
       "    Message('note_on', channel=2, note=61, velocity=0, time=4),\n",
       "    Message('note_on', channel=2, note=63, velocity=0, time=0),\n",
       "    Message('note_on', channel=2, note=54, velocity=114, time=240),\n",
       "    Message('note_on', channel=2, note=58, velocity=124, time=0),\n",
       "    Message('note_on', channel=2, note=61, velocity=114, time=0),\n",
       "    Message('note_on', channel=2, note=63, velocity=114, time=0),\n",
       "    Message('note_on', channel=2, note=42, velocity=100, time=256),\n",
       "    Message('note_on', channel=2, note=63, velocity=0, time=8),\n",
       "    Message('note_on', channel=2, note=54, velocity=0, time=4),\n",
       "    Message('note_on', channel=2, note=58, velocity=0, time=8),\n",
       "    Message('note_on', channel=2, note=61, velocity=0, time=0),\n",
       "    Message('note_on', channel=2, note=42, velocity=0, time=108),\n",
       "    Message('note_on', channel=2, note=54, velocity=100, time=0),\n",
       "    Message('note_on', channel=2, note=58, velocity=100, time=0),\n",
       "    Message('note_on', channel=2, note=61, velocity=100, time=0),\n",
       "    Message('note_on', channel=2, note=63, velocity=114, time=0),\n",
       "    Message('note_on', channel=2, note=63, velocity=0, time=252),\n",
       "    Message('note_on', channel=2, note=54, velocity=0, time=4),\n",
       "    Message('note_on', channel=2, note=42, velocity=114, time=0),\n",
       "    Message('note_on', channel=2, note=61, velocity=0, time=8),\n",
       "    Message('note_on', channel=2, note=58, velocity=0, time=4),\n",
       "    Message('note_on', channel=2, note=42, velocity=0, time=100),\n",
       "    Message('note_on', channel=2, note=54, velocity=114, time=16),\n",
       "    Message('note_on', channel=2, note=58, velocity=114, time=0),\n",
       "    Message('note_on', channel=2, note=61, velocity=114, time=0),\n",
       "    Message('note_on', channel=2, note=63, velocity=114, time=0),\n",
       "    Message('note_on', channel=2, note=63, velocity=0, time=180),\n",
       "    Message('note_on', channel=2, note=54, velocity=0, time=20),\n",
       "    Message('note_on', channel=2, note=61, velocity=0, time=8),\n",
       "    Message('note_on', channel=2, note=58, velocity=0, time=4),\n",
       "    Message('note_on', channel=2, note=42, velocity=114, time=44),\n",
       "    Message('note_on', channel=2, note=42, velocity=0, time=68),\n",
       "    Message('note_on', channel=2, note=37, velocity=114, time=60),\n",
       "    Message('note_on', channel=2, note=53, velocity=95, time=0),\n",
       "    Message('note_on', channel=2, note=56, velocity=114, time=0),\n",
       "    Message('note_on', channel=2, note=61, velocity=100, time=0),\n",
       "    Message('note_on', channel=2, note=56, velocity=0, time=136),\n",
       "    Message('note_on', channel=2, note=61, velocity=0, time=24),\n",
       "    Message('note_on', channel=2, note=53, velocity=0, time=0),\n",
       "    Message('note_on', channel=2, note=37, velocity=0, time=4),\n",
       "    Message('note_on', channel=2, note=53, velocity=121, time=220),\n",
       "    Message('note_on', channel=2, note=56, velocity=124, time=0),\n",
       "    Message('note_on', channel=2, note=61, velocity=124, time=0),\n",
       "    Message('note_on', channel=2, note=61, velocity=0, time=196),\n",
       "    Message('note_on', channel=2, note=56, velocity=0, time=8),\n",
       "    Message('note_on', channel=2, note=53, velocity=0, time=8),\n",
       "    Message('note_on', channel=2, note=37, velocity=84, time=44),\n",
       "    Message('note_on', channel=2, note=37, velocity=0, time=44),\n",
       "    Message('note_on', channel=2, note=36, velocity=110, time=84),\n",
       "    Message('note_on', channel=2, note=51, velocity=100, time=0),\n",
       "    Message('note_on', channel=2, note=56, velocity=114, time=0),\n",
       "    Message('note_on', channel=2, note=60, velocity=121, time=0),\n",
       "    Message('note_on', channel=2, note=60, velocity=0, time=216),\n",
       "    Message('note_on', channel=2, note=56, velocity=0, time=8),\n",
       "    Message('note_on', channel=2, note=51, velocity=0, time=88),\n",
       "    Message('note_on', channel=2, note=51, velocity=124, time=72),\n",
       "    Message('note_on', channel=2, note=56, velocity=124, time=0),\n",
       "    Message('note_on', channel=2, note=60, velocity=121, time=0),\n",
       "    Message('note_on', channel=2, note=36, velocity=0, time=48),\n",
       "    Message('note_on', channel=2, note=56, velocity=0, time=120),\n",
       "    Message('note_on', channel=2, note=51, velocity=0, time=12),\n",
       "    Message('note_on', channel=2, note=60, velocity=0, time=0),\n",
       "    Message('note_on', channel=2, note=36, velocity=121, time=76),\n",
       "    Message('note_on', channel=2, note=36, velocity=0, time=80),\n",
       "    Message('note_on', channel=2, note=39, velocity=114, time=48),\n",
       "    Message('note_on', channel=2, note=51, velocity=100, time=0),\n",
       "    Message('note_on', channel=2, note=55, velocity=110, time=0),\n",
       "    Message('note_on', channel=2, note=58, velocity=100, time=0),\n",
       "    Message('note_on', channel=2, note=51, velocity=0, time=124),\n",
       "    Message('note_on', channel=2, note=39, velocity=0, time=0),\n",
       "    Message('note_on', channel=2, note=58, velocity=0, time=4),\n",
       "    Message('note_on', channel=2, note=55, velocity=0, time=8),\n",
       "    Message('note_on', channel=2, note=51, velocity=114, time=248),\n",
       "    Message('note_on', channel=2, note=55, velocity=124, time=0),\n",
       "    Message('note_on', channel=2, note=58, velocity=114, time=0),\n",
       "    Message('note_on', channel=2, note=51, velocity=0, time=256),\n",
       "    Message('note_on', channel=2, note=39, velocity=100, time=0),\n",
       "    Message('note_on', channel=2, note=58, velocity=0, time=8),\n",
       "    Message('note_on', channel=2, note=55, velocity=0, time=20),\n",
       "    Message('note_on', channel=2, note=39, velocity=0, time=96),\n",
       "    Message('note_on', channel=2, note=51, velocity=114, time=4),\n",
       "    Message('note_on', channel=2, note=55, velocity=121, time=0),\n",
       "    Message('note_on', channel=2, note=58, velocity=114, time=0),\n",
       "    Message('note_on', channel=2, note=39, velocity=100, time=256),\n",
       "    Message('note_on', channel=2, note=51, velocity=0, time=8),\n",
       "    Message('note_on', channel=2, note=58, velocity=0, time=24),\n",
       "    Message('note_on', channel=2, note=55, velocity=0, time=8),\n",
       "    Message('note_on', channel=2, note=39, velocity=0, time=84),\n",
       "    Message('note_on', channel=2, note=51, velocity=114, time=4),\n",
       "    Message('note_on', channel=2, note=55, velocity=121, time=0),\n",
       "    Message('note_on', channel=2, note=58, velocity=114, time=0),\n",
       "    Message('note_on', channel=2, note=63, velocity=100, time=0),\n",
       "    Message('note_on', channel=2, note=63, velocity=0, time=184),\n",
       "    Message('note_on', channel=2, note=51, velocity=0, time=32),\n",
       "    Message('note_on', channel=2, note=55, velocity=0, time=0),\n",
       "    Message('note_on', channel=2, note=58, velocity=0, time=8),\n",
       "    Message('note_on', channel=2, note=39, velocity=114, time=32),\n",
       "    Message('note_on', channel=2, note=39, velocity=0, time=64),\n",
       "    Message('note_on', channel=2, note=42, velocity=114, time=64),\n",
       "    Message('note_on', channel=2, note=49, velocity=100, time=0),\n",
       "    Message('note_on', channel=2, note=54, velocity=114, time=0),\n",
       "    Message('note_on', channel=2, note=58, velocity=114, time=0),\n",
       "    Message('note_on', channel=2, note=54, velocity=0, time=120),\n",
       "    Message('note_on', channel=2, note=58, velocity=0, time=20),\n",
       "    Message('note_on', channel=2, note=49, velocity=0, time=0),\n",
       "    Message('note_on', channel=2, note=42, velocity=0, time=4),\n",
       "    Message('note_on', channel=2, note=49, velocity=114, time=240),\n",
       "    Message('note_on', channel=2, note=54, velocity=114, time=0),\n",
       "    Message('note_on', channel=2, note=58, velocity=114, time=0),\n",
       "    Message('note_on', channel=2, note=61, velocity=100, time=0),\n",
       "    Message('note_on', channel=2, note=42, velocity=114, time=256),\n",
       "    Message('note_on', channel=2, note=49, velocity=0, time=8),\n",
       "    Message('note_on', channel=2, note=61, velocity=0, time=8),\n",
       "    Message('note_on', channel=2, note=54, velocity=0, time=0),\n",
       "    Message('note_on', channel=2, note=58, velocity=0, time=0),\n",
       "    Message('note_on', channel=2, note=42, velocity=0, time=96),\n",
       "    Message('note_on', channel=2, note=49, velocity=114, time=16),\n",
       "    Message('note_on', channel=2, note=54, velocity=100, time=0),\n",
       "    Message('note_on', channel=2, note=58, velocity=114, time=0),\n",
       "    Message('note_on', channel=2, note=61, velocity=100, time=0),\n",
       "    Message('note_on', channel=2, note=49, velocity=0, time=252),\n",
       "    Message('note_on', channel=2, note=61, velocity=0, time=4),\n",
       "    Message('note_on', channel=2, note=42, velocity=114, time=0),\n",
       "    Message('note_on', channel=2, note=58, velocity=0, time=4),\n",
       "    Message('note_on', channel=2, note=54, velocity=0, time=4),\n",
       "    Message('note_on', channel=2, note=42, velocity=0, time=108),\n",
       "    Message('note_on', channel=2, note=49, velocity=114, time=12),\n",
       "    Message('note_on', channel=2, note=54, velocity=114, time=0),\n",
       "    Message('note_on', channel=2, note=58, velocity=114, time=0),\n",
       "    Message('note_on', channel=2, note=61, velocity=100, time=0),\n",
       "    Message('note_on', channel=2, note=49, velocity=0, time=116),\n",
       "    Message('note_on', channel=2, note=54, velocity=0, time=44),\n",
       "    Message('note_on', channel=2, note=58, velocity=0, time=8),\n",
       "    Message('note_on', channel=2, note=61, velocity=0, time=8),\n",
       "    Message('note_on', channel=2, note=42, velocity=114, time=80),\n",
       "    Message('note_on', channel=2, note=42, velocity=0, time=40),\n",
       "    Message('note_on', channel=2, note=53, velocity=122, time=88),\n",
       "    Message('note_on', channel=2, note=61, velocity=126, time=0),\n",
       "    Message('note_on', channel=2, note=61, velocity=0, time=328),\n",
       "    Message('note_on', channel=2, note=53, velocity=0, time=16),\n",
       "    Message('note_on', channel=2, note=41, velocity=105, time=32),\n",
       "    Message('note_on', channel=2, note=57, velocity=122, time=4),\n",
       "    Message('note_on', channel=2, note=53, velocity=122, time=4),\n",
       "    Message('note_on', channel=2, note=60, velocity=127, time=4),\n",
       "    Message('note_on', channel=2, note=53, velocity=0, time=72),\n",
       "    Message('note_on', channel=2, note=57, velocity=0, time=4),\n",
       "    Message('note_on', channel=2, note=41, velocity=0, time=4),\n",
       "    Message('note_on', channel=2, note=60, velocity=0, time=8),\n",
       "    Message('note_on', channel=2, note=39, velocity=126, time=284),\n",
       "    Message('note_on', channel=2, note=58, velocity=126, time=8),\n",
       "    Message('note_on', channel=2, note=61, velocity=126, time=0),\n",
       "    Message('note_on', channel=2, note=54, velocity=126, time=4),\n",
       "    Message('note_on', channel=2, note=54, velocity=0, time=316),\n",
       "    Message('note_on', channel=2, note=39, velocity=0, time=0),\n",
       "    Message('note_on', channel=2, note=58, velocity=0, time=4),\n",
       "    Message('note_on', channel=2, note=61, velocity=0, time=24),\n",
       "    Message('note_on', channel=2, note=39, velocity=126, time=16),\n",
       "    Message('note_on', channel=2, note=60, velocity=127, time=16),\n",
       "    Message('note_on', channel=2, note=56, velocity=126, time=4),\n",
       "    Message('note_on', channel=2, note=63, velocity=126, time=0),\n",
       "    Message('note_on', channel=2, note=39, velocity=0, time=76),\n",
       "    Message('note_on', channel=2, note=56, velocity=0, time=8),\n",
       "    Message('note_on', channel=2, note=60, velocity=0, time=16),\n",
       "    Message('note_on', channel=2, note=63, velocity=0, time=4),\n",
       "    Message('note_on', channel=2, note=37, velocity=114, time=280),\n",
       "    Message('note_on', channel=2, note=53, velocity=110, time=0),\n",
       "    Message('note_on', channel=2, note=56, velocity=114, time=0),\n",
       "    Message('note_on', channel=2, note=61, velocity=114, time=0),\n",
       "    Message('note_on', channel=2, note=53, velocity=0, time=288),\n",
       "    Message('note_on', channel=2, note=61, velocity=0, time=12),\n",
       "    Message('note_on', channel=2, note=56, velocity=0, time=4),\n",
       "    Message('note_on', channel=2, note=53, velocity=121, time=80),\n",
       "    Message('note_on', channel=2, note=56, velocity=124, time=0),\n",
       "    Message('note_on', channel=2, note=61, velocity=114, time=0),\n",
       "    Message('note_on', channel=2, note=37, velocity=0, time=68),\n",
       "    Message('note_on', channel=2, note=61, velocity=0, time=36),\n",
       "    Message('note_on', channel=2, note=56, velocity=0, time=16),\n",
       "    Message('note_on', channel=2, note=53, velocity=0, time=8),\n",
       "    Message('note_on', channel=2, note=37, velocity=114, time=128),\n",
       "    Message('note_on', channel=2, note=37, velocity=0, time=92),\n",
       "    Message('note_on', channel=2, note=44, velocity=114, time=36),\n",
       "    Message('note_on', channel=2, note=49, velocity=114, time=0),\n",
       "    Message('note_on', channel=2, note=54, velocity=114, time=0),\n",
       "    Message('note_on', channel=2, note=58, velocity=114, time=0),\n",
       "    Message('note_on', channel=2, note=58, velocity=0, time=296),\n",
       "    Message('note_on', channel=2, note=49, velocity=0, time=0),\n",
       "    Message('note_on', channel=2, note=54, velocity=0, time=8),\n",
       "    Message('note_on', channel=2, note=49, velocity=114, time=80),\n",
       "    Message('note_on', channel=2, note=54, velocity=114, time=0),\n",
       "    Message('note_on', channel=2, note=58, velocity=114, time=0),\n",
       "    Message('note_on', channel=2, note=44, velocity=0, time=68),\n",
       "    Message('note_on', channel=2, note=58, velocity=0, time=188),\n",
       "    Message('note_on', channel=2, note=44, velocity=114, time=0),\n",
       "    Message('note_on', channel=2, note=54, velocity=0, time=12),\n",
       "    Message('note_on', channel=2, note=49, velocity=0, time=12),\n",
       "    Message('note_on', channel=2, note=44, velocity=0, time=48),\n",
       "    Message('note_on', channel=2, note=37, velocity=114, time=56),\n",
       "    Message('note_on', channel=2, note=53, velocity=110, time=0),\n",
       "    Message('note_on', channel=2, note=56, velocity=114, time=0),\n",
       "    Message('note_on', channel=2, note=61, velocity=114, time=0),\n",
       "    Message('note_on', channel=2, note=53, velocity=0, time=288),\n",
       "    Message('note_on', channel=2, note=61, velocity=0, time=12),\n",
       "    Message('note_on', channel=2, note=56, velocity=0, time=4),\n",
       "    Message('note_on', channel=2, note=53, velocity=121, time=80),\n",
       "    Message('note_on', channel=2, note=56, velocity=124, time=0),\n",
       "    Message('note_on', channel=2, note=61, velocity=114, time=0),\n",
       "    Message('note_on', channel=2, note=37, velocity=0, time=68),\n",
       "    Message('note_on', channel=2, note=61, velocity=0, time=36),\n",
       "    Message('note_on', channel=2, note=56, velocity=0, time=16),\n",
       "    Message('note_on', channel=2, note=53, velocity=0, time=8),\n",
       "    Message('note_on', channel=2, note=37, velocity=114, time=128),\n",
       "    Message('note_on', channel=2, note=37, velocity=0, time=92),\n",
       "    Message('note_on', channel=2, note=44, velocity=114, time=36),\n",
       "    Message('note_on', channel=2, note=49, velocity=114, time=0),\n",
       "    Message('note_on', channel=2, note=54, velocity=114, time=0),\n",
       "    Message('note_on', channel=2, note=58, velocity=114, time=0),\n",
       "    Message('note_on', channel=2, note=58, velocity=0, time=296),\n",
       "    Message('note_on', channel=2, note=49, velocity=0, time=0),\n",
       "    Message('note_on', channel=2, note=54, velocity=0, time=8),\n",
       "    Message('note_on', channel=2, note=49, velocity=114, time=80),\n",
       "    Message('note_on', channel=2, note=54, velocity=114, time=0),\n",
       "    Message('note_on', channel=2, note=58, velocity=114, time=0),\n",
       "    Message('note_on', channel=2, note=44, velocity=0, time=68),\n",
       "    Message('note_on', channel=2, note=58, velocity=0, time=188),\n",
       "    Message('note_on', channel=2, note=44, velocity=114, time=0),\n",
       "    Message('note_on', channel=2, note=54, velocity=0, time=12),\n",
       "    Message('note_on', channel=2, note=49, velocity=0, time=12),\n",
       "    Message('note_on', channel=2, note=44, velocity=0, time=48),\n",
       "    Message('note_on', channel=2, note=37, velocity=114, time=56),\n",
       "    Message('note_on', channel=2, note=53, velocity=110, time=0),\n",
       "    Message('note_on', channel=2, note=56, velocity=114, time=0),\n",
       "    Message('note_on', channel=2, note=61, velocity=114, time=0),\n",
       "    Message('note_on', channel=2, note=53, velocity=0, time=288),\n",
       "    Message('note_on', channel=2, note=61, velocity=0, time=12),\n",
       "    Message('note_on', channel=2, note=56, velocity=0, time=4),\n",
       "    Message('note_on', channel=2, note=53, velocity=121, time=80),\n",
       "    Message('note_on', channel=2, note=56, velocity=124, time=0),\n",
       "    Message('note_on', channel=2, note=61, velocity=114, time=0),\n",
       "    Message('note_on', channel=2, note=37, velocity=0, time=68),\n",
       "    Message('note_on', channel=2, note=61, velocity=0, time=36),\n",
       "    Message('note_on', channel=2, note=56, velocity=0, time=16),\n",
       "    Message('note_on', channel=2, note=53, velocity=0, time=8),\n",
       "    Message('note_on', channel=2, note=37, velocity=114, time=128),\n",
       "    Message('note_on', channel=2, note=37, velocity=0, time=92),\n",
       "    Message('note_on', channel=2, note=44, velocity=114, time=36),\n",
       "    Message('note_on', channel=2, note=49, velocity=114, time=0),\n",
       "    Message('note_on', channel=2, note=54, velocity=114, time=0),\n",
       "    Message('note_on', channel=2, note=58, velocity=114, time=0),\n",
       "    Message('note_on', channel=2, note=58, velocity=0, time=296),\n",
       "    Message('note_on', channel=2, note=49, velocity=0, time=0),\n",
       "    Message('note_on', channel=2, note=54, velocity=0, time=8),\n",
       "    Message('note_on', channel=2, note=49, velocity=114, time=80),\n",
       "    Message('note_on', channel=2, note=54, velocity=114, time=0),\n",
       "    Message('note_on', channel=2, note=58, velocity=114, time=0),\n",
       "    Message('note_on', channel=2, note=44, velocity=0, time=68),\n",
       "    Message('note_on', channel=2, note=58, velocity=0, time=188),\n",
       "    Message('note_on', channel=2, note=44, velocity=114, time=0),\n",
       "    Message('note_on', channel=2, note=54, velocity=0, time=12),\n",
       "    Message('note_on', channel=2, note=49, velocity=0, time=12),\n",
       "    Message('note_on', channel=2, note=44, velocity=0, time=48),\n",
       "    Message('note_on', channel=2, note=37, velocity=114, time=56),\n",
       "    Message('note_on', channel=2, note=53, velocity=110, time=0),\n",
       "    Message('note_on', channel=2, note=56, velocity=114, time=0),\n",
       "    Message('note_on', channel=2, note=61, velocity=114, time=0),\n",
       "    Message('note_on', channel=2, note=53, velocity=0, time=288),\n",
       "    Message('note_on', channel=2, note=61, velocity=0, time=12),\n",
       "    Message('note_on', channel=2, note=56, velocity=0, time=4),\n",
       "    Message('note_on', channel=2, note=53, velocity=121, time=80),\n",
       "    Message('note_on', channel=2, note=56, velocity=124, time=0),\n",
       "    Message('note_on', channel=2, note=61, velocity=114, time=0),\n",
       "    Message('note_on', channel=2, note=37, velocity=0, time=68),\n",
       "    Message('note_on', channel=2, note=61, velocity=0, time=36),\n",
       "    Message('note_on', channel=2, note=56, velocity=0, time=16),\n",
       "    Message('note_on', channel=2, note=53, velocity=0, time=8),\n",
       "    Message('note_on', channel=2, note=37, velocity=114, time=128),\n",
       "    Message('note_on', channel=2, note=37, velocity=0, time=92),\n",
       "    Message('note_on', channel=2, note=44, velocity=114, time=36),\n",
       "    Message('note_on', channel=2, note=49, velocity=114, time=0),\n",
       "    Message('note_on', channel=2, note=54, velocity=114, time=0),\n",
       "    Message('note_on', channel=2, note=58, velocity=114, time=0),\n",
       "    Message('note_on', channel=2, note=58, velocity=0, time=296),\n",
       "    Message('note_on', channel=2, note=49, velocity=0, time=0),\n",
       "    Message('note_on', channel=2, note=54, velocity=0, time=8),\n",
       "    Message('note_on', channel=2, note=49, velocity=114, time=80),\n",
       "    Message('note_on', channel=2, note=54, velocity=114, time=0),\n",
       "    Message('note_on', channel=2, note=58, velocity=114, time=0),\n",
       "    Message('note_on', channel=2, note=44, velocity=0, time=68),\n",
       "    Message('note_on', channel=2, note=58, velocity=0, time=188),\n",
       "    Message('note_on', channel=2, note=44, velocity=114, time=0),\n",
       "    Message('note_on', channel=2, note=54, velocity=0, time=12),\n",
       "    Message('note_on', channel=2, note=49, velocity=0, time=12),\n",
       "    Message('note_on', channel=2, note=44, velocity=0, time=48),\n",
       "    Message('note_on', channel=2, note=37, velocity=114, time=56),\n",
       "    Message('note_on', channel=2, note=53, velocity=110, time=0),\n",
       "    Message('note_on', channel=2, note=56, velocity=114, time=0),\n",
       "    Message('note_on', channel=2, note=61, velocity=114, time=0),\n",
       "    Message('note_on', channel=2, note=53, velocity=0, time=288),\n",
       "    Message('note_on', channel=2, note=61, velocity=0, time=12),\n",
       "    Message('note_on', channel=2, note=56, velocity=0, time=4),\n",
       "    Message('note_on', channel=2, note=53, velocity=121, time=80),\n",
       "    Message('note_on', channel=2, note=56, velocity=124, time=0),\n",
       "    Message('note_on', channel=2, note=61, velocity=114, time=0),\n",
       "    Message('note_on', channel=2, note=37, velocity=0, time=68),\n",
       "    Message('note_on', channel=2, note=61, velocity=0, time=36),\n",
       "    Message('note_on', channel=2, note=56, velocity=0, time=16),\n",
       "    Message('note_on', channel=2, note=53, velocity=0, time=8),\n",
       "    Message('note_on', channel=2, note=37, velocity=114, time=128),\n",
       "    Message('note_on', channel=2, note=37, velocity=0, time=92),\n",
       "    Message('note_on', channel=2, note=44, velocity=114, time=36),\n",
       "    Message('note_on', channel=2, note=49, velocity=114, time=0),\n",
       "    Message('note_on', channel=2, note=54, velocity=114, time=0),\n",
       "    Message('note_on', channel=2, note=58, velocity=114, time=0),\n",
       "    Message('note_on', channel=2, note=58, velocity=0, time=296),\n",
       "    Message('note_on', channel=2, note=49, velocity=0, time=0),\n",
       "    Message('note_on', channel=2, note=54, velocity=0, time=8),\n",
       "    Message('note_on', channel=2, note=49, velocity=114, time=80),\n",
       "    Message('note_on', channel=2, note=54, velocity=114, time=0),\n",
       "    Message('note_on', channel=2, note=58, velocity=114, time=0),\n",
       "    Message('note_on', channel=2, note=44, velocity=0, time=68),\n",
       "    Message('note_on', channel=2, note=58, velocity=0, time=188),\n",
       "    Message('note_on', channel=2, note=44, velocity=114, time=0),\n",
       "    Message('note_on', channel=2, note=54, velocity=0, time=12),\n",
       "    Message('note_on', channel=2, note=49, velocity=0, time=12),\n",
       "    Message('note_on', channel=2, note=44, velocity=0, time=48),\n",
       "    Message('note_on', channel=2, note=37, velocity=114, time=56),\n",
       "    Message('note_on', channel=2, note=53, velocity=110, time=0),\n",
       "    Message('note_on', channel=2, note=56, velocity=114, time=0),\n",
       "    Message('note_on', channel=2, note=61, velocity=114, time=0),\n",
       "    Message('note_on', channel=2, note=53, velocity=0, time=288),\n",
       "    Message('note_on', channel=2, note=61, velocity=0, time=12),\n",
       "    Message('note_on', channel=2, note=56, velocity=0, time=4),\n",
       "    Message('note_on', channel=2, note=53, velocity=121, time=80),\n",
       "    Message('note_on', channel=2, note=56, velocity=124, time=0),\n",
       "    Message('note_on', channel=2, note=61, velocity=114, time=0),\n",
       "    Message('note_on', channel=2, note=37, velocity=0, time=68),\n",
       "    Message('note_on', channel=2, note=61, velocity=0, time=36),\n",
       "    Message('note_on', channel=2, note=56, velocity=0, time=16),\n",
       "    Message('note_on', channel=2, note=53, velocity=0, time=8),\n",
       "    Message('note_on', channel=2, note=37, velocity=114, time=128),\n",
       "    Message('note_on', channel=2, note=37, velocity=0, time=92),\n",
       "    Message('note_on', channel=2, note=44, velocity=114, time=36),\n",
       "    Message('note_on', channel=2, note=49, velocity=114, time=0),\n",
       "    Message('note_on', channel=2, note=54, velocity=114, time=0),\n",
       "    Message('note_on', channel=2, note=58, velocity=114, time=0),\n",
       "    Message('note_on', channel=2, note=58, velocity=0, time=296),\n",
       "    Message('note_on', channel=2, note=49, velocity=0, time=0),\n",
       "    Message('note_on', channel=2, note=54, velocity=0, time=8),\n",
       "    Message('note_on', channel=2, note=49, velocity=114, time=80),\n",
       "    Message('note_on', channel=2, note=54, velocity=114, time=0),\n",
       "    Message('note_on', channel=2, note=58, velocity=114, time=0),\n",
       "    Message('note_on', channel=2, note=44, velocity=0, time=68),\n",
       "    Message('note_on', channel=2, note=58, velocity=0, time=188),\n",
       "    Message('note_on', channel=2, note=44, velocity=114, time=0),\n",
       "    Message('note_on', channel=2, note=54, velocity=0, time=12),\n",
       "    Message('note_on', channel=2, note=49, velocity=0, time=12),\n",
       "    Message('note_on', channel=2, note=44, velocity=0, time=48),\n",
       "    Message('note_on', channel=2, note=37, velocity=114, time=56),\n",
       "    Message('note_on', channel=2, note=53, velocity=110, time=0),\n",
       "    Message('note_on', channel=2, note=56, velocity=114, time=0),\n",
       "    Message('note_on', channel=2, note=61, velocity=114, time=0),\n",
       "    Message('note_on', channel=2, note=53, velocity=0, time=288),\n",
       "    Message('note_on', channel=2, note=61, velocity=0, time=12),\n",
       "    Message('note_on', channel=2, note=56, velocity=0, time=4),\n",
       "    Message('note_on', channel=2, note=53, velocity=121, time=80),\n",
       "    Message('note_on', channel=2, note=56, velocity=124, time=0),\n",
       "    Message('note_on', channel=2, note=61, velocity=114, time=0),\n",
       "    Message('note_on', channel=2, note=37, velocity=0, time=68),\n",
       "    Message('note_on', channel=2, note=61, velocity=0, time=36),\n",
       "    Message('note_on', channel=2, note=56, velocity=0, time=16),\n",
       "    Message('note_on', channel=2, note=53, velocity=0, time=8),\n",
       "    Message('note_on', channel=2, note=37, velocity=114, time=128),\n",
       "    Message('note_on', channel=2, note=37, velocity=0, time=92),\n",
       "    Message('note_on', channel=2, note=44, velocity=114, time=36),\n",
       "    Message('note_on', channel=2, note=49, velocity=114, time=0),\n",
       "    Message('note_on', channel=2, note=54, velocity=114, time=0),\n",
       "    Message('note_on', channel=2, note=58, velocity=114, time=0),\n",
       "    Message('note_on', channel=2, note=58, velocity=0, time=296),\n",
       "    Message('note_on', channel=2, note=49, velocity=0, time=0),\n",
       "    Message('note_on', channel=2, note=54, velocity=0, time=8),\n",
       "    Message('note_on', channel=2, note=49, velocity=114, time=80),\n",
       "    Message('note_on', channel=2, note=54, velocity=114, time=0),\n",
       "    Message('note_on', channel=2, note=58, velocity=114, time=0),\n",
       "    Message('note_on', channel=2, note=44, velocity=0, time=68),\n",
       "    Message('note_on', channel=2, note=58, velocity=0, time=188),\n",
       "    Message('note_on', channel=2, note=44, velocity=114, time=0),\n",
       "    Message('note_on', channel=2, note=54, velocity=0, time=12),\n",
       "    Message('note_on', channel=2, note=49, velocity=0, time=12),\n",
       "    Message('note_on', channel=2, note=44, velocity=0, time=48),\n",
       "    Message('note_on', channel=2, note=37, velocity=114, time=56),\n",
       "    Message('note_on', channel=2, note=53, velocity=110, time=0),\n",
       "    Message('note_on', channel=2, note=56, velocity=114, time=0),\n",
       "    Message('note_on', channel=2, note=61, velocity=114, time=0),\n",
       "    Message('note_on', channel=2, note=53, velocity=0, time=288),\n",
       "    Message('note_on', channel=2, note=61, velocity=0, time=12),\n",
       "    Message('note_on', channel=2, note=56, velocity=0, time=4),\n",
       "    Message('note_on', channel=2, note=53, velocity=121, time=80),\n",
       "    Message('note_on', channel=2, note=56, velocity=124, time=0),\n",
       "    Message('note_on', channel=2, note=61, velocity=114, time=0),\n",
       "    Message('note_on', channel=2, note=37, velocity=0, time=68),\n",
       "    Message('note_on', channel=2, note=61, velocity=0, time=36),\n",
       "    Message('note_on', channel=2, note=56, velocity=0, time=16),\n",
       "    Message('note_on', channel=2, note=53, velocity=0, time=8),\n",
       "    Message('note_on', channel=2, note=37, velocity=114, time=128),\n",
       "    Message('note_on', channel=2, note=37, velocity=0, time=92),\n",
       "    Message('note_on', channel=2, note=44, velocity=114, time=36),\n",
       "    Message('note_on', channel=2, note=49, velocity=114, time=0),\n",
       "    Message('note_on', channel=2, note=54, velocity=114, time=0),\n",
       "    Message('note_on', channel=2, note=58, velocity=114, time=0),\n",
       "    Message('note_on', channel=2, note=58, velocity=0, time=296),\n",
       "    Message('note_on', channel=2, note=49, velocity=0, time=0),\n",
       "    Message('note_on', channel=2, note=54, velocity=0, time=8),\n",
       "    Message('note_on', channel=2, note=49, velocity=114, time=80),\n",
       "    Message('note_on', channel=2, note=54, velocity=114, time=0),\n",
       "    Message('note_on', channel=2, note=58, velocity=114, time=0),\n",
       "    Message('note_on', channel=2, note=44, velocity=0, time=68),\n",
       "    Message('note_on', channel=2, note=58, velocity=0, time=188),\n",
       "    Message('note_on', channel=2, note=44, velocity=114, time=0),\n",
       "    Message('note_on', channel=2, note=54, velocity=0, time=12),\n",
       "    Message('note_on', channel=2, note=49, velocity=0, time=12),\n",
       "    Message('note_on', channel=2, note=44, velocity=0, time=48),\n",
       "    Message('note_on', channel=2, note=37, velocity=114, time=56),\n",
       "    Message('note_on', channel=2, note=53, velocity=110, time=0),\n",
       "    Message('note_on', channel=2, note=56, velocity=114, time=0),\n",
       "    Message('note_on', channel=2, note=61, velocity=114, time=0),\n",
       "    Message('note_on', channel=2, note=53, velocity=0, time=288),\n",
       "    Message('note_on', channel=2, note=61, velocity=0, time=12),\n",
       "    Message('note_on', channel=2, note=56, velocity=0, time=4),\n",
       "    Message('note_on', channel=2, note=53, velocity=121, time=80),\n",
       "    Message('note_on', channel=2, note=56, velocity=124, time=0),\n",
       "    Message('note_on', channel=2, note=61, velocity=114, time=0),\n",
       "    Message('note_on', channel=2, note=37, velocity=0, time=68),\n",
       "    Message('note_on', channel=2, note=61, velocity=0, time=36),\n",
       "    Message('note_on', channel=2, note=56, velocity=0, time=16),\n",
       "    Message('note_on', channel=2, note=53, velocity=0, time=8),\n",
       "    Message('note_on', channel=2, note=37, velocity=114, time=128),\n",
       "    Message('note_on', channel=2, note=37, velocity=0, time=92),\n",
       "    Message('note_on', channel=2, note=44, velocity=114, time=36),\n",
       "    Message('note_on', channel=2, note=49, velocity=114, time=0),\n",
       "    Message('note_on', channel=2, note=54, velocity=114, time=0),\n",
       "    Message('note_on', channel=2, note=58, velocity=114, time=0),\n",
       "    Message('note_on', channel=2, note=58, velocity=0, time=296),\n",
       "    Message('note_on', channel=2, note=49, velocity=0, time=0),\n",
       "    Message('note_on', channel=2, note=54, velocity=0, time=8),\n",
       "    Message('note_on', channel=2, note=49, velocity=114, time=80),\n",
       "    Message('note_on', channel=2, note=54, velocity=114, time=0),\n",
       "    Message('note_on', channel=2, note=58, velocity=114, time=0),\n",
       "    Message('note_on', channel=2, note=44, velocity=0, time=68),\n",
       "    Message('note_on', channel=2, note=58, velocity=0, time=188),\n",
       "    Message('note_on', channel=2, note=44, velocity=114, time=0),\n",
       "    Message('note_on', channel=2, note=54, velocity=0, time=12),\n",
       "    Message('note_on', channel=2, note=49, velocity=0, time=12),\n",
       "    Message('note_on', channel=2, note=44, velocity=0, time=48),\n",
       "    Message('note_on', channel=2, note=37, velocity=114, time=56),\n",
       "    Message('note_on', channel=2, note=53, velocity=110, time=0),\n",
       "    Message('note_on', channel=2, note=56, velocity=114, time=0),\n",
       "    Message('note_on', channel=2, note=61, velocity=114, time=0),\n",
       "    Message('note_on', channel=2, note=53, velocity=0, time=288),\n",
       "    Message('note_on', channel=2, note=61, velocity=0, time=12),\n",
       "    Message('note_on', channel=2, note=56, velocity=0, time=4),\n",
       "    Message('note_on', channel=2, note=53, velocity=121, time=80),\n",
       "    Message('note_on', channel=2, note=56, velocity=124, time=0),\n",
       "    Message('note_on', channel=2, note=61, velocity=114, time=0),\n",
       "    Message('note_on', channel=2, note=37, velocity=0, time=68),\n",
       "    Message('note_on', channel=2, note=61, velocity=0, time=36),\n",
       "    Message('note_on', channel=2, note=56, velocity=0, time=16),\n",
       "    Message('note_on', channel=2, note=53, velocity=0, time=8),\n",
       "    Message('note_on', channel=2, note=37, velocity=114, time=128),\n",
       "    Message('note_on', channel=2, note=37, velocity=0, time=92),\n",
       "    Message('note_on', channel=2, note=44, velocity=114, time=36),\n",
       "    Message('note_on', channel=2, note=49, velocity=114, time=0),\n",
       "    Message('note_on', channel=2, note=54, velocity=114, time=0),\n",
       "    Message('note_on', channel=2, note=58, velocity=114, time=0),\n",
       "    Message('note_on', channel=2, note=58, velocity=0, time=296),\n",
       "    Message('note_on', channel=2, note=49, velocity=0, time=0),\n",
       "    Message('note_on', channel=2, note=54, velocity=0, time=8),\n",
       "    Message('note_on', channel=2, note=49, velocity=114, time=80),\n",
       "    Message('note_on', channel=2, note=54, velocity=114, time=0),\n",
       "    Message('note_on', channel=2, note=58, velocity=114, time=0),\n",
       "    Message('note_on', channel=2, note=44, velocity=0, time=68),\n",
       "    Message('note_on', channel=2, note=58, velocity=0, time=188),\n",
       "    Message('note_on', channel=2, note=44, velocity=114, time=0),\n",
       "    Message('note_on', channel=2, note=54, velocity=0, time=12),\n",
       "    Message('note_on', channel=2, note=49, velocity=0, time=12),\n",
       "    Message('note_on', channel=2, note=44, velocity=0, time=48),\n",
       "    Message('note_on', channel=2, note=37, velocity=114, time=56),\n",
       "    Message('note_on', channel=2, note=53, velocity=110, time=0),\n",
       "    Message('note_on', channel=2, note=56, velocity=114, time=0),\n",
       "    Message('note_on', channel=2, note=61, velocity=114, time=0),\n",
       "    Message('note_on', channel=2, note=53, velocity=0, time=288),\n",
       "    Message('note_on', channel=2, note=61, velocity=0, time=12),\n",
       "    Message('note_on', channel=2, note=56, velocity=0, time=4),\n",
       "    Message('note_on', channel=2, note=53, velocity=121, time=80),\n",
       "    Message('note_on', channel=2, note=56, velocity=124, time=0),\n",
       "    Message('note_on', channel=2, note=61, velocity=114, time=0),\n",
       "    Message('note_on', channel=2, note=37, velocity=0, time=68),\n",
       "    Message('note_on', channel=2, note=61, velocity=0, time=36),\n",
       "    Message('note_on', channel=2, note=56, velocity=0, time=16),\n",
       "    Message('note_on', channel=2, note=53, velocity=0, time=8),\n",
       "    Message('note_on', channel=2, note=37, velocity=114, time=128),\n",
       "    Message('note_on', channel=2, note=37, velocity=0, time=92),\n",
       "    Message('note_on', channel=2, note=44, velocity=114, time=36),\n",
       "    Message('note_on', channel=2, note=49, velocity=114, time=0),\n",
       "    Message('note_on', channel=2, note=54, velocity=114, time=0),\n",
       "    Message('note_on', channel=2, note=58, velocity=114, time=0),\n",
       "    Message('note_on', channel=2, note=58, velocity=0, time=296),\n",
       "    Message('note_on', channel=2, note=49, velocity=0, time=0),\n",
       "    Message('note_on', channel=2, note=54, velocity=0, time=8),\n",
       "    Message('note_on', channel=2, note=49, velocity=114, time=80),\n",
       "    Message('note_on', channel=2, note=54, velocity=114, time=0),\n",
       "    Message('note_on', channel=2, note=58, velocity=114, time=0),\n",
       "    Message('note_on', channel=2, note=44, velocity=0, time=68),\n",
       "    Message('note_on', channel=2, note=58, velocity=0, time=188),\n",
       "    Message('note_on', channel=2, note=44, velocity=114, time=0),\n",
       "    Message('note_on', channel=2, note=54, velocity=0, time=12),\n",
       "    Message('note_on', channel=2, note=49, velocity=0, time=12),\n",
       "    Message('note_on', channel=2, note=44, velocity=0, time=48),\n",
       "    Message('note_on', channel=2, note=37, velocity=114, time=56),\n",
       "    Message('note_on', channel=2, note=53, velocity=110, time=0),\n",
       "    Message('note_on', channel=2, note=56, velocity=114, time=0),\n",
       "    Message('note_on', channel=2, note=61, velocity=114, time=0),\n",
       "    Message('note_on', channel=2, note=53, velocity=0, time=288),\n",
       "    Message('note_on', channel=2, note=61, velocity=0, time=12),\n",
       "    Message('note_on', channel=2, note=56, velocity=0, time=4),\n",
       "    Message('note_on', channel=2, note=53, velocity=121, time=80),\n",
       "    Message('note_on', channel=2, note=56, velocity=124, time=0),\n",
       "    Message('note_on', channel=2, note=61, velocity=114, time=0),\n",
       "    Message('note_on', channel=2, note=37, velocity=0, time=68),\n",
       "    Message('note_on', channel=2, note=61, velocity=0, time=36),\n",
       "    Message('note_on', channel=2, note=56, velocity=0, time=16),\n",
       "    Message('note_on', channel=2, note=53, velocity=0, time=8),\n",
       "    Message('note_on', channel=2, note=37, velocity=114, time=128),\n",
       "    Message('note_on', channel=2, note=37, velocity=0, time=92),\n",
       "    Message('note_on', channel=2, note=44, velocity=114, time=36),\n",
       "    Message('note_on', channel=2, note=49, velocity=114, time=0),\n",
       "    Message('note_on', channel=2, note=54, velocity=114, time=0),\n",
       "    Message('note_on', channel=2, note=58, velocity=114, time=0),\n",
       "    Message('note_on', channel=2, note=58, velocity=0, time=296),\n",
       "    Message('note_on', channel=2, note=49, velocity=0, time=0),\n",
       "    Message('note_on', channel=2, note=54, velocity=0, time=8),\n",
       "    Message('note_on', channel=2, note=49, velocity=114, time=80),\n",
       "    Message('note_on', channel=2, note=54, velocity=114, time=0),\n",
       "    Message('note_on', channel=2, note=58, velocity=114, time=0),\n",
       "    Message('note_on', channel=2, note=44, velocity=0, time=68),\n",
       "    Message('note_on', channel=2, note=58, velocity=0, time=188),\n",
       "    Message('note_on', channel=2, note=44, velocity=114, time=0),\n",
       "    Message('note_on', channel=2, note=54, velocity=0, time=12),\n",
       "    Message('note_on', channel=2, note=49, velocity=0, time=12),\n",
       "    Message('note_on', channel=2, note=44, velocity=0, time=48),\n",
       "    Message('note_on', channel=2, note=37, velocity=114, time=56),\n",
       "    Message('note_on', channel=2, note=53, velocity=110, time=0),\n",
       "    Message('note_on', channel=2, note=56, velocity=114, time=0),\n",
       "    Message('note_on', channel=2, note=61, velocity=114, time=0),\n",
       "    Message('note_on', channel=2, note=53, velocity=0, time=288),\n",
       "    Message('note_on', channel=2, note=61, velocity=0, time=12),\n",
       "    Message('note_on', channel=2, note=56, velocity=0, time=4),\n",
       "    Message('note_on', channel=2, note=53, velocity=121, time=80),\n",
       "    Message('note_on', channel=2, note=56, velocity=124, time=0),\n",
       "    Message('note_on', channel=2, note=61, velocity=114, time=0),\n",
       "    Message('note_on', channel=2, note=37, velocity=0, time=68),\n",
       "    Message('note_on', channel=2, note=61, velocity=0, time=36),\n",
       "    Message('note_on', channel=2, note=56, velocity=0, time=16),\n",
       "    Message('note_on', channel=2, note=53, velocity=0, time=8),\n",
       "    Message('note_on', channel=2, note=37, velocity=114, time=128),\n",
       "    Message('note_on', channel=2, note=37, velocity=0, time=92),\n",
       "    Message('note_on', channel=2, note=44, velocity=114, time=36),\n",
       "    Message('note_on', channel=2, note=49, velocity=114, time=0),\n",
       "    Message('note_on', channel=2, note=54, velocity=114, time=0),\n",
       "    Message('note_on', channel=2, note=58, velocity=114, time=0),\n",
       "    Message('note_on', channel=2, note=58, velocity=0, time=296),\n",
       "    Message('note_on', channel=2, note=49, velocity=0, time=0),\n",
       "    Message('note_on', channel=2, note=54, velocity=0, time=8),\n",
       "    Message('note_on', channel=2, note=49, velocity=114, time=80),\n",
       "    Message('note_on', channel=2, note=54, velocity=114, time=0),\n",
       "    Message('note_on', channel=2, note=58, velocity=114, time=0),\n",
       "    Message('note_on', channel=2, note=44, velocity=0, time=68),\n",
       "    Message('note_on', channel=2, note=58, velocity=0, time=188),\n",
       "    Message('note_on', channel=2, note=44, velocity=114, time=0),\n",
       "    Message('note_on', channel=2, note=54, velocity=0, time=12),\n",
       "    Message('note_on', channel=2, note=49, velocity=0, time=12),\n",
       "    Message('note_on', channel=2, note=44, velocity=0, time=48),\n",
       "    Message('note_on', channel=2, note=37, velocity=114, time=56),\n",
       "    Message('note_on', channel=2, note=53, velocity=110, time=0),\n",
       "    Message('note_on', channel=2, note=56, velocity=114, time=0),\n",
       "    Message('note_on', channel=2, note=61, velocity=114, time=0),\n",
       "    Message('note_on', channel=2, note=53, velocity=0, time=288),\n",
       "    Message('note_on', channel=2, note=61, velocity=0, time=12),\n",
       "    Message('note_on', channel=2, note=56, velocity=0, time=4),\n",
       "    Message('note_on', channel=2, note=53, velocity=121, time=80),\n",
       "    Message('note_on', channel=2, note=56, velocity=124, time=0),\n",
       "    Message('note_on', channel=2, note=61, velocity=114, time=0),\n",
       "    Message('note_on', channel=2, note=37, velocity=0, time=68),\n",
       "    Message('note_on', channel=2, note=61, velocity=0, time=36),\n",
       "    Message('note_on', channel=2, note=56, velocity=0, time=16),\n",
       "    Message('note_on', channel=2, note=53, velocity=0, time=8),\n",
       "    Message('note_on', channel=2, note=37, velocity=114, time=128),\n",
       "    Message('note_on', channel=2, note=37, velocity=0, time=92),\n",
       "    Message('note_on', channel=2, note=44, velocity=114, time=36),\n",
       "    Message('note_on', channel=2, note=49, velocity=114, time=0),\n",
       "    Message('note_on', channel=2, note=54, velocity=114, time=0),\n",
       "    Message('note_on', channel=2, note=58, velocity=114, time=0),\n",
       "    Message('note_on', channel=2, note=58, velocity=0, time=296),\n",
       "    Message('note_on', channel=2, note=49, velocity=0, time=0),\n",
       "    Message('note_on', channel=2, note=54, velocity=0, time=8),\n",
       "    Message('note_on', channel=2, note=49, velocity=114, time=80),\n",
       "    Message('note_on', channel=2, note=54, velocity=114, time=0),\n",
       "    Message('note_on', channel=2, note=58, velocity=114, time=0),\n",
       "    Message('note_on', channel=2, note=44, velocity=0, time=68),\n",
       "    Message('note_on', channel=2, note=58, velocity=0, time=188),\n",
       "    Message('note_on', channel=2, note=44, velocity=114, time=0),\n",
       "    Message('note_on', channel=2, note=54, velocity=0, time=12),\n",
       "    Message('note_on', channel=2, note=49, velocity=0, time=12),\n",
       "    Message('note_on', channel=2, note=44, velocity=0, time=48),\n",
       "    Message('note_on', channel=2, note=37, velocity=114, time=56),\n",
       "    Message('note_on', channel=2, note=53, velocity=110, time=0),\n",
       "    Message('note_on', channel=2, note=56, velocity=114, time=0),\n",
       "    Message('note_on', channel=2, note=61, velocity=114, time=0),\n",
       "    Message('note_on', channel=2, note=53, velocity=0, time=288),\n",
       "    Message('note_on', channel=2, note=61, velocity=0, time=12),\n",
       "    Message('note_on', channel=2, note=56, velocity=0, time=4),\n",
       "    Message('note_on', channel=2, note=53, velocity=121, time=80),\n",
       "    Message('note_on', channel=2, note=56, velocity=124, time=0),\n",
       "    Message('note_on', channel=2, note=61, velocity=114, time=0),\n",
       "    Message('note_on', channel=2, note=37, velocity=0, time=68),\n",
       "    Message('note_on', channel=2, note=61, velocity=0, time=36),\n",
       "    Message('note_on', channel=2, note=56, velocity=0, time=16),\n",
       "    Message('note_on', channel=2, note=53, velocity=0, time=8),\n",
       "    Message('note_on', channel=2, note=37, velocity=114, time=128),\n",
       "    Message('note_on', channel=2, note=37, velocity=0, time=92),\n",
       "    Message('note_on', channel=2, note=44, velocity=114, time=36),\n",
       "    Message('note_on', channel=2, note=49, velocity=114, time=0),\n",
       "    Message('note_on', channel=2, note=54, velocity=114, time=0),\n",
       "    Message('note_on', channel=2, note=58, velocity=114, time=0),\n",
       "    Message('note_on', channel=2, note=58, velocity=0, time=296),\n",
       "    Message('note_on', channel=2, note=49, velocity=0, time=0),\n",
       "    Message('note_on', channel=2, note=54, velocity=0, time=8),\n",
       "    Message('note_on', channel=2, note=49, velocity=114, time=80),\n",
       "    Message('note_on', channel=2, note=54, velocity=114, time=0),\n",
       "    Message('note_on', channel=2, note=58, velocity=114, time=0),\n",
       "    Message('note_on', channel=2, note=44, velocity=0, time=68),\n",
       "    Message('note_on', channel=2, note=58, velocity=0, time=188),\n",
       "    Message('note_on', channel=2, note=44, velocity=114, time=0),\n",
       "    Message('note_on', channel=2, note=54, velocity=0, time=12),\n",
       "    Message('note_on', channel=2, note=49, velocity=0, time=12),\n",
       "    Message('note_on', channel=2, note=44, velocity=0, time=48),\n",
       "    Message('note_on', channel=2, note=37, velocity=110, time=56),\n",
       "    Message('note_on', channel=2, note=49, velocity=110, time=0),\n",
       "    Message('note_on', channel=2, note=53, velocity=122, time=0),\n",
       "    Message('note_on', channel=2, note=56, velocity=126, time=0),\n",
       "    Message('note_on', channel=2, note=61, velocity=126, time=0),\n",
       "    Message('note_on', channel=2, note=65, velocity=127, time=0),\n",
       "    Message('note_on', channel=2, note=49, velocity=0, time=108),\n",
       "    Message('note_on', channel=2, note=37, velocity=0, time=24),\n",
       "    Message('note_on', channel=2, note=56, velocity=0, time=8),\n",
       "    Message('note_on', channel=2, note=61, velocity=0, time=12),\n",
       "    Message('note_on', channel=2, note=53, velocity=0, time=0),\n",
       "    Message('note_on', channel=2, note=65, velocity=0, time=16),\n",
       "    MetaMessage('end_of_track', time=0)]),\n",
       "  MidiTrack([\n",
       "    MetaMessage('midi_port', port=0, time=0),\n",
       "    MetaMessage('track_name', name='organ    ', time=0),\n",
       "    Message('control_change', channel=4, control=0, value=0, time=492),\n",
       "    Message('control_change', channel=4, control=32, value=0, time=0),\n",
       "    Message('program_change', channel=4, program=16, time=0),\n",
       "    Message('control_change', channel=4, control=7, value=70, time=4),\n",
       "    Message('control_change', channel=4, control=10, value=94, time=0),\n",
       "    Message('control_change', channel=4, control=11, value=127, time=0),\n",
       "    Message('control_change', channel=4, control=91, value=127, time=4),\n",
       "    Message('control_change', channel=4, control=93, value=100, time=0),\n",
       "    Message('note_on', channel=4, note=67, velocity=99, time=2572),\n",
       "    Message('note_on', channel=4, note=71, velocity=96, time=0),\n",
       "    Message('note_on', channel=4, note=74, velocity=96, time=0),\n",
       "    Message('note_on', channel=4, note=79, velocity=84, time=0),\n",
       "    Message('control_change', channel=4, control=1, value=1, time=624),\n",
       "    Message('control_change', channel=4, control=1, value=3, time=84),\n",
       "    Message('control_change', channel=4, control=1, value=5, time=68),\n",
       "    Message('control_change', channel=4, control=1, value=7, time=40),\n",
       "    Message('control_change', channel=4, control=1, value=9, time=64),\n",
       "    Message('control_change', channel=4, control=1, value=11, time=148),\n",
       "    Message('control_change', channel=4, control=1, value=13, time=116),\n",
       "    Message('control_change', channel=4, control=1, value=15, time=40),\n",
       "    Message('control_change', channel=4, control=1, value=17, time=232),\n",
       "    Message('note_on', channel=4, note=79, velocity=0, time=88),\n",
       "    Message('note_on', channel=4, note=67, velocity=0, time=8),\n",
       "    Message('note_on', channel=4, note=71, velocity=0, time=12),\n",
       "    Message('note_on', channel=4, note=78, velocity=88, time=24),\n",
       "    Message('note_on', channel=4, note=69, velocity=96, time=4),\n",
       "    Message('control_change', channel=4, control=1, value=19, time=120),\n",
       "    Message('control_change', channel=4, control=1, value=17, time=332),\n",
       "    Message('control_change', channel=4, control=1, value=19, time=40),\n",
       "    Message('control_change', channel=4, control=1, value=21, time=232),\n",
       "    Message('control_change', channel=4, control=1, value=19, time=40),\n",
       "    Message('control_change', channel=4, control=1, value=17, time=136),\n",
       "    Message('control_change', channel=4, control=1, value=15, time=48),\n",
       "    Message('control_change', channel=4, control=1, value=13, time=44),\n",
       "    Message('control_change', channel=4, control=1, value=11, time=8),\n",
       "    Message('control_change', channel=4, control=1, value=9, time=8),\n",
       "    Message('control_change', channel=4, control=1, value=7, time=8),\n",
       "    Message('control_change', channel=4, control=1, value=5, time=4),\n",
       "    Message('control_change', channel=4, control=1, value=3, time=4),\n",
       "    Message('control_change', channel=4, control=1, value=1, time=8),\n",
       "    Message('control_change', channel=4, control=1, value=0, time=8),\n",
       "    Message('note_on', channel=4, note=69, velocity=0, time=408),\n",
       "    Message('note_on', channel=4, note=74, velocity=0, time=16),\n",
       "    Message('note_on', channel=4, note=78, velocity=0, time=4),\n",
       "    Message('note_on', channel=4, note=74, velocity=99, time=48),\n",
       "    Message('note_on', channel=4, note=67, velocity=96, time=4),\n",
       "    Message('note_on', channel=4, note=76, velocity=96, time=0),\n",
       "    Message('control_change', channel=4, control=1, value=1, time=1284),\n",
       "    Message('note_on', channel=4, note=67, velocity=0, time=208),\n",
       "    Message('note_on', channel=4, note=69, velocity=84, time=36),\n",
       "    Message('note_on', channel=4, note=76, velocity=0, time=4),\n",
       "    Message('note_on', channel=4, note=78, velocity=72, time=0),\n",
       "    Message('control_change', channel=4, control=1, value=3, time=24),\n",
       "    Message('control_change', channel=4, control=1, value=5, time=84),\n",
       "    Message('control_change', channel=4, control=1, value=7, time=96),\n",
       "    Message('control_change', channel=4, control=1, value=9, time=48),\n",
       "    Message('control_change', channel=4, control=1, value=11, time=176),\n",
       "    Message('control_change', channel=4, control=1, value=13, time=40),\n",
       "    Message('control_change', channel=4, control=1, value=15, time=80),\n",
       "    Message('control_change', channel=4, control=1, value=17, time=68),\n",
       "    Message('control_change', channel=4, control=1, value=19, time=68),\n",
       "    Message('control_change', channel=4, control=1, value=21, time=36),\n",
       "    Message('control_change', channel=4, control=1, value=23, time=44),\n",
       "    Message('note_on', channel=4, note=36, velocity=84, time=396),\n",
       "    Message('note_on', channel=4, note=38, velocity=67, time=16),\n",
       "    Message('note_on', channel=4, note=36, velocity=0, time=4),\n",
       "    Message('note_on', channel=4, note=40, velocity=67, time=20),\n",
       "    Message('note_on', channel=4, note=38, velocity=0, time=12),\n",
       "    Message('note_on', channel=4, note=41, velocity=40, time=16),\n",
       "    Message('note_on', channel=4, note=40, velocity=0, time=8),\n",
       "    Message('note_on', channel=4, note=43, velocity=40, time=12),\n",
       "    Message('note_on', channel=4, note=41, velocity=0, time=12),\n",
       "    Message('note_on', channel=4, note=45, velocity=67, time=12),\n",
       "    Message('note_on', channel=4, note=69, velocity=0, time=8),\n",
       "    Message('note_on', channel=4, note=43, velocity=0, time=4),\n",
       "    Message('note_on', channel=4, note=78, velocity=0, time=4),\n",
       "    Message('note_on', channel=4, note=74, velocity=0, time=4),\n",
       "    Message('note_on', channel=4, note=47, velocity=84, time=0),\n",
       "    Message('note_on', channel=4, note=45, velocity=0, time=12),\n",
       "    Message('note_on', channel=4, note=48, velocity=96, time=4),\n",
       "    Message('note_on', channel=4, note=47, velocity=0, time=12),\n",
       "    Message('note_on', channel=4, note=50, velocity=96, time=4),\n",
       "    Message('note_on', channel=4, note=48, velocity=0, time=12),\n",
       "    Message('note_on', channel=4, note=52, velocity=67, time=4),\n",
       "    Message('note_on', channel=4, note=50, velocity=0, time=12),\n",
       "    Message('note_on', channel=4, note=53, velocity=40, time=8),\n",
       "    Message('note_on', channel=4, note=52, velocity=0, time=12),\n",
       "    Message('note_on', channel=4, note=55, velocity=52, time=8),\n",
       "    Message('note_on', channel=4, note=53, velocity=0, time=12),\n",
       "    Message('note_on', channel=4, note=57, velocity=52, time=4),\n",
       "    Message('note_on', channel=4, note=55, velocity=0, time=16),\n",
       "    Message('note_on', channel=4, note=59, velocity=40, time=8),\n",
       "    Message('note_on', channel=4, note=57, velocity=0, time=8),\n",
       "    Message('note_on', channel=4, note=60, velocity=40, time=8),\n",
       "    Message('note_on', channel=4, note=59, velocity=0, time=12),\n",
       "    Message('note_on', channel=4, note=62, velocity=52, time=8),\n",
       "    Message('note_on', channel=4, note=60, velocity=0, time=12),\n",
       "    Message('note_on', channel=4, note=64, velocity=96, time=8),\n",
       "    Message('note_on', channel=4, note=62, velocity=0, time=8),\n",
       "    Message('note_on', channel=4, note=70, velocity=88, time=8),\n",
       "    Message('note_on', channel=4, note=73, velocity=88, time=0),\n",
       "    Message('note_on', channel=4, note=67, velocity=96, time=4),\n",
       "    Message('note_on', channel=4, note=74, velocity=99, time=4),\n",
       "    Message('note_on', channel=4, note=65, velocity=67, time=0),\n",
       "    Message('note_on', channel=4, note=64, velocity=0, time=4),\n",
       "    Message('note_on', channel=4, note=79, velocity=96, time=4),\n",
       "    Message('note_on', channel=4, note=71, velocity=99, time=0),\n",
       "    Message('note_on', channel=4, note=65, velocity=0, time=4),\n",
       "    Message('note_on', channel=4, note=70, velocity=0, time=4),\n",
       "    Message('note_on', channel=4, note=73, velocity=0, time=0),\n",
       "    Message('control_change', channel=4, control=1, value=21, time=568),\n",
       "    Message('control_change', channel=4, control=1, value=19, time=48),\n",
       "    Message('control_change', channel=4, control=1, value=17, time=40),\n",
       "    Message('control_change', channel=4, control=1, value=15, time=56),\n",
       "    Message('control_change', channel=4, control=1, value=13, time=376),\n",
       "    Message('control_change', channel=4, control=1, value=15, time=24),\n",
       "    Message('control_change', channel=4, control=1, value=17, time=52),\n",
       "    Message('control_change', channel=4, control=1, value=19, time=116),\n",
       "    Message('note_on', channel=4, note=79, velocity=0, time=240),\n",
       "    Message('note_on', channel=4, note=67, velocity=0, time=8),\n",
       "    Message('note_on', channel=4, note=71, velocity=0, time=4),\n",
       "    Message('note_on', channel=4, note=78, velocity=88, time=20),\n",
       "    Message('note_on', channel=4, note=69, velocity=84, time=4),\n",
       "    Message('control_change', channel=4, control=1, value=21, time=624),\n",
       "    Message('control_change', channel=4, control=1, value=23, time=92),\n",
       "    Message('control_change', channel=4, control=1, value=25, time=592),\n",
       "    Message('control_change', channel=4, control=1, value=23, time=44),\n",
       "    Message('control_change', channel=4, control=1, value=21, time=8),\n",
       "    Message('control_change', channel=4, control=1, value=19, time=4),\n",
       "    Message('control_change', channel=4, control=1, value=17, time=8),\n",
       "    Message('control_change', channel=4, control=1, value=15, time=8),\n",
       "    Message('control_change', channel=4, control=1, value=13, time=0),\n",
       "    Message('control_change', channel=4, control=1, value=11, time=4),\n",
       "    Message('control_change', channel=4, control=1, value=9, time=4),\n",
       "    Message('control_change', channel=4, control=1, value=7, time=4),\n",
       "    Message('control_change', channel=4, control=1, value=5, time=4),\n",
       "    Message('control_change', channel=4, control=1, value=3, time=4),\n",
       "    Message('control_change', channel=4, control=1, value=1, time=4),\n",
       "    Message('control_change', channel=4, control=1, value=0, time=4),\n",
       "    Message('note_on', channel=4, note=78, velocity=0, time=44),\n",
       "    Message('note_on', channel=4, note=74, velocity=0, time=16),\n",
       "    Message('note_on', channel=4, note=69, velocity=0, time=20),\n",
       "    Message('note_on', channel=4, note=67, velocity=96, time=44),\n",
       "    Message('note_on', channel=4, note=69, velocity=99, time=0),\n",
       "    Message('note_on', channel=4, note=72, velocity=96, time=0),\n",
       "    Message('note_on', channel=4, note=76, velocity=96, time=4),\n",
       "    Message('note_on', channel=4, note=75, velocity=88, time=4),\n",
       "    Message('note_on', channel=4, note=75, velocity=0, time=4),\n",
       "    Message('control_change', channel=4, control=1, value=1, time=1084),\n",
       "    Message('control_change', channel=4, control=1, value=3, time=144),\n",
       "    Message('control_change', channel=4, control=1, value=5, time=24),\n",
       "    Message('control_change', channel=4, control=1, value=7, time=108),\n",
       "    Message('control_change', channel=4, control=1, value=9, time=44),\n",
       "    Message('control_change', channel=4, control=1, value=11, time=72),\n",
       "    Message('control_change', channel=4, control=1, value=13, time=40),\n",
       "    Message('control_change', channel=4, control=1, value=15, time=76),\n",
       "    Message('control_change', channel=4, control=1, value=17, time=308),\n",
       "    Message('control_change', channel=4, control=1, value=19, time=148),\n",
       "    Message('control_change', channel=4, control=1, value=21, time=32),\n",
       "    Message('control_change', channel=4, control=1, value=23, time=20),\n",
       "    Message('control_change', channel=4, control=1, value=25, time=56),\n",
       "    Message('control_change', channel=4, control=1, value=23, time=28),\n",
       "    Message('control_change', channel=4, control=1, value=25, time=148),\n",
       "    Message('control_change', channel=4, control=1, value=27, time=40),\n",
       "    Message('control_change', channel=4, control=1, value=29, time=68),\n",
       "    Message('control_change', channel=4, control=1, value=31, time=168),\n",
       "    Message('control_change', channel=4, control=1, value=33, time=132),\n",
       "    Message('control_change', channel=4, control=1, value=35, time=60),\n",
       "    Message('note_on', channel=4, note=67, velocity=0, time=68),\n",
       "    Message('note_on', channel=4, note=72, velocity=0, time=0),\n",
       "    Message('note_on', channel=4, note=69, velocity=0, time=0),\n",
       "    Message('note_on', channel=4, note=76, velocity=0, time=4),\n",
       "    Message('control_change', channel=4, control=1, value=37, time=16),\n",
       "    Message('control_change', channel=4, control=1, value=39, time=68),\n",
       "    Message('control_change', channel=4, control=1, value=41, time=24),\n",
       "    Message('control_change', channel=4, control=1, value=43, time=24),\n",
       "    Message('control_change', channel=4, control=1, value=45, time=28),\n",
       "    Message('control_change', channel=4, control=1, value=43, time=244),\n",
       "    Message('control_change', channel=4, control=1, value=41, time=24),\n",
       "    Message('control_change', channel=4, control=1, value=39, time=16),\n",
       "    Message('control_change', channel=4, control=1, value=37, time=8),\n",
       "    Message('control_change', channel=4, control=1, value=35, time=8),\n",
       "    Message('control_change', channel=4, control=1, value=33, time=8),\n",
       "    Message('control_change', channel=4, control=1, value=31, time=4),\n",
       "    Message('control_change', channel=4, control=1, value=29, time=4),\n",
       "    Message('control_change', channel=4, control=1, value=27, time=8),\n",
       "    Message('control_change', channel=4, control=1, value=25, time=0),\n",
       "    Message('control_change', channel=4, control=1, value=23, time=4),\n",
       "    Message('control_change', channel=4, control=1, value=21, time=4),\n",
       "    Message('control_change', channel=4, control=1, value=19, time=4),\n",
       "    Message('control_change', channel=4, control=1, value=17, time=0),\n",
       "    Message('control_change', channel=4, control=1, value=15, time=4),\n",
       "    Message('control_change', channel=4, control=1, value=13, time=0),\n",
       "    Message('control_change', channel=4, control=1, value=11, time=4),\n",
       "    Message('control_change', channel=4, control=1, value=9, time=4),\n",
       "    Message('control_change', channel=4, control=1, value=7, time=0),\n",
       "    Message('control_change', channel=4, control=1, value=5, time=4),\n",
       "    Message('control_change', channel=4, control=1, value=3, time=4),\n",
       "    Message('control_change', channel=4, control=1, value=1, time=0),\n",
       "    Message('control_change', channel=4, control=1, value=0, time=4),\n",
       "    Message('note_on', channel=4, note=71, velocity=99, time=37308),\n",
       "    Message('note_on', channel=4, note=67, velocity=96, time=4),\n",
       "    Message('note_on', channel=4, note=74, velocity=96, time=4),\n",
       "    Message('note_on', channel=4, note=79, velocity=84, time=0),\n",
       "    Message('note_on', channel=4, note=79, velocity=0, time=1480),\n",
       "    Message('note_on', channel=4, note=67, velocity=0, time=0),\n",
       "    Message('note_on', channel=4, note=71, velocity=0, time=8),\n",
       "    Message('note_on', channel=4, note=74, velocity=0, time=24),\n",
       "    Message('note_on', channel=4, note=69, velocity=96, time=24),\n",
       "    Message('note_on', channel=4, note=74, velocity=99, time=4),\n",
       "    Message('note_on', channel=4, note=78, velocity=88, time=4),\n",
       "    Message('control_change', channel=4, control=1, value=2, time=672),\n",
       "    Message('control_change', channel=4, control=1, value=4, time=120),\n",
       "    Message('control_change', channel=4, control=1, value=6, time=76),\n",
       "    Message('control_change', channel=4, control=1, value=8, time=96),\n",
       "    Message('control_change', channel=4, control=1, value=10, time=68),\n",
       "    Message('control_change', channel=4, control=1, value=12, time=52),\n",
       "    Message('control_change', channel=4, control=1, value=14, time=64),\n",
       "    Message('control_change', channel=4, control=1, value=16, time=156),\n",
       "    Message('note_on', channel=4, note=69, velocity=0, time=144),\n",
       "    Message('note_on', channel=4, note=78, velocity=0, time=4),\n",
       "    Message('note_on', channel=4, note=74, velocity=0, time=4),\n",
       "    Message('note_on', channel=4, note=74, velocity=99, time=56),\n",
       "    Message('note_on', channel=4, note=76, velocity=99, time=0),\n",
       "    Message('note_on', channel=4, note=67, velocity=84, time=0),\n",
       "    Message('note_on', channel=4, note=69, velocity=96, time=4),\n",
       "    Message('note_on', channel=4, note=69, velocity=0, time=32),\n",
       "    Message('control_change', channel=4, control=1, value=18, time=12),\n",
       "    Message('control_change', channel=4, control=1, value=20, time=376),\n",
       "    Message('control_change', channel=4, control=1, value=22, time=144),\n",
       "    Message('control_change', channel=4, control=1, value=24, time=152),\n",
       "    Message('control_change', channel=4, control=1, value=22, time=64),\n",
       "    Message('control_change', channel=4, control=1, value=24, time=28),\n",
       "    Message('control_change', channel=4, control=1, value=26, time=516),\n",
       "    Message('note_on', channel=4, note=67, velocity=0, time=156),\n",
       "    Message('note_on', channel=4, note=76, velocity=0, time=16),\n",
       "    Message('note_on', channel=4, note=69, velocity=84, time=28),\n",
       "    Message('note_on', channel=4, note=78, velocity=72, time=4),\n",
       "    Message('control_change', channel=4, control=1, value=28, time=48),\n",
       "    Message('control_change', channel=4, control=1, value=30, time=92),\n",
       "    Message('control_change', channel=4, control=1, value=28, time=344),\n",
       "    Message('control_change', channel=4, control=1, value=26, time=32),\n",
       "    Message('control_change', channel=4, control=1, value=24, time=16),\n",
       "    Message('control_change', channel=4, control=1, value=22, time=8),\n",
       "    Message('control_change', channel=4, control=1, value=20, time=4),\n",
       "    Message('control_change', channel=4, control=1, value=18, time=8),\n",
       "    Message('control_change', channel=4, control=1, value=16, time=4),\n",
       "    Message('control_change', channel=4, control=1, value=14, time=8),\n",
       "    Message('control_change', channel=4, control=1, value=12, time=8),\n",
       "    Message('control_change', channel=4, control=1, value=10, time=0),\n",
       "    Message('control_change', channel=4, control=1, value=8, time=4),\n",
       "    Message('control_change', channel=4, control=1, value=6, time=4),\n",
       "    Message('control_change', channel=4, control=1, value=4, time=4),\n",
       "    Message('control_change', channel=4, control=1, value=2, time=4),\n",
       "    Message('control_change', channel=4, control=1, value=0, time=0),\n",
       "    Message('note_on', channel=4, note=41, velocity=84, time=520),\n",
       "    Message('note_on', channel=4, note=43, velocity=67, time=40),\n",
       "    Message('note_on', channel=4, note=41, velocity=0, time=20),\n",
       "    Message('note_on', channel=4, note=45, velocity=84, time=16),\n",
       "    Message('note_on', channel=4, note=43, velocity=0, time=12),\n",
       "    Message('note_on', channel=4, note=47, velocity=84, time=16),\n",
       "    Message('note_on', channel=4, note=45, velocity=0, time=12),\n",
       "    Message('note_on', channel=4, note=48, velocity=84, time=16),\n",
       "    Message('note_on', channel=4, note=69, velocity=0, time=12),\n",
       "    Message('note_on', channel=4, note=47, velocity=0, time=0),\n",
       "    Message('note_on', channel=4, note=74, velocity=0, time=8),\n",
       "    Message('note_on', channel=4, note=50, velocity=84, time=4),\n",
       "    Message('note_on', channel=4, note=78, velocity=0, time=4),\n",
       "    Message('note_on', channel=4, note=48, velocity=0, time=12),\n",
       "    Message('note_on', channel=4, note=52, velocity=84, time=12),\n",
       "    Message('note_on', channel=4, note=50, velocity=0, time=8),\n",
       "    Message('note_on', channel=4, note=53, velocity=67, time=16),\n",
       "    Message('note_on', channel=4, note=52, velocity=0, time=8),\n",
       "    Message('note_on', channel=4, note=55, velocity=96, time=12),\n",
       "    Message('note_on', channel=4, note=53, velocity=0, time=12),\n",
       "    Message('note_on', channel=4, note=57, velocity=84, time=12),\n",
       "    Message('note_on', channel=4, note=55, velocity=0, time=16),\n",
       "    Message('note_on', channel=4, note=59, velocity=96, time=12),\n",
       "    Message('note_on', channel=4, note=57, velocity=0, time=12),\n",
       "    Message('note_on', channel=4, note=60, velocity=96, time=12),\n",
       "    Message('note_on', channel=4, note=59, velocity=0, time=12),\n",
       "    Message('note_on', channel=4, note=62, velocity=96, time=12),\n",
       "    Message('note_on', channel=4, note=60, velocity=0, time=12),\n",
       "    Message('note_on', channel=4, note=64, velocity=67, time=12),\n",
       "    Message('note_on', channel=4, note=62, velocity=0, time=16),\n",
       "    Message('note_on', channel=4, note=65, velocity=96, time=16),\n",
       "    Message('note_on', channel=4, note=64, velocity=0, time=8),\n",
       "    Message('note_on', channel=4, note=67, velocity=96, time=16),\n",
       "    Message('note_on', channel=4, note=71, velocity=96, time=4),\n",
       "    Message('note_on', channel=4, note=65, velocity=0, time=4),\n",
       "    Message('note_on', channel=4, note=74, velocity=96, time=0),\n",
       "    Message('note_on', channel=4, note=79, velocity=96, time=0),\n",
       "    Message('control_change', channel=4, control=1, value=2, time=812),\n",
       "    Message('control_change', channel=4, control=1, value=4, time=40),\n",
       "    Message('control_change', channel=4, control=1, value=6, time=40),\n",
       "    Message('control_change', channel=4, control=1, value=8, time=52),\n",
       "    Message('control_change', channel=4, control=1, value=10, time=48),\n",
       "    Message('control_change', channel=4, control=1, value=12, time=48),\n",
       "    Message('control_change', channel=4, control=1, value=14, time=28),\n",
       "    Message('control_change', channel=4, control=1, value=16, time=76),\n",
       "    Message('control_change', channel=4, control=1, value=18, time=52),\n",
       "    Message('control_change', channel=4, control=1, value=20, time=32),\n",
       "    Message('control_change', channel=4, control=1, value=22, time=36),\n",
       "    Message('control_change', channel=4, control=1, value=24, time=128),\n",
       "    Message('note_on', channel=4, note=79, velocity=0, time=80),\n",
       "    Message('note_on', channel=4, note=67, velocity=0, time=16),\n",
       "    Message('note_on', channel=4, note=71, velocity=0, time=0),\n",
       "    Message('note_on', channel=4, note=74, velocity=0, time=16),\n",
       "    Message('note_on', channel=4, note=69, velocity=96, time=32),\n",
       "    Message('note_on', channel=4, note=74, velocity=96, time=0),\n",
       "    Message('note_on', channel=4, note=78, velocity=88, time=4),\n",
       "    Message('control_change', channel=4, control=1, value=22, time=780),\n",
       "    Message('control_change', channel=4, control=1, value=20, time=44),\n",
       "    Message('control_change', channel=4, control=1, value=18, time=20),\n",
       "    Message('control_change', channel=4, control=1, value=16, time=16),\n",
       "    Message('control_change', channel=4, control=1, value=14, time=76),\n",
       "    Message('control_change', channel=4, control=1, value=12, time=20),\n",
       "    Message('control_change', channel=4, control=1, value=10, time=12),\n",
       "    Message('control_change', channel=4, control=1, value=8, time=32),\n",
       "    Message('control_change', channel=4, control=1, value=6, time=32),\n",
       "    Message('control_change', channel=4, control=1, value=4, time=20),\n",
       "    Message('control_change', channel=4, control=1, value=2, time=20),\n",
       "    Message('control_change', channel=4, control=1, value=0, time=20),\n",
       "    Message('note_on', channel=4, note=78, velocity=0, time=360),\n",
       "    Message('note_on', channel=4, note=74, velocity=0, time=20),\n",
       "    Message('note_on', channel=4, note=69, velocity=0, time=12),\n",
       "    Message('note_on', channel=4, note=67, velocity=96, time=68),\n",
       "    Message('note_on', channel=4, note=69, velocity=96, time=0),\n",
       "    Message('note_on', channel=4, note=72, velocity=99, time=4),\n",
       "    Message('note_on', channel=4, note=76, velocity=96, time=0),\n",
       "    Message('control_change', channel=4, control=1, value=2, time=1752),\n",
       "    Message('control_change', channel=4, control=1, value=4, time=144),\n",
       "    Message('control_change', channel=4, control=1, value=6, time=44),\n",
       "    Message('control_change', channel=4, control=1, value=8, time=172),\n",
       "    Message('control_change', channel=4, control=1, value=10, time=120),\n",
       "    Message('control_change', channel=4, control=1, value=12, time=156),\n",
       "    Message('control_change', channel=4, control=1, value=14, time=28),\n",
       "    Message('control_change', channel=4, control=1, value=16, time=196),\n",
       "    Message('control_change', channel=4, control=1, value=18, time=296),\n",
       "    Message('control_change', channel=4, control=1, value=20, time=80),\n",
       "    Message('control_change', channel=4, control=1, value=22, time=36),\n",
       "    Message('control_change', channel=4, control=1, value=24, time=204),\n",
       "    Message('control_change', channel=4, control=1, value=26, time=84),\n",
       "    Message('control_change', channel=4, control=1, value=28, time=88),\n",
       "    Message('control_change', channel=4, control=1, value=30, time=124),\n",
       "    Message('control_change', channel=4, control=1, value=32, time=412),\n",
       "    Message('control_change', channel=4, control=1, value=34, time=40),\n",
       "    Message('control_change', channel=4, control=1, value=36, time=140),\n",
       "    Message('control_change', channel=4, control=1, value=38, time=92),\n",
       "    Message('control_change', channel=4, control=1, value=40, time=160),\n",
       "    Message('control_change', channel=4, control=1, value=42, time=144),\n",
       "    Message('control_change', channel=4, control=1, value=44, time=448),\n",
       "    Message('control_change', channel=4, control=1, value=46, time=120),\n",
       "    Message('control_change', channel=4, control=1, value=48, time=108),\n",
       "    Message('control_change', channel=4, control=1, value=50, time=144),\n",
       "    Message('control_change', channel=4, control=1, value=52, time=188),\n",
       "    Message('control_change', channel=4, control=1, value=54, time=244),\n",
       "    Message('note_on', channel=4, note=69, velocity=0, time=252),\n",
       "    Message('note_on', channel=4, note=67, velocity=0, time=0),\n",
       "    Message('note_on', channel=4, note=72, velocity=0, time=4),\n",
       "    Message('note_on', channel=4, note=76, velocity=0, time=4),\n",
       "    Message('control_change', channel=4, control=1, value=52, time=532),\n",
       "    Message('control_change', channel=4, control=1, value=50, time=16),\n",
       "    Message('control_change', channel=4, control=1, value=48, time=4),\n",
       "    Message('control_change', channel=4, control=1, value=46, time=8),\n",
       "    Message('control_change', channel=4, control=1, value=44, time=4),\n",
       "    Message('control_change', channel=4, control=1, value=42, time=4),\n",
       "    Message('control_change', channel=4, control=1, value=40, time=4),\n",
       "    Message('control_change', channel=4, control=1, value=38, time=4),\n",
       "    Message('control_change', channel=4, control=1, value=36, time=4),\n",
       "    Message('control_change', channel=4, control=1, value=34, time=4),\n",
       "    Message('control_change', channel=4, control=1, value=32, time=8),\n",
       "    Message('control_change', channel=4, control=1, value=30, time=4),\n",
       "    Message('control_change', channel=4, control=1, value=28, time=0),\n",
       "    Message('control_change', channel=4, control=1, value=26, time=4),\n",
       "    Message('control_change', channel=4, control=1, value=24, time=4),\n",
       "    Message('control_change', channel=4, control=1, value=22, time=4),\n",
       "    Message('control_change', channel=4, control=1, value=20, time=0),\n",
       "    Message('control_change', channel=4, control=1, value=18, time=4),\n",
       "    Message('control_change', channel=4, control=1, value=16, time=4),\n",
       "    Message('control_change', channel=4, control=1, value=14, time=0),\n",
       "    Message('control_change', channel=4, control=1, value=12, time=4),\n",
       "    Message('control_change', channel=4, control=1, value=10, time=4),\n",
       "    Message('control_change', channel=4, control=1, value=8, time=0),\n",
       "    Message('control_change', channel=4, control=1, value=6, time=4),\n",
       "    Message('control_change', channel=4, control=1, value=4, time=4),\n",
       "    Message('control_change', channel=4, control=1, value=2, time=0),\n",
       "    Message('control_change', channel=4, control=1, value=0, time=4),\n",
       "    Message('note_on', channel=4, note=67, velocity=99, time=24828),\n",
       "    Message('note_on', channel=4, note=71, velocity=96, time=0),\n",
       "    Message('note_on', channel=4, note=74, velocity=96, time=0),\n",
       "    Message('note_on', channel=4, note=79, velocity=84, time=0),\n",
       "    Message('control_change', channel=4, control=1, value=1, time=624),\n",
       "    Message('control_change', channel=4, control=1, value=3, time=84),\n",
       "    Message('control_change', channel=4, control=1, value=5, time=68),\n",
       "    Message('control_change', channel=4, control=1, value=7, time=40),\n",
       "    Message('control_change', channel=4, control=1, value=9, time=64),\n",
       "    Message('control_change', channel=4, control=1, value=11, time=148),\n",
       "    Message('control_change', channel=4, control=1, value=13, time=116),\n",
       "    Message('control_change', channel=4, control=1, value=15, time=40),\n",
       "    Message('control_change', channel=4, control=1, value=17, time=232),\n",
       "    Message('note_on', channel=4, note=79, velocity=0, time=88),\n",
       "    Message('note_on', channel=4, note=67, velocity=0, time=8),\n",
       "    Message('note_on', channel=4, note=71, velocity=0, time=12),\n",
       "    Message('note_on', channel=4, note=78, velocity=88, time=24),\n",
       "    Message('note_on', channel=4, note=69, velocity=96, time=4),\n",
       "    Message('control_change', channel=4, control=1, value=19, time=120),\n",
       "    Message('control_change', channel=4, control=1, value=17, time=332),\n",
       "    Message('control_change', channel=4, control=1, value=19, time=40),\n",
       "    Message('control_change', channel=4, control=1, value=21, time=232),\n",
       "    Message('control_change', channel=4, control=1, value=19, time=40),\n",
       "    Message('control_change', channel=4, control=1, value=17, time=136),\n",
       "    Message('control_change', channel=4, control=1, value=15, time=48),\n",
       "    Message('control_change', channel=4, control=1, value=13, time=44),\n",
       "    Message('control_change', channel=4, control=1, value=11, time=8),\n",
       "    Message('control_change', channel=4, control=1, value=9, time=8),\n",
       "    Message('control_change', channel=4, control=1, value=7, time=8),\n",
       "    Message('control_change', channel=4, control=1, value=5, time=4),\n",
       "    Message('control_change', channel=4, control=1, value=3, time=4),\n",
       "    Message('control_change', channel=4, control=1, value=1, time=8),\n",
       "    Message('control_change', channel=4, control=1, value=0, time=8),\n",
       "    Message('note_on', channel=4, note=69, velocity=0, time=408),\n",
       "    Message('note_on', channel=4, note=74, velocity=0, time=16),\n",
       "    Message('note_on', channel=4, note=78, velocity=0, time=4),\n",
       "    Message('note_on', channel=4, note=74, velocity=99, time=48),\n",
       "    Message('note_on', channel=4, note=67, velocity=96, time=4),\n",
       "    Message('note_on', channel=4, note=76, velocity=96, time=0),\n",
       "    Message('control_change', channel=4, control=1, value=1, time=1284),\n",
       "    Message('note_on', channel=4, note=67, velocity=0, time=208),\n",
       "    Message('note_on', channel=4, note=69, velocity=84, time=36),\n",
       "    Message('note_on', channel=4, note=76, velocity=0, time=4),\n",
       "    Message('note_on', channel=4, note=78, velocity=72, time=0),\n",
       "    Message('control_change', channel=4, control=1, value=3, time=24),\n",
       "    Message('control_change', channel=4, control=1, value=5, time=84),\n",
       "    Message('control_change', channel=4, control=1, value=7, time=96),\n",
       "    Message('control_change', channel=4, control=1, value=9, time=48),\n",
       "    Message('control_change', channel=4, control=1, value=11, time=176),\n",
       "    Message('control_change', channel=4, control=1, value=13, time=40),\n",
       "    Message('control_change', channel=4, control=1, value=15, time=80),\n",
       "    Message('control_change', channel=4, control=1, value=17, time=68),\n",
       "    Message('control_change', channel=4, control=1, value=19, time=68),\n",
       "    Message('control_change', channel=4, control=1, value=21, time=36),\n",
       "    Message('control_change', channel=4, control=1, value=23, time=44),\n",
       "    Message('note_on', channel=4, note=36, velocity=84, time=396),\n",
       "    Message('note_on', channel=4, note=38, velocity=67, time=16),\n",
       "    Message('note_on', channel=4, note=36, velocity=0, time=4),\n",
       "    Message('note_on', channel=4, note=40, velocity=67, time=20),\n",
       "    Message('note_on', channel=4, note=38, velocity=0, time=12),\n",
       "    Message('note_on', channel=4, note=41, velocity=40, time=16),\n",
       "    Message('note_on', channel=4, note=40, velocity=0, time=8),\n",
       "    Message('note_on', channel=4, note=43, velocity=40, time=12),\n",
       "    Message('note_on', channel=4, note=41, velocity=0, time=12),\n",
       "    Message('note_on', channel=4, note=45, velocity=67, time=12),\n",
       "    Message('note_on', channel=4, note=69, velocity=0, time=8),\n",
       "    Message('note_on', channel=4, note=43, velocity=0, time=4),\n",
       "    Message('note_on', channel=4, note=78, velocity=0, time=4),\n",
       "    Message('note_on', channel=4, note=74, velocity=0, time=4),\n",
       "    Message('note_on', channel=4, note=47, velocity=84, time=0),\n",
       "    Message('note_on', channel=4, note=45, velocity=0, time=12),\n",
       "    Message('note_on', channel=4, note=48, velocity=96, time=4),\n",
       "    Message('note_on', channel=4, note=47, velocity=0, time=12),\n",
       "    Message('note_on', channel=4, note=50, velocity=96, time=4),\n",
       "    Message('note_on', channel=4, note=48, velocity=0, time=12),\n",
       "    Message('note_on', channel=4, note=52, velocity=67, time=4),\n",
       "    Message('note_on', channel=4, note=50, velocity=0, time=12),\n",
       "    Message('note_on', channel=4, note=53, velocity=40, time=8),\n",
       "    Message('note_on', channel=4, note=52, velocity=0, time=12),\n",
       "    Message('note_on', channel=4, note=55, velocity=52, time=8),\n",
       "    Message('note_on', channel=4, note=53, velocity=0, time=12),\n",
       "    Message('note_on', channel=4, note=57, velocity=52, time=4),\n",
       "    Message('note_on', channel=4, note=55, velocity=0, time=16),\n",
       "    Message('note_on', channel=4, note=59, velocity=40, time=8),\n",
       "    Message('note_on', channel=4, note=57, velocity=0, time=8),\n",
       "    Message('note_on', channel=4, note=60, velocity=40, time=8),\n",
       "    Message('note_on', channel=4, note=59, velocity=0, time=12),\n",
       "    Message('note_on', channel=4, note=62, velocity=52, time=8),\n",
       "    Message('note_on', channel=4, note=60, velocity=0, time=12),\n",
       "    Message('note_on', channel=4, note=64, velocity=96, time=8),\n",
       "    Message('note_on', channel=4, note=62, velocity=0, time=8),\n",
       "    Message('note_on', channel=4, note=70, velocity=88, time=8),\n",
       "    Message('note_on', channel=4, note=73, velocity=88, time=0),\n",
       "    Message('note_on', channel=4, note=67, velocity=96, time=4),\n",
       "    Message('note_on', channel=4, note=74, velocity=99, time=4),\n",
       "    Message('note_on', channel=4, note=65, velocity=67, time=0),\n",
       "    Message('note_on', channel=4, note=64, velocity=0, time=4),\n",
       "    Message('note_on', channel=4, note=79, velocity=96, time=4),\n",
       "    Message('note_on', channel=4, note=71, velocity=99, time=0),\n",
       "    Message('note_on', channel=4, note=65, velocity=0, time=4),\n",
       "    Message('note_on', channel=4, note=70, velocity=0, time=4),\n",
       "    Message('note_on', channel=4, note=73, velocity=0, time=0),\n",
       "    Message('control_change', channel=4, control=1, value=21, time=568),\n",
       "    Message('control_change', channel=4, control=1, value=19, time=48),\n",
       "    Message('control_change', channel=4, control=1, value=17, time=40),\n",
       "    Message('control_change', channel=4, control=1, value=15, time=56),\n",
       "    Message('control_change', channel=4, control=1, value=13, time=376),\n",
       "    Message('control_change', channel=4, control=1, value=15, time=24),\n",
       "    Message('control_change', channel=4, control=1, value=17, time=52),\n",
       "    Message('control_change', channel=4, control=1, value=19, time=116),\n",
       "    Message('note_on', channel=4, note=79, velocity=0, time=240),\n",
       "    Message('note_on', channel=4, note=67, velocity=0, time=8),\n",
       "    Message('note_on', channel=4, note=71, velocity=0, time=4),\n",
       "    Message('note_on', channel=4, note=78, velocity=88, time=20),\n",
       "    Message('note_on', channel=4, note=69, velocity=84, time=4),\n",
       "    Message('control_change', channel=4, control=1, value=21, time=624),\n",
       "    Message('control_change', channel=4, control=1, value=23, time=92),\n",
       "    Message('control_change', channel=4, control=1, value=25, time=592),\n",
       "    Message('control_change', channel=4, control=1, value=23, time=44),\n",
       "    Message('control_change', channel=4, control=1, value=21, time=8),\n",
       "    Message('control_change', channel=4, control=1, value=19, time=4),\n",
       "    Message('control_change', channel=4, control=1, value=17, time=8),\n",
       "    Message('control_change', channel=4, control=1, value=15, time=8),\n",
       "    Message('control_change', channel=4, control=1, value=13, time=0),\n",
       "    Message('control_change', channel=4, control=1, value=11, time=4),\n",
       "    Message('control_change', channel=4, control=1, value=9, time=4),\n",
       "    Message('control_change', channel=4, control=1, value=7, time=4),\n",
       "    Message('control_change', channel=4, control=1, value=5, time=4),\n",
       "    Message('control_change', channel=4, control=1, value=3, time=4),\n",
       "    Message('control_change', channel=4, control=1, value=1, time=4),\n",
       "    Message('control_change', channel=4, control=1, value=0, time=4),\n",
       "    Message('note_on', channel=4, note=78, velocity=0, time=44),\n",
       "    Message('note_on', channel=4, note=74, velocity=0, time=16),\n",
       "    Message('note_on', channel=4, note=69, velocity=0, time=20),\n",
       "    Message('note_on', channel=4, note=67, velocity=96, time=44),\n",
       "    Message('note_on', channel=4, note=69, velocity=99, time=0),\n",
       "    Message('note_on', channel=4, note=72, velocity=96, time=0),\n",
       "    Message('note_on', channel=4, note=76, velocity=96, time=4),\n",
       "    Message('note_on', channel=4, note=75, velocity=88, time=4),\n",
       "    Message('note_on', channel=4, note=75, velocity=0, time=4),\n",
       "    Message('control_change', channel=4, control=1, value=1, time=1084),\n",
       "    Message('control_change', channel=4, control=1, value=3, time=144),\n",
       "    Message('control_change', channel=4, control=1, value=5, time=24),\n",
       "    Message('control_change', channel=4, control=1, value=7, time=108),\n",
       "    Message('control_change', channel=4, control=1, value=9, time=44),\n",
       "    Message('control_change', channel=4, control=1, value=11, time=72),\n",
       "    Message('control_change', channel=4, control=1, value=13, time=40),\n",
       "    Message('control_change', channel=4, control=1, value=15, time=76),\n",
       "    Message('control_change', channel=4, control=1, value=17, time=308),\n",
       "    Message('control_change', channel=4, control=1, value=19, time=148),\n",
       "    Message('control_change', channel=4, control=1, value=21, time=32),\n",
       "    Message('control_change', channel=4, control=1, value=23, time=20),\n",
       "    Message('control_change', channel=4, control=1, value=25, time=56),\n",
       "    Message('control_change', channel=4, control=1, value=23, time=28),\n",
       "    Message('control_change', channel=4, control=1, value=25, time=148),\n",
       "    Message('control_change', channel=4, control=1, value=27, time=40),\n",
       "    Message('control_change', channel=4, control=1, value=29, time=68),\n",
       "    Message('control_change', channel=4, control=1, value=31, time=168),\n",
       "    Message('control_change', channel=4, control=1, value=33, time=132),\n",
       "    Message('control_change', channel=4, control=1, value=35, time=60),\n",
       "    Message('note_on', channel=4, note=67, velocity=0, time=68),\n",
       "    Message('note_on', channel=4, note=72, velocity=0, time=0),\n",
       "    Message('note_on', channel=4, note=69, velocity=0, time=0),\n",
       "    Message('note_on', channel=4, note=76, velocity=0, time=4),\n",
       "    Message('control_change', channel=4, control=1, value=37, time=16),\n",
       "    Message('control_change', channel=4, control=1, value=39, time=68),\n",
       "    Message('control_change', channel=4, control=1, value=41, time=24),\n",
       "    Message('control_change', channel=4, control=1, value=43, time=24),\n",
       "    Message('control_change', channel=4, control=1, value=45, time=28),\n",
       "    Message('control_change', channel=4, control=1, value=43, time=244),\n",
       "    Message('control_change', channel=4, control=1, value=41, time=24),\n",
       "    Message('control_change', channel=4, control=1, value=39, time=16),\n",
       "    Message('control_change', channel=4, control=1, value=37, time=8),\n",
       "    Message('control_change', channel=4, control=1, value=35, time=8),\n",
       "    Message('control_change', channel=4, control=1, value=33, time=8),\n",
       "    Message('control_change', channel=4, control=1, value=31, time=4),\n",
       "    Message('control_change', channel=4, control=1, value=29, time=4),\n",
       "    Message('control_change', channel=4, control=1, value=27, time=8),\n",
       "    Message('control_change', channel=4, control=1, value=25, time=0),\n",
       "    Message('control_change', channel=4, control=1, value=23, time=4),\n",
       "    Message('control_change', channel=4, control=1, value=21, time=4),\n",
       "    Message('control_change', channel=4, control=1, value=19, time=4),\n",
       "    Message('control_change', channel=4, control=1, value=17, time=0),\n",
       "    Message('control_change', channel=4, control=1, value=15, time=4),\n",
       "    Message('control_change', channel=4, control=1, value=13, time=0),\n",
       "    Message('control_change', channel=4, control=1, value=11, time=4),\n",
       "    Message('control_change', channel=4, control=1, value=9, time=4),\n",
       "    Message('control_change', channel=4, control=1, value=7, time=0),\n",
       "    Message('control_change', channel=4, control=1, value=5, time=4),\n",
       "    Message('control_change', channel=4, control=1, value=3, time=4),\n",
       "    Message('control_change', channel=4, control=1, value=1, time=0),\n",
       "    MetaMessage('end_of_track', time=0)]),\n",
       "  MidiTrack([\n",
       "    MetaMessage('midi_port', port=0, time=0),\n",
       "    MetaMessage('track_name', name='choir    ', time=0),\n",
       "    Message('control_change', channel=5, control=0, value=0, time=492),\n",
       "    Message('control_change', channel=5, control=32, value=0, time=0),\n",
       "    Message('program_change', channel=5, program=52, time=0),\n",
       "    Message('control_change', channel=5, control=7, value=51, time=4),\n",
       "    Message('control_change', channel=5, control=10, value=43, time=0),\n",
       "    Message('control_change', channel=5, control=11, value=127, time=0),\n",
       "    Message('control_change', channel=5, control=91, value=100, time=4),\n",
       "    Message('control_change', channel=5, control=93, value=0, time=0),\n",
       "    Message('note_on', channel=5, note=59, velocity=127, time=2572),\n",
       "    Message('note_on', channel=5, note=62, velocity=127, time=0),\n",
       "    Message('note_on', channel=5, note=67, velocity=127, time=0),\n",
       "    Message('note_on', channel=5, note=67, velocity=0, time=1436),\n",
       "    Message('note_on', channel=5, note=59, velocity=0, time=12),\n",
       "    Message('note_on', channel=5, note=62, velocity=0, time=8),\n",
       "    Message('note_on', channel=5, note=57, velocity=127, time=80),\n",
       "    Message('note_on', channel=5, note=62, velocity=127, time=0),\n",
       "    Message('note_on', channel=5, note=66, velocity=127, time=0),\n",
       "    Message('note_on', channel=5, note=66, velocity=0, time=1428),\n",
       "    Message('note_on', channel=5, note=62, velocity=0, time=0),\n",
       "    Message('note_on', channel=5, note=57, velocity=0, time=0),\n",
       "    Message('note_on', channel=5, note=57, velocity=127, time=108),\n",
       "    Message('note_on', channel=5, note=64, velocity=127, time=0),\n",
       "    Message('note_on', channel=5, note=64, velocity=0, time=1480),\n",
       "    Message('note_on', channel=5, note=57, velocity=0, time=0),\n",
       "    Message('note_on', channel=5, note=57, velocity=127, time=56),\n",
       "    Message('note_on', channel=5, note=62, velocity=127, time=0),\n",
       "    Message('note_on', channel=5, note=66, velocity=127, time=0),\n",
       "    Message('note_on', channel=5, note=57, velocity=0, time=1464),\n",
       "    Message('note_on', channel=5, note=66, velocity=0, time=4),\n",
       "    Message('note_on', channel=5, note=62, velocity=0, time=12),\n",
       "    Message('note_on', channel=5, note=59, velocity=127, time=56),\n",
       "    Message('note_on', channel=5, note=62, velocity=127, time=0),\n",
       "    Message('note_on', channel=5, note=67, velocity=127, time=0),\n",
       "    Message('note_on', channel=5, note=67, velocity=0, time=1456),\n",
       "    Message('note_on', channel=5, note=59, velocity=0, time=8),\n",
       "    Message('note_on', channel=5, note=62, velocity=0, time=8),\n",
       "    Message('note_on', channel=5, note=57, velocity=127, time=64),\n",
       "    Message('note_on', channel=5, note=62, velocity=127, time=0),\n",
       "    Message('note_on', channel=5, note=66, velocity=127, time=0),\n",
       "    Message('note_on', channel=5, note=66, velocity=0, time=1432),\n",
       "    Message('note_on', channel=5, note=62, velocity=0, time=12),\n",
       "    Message('note_on', channel=5, note=57, velocity=0, time=4),\n",
       "    Message('note_on', channel=5, note=55, velocity=127, time=88),\n",
       "    Message('note_on', channel=5, note=60, velocity=127, time=0),\n",
       "    Message('note_on', channel=5, note=64, velocity=127, time=0),\n",
       "    Message('note_on', channel=5, note=60, velocity=0, time=2628),\n",
       "    Message('note_on', channel=5, note=55, velocity=0, time=4),\n",
       "    Message('note_on', channel=5, note=64, velocity=0, time=4),\n",
       "    Message('note_on', channel=5, note=59, velocity=127, time=38068),\n",
       "    Message('note_on', channel=5, note=62, velocity=127, time=0),\n",
       "    Message('note_on', channel=5, note=67, velocity=127, time=0),\n",
       "    Message('note_on', channel=5, note=59, velocity=0, time=1452),\n",
       "    Message('note_on', channel=5, note=67, velocity=0, time=16),\n",
       "    Message('note_on', channel=5, note=62, velocity=0, time=0),\n",
       "    Message('note_on', channel=5, note=57, velocity=127, time=56),\n",
       "    Message('note_on', channel=5, note=62, velocity=127, time=4),\n",
       "    Message('note_on', channel=5, note=66, velocity=127, time=0),\n",
       "    Message('note_on', channel=5, note=57, velocity=0, time=1440),\n",
       "    Message('note_on', channel=5, note=62, velocity=0, time=12),\n",
       "    Message('note_on', channel=5, note=66, velocity=0, time=4),\n",
       "    Message('note_on', channel=5, note=57, velocity=127, time=60),\n",
       "    Message('note_on', channel=5, note=55, velocity=127, time=4),\n",
       "    Message('note_on', channel=5, note=62, velocity=127, time=0),\n",
       "    Message('note_on', channel=5, note=64, velocity=127, time=4),\n",
       "    Message('note_on', channel=5, note=57, velocity=0, time=1472),\n",
       "    Message('note_on', channel=5, note=64, velocity=0, time=4),\n",
       "    Message('note_on', channel=5, note=55, velocity=0, time=8),\n",
       "    Message('note_on', channel=5, note=62, velocity=0, time=4),\n",
       "    Message('note_on', channel=5, note=57, velocity=127, time=44),\n",
       "    Message('note_on', channel=5, note=62, velocity=127, time=0),\n",
       "    Message('note_on', channel=5, note=66, velocity=127, time=0),\n",
       "    Message('note_on', channel=5, note=57, velocity=0, time=1460),\n",
       "    Message('note_on', channel=5, note=66, velocity=0, time=4),\n",
       "    Message('note_on', channel=5, note=62, velocity=0, time=8),\n",
       "    Message('note_on', channel=5, note=59, velocity=127, time=56),\n",
       "    Message('note_on', channel=5, note=62, velocity=127, time=4),\n",
       "    Message('note_on', channel=5, note=67, velocity=127, time=0),\n",
       "    Message('note_on', channel=5, note=59, velocity=0, time=1464),\n",
       "    Message('note_on', channel=5, note=67, velocity=0, time=4),\n",
       "    Message('note_on', channel=5, note=62, velocity=0, time=8),\n",
       "    Message('note_on', channel=5, note=62, velocity=127, time=60),\n",
       "    Message('note_on', channel=5, note=57, velocity=127, time=4),\n",
       "    Message('note_on', channel=5, note=66, velocity=127, time=0),\n",
       "    Message('note_on', channel=5, note=66, velocity=0, time=1416),\n",
       "    Message('note_on', channel=5, note=62, velocity=0, time=16),\n",
       "    Message('note_on', channel=5, note=57, velocity=0, time=12),\n",
       "    Message('note_on', channel=5, note=55, velocity=127, time=108),\n",
       "    Message('note_on', channel=5, note=57, velocity=127, time=4),\n",
       "    Message('note_on', channel=5, note=60, velocity=127, time=4),\n",
       "    Message('note_on', channel=5, note=64, velocity=127, time=0),\n",
       "    Message('note_on', channel=5, note=57, velocity=0, time=6032),\n",
       "    Message('note_on', channel=5, note=55, velocity=0, time=0),\n",
       "    Message('note_on', channel=5, note=60, velocity=0, time=4),\n",
       "    Message('note_on', channel=5, note=64, velocity=0, time=4),\n",
       "    Message('note_on', channel=5, note=59, velocity=127, time=25448),\n",
       "    Message('note_on', channel=5, note=62, velocity=127, time=0),\n",
       "    Message('note_on', channel=5, note=67, velocity=127, time=0),\n",
       "    Message('note_on', channel=5, note=67, velocity=0, time=1436),\n",
       "    Message('note_on', channel=5, note=59, velocity=0, time=12),\n",
       "    Message('note_on', channel=5, note=62, velocity=0, time=8),\n",
       "    Message('note_on', channel=5, note=57, velocity=127, time=80),\n",
       "    Message('note_on', channel=5, note=62, velocity=127, time=0),\n",
       "    Message('note_on', channel=5, note=66, velocity=127, time=0),\n",
       "    Message('note_on', channel=5, note=66, velocity=0, time=1428),\n",
       "    Message('note_on', channel=5, note=62, velocity=0, time=0),\n",
       "    Message('note_on', channel=5, note=57, velocity=0, time=0),\n",
       "    Message('note_on', channel=5, note=57, velocity=127, time=108),\n",
       "    Message('note_on', channel=5, note=64, velocity=127, time=0),\n",
       "    Message('note_on', channel=5, note=64, velocity=0, time=1480),\n",
       "    Message('note_on', channel=5, note=57, velocity=0, time=0),\n",
       "    Message('note_on', channel=5, note=57, velocity=127, time=56),\n",
       "    Message('note_on', channel=5, note=62, velocity=127, time=0),\n",
       "    Message('note_on', channel=5, note=66, velocity=127, time=0),\n",
       "    Message('note_on', channel=5, note=57, velocity=0, time=1464),\n",
       "    Message('note_on', channel=5, note=66, velocity=0, time=4),\n",
       "    Message('note_on', channel=5, note=62, velocity=0, time=12),\n",
       "    Message('note_on', channel=5, note=59, velocity=127, time=56),\n",
       "    Message('note_on', channel=5, note=62, velocity=127, time=0),\n",
       "    Message('note_on', channel=5, note=67, velocity=127, time=0),\n",
       "    Message('note_on', channel=5, note=67, velocity=0, time=1456),\n",
       "    Message('note_on', channel=5, note=59, velocity=0, time=8),\n",
       "    Message('note_on', channel=5, note=62, velocity=0, time=8),\n",
       "    Message('note_on', channel=5, note=57, velocity=127, time=64),\n",
       "    Message('note_on', channel=5, note=62, velocity=127, time=0),\n",
       "    Message('note_on', channel=5, note=66, velocity=127, time=0),\n",
       "    Message('note_on', channel=5, note=66, velocity=0, time=1432),\n",
       "    Message('note_on', channel=5, note=62, velocity=0, time=12),\n",
       "    Message('note_on', channel=5, note=57, velocity=0, time=4),\n",
       "    Message('note_on', channel=5, note=55, velocity=127, time=88),\n",
       "    Message('note_on', channel=5, note=60, velocity=127, time=0),\n",
       "    Message('note_on', channel=5, note=64, velocity=127, time=0),\n",
       "    Message('note_on', channel=5, note=60, velocity=0, time=2628),\n",
       "    Message('note_on', channel=5, note=55, velocity=0, time=4),\n",
       "    Message('note_on', channel=5, note=64, velocity=0, time=4),\n",
       "    MetaMessage('end_of_track', time=0)]),\n",
       "  MidiTrack([\n",
       "    MetaMessage('midi_port', port=0, time=0),\n",
       "    MetaMessage('track_name', name='strat gui', time=0),\n",
       "    Message('control_change', channel=6, control=0, value=0, time=512),\n",
       "    Message('control_change', channel=6, control=32, value=0, time=0),\n",
       "    Message('program_change', channel=6, program=27, time=0),\n",
       "    Message('control_change', channel=6, control=7, value=100, time=4),\n",
       "    Message('control_change', channel=6, control=10, value=64, time=0),\n",
       "    Message('control_change', channel=6, control=11, value=127, time=0),\n",
       "    Message('control_change', channel=6, control=91, value=100, time=4),\n",
       "    Message('control_change', channel=6, control=93, value=0, time=0),\n",
       "    Message('note_on', channel=6, note=58, velocity=100, time=15224),\n",
       "    Message('note_on', channel=6, note=61, velocity=100, time=0),\n",
       "    Message('note_on', channel=6, note=65, velocity=112, time=0),\n",
       "    Message('note_on', channel=6, note=58, velocity=0, time=92),\n",
       "    Message('note_on', channel=6, note=61, velocity=0, time=4),\n",
       "    Message('note_on', channel=6, note=65, velocity=0, time=4),\n",
       "    Message('note_on', channel=6, note=58, velocity=83, time=668),\n",
       "    Message('note_on', channel=6, note=61, velocity=100, time=0),\n",
       "    Message('note_on', channel=6, note=65, velocity=112, time=0),\n",
       "    Message('note_on', channel=6, note=61, velocity=0, time=84),\n",
       "    Message('note_on', channel=6, note=65, velocity=0, time=4),\n",
       "    Message('note_on', channel=6, note=58, velocity=0, time=0),\n",
       "    Message('note_on', channel=6, note=54, velocity=83, time=680),\n",
       "    Message('note_on', channel=6, note=58, velocity=116, time=0),\n",
       "    Message('note_on', channel=6, note=61, velocity=83, time=0),\n",
       "    Message('note_on', channel=6, note=58, velocity=0, time=80),\n",
       "    Message('note_on', channel=6, note=61, velocity=0, time=8),\n",
       "    Message('note_on', channel=6, note=54, velocity=0, time=0),\n",
       "    Message('note_on', channel=6, note=54, velocity=100, time=680),\n",
       "    Message('note_on', channel=6, note=58, velocity=100, time=0),\n",
       "    Message('note_on', channel=6, note=61, velocity=100, time=0),\n",
       "    Message('note_on', channel=6, note=58, velocity=0, time=72),\n",
       "    Message('note_on', channel=6, note=61, velocity=0, time=4),\n",
       "    Message('note_on', channel=6, note=54, velocity=0, time=0),\n",
       "    Message('note_on', channel=6, note=56, velocity=100, time=692),\n",
       "    Message('note_on', channel=6, note=61, velocity=116, time=0),\n",
       "    Message('note_on', channel=6, note=65, velocity=80, time=0),\n",
       "    Message('note_on', channel=6, note=61, velocity=0, time=84),\n",
       "    Message('note_on', channel=6, note=56, velocity=0, time=0),\n",
       "    Message('note_on', channel=6, note=65, velocity=0, time=16),\n",
       "    Message('note_on', channel=6, note=56, velocity=83, time=668),\n",
       "    Message('note_on', channel=6, note=60, velocity=112, time=0),\n",
       "    Message('note_on', channel=6, note=63, velocity=100, time=0),\n",
       "    Message('note_on', channel=6, note=60, velocity=0, time=88),\n",
       "    Message('note_on', channel=6, note=63, velocity=0, time=4),\n",
       "    Message('note_on', channel=6, note=56, velocity=0, time=0),\n",
       "    Message('note_on', channel=6, note=55, velocity=112, time=676),\n",
       "    Message('note_on', channel=6, note=58, velocity=100, time=0),\n",
       "    Message('note_on', channel=6, note=63, velocity=100, time=0),\n",
       "    Message('note_on', channel=6, note=58, velocity=0, time=72),\n",
       "    Message('note_on', channel=6, note=63, velocity=0, time=12),\n",
       "    Message('note_on', channel=6, note=55, velocity=0, time=4),\n",
       "    Message('note_on', channel=6, note=55, velocity=112, time=680),\n",
       "    Message('note_on', channel=6, note=58, velocity=116, time=0),\n",
       "    Message('note_on', channel=6, note=63, velocity=100, time=0),\n",
       "    Message('note_on', channel=6, note=58, velocity=0, time=68),\n",
       "    Message('note_on', channel=6, note=63, velocity=0, time=8),\n",
       "    Message('note_on', channel=6, note=55, velocity=0, time=0),\n",
       "    Message('note_on', channel=6, note=54, velocity=100, time=692),\n",
       "    Message('note_on', channel=6, note=58, velocity=100, time=0),\n",
       "    Message('note_on', channel=6, note=61, velocity=83, time=0),\n",
       "    Message('note_on', channel=6, note=58, velocity=0, time=64),\n",
       "    Message('note_on', channel=6, note=61, velocity=0, time=12),\n",
       "    Message('note_on', channel=6, note=54, velocity=0, time=4),\n",
       "    Message('note_on', channel=6, note=54, velocity=100, time=688),\n",
       "    Message('note_on', channel=6, note=58, velocity=116, time=0),\n",
       "    Message('note_on', channel=6, note=61, velocity=116, time=0),\n",
       "    Message('note_on', channel=6, note=58, velocity=0, time=72),\n",
       "    Message('note_on', channel=6, note=54, velocity=0, time=8),\n",
       "    Message('note_on', channel=6, note=61, velocity=0, time=16),\n",
       "    Message('note_on', channel=6, note=58, velocity=100, time=672),\n",
       "    Message('note_on', channel=6, note=61, velocity=100, time=0),\n",
       "    Message('note_on', channel=6, note=65, velocity=112, time=0),\n",
       "    Message('note_on', channel=6, note=61, velocity=0, time=84),\n",
       "    Message('note_on', channel=6, note=58, velocity=0, time=8),\n",
       "    Message('note_on', channel=6, note=65, velocity=0, time=12),\n",
       "    Message('note_on', channel=6, note=54, velocity=100, time=664),\n",
       "    Message('note_on', channel=6, note=58, velocity=100, time=0),\n",
       "    Message('note_on', channel=6, note=63, velocity=100, time=0),\n",
       "    Message('note_on', channel=6, note=58, velocity=0, time=76),\n",
       "    Message('note_on', channel=6, note=63, velocity=0, time=20),\n",
       "    Message('note_on', channel=6, note=54, velocity=0, time=0),\n",
       "    Message('note_on', channel=6, note=53, velocity=80, time=672),\n",
       "    Message('note_on', channel=6, note=56, velocity=116, time=0),\n",
       "    Message('note_on', channel=6, note=61, velocity=83, time=0),\n",
       "    Message('note_on', channel=6, note=56, velocity=0, time=76),\n",
       "    Message('note_on', channel=6, note=61, velocity=0, time=16),\n",
       "    Message('note_on', channel=6, note=53, velocity=0, time=4),\n",
       "    Message('note_on', channel=6, note=54, velocity=83, time=672),\n",
       "    Message('note_on', channel=6, note=58, velocity=100, time=0),\n",
       "    Message('note_on', channel=6, note=61, velocity=100, time=0),\n",
       "    Message('note_on', channel=6, note=58, velocity=0, time=68),\n",
       "    Message('note_on', channel=6, note=61, velocity=0, time=4),\n",
       "    Message('note_on', channel=6, note=54, velocity=0, time=8),\n",
       "    Message('note_on', channel=6, note=53, velocity=95, time=304),\n",
       "    Message('note_on', channel=6, note=56, velocity=100, time=0),\n",
       "    Message('note_on', channel=6, note=61, velocity=100, time=0),\n",
       "    Message('note_on', channel=6, note=56, velocity=0, time=88),\n",
       "    Message('note_on', channel=6, note=61, velocity=0, time=4),\n",
       "    Message('note_on', channel=6, note=53, velocity=0, time=20),\n",
       "    Message('note_on', channel=6, note=58, velocity=100, time=1808),\n",
       "    Message('note_on', channel=6, note=61, velocity=100, time=0),\n",
       "    Message('note_on', channel=6, note=65, velocity=112, time=0),\n",
       "    Message('note_on', channel=6, note=58, velocity=0, time=92),\n",
       "    Message('note_on', channel=6, note=61, velocity=0, time=4),\n",
       "    Message('note_on', channel=6, note=65, velocity=0, time=4),\n",
       "    Message('note_on', channel=6, note=58, velocity=83, time=668),\n",
       "    Message('note_on', channel=6, note=61, velocity=100, time=0),\n",
       "    Message('note_on', channel=6, note=65, velocity=112, time=0),\n",
       "    Message('note_on', channel=6, note=61, velocity=0, time=84),\n",
       "    Message('note_on', channel=6, note=65, velocity=0, time=4),\n",
       "    Message('note_on', channel=6, note=58, velocity=0, time=0),\n",
       "    Message('note_on', channel=6, note=54, velocity=83, time=680),\n",
       "    Message('note_on', channel=6, note=58, velocity=116, time=0),\n",
       "    Message('note_on', channel=6, note=61, velocity=83, time=0),\n",
       "    Message('note_on', channel=6, note=58, velocity=0, time=80),\n",
       "    Message('note_on', channel=6, note=61, velocity=0, time=8),\n",
       "    Message('note_on', channel=6, note=54, velocity=0, time=0),\n",
       "    Message('note_on', channel=6, note=54, velocity=100, time=680),\n",
       "    Message('note_on', channel=6, note=58, velocity=100, time=0),\n",
       "    Message('note_on', channel=6, note=61, velocity=100, time=0),\n",
       "    Message('note_on', channel=6, note=58, velocity=0, time=72),\n",
       "    Message('note_on', channel=6, note=61, velocity=0, time=4),\n",
       "    Message('note_on', channel=6, note=54, velocity=0, time=0),\n",
       "    Message('note_on', channel=6, note=56, velocity=100, time=692),\n",
       "    Message('note_on', channel=6, note=61, velocity=116, time=0),\n",
       "    Message('note_on', channel=6, note=65, velocity=80, time=0),\n",
       "    Message('note_on', channel=6, note=61, velocity=0, time=84),\n",
       "    Message('note_on', channel=6, note=56, velocity=0, time=0),\n",
       "    Message('note_on', channel=6, note=65, velocity=0, time=16),\n",
       "    Message('note_on', channel=6, note=56, velocity=83, time=668),\n",
       "    Message('note_on', channel=6, note=60, velocity=112, time=0),\n",
       "    Message('note_on', channel=6, note=63, velocity=100, time=0),\n",
       "    Message('note_on', channel=6, note=60, velocity=0, time=88),\n",
       "    Message('note_on', channel=6, note=63, velocity=0, time=4),\n",
       "    Message('note_on', channel=6, note=56, velocity=0, time=0),\n",
       "    Message('note_on', channel=6, note=55, velocity=112, time=676),\n",
       "    Message('note_on', channel=6, note=58, velocity=100, time=0),\n",
       "    Message('note_on', channel=6, note=63, velocity=100, time=0),\n",
       "    Message('note_on', channel=6, note=58, velocity=0, time=72),\n",
       "    Message('note_on', channel=6, note=63, velocity=0, time=12),\n",
       "    Message('note_on', channel=6, note=55, velocity=0, time=4),\n",
       "    Message('note_on', channel=6, note=55, velocity=112, time=680),\n",
       "    Message('note_on', channel=6, note=58, velocity=116, time=0),\n",
       "    Message('note_on', channel=6, note=63, velocity=100, time=0),\n",
       "    Message('note_on', channel=6, note=58, velocity=0, time=68),\n",
       "    Message('note_on', channel=6, note=63, velocity=0, time=8),\n",
       "    Message('note_on', channel=6, note=55, velocity=0, time=0),\n",
       "    Message('note_on', channel=6, note=54, velocity=100, time=692),\n",
       "    Message('note_on', channel=6, note=58, velocity=100, time=0),\n",
       "    Message('note_on', channel=6, note=61, velocity=83, time=0),\n",
       "    Message('note_on', channel=6, note=58, velocity=0, time=64),\n",
       "    Message('note_on', channel=6, note=61, velocity=0, time=12),\n",
       "    Message('note_on', channel=6, note=54, velocity=0, time=4),\n",
       "    Message('note_on', channel=6, note=54, velocity=100, time=688),\n",
       "    Message('note_on', channel=6, note=58, velocity=116, time=0),\n",
       "    Message('note_on', channel=6, note=61, velocity=116, time=0),\n",
       "    Message('note_on', channel=6, note=58, velocity=0, time=72),\n",
       "    Message('note_on', channel=6, note=54, velocity=0, time=8),\n",
       "    Message('note_on', channel=6, note=61, velocity=0, time=16),\n",
       "    Message('note_on', channel=6, note=58, velocity=100, time=672),\n",
       "    Message('note_on', channel=6, note=61, velocity=100, time=0),\n",
       "    Message('note_on', channel=6, note=65, velocity=112, time=0),\n",
       "    Message('note_on', channel=6, note=61, velocity=0, time=84),\n",
       "    Message('note_on', channel=6, note=58, velocity=0, time=8),\n",
       "    Message('note_on', channel=6, note=65, velocity=0, time=12),\n",
       "    Message('note_on', channel=6, note=54, velocity=100, time=664),\n",
       "    Message('note_on', channel=6, note=58, velocity=100, time=0),\n",
       "    Message('note_on', channel=6, note=63, velocity=100, time=0),\n",
       "    Message('note_on', channel=6, note=58, velocity=0, time=76),\n",
       "    Message('note_on', channel=6, note=63, velocity=0, time=20),\n",
       "    Message('note_on', channel=6, note=54, velocity=0, time=0),\n",
       "    Message('note_on', channel=6, note=53, velocity=80, time=672),\n",
       "    Message('note_on', channel=6, note=56, velocity=116, time=0),\n",
       "    Message('note_on', channel=6, note=61, velocity=83, time=0),\n",
       "    Message('note_on', channel=6, note=56, velocity=0, time=76),\n",
       "    Message('note_on', channel=6, note=61, velocity=0, time=16),\n",
       "    Message('note_on', channel=6, note=53, velocity=0, time=4),\n",
       "    Message('note_on', channel=6, note=54, velocity=83, time=672),\n",
       "    Message('note_on', channel=6, note=58, velocity=100, time=0),\n",
       "    Message('note_on', channel=6, note=61, velocity=100, time=0),\n",
       "    Message('note_on', channel=6, note=58, velocity=0, time=68),\n",
       "    Message('note_on', channel=6, note=61, velocity=0, time=4),\n",
       "    Message('note_on', channel=6, note=54, velocity=0, time=8),\n",
       "    Message('note_on', channel=6, note=53, velocity=95, time=304),\n",
       "    Message('note_on', channel=6, note=56, velocity=100, time=0),\n",
       "    Message('note_on', channel=6, note=61, velocity=100, time=0),\n",
       "    Message('note_on', channel=6, note=56, velocity=0, time=88),\n",
       "    Message('note_on', channel=6, note=61, velocity=0, time=4),\n",
       "    Message('note_on', channel=6, note=53, velocity=0, time=20),\n",
       "    Message('note_on', channel=6, note=58, velocity=100, time=30224),\n",
       "    Message('note_on', channel=6, note=61, velocity=100, time=0),\n",
       "    Message('note_on', channel=6, note=65, velocity=112, time=0),\n",
       "    Message('note_on', channel=6, note=58, velocity=0, time=92),\n",
       "    Message('note_on', channel=6, note=61, velocity=0, time=4),\n",
       "    Message('note_on', channel=6, note=65, velocity=0, time=4),\n",
       "    Message('note_on', channel=6, note=58, velocity=83, time=668),\n",
       "    Message('note_on', channel=6, note=61, velocity=100, time=0),\n",
       "    Message('note_on', channel=6, note=65, velocity=112, time=0),\n",
       "    Message('note_on', channel=6, note=61, velocity=0, time=84),\n",
       "    Message('note_on', channel=6, note=65, velocity=0, time=4),\n",
       "    Message('note_on', channel=6, note=58, velocity=0, time=0),\n",
       "    Message('note_on', channel=6, note=54, velocity=83, time=680),\n",
       "    Message('note_on', channel=6, note=58, velocity=116, time=0),\n",
       "    Message('note_on', channel=6, note=61, velocity=83, time=0),\n",
       "    Message('note_on', channel=6, note=58, velocity=0, time=80),\n",
       "    Message('note_on', channel=6, note=61, velocity=0, time=8),\n",
       "    Message('note_on', channel=6, note=54, velocity=0, time=0),\n",
       "    Message('note_on', channel=6, note=54, velocity=100, time=680),\n",
       "    Message('note_on', channel=6, note=58, velocity=100, time=0),\n",
       "    Message('note_on', channel=6, note=61, velocity=100, time=0),\n",
       "    Message('note_on', channel=6, note=58, velocity=0, time=72),\n",
       "    Message('note_on', channel=6, note=61, velocity=0, time=4),\n",
       "    Message('note_on', channel=6, note=54, velocity=0, time=0),\n",
       "    Message('note_on', channel=6, note=56, velocity=100, time=692),\n",
       "    Message('note_on', channel=6, note=61, velocity=116, time=0),\n",
       "    Message('note_on', channel=6, note=65, velocity=80, time=0),\n",
       "    Message('note_on', channel=6, note=61, velocity=0, time=84),\n",
       "    Message('note_on', channel=6, note=56, velocity=0, time=0),\n",
       "    Message('note_on', channel=6, note=65, velocity=0, time=16),\n",
       "    Message('note_on', channel=6, note=56, velocity=83, time=668),\n",
       "    Message('note_on', channel=6, note=60, velocity=112, time=0),\n",
       "    Message('note_on', channel=6, note=63, velocity=100, time=0),\n",
       "    Message('note_on', channel=6, note=60, velocity=0, time=88),\n",
       "    Message('note_on', channel=6, note=63, velocity=0, time=4),\n",
       "    Message('note_on', channel=6, note=56, velocity=0, time=0),\n",
       "    Message('note_on', channel=6, note=55, velocity=112, time=676),\n",
       "    Message('note_on', channel=6, note=58, velocity=100, time=0),\n",
       "    Message('note_on', channel=6, note=63, velocity=100, time=0),\n",
       "    Message('note_on', channel=6, note=58, velocity=0, time=72),\n",
       "    Message('note_on', channel=6, note=63, velocity=0, time=12),\n",
       "    Message('note_on', channel=6, note=55, velocity=0, time=4),\n",
       "    Message('note_on', channel=6, note=55, velocity=112, time=680),\n",
       "    Message('note_on', channel=6, note=58, velocity=116, time=0),\n",
       "    Message('note_on', channel=6, note=63, velocity=100, time=0),\n",
       "    Message('note_on', channel=6, note=58, velocity=0, time=68),\n",
       "    Message('note_on', channel=6, note=63, velocity=0, time=8),\n",
       "    Message('note_on', channel=6, note=55, velocity=0, time=0),\n",
       "    Message('note_on', channel=6, note=54, velocity=100, time=692),\n",
       "    Message('note_on', channel=6, note=58, velocity=100, time=0),\n",
       "    Message('note_on', channel=6, note=61, velocity=83, time=0),\n",
       "    Message('note_on', channel=6, note=58, velocity=0, time=64),\n",
       "    Message('note_on', channel=6, note=61, velocity=0, time=12),\n",
       "    Message('note_on', channel=6, note=54, velocity=0, time=4),\n",
       "    Message('note_on', channel=6, note=54, velocity=100, time=688),\n",
       "    Message('note_on', channel=6, note=58, velocity=116, time=0),\n",
       "    Message('note_on', channel=6, note=61, velocity=116, time=0),\n",
       "    Message('note_on', channel=6, note=58, velocity=0, time=72),\n",
       "    Message('note_on', channel=6, note=54, velocity=0, time=8),\n",
       "    Message('note_on', channel=6, note=61, velocity=0, time=16),\n",
       "    Message('note_on', channel=6, note=58, velocity=100, time=672),\n",
       "    Message('note_on', channel=6, note=61, velocity=100, time=0),\n",
       "    Message('note_on', channel=6, note=65, velocity=112, time=0),\n",
       "    Message('note_on', channel=6, note=61, velocity=0, time=84),\n",
       "    Message('note_on', channel=6, note=58, velocity=0, time=8),\n",
       "    Message('note_on', channel=6, note=65, velocity=0, time=12),\n",
       "    Message('note_on', channel=6, note=54, velocity=100, time=664),\n",
       "    Message('note_on', channel=6, note=58, velocity=100, time=0),\n",
       "    Message('note_on', channel=6, note=63, velocity=100, time=0),\n",
       "    Message('note_on', channel=6, note=58, velocity=0, time=76),\n",
       "    Message('note_on', channel=6, note=63, velocity=0, time=20),\n",
       "    Message('note_on', channel=6, note=54, velocity=0, time=0),\n",
       "    Message('note_on', channel=6, note=53, velocity=80, time=672),\n",
       "    Message('note_on', channel=6, note=56, velocity=116, time=0),\n",
       "    Message('note_on', channel=6, note=61, velocity=83, time=0),\n",
       "    Message('note_on', channel=6, note=56, velocity=0, time=76),\n",
       "    Message('note_on', channel=6, note=61, velocity=0, time=16),\n",
       "    Message('note_on', channel=6, note=53, velocity=0, time=4),\n",
       "    Message('note_on', channel=6, note=54, velocity=83, time=672),\n",
       "    Message('note_on', channel=6, note=58, velocity=100, time=0),\n",
       "    Message('note_on', channel=6, note=61, velocity=100, time=0),\n",
       "    Message('note_on', channel=6, note=58, velocity=0, time=68),\n",
       "    Message('note_on', channel=6, note=61, velocity=0, time=4),\n",
       "    Message('note_on', channel=6, note=54, velocity=0, time=8),\n",
       "    Message('note_on', channel=6, note=53, velocity=95, time=304),\n",
       "    Message('note_on', channel=6, note=56, velocity=100, time=0),\n",
       "    Message('note_on', channel=6, note=61, velocity=100, time=0),\n",
       "    Message('note_on', channel=6, note=56, velocity=0, time=88),\n",
       "    Message('note_on', channel=6, note=61, velocity=0, time=4),\n",
       "    Message('note_on', channel=6, note=53, velocity=0, time=20),\n",
       "    Message('note_on', channel=6, note=58, velocity=100, time=27152),\n",
       "    Message('note_on', channel=6, note=61, velocity=100, time=0),\n",
       "    Message('note_on', channel=6, note=65, velocity=112, time=0),\n",
       "    Message('note_on', channel=6, note=58, velocity=0, time=92),\n",
       "    Message('note_on', channel=6, note=61, velocity=0, time=4),\n",
       "    Message('note_on', channel=6, note=65, velocity=0, time=4),\n",
       "    Message('note_on', channel=6, note=58, velocity=83, time=668),\n",
       "    Message('note_on', channel=6, note=61, velocity=100, time=0),\n",
       "    Message('note_on', channel=6, note=65, velocity=112, time=0),\n",
       "    Message('note_on', channel=6, note=61, velocity=0, time=84),\n",
       "    Message('note_on', channel=6, note=65, velocity=0, time=4),\n",
       "    Message('note_on', channel=6, note=58, velocity=0, time=0),\n",
       "    Message('note_on', channel=6, note=54, velocity=83, time=680),\n",
       "    Message('note_on', channel=6, note=58, velocity=116, time=0),\n",
       "    Message('note_on', channel=6, note=61, velocity=83, time=0),\n",
       "    Message('note_on', channel=6, note=58, velocity=0, time=80),\n",
       "    Message('note_on', channel=6, note=61, velocity=0, time=8),\n",
       "    Message('note_on', channel=6, note=54, velocity=0, time=0),\n",
       "    Message('note_on', channel=6, note=54, velocity=100, time=680),\n",
       "    Message('note_on', channel=6, note=58, velocity=100, time=0),\n",
       "    Message('note_on', channel=6, note=61, velocity=100, time=0),\n",
       "    Message('note_on', channel=6, note=58, velocity=0, time=72),\n",
       "    Message('note_on', channel=6, note=61, velocity=0, time=4),\n",
       "    Message('note_on', channel=6, note=54, velocity=0, time=0),\n",
       "    Message('note_on', channel=6, note=56, velocity=100, time=692),\n",
       "    Message('note_on', channel=6, note=61, velocity=116, time=0),\n",
       "    Message('note_on', channel=6, note=65, velocity=80, time=0),\n",
       "    Message('note_on', channel=6, note=61, velocity=0, time=84),\n",
       "    Message('note_on', channel=6, note=56, velocity=0, time=0),\n",
       "    Message('note_on', channel=6, note=65, velocity=0, time=16),\n",
       "    Message('note_on', channel=6, note=56, velocity=83, time=668),\n",
       "    Message('note_on', channel=6, note=60, velocity=112, time=0),\n",
       "    Message('note_on', channel=6, note=63, velocity=100, time=0),\n",
       "    Message('note_on', channel=6, note=60, velocity=0, time=88),\n",
       "    Message('note_on', channel=6, note=63, velocity=0, time=4),\n",
       "    Message('note_on', channel=6, note=56, velocity=0, time=0),\n",
       "    Message('note_on', channel=6, note=55, velocity=112, time=676),\n",
       "    Message('note_on', channel=6, note=58, velocity=100, time=0),\n",
       "    Message('note_on', channel=6, note=63, velocity=100, time=0),\n",
       "    Message('note_on', channel=6, note=58, velocity=0, time=72),\n",
       "    Message('note_on', channel=6, note=63, velocity=0, time=12),\n",
       "    Message('note_on', channel=6, note=55, velocity=0, time=4),\n",
       "    Message('note_on', channel=6, note=55, velocity=112, time=680),\n",
       "    Message('note_on', channel=6, note=58, velocity=116, time=0),\n",
       "    Message('note_on', channel=6, note=63, velocity=100, time=0),\n",
       "    Message('note_on', channel=6, note=58, velocity=0, time=68),\n",
       "    Message('note_on', channel=6, note=63, velocity=0, time=8),\n",
       "    Message('note_on', channel=6, note=55, velocity=0, time=0),\n",
       "    Message('note_on', channel=6, note=54, velocity=100, time=692),\n",
       "    Message('note_on', channel=6, note=58, velocity=100, time=0),\n",
       "    Message('note_on', channel=6, note=61, velocity=83, time=0),\n",
       "    Message('note_on', channel=6, note=58, velocity=0, time=64),\n",
       "    Message('note_on', channel=6, note=61, velocity=0, time=12),\n",
       "    Message('note_on', channel=6, note=54, velocity=0, time=4),\n",
       "    Message('note_on', channel=6, note=54, velocity=100, time=688),\n",
       "    Message('note_on', channel=6, note=58, velocity=116, time=0),\n",
       "    Message('note_on', channel=6, note=61, velocity=116, time=0),\n",
       "    Message('note_on', channel=6, note=58, velocity=0, time=72),\n",
       "    Message('note_on', channel=6, note=54, velocity=0, time=8),\n",
       "    Message('note_on', channel=6, note=61, velocity=0, time=16),\n",
       "    Message('note_on', channel=6, note=58, velocity=100, time=672),\n",
       "    Message('note_on', channel=6, note=61, velocity=100, time=0),\n",
       "    Message('note_on', channel=6, note=65, velocity=112, time=0),\n",
       "    Message('note_on', channel=6, note=61, velocity=0, time=84),\n",
       "    Message('note_on', channel=6, note=58, velocity=0, time=8),\n",
       "    Message('note_on', channel=6, note=65, velocity=0, time=12),\n",
       "    Message('note_on', channel=6, note=54, velocity=100, time=664),\n",
       "    Message('note_on', channel=6, note=58, velocity=100, time=0),\n",
       "    Message('note_on', channel=6, note=63, velocity=100, time=0),\n",
       "    Message('note_on', channel=6, note=58, velocity=0, time=76),\n",
       "    Message('note_on', channel=6, note=63, velocity=0, time=20),\n",
       "    Message('note_on', channel=6, note=54, velocity=0, time=0),\n",
       "    Message('note_on', channel=6, note=53, velocity=80, time=672),\n",
       "    Message('note_on', channel=6, note=56, velocity=116, time=0),\n",
       "    Message('note_on', channel=6, note=61, velocity=83, time=0),\n",
       "    Message('note_on', channel=6, note=56, velocity=0, time=76),\n",
       "    Message('note_on', channel=6, note=61, velocity=0, time=16),\n",
       "    Message('note_on', channel=6, note=53, velocity=0, time=4),\n",
       "    Message('note_on', channel=6, note=54, velocity=83, time=672),\n",
       "    Message('note_on', channel=6, note=58, velocity=100, time=0),\n",
       "    Message('note_on', channel=6, note=61, velocity=100, time=0),\n",
       "    Message('note_on', channel=6, note=58, velocity=0, time=68),\n",
       "    Message('note_on', channel=6, note=61, velocity=0, time=4),\n",
       "    Message('note_on', channel=6, note=54, velocity=0, time=8),\n",
       "    Message('note_on', channel=6, note=53, velocity=95, time=304),\n",
       "    Message('note_on', channel=6, note=56, velocity=100, time=0),\n",
       "    Message('note_on', channel=6, note=61, velocity=100, time=0),\n",
       "    Message('note_on', channel=6, note=56, velocity=0, time=88),\n",
       "    Message('note_on', channel=6, note=61, velocity=0, time=4),\n",
       "    Message('note_on', channel=6, note=53, velocity=0, time=20),\n",
       "    Message('note_on', channel=6, note=53, velocity=95, time=1424),\n",
       "    Message('note_on', channel=6, note=56, velocity=100, time=0),\n",
       "    Message('note_on', channel=6, note=61, velocity=100, time=0),\n",
       "    Message('note_on', channel=6, note=56, velocity=0, time=88),\n",
       "    Message('note_on', channel=6, note=61, velocity=0, time=4),\n",
       "    Message('note_on', channel=6, note=53, velocity=0, time=20),\n",
       "    Message('note_on', channel=6, note=53, velocity=95, time=1424),\n",
       "    Message('note_on', channel=6, note=56, velocity=100, time=0),\n",
       "    Message('note_on', channel=6, note=61, velocity=100, time=0),\n",
       "    Message('note_on', channel=6, note=56, velocity=0, time=88),\n",
       "    Message('note_on', channel=6, note=61, velocity=0, time=4),\n",
       "    Message('note_on', channel=6, note=53, velocity=0, time=20),\n",
       "    Message('note_on', channel=6, note=53, velocity=95, time=1424),\n",
       "    Message('note_on', channel=6, note=56, velocity=100, time=0),\n",
       "    Message('note_on', channel=6, note=61, velocity=100, time=0),\n",
       "    Message('note_on', channel=6, note=56, velocity=0, time=88),\n",
       "    Message('note_on', channel=6, note=61, velocity=0, time=4),\n",
       "    Message('note_on', channel=6, note=53, velocity=0, time=20),\n",
       "    Message('note_on', channel=6, note=53, velocity=95, time=1424),\n",
       "    Message('note_on', channel=6, note=56, velocity=100, time=0),\n",
       "    Message('note_on', channel=6, note=61, velocity=100, time=0),\n",
       "    Message('note_on', channel=6, note=56, velocity=0, time=88),\n",
       "    Message('note_on', channel=6, note=61, velocity=0, time=4),\n",
       "    Message('note_on', channel=6, note=53, velocity=0, time=20),\n",
       "    Message('note_on', channel=6, note=53, velocity=95, time=1424),\n",
       "    Message('note_on', channel=6, note=56, velocity=100, time=0),\n",
       "    Message('note_on', channel=6, note=61, velocity=100, time=0),\n",
       "    Message('note_on', channel=6, note=56, velocity=0, time=88),\n",
       "    Message('note_on', channel=6, note=61, velocity=0, time=4),\n",
       "    Message('note_on', channel=6, note=53, velocity=0, time=20),\n",
       "    Message('note_on', channel=6, note=53, velocity=95, time=1424),\n",
       "    Message('note_on', channel=6, note=56, velocity=100, time=0),\n",
       "    Message('note_on', channel=6, note=61, velocity=100, time=0),\n",
       "    Message('note_on', channel=6, note=56, velocity=0, time=88),\n",
       "    Message('note_on', channel=6, note=61, velocity=0, time=4),\n",
       "    Message('note_on', channel=6, note=53, velocity=0, time=20),\n",
       "    Message('note_on', channel=6, note=53, velocity=95, time=1424),\n",
       "    Message('note_on', channel=6, note=56, velocity=100, time=0),\n",
       "    Message('note_on', channel=6, note=61, velocity=100, time=0),\n",
       "    Message('note_on', channel=6, note=56, velocity=0, time=88),\n",
       "    Message('note_on', channel=6, note=61, velocity=0, time=4),\n",
       "    Message('note_on', channel=6, note=53, velocity=0, time=20),\n",
       "    Message('note_on', channel=6, note=53, velocity=95, time=1424),\n",
       "    Message('note_on', channel=6, note=56, velocity=100, time=0),\n",
       "    Message('note_on', channel=6, note=61, velocity=100, time=0),\n",
       "    Message('note_on', channel=6, note=56, velocity=0, time=88),\n",
       "    Message('note_on', channel=6, note=61, velocity=0, time=4),\n",
       "    Message('note_on', channel=6, note=53, velocity=0, time=20),\n",
       "    Message('note_on', channel=6, note=53, velocity=95, time=1424),\n",
       "    Message('note_on', channel=6, note=56, velocity=100, time=0),\n",
       "    Message('note_on', channel=6, note=61, velocity=100, time=0),\n",
       "    Message('note_on', channel=6, note=56, velocity=0, time=88),\n",
       "    Message('note_on', channel=6, note=61, velocity=0, time=4),\n",
       "    Message('note_on', channel=6, note=53, velocity=0, time=20),\n",
       "    Message('note_on', channel=6, note=53, velocity=95, time=1424),\n",
       "    Message('note_on', channel=6, note=56, velocity=100, time=0),\n",
       "    Message('note_on', channel=6, note=61, velocity=100, time=0),\n",
       "    Message('note_on', channel=6, note=56, velocity=0, time=88),\n",
       "    Message('note_on', channel=6, note=61, velocity=0, time=4),\n",
       "    Message('note_on', channel=6, note=53, velocity=0, time=20),\n",
       "    Message('note_on', channel=6, note=53, velocity=95, time=1424),\n",
       "    Message('note_on', channel=6, note=56, velocity=100, time=0),\n",
       "    Message('note_on', channel=6, note=61, velocity=100, time=0),\n",
       "    Message('note_on', channel=6, note=56, velocity=0, time=88),\n",
       "    Message('note_on', channel=6, note=61, velocity=0, time=4),\n",
       "    Message('note_on', channel=6, note=53, velocity=0, time=20),\n",
       "    Message('note_on', channel=6, note=53, velocity=95, time=1424),\n",
       "    Message('note_on', channel=6, note=56, velocity=100, time=0),\n",
       "    Message('note_on', channel=6, note=61, velocity=100, time=0),\n",
       "    Message('note_on', channel=6, note=56, velocity=0, time=88),\n",
       "    Message('note_on', channel=6, note=61, velocity=0, time=4),\n",
       "    Message('note_on', channel=6, note=53, velocity=0, time=20),\n",
       "    Message('note_on', channel=6, note=53, velocity=95, time=1424),\n",
       "    Message('note_on', channel=6, note=56, velocity=100, time=0),\n",
       "    Message('note_on', channel=6, note=61, velocity=100, time=0),\n",
       "    Message('note_on', channel=6, note=56, velocity=0, time=88),\n",
       "    Message('note_on', channel=6, note=61, velocity=0, time=4),\n",
       "    Message('note_on', channel=6, note=53, velocity=0, time=20),\n",
       "    Message('note_on', channel=6, note=53, velocity=112, time=1424),\n",
       "    Message('note_on', channel=6, note=56, velocity=116, time=0),\n",
       "    Message('note_on', channel=6, note=61, velocity=116, time=0),\n",
       "    Message('note_on', channel=6, note=56, velocity=0, time=68),\n",
       "    Message('note_on', channel=6, note=53, velocity=0, time=20),\n",
       "    Message('note_on', channel=6, note=61, velocity=0, time=4),\n",
       "    MetaMessage('end_of_track', time=0)]),\n",
       "  MidiTrack([\n",
       "    MetaMessage('midi_port', port=0, time=0),\n",
       "    MetaMessage('track_name', name='strings  ', time=0),\n",
       "    Message('control_change', channel=7, control=0, value=0, time=512),\n",
       "    Message('control_change', channel=7, control=32, value=0, time=0),\n",
       "    Message('program_change', channel=7, program=48, time=0),\n",
       "    Message('control_change', channel=7, control=7, value=60, time=4),\n",
       "    Message('control_change', channel=7, control=10, value=64, time=0),\n",
       "    Message('control_change', channel=7, control=11, value=127, time=0),\n",
       "    Message('control_change', channel=7, control=91, value=127, time=4),\n",
       "    Message('control_change', channel=7, control=93, value=20, time=0),\n",
       "    Message('note_on', channel=7, note=53, velocity=71, time=39408),\n",
       "    Message('note_on', channel=7, note=56, velocity=92, time=0),\n",
       "    Message('note_on', channel=7, note=61, velocity=92, time=0),\n",
       "    Message('note_on', channel=7, note=53, velocity=0, time=3000),\n",
       "    Message('note_on', channel=7, note=56, velocity=0, time=4),\n",
       "    Message('note_on', channel=7, note=61, velocity=0, time=16),\n",
       "    Message('note_on', channel=7, note=54, velocity=92, time=60),\n",
       "    Message('note_on', channel=7, note=58, velocity=92, time=0),\n",
       "    Message('note_on', channel=7, note=63, velocity=92, time=0),\n",
       "    Message('note_on', channel=7, note=63, velocity=0, time=680),\n",
       "    Message('note_on', channel=7, note=58, velocity=0, time=12),\n",
       "    Message('note_on', channel=7, note=54, velocity=0, time=4),\n",
       "    Message('note_on', channel=7, note=56, velocity=103, time=60),\n",
       "    Message('note_on', channel=7, note=53, velocity=100, time=4),\n",
       "    Message('note_on', channel=7, note=61, velocity=92, time=0),\n",
       "    Message('note_on', channel=7, note=53, velocity=0, time=696),\n",
       "    Message('note_on', channel=7, note=61, velocity=0, time=8),\n",
       "    Message('note_on', channel=7, note=56, velocity=0, time=24),\n",
       "    Message('note_on', channel=7, note=56, velocity=92, time=52),\n",
       "    Message('note_on', channel=7, note=51, velocity=92, time=4),\n",
       "    Message('note_on', channel=7, note=60, velocity=103, time=0),\n",
       "    Message('note_on', channel=7, note=51, velocity=0, time=1416),\n",
       "    Message('note_on', channel=7, note=56, velocity=0, time=8),\n",
       "    Message('note_on', channel=7, note=60, velocity=0, time=4),\n",
       "    Message('note_on', channel=7, note=58, velocity=92, time=76),\n",
       "    Message('note_on', channel=7, note=61, velocity=92, time=4),\n",
       "    Message('note_on', channel=7, note=53, velocity=88, time=4),\n",
       "    Message('note_on', channel=7, note=61, velocity=0, time=680),\n",
       "    Message('note_on', channel=7, note=53, velocity=0, time=20),\n",
       "    Message('note_on', channel=7, note=58, velocity=0, time=36),\n",
       "    Message('note_on', channel=7, note=56, velocity=103, time=40),\n",
       "    Message('note_on', channel=7, note=60, velocity=100, time=4),\n",
       "    Message('note_on', channel=7, note=51, velocity=103, time=4),\n",
       "    Message('note_on', channel=7, note=60, velocity=0, time=660),\n",
       "    Message('note_on', channel=7, note=51, velocity=0, time=8),\n",
       "    Message('note_on', channel=7, note=56, velocity=0, time=28),\n",
       "    Message('note_on', channel=7, note=49, velocity=92, time=48),\n",
       "    Message('note_on', channel=7, note=54, velocity=92, time=4),\n",
       "    Message('note_on', channel=7, note=58, velocity=92, time=4),\n",
       "    Message('note_on', channel=7, note=56, velocity=92, time=0),\n",
       "    Message('note_on', channel=7, note=56, velocity=0, time=12),\n",
       "    Message('note_on', channel=7, note=49, velocity=0, time=700),\n",
       "    Message('note_on', channel=7, note=54, velocity=0, time=12),\n",
       "    Message('note_on', channel=7, note=58, velocity=0, time=16),\n",
       "    Message('note_on', channel=7, note=58, velocity=92, time=36),\n",
       "    Message('note_on', channel=7, note=51, velocity=92, time=0),\n",
       "    Message('note_on', channel=7, note=55, velocity=100, time=4),\n",
       "    Message('note_on', channel=7, note=51, velocity=0, time=700),\n",
       "    Message('note_on', channel=7, note=55, velocity=0, time=8),\n",
       "    Message('note_on', channel=7, note=58, velocity=0, time=16),\n",
       "    Message('note_on', channel=7, note=51, velocity=92, time=48),\n",
       "    Message('note_on', channel=7, note=60, velocity=100, time=0),\n",
       "    Message('note_on', channel=7, note=56, velocity=92, time=0),\n",
       "    Message('note_on', channel=7, note=58, velocity=92, time=4),\n",
       "    Message('note_on', channel=7, note=58, velocity=0, time=16),\n",
       "    Message('note_on', channel=7, note=51, velocity=0, time=692),\n",
       "    Message('note_on', channel=7, note=56, velocity=0, time=20),\n",
       "    Message('note_on', channel=7, note=60, velocity=0, time=8),\n",
       "    Message('note_on', channel=7, note=57, velocity=100, time=28),\n",
       "    Message('note_on', channel=7, note=60, velocity=100, time=0),\n",
       "    Message('note_on', channel=7, note=52, velocity=100, time=8),\n",
       "    Message('note_on', channel=7, note=60, velocity=0, time=660),\n",
       "    Message('note_on', channel=7, note=52, velocity=0, time=4),\n",
       "    Message('note_on', channel=7, note=57, velocity=0, time=16),\n",
       "    Message('note_on', channel=7, note=53, velocity=100, time=56),\n",
       "    Message('note_on', channel=7, note=58, velocity=92, time=4),\n",
       "    Message('note_on', channel=7, note=61, velocity=92, time=4),\n",
       "    Message('note_on', channel=7, note=61, velocity=0, time=644),\n",
       "    Message('note_on', channel=7, note=58, velocity=0, time=8),\n",
       "    Message('note_on', channel=7, note=53, velocity=0, time=4),\n",
       "    Message('note_on', channel=7, note=61, velocity=76, time=128),\n",
       "    Message('note_on', channel=7, note=54, velocity=92, time=0),\n",
       "    Message('note_on', channel=7, note=57, velocity=100, time=4),\n",
       "    Message('note_on', channel=7, note=64, velocity=71, time=4),\n",
       "    Message('note_on', channel=7, note=54, velocity=0, time=356),\n",
       "    Message('note_on', channel=7, note=57, velocity=0, time=76),\n",
       "    Message('note_on', channel=7, note=64, velocity=0, time=4),\n",
       "    Message('note_on', channel=7, note=61, velocity=0, time=16),\n",
       "    Message('note_on', channel=7, note=53, velocity=71, time=28716),\n",
       "    Message('note_on', channel=7, note=56, velocity=92, time=0),\n",
       "    Message('note_on', channel=7, note=61, velocity=92, time=0),\n",
       "    Message('note_on', channel=7, note=53, velocity=0, time=3000),\n",
       "    Message('note_on', channel=7, note=56, velocity=0, time=4),\n",
       "    Message('note_on', channel=7, note=61, velocity=0, time=16),\n",
       "    Message('note_on', channel=7, note=54, velocity=92, time=60),\n",
       "    Message('note_on', channel=7, note=58, velocity=92, time=0),\n",
       "    Message('note_on', channel=7, note=63, velocity=92, time=0),\n",
       "    Message('note_on', channel=7, note=63, velocity=0, time=680),\n",
       "    Message('note_on', channel=7, note=58, velocity=0, time=12),\n",
       "    Message('note_on', channel=7, note=54, velocity=0, time=4),\n",
       "    Message('note_on', channel=7, note=56, velocity=103, time=60),\n",
       "    Message('note_on', channel=7, note=53, velocity=100, time=4),\n",
       "    Message('note_on', channel=7, note=61, velocity=92, time=0),\n",
       "    Message('note_on', channel=7, note=53, velocity=0, time=696),\n",
       "    Message('note_on', channel=7, note=61, velocity=0, time=8),\n",
       "    Message('note_on', channel=7, note=56, velocity=0, time=24),\n",
       "    Message('note_on', channel=7, note=56, velocity=92, time=52),\n",
       "    Message('note_on', channel=7, note=51, velocity=92, time=4),\n",
       "    Message('note_on', channel=7, note=60, velocity=103, time=0),\n",
       "    Message('note_on', channel=7, note=51, velocity=0, time=1416),\n",
       "    Message('note_on', channel=7, note=56, velocity=0, time=8),\n",
       "    Message('note_on', channel=7, note=60, velocity=0, time=4),\n",
       "    Message('note_on', channel=7, note=58, velocity=92, time=76),\n",
       "    Message('note_on', channel=7, note=61, velocity=92, time=4),\n",
       "    Message('note_on', channel=7, note=53, velocity=88, time=4),\n",
       "    Message('note_on', channel=7, note=61, velocity=0, time=680),\n",
       "    Message('note_on', channel=7, note=53, velocity=0, time=20),\n",
       "    Message('note_on', channel=7, note=58, velocity=0, time=36),\n",
       "    Message('note_on', channel=7, note=56, velocity=103, time=40),\n",
       "    Message('note_on', channel=7, note=60, velocity=100, time=4),\n",
       "    Message('note_on', channel=7, note=51, velocity=103, time=4),\n",
       "    Message('note_on', channel=7, note=60, velocity=0, time=660),\n",
       "    Message('note_on', channel=7, note=51, velocity=0, time=8),\n",
       "    Message('note_on', channel=7, note=56, velocity=0, time=28),\n",
       "    Message('note_on', channel=7, note=49, velocity=92, time=48),\n",
       "    Message('note_on', channel=7, note=54, velocity=92, time=4),\n",
       "    Message('note_on', channel=7, note=58, velocity=92, time=4),\n",
       "    Message('note_on', channel=7, note=56, velocity=92, time=0),\n",
       "    Message('note_on', channel=7, note=56, velocity=0, time=12),\n",
       "    Message('note_on', channel=7, note=49, velocity=0, time=700),\n",
       "    Message('note_on', channel=7, note=54, velocity=0, time=12),\n",
       "    Message('note_on', channel=7, note=58, velocity=0, time=16),\n",
       "    Message('note_on', channel=7, note=58, velocity=92, time=36),\n",
       "    Message('note_on', channel=7, note=51, velocity=92, time=0),\n",
       "    Message('note_on', channel=7, note=55, velocity=100, time=4),\n",
       "    Message('note_on', channel=7, note=51, velocity=0, time=700),\n",
       "    Message('note_on', channel=7, note=55, velocity=0, time=8),\n",
       "    Message('note_on', channel=7, note=58, velocity=0, time=16),\n",
       "    Message('note_on', channel=7, note=51, velocity=92, time=48),\n",
       "    Message('note_on', channel=7, note=60, velocity=100, time=0),\n",
       "    Message('note_on', channel=7, note=56, velocity=92, time=0),\n",
       "    Message('note_on', channel=7, note=58, velocity=92, time=4),\n",
       "    Message('note_on', channel=7, note=58, velocity=0, time=16),\n",
       "    Message('note_on', channel=7, note=51, velocity=0, time=692),\n",
       "    Message('note_on', channel=7, note=56, velocity=0, time=20),\n",
       "    Message('note_on', channel=7, note=60, velocity=0, time=8),\n",
       "    Message('note_on', channel=7, note=57, velocity=100, time=28),\n",
       "    Message('note_on', channel=7, note=60, velocity=100, time=0),\n",
       "    Message('note_on', channel=7, note=52, velocity=100, time=8),\n",
       "    Message('note_on', channel=7, note=60, velocity=0, time=660),\n",
       "    Message('note_on', channel=7, note=52, velocity=0, time=4),\n",
       "    Message('note_on', channel=7, note=57, velocity=0, time=16),\n",
       "    Message('note_on', channel=7, note=53, velocity=100, time=56),\n",
       "    Message('note_on', channel=7, note=58, velocity=92, time=4),\n",
       "    Message('note_on', channel=7, note=61, velocity=92, time=4),\n",
       "    Message('note_on', channel=7, note=61, velocity=0, time=644),\n",
       "    Message('note_on', channel=7, note=58, velocity=0, time=8),\n",
       "    Message('note_on', channel=7, note=53, velocity=0, time=4),\n",
       "    Message('note_on', channel=7, note=61, velocity=76, time=128),\n",
       "    Message('note_on', channel=7, note=54, velocity=92, time=0),\n",
       "    Message('note_on', channel=7, note=57, velocity=100, time=4),\n",
       "    Message('note_on', channel=7, note=64, velocity=71, time=4),\n",
       "    Message('note_on', channel=7, note=54, velocity=0, time=356),\n",
       "    Message('note_on', channel=7, note=57, velocity=0, time=76),\n",
       "    Message('note_on', channel=7, note=64, velocity=0, time=4),\n",
       "    Message('note_on', channel=7, note=61, velocity=0, time=16),\n",
       "    Message('note_on', channel=7, note=53, velocity=100, time=22588),\n",
       "    Message('note_on', channel=7, note=56, velocity=92, time=4),\n",
       "    Message('note_on', channel=7, note=61, velocity=92, time=4),\n",
       "    Message('note_on', channel=7, note=53, velocity=0, time=644),\n",
       "    Message('note_on', channel=7, note=56, velocity=0, time=8),\n",
       "    Message('note_on', channel=7, note=61, velocity=0, time=12),\n",
       "    Message('note_on', channel=7, note=54, velocity=103, time=88),\n",
       "    Message('note_on', channel=7, note=58, velocity=92, time=0),\n",
       "    Message('note_on', channel=7, note=63, velocity=92, time=0),\n",
       "    Message('note_on', channel=7, note=54, velocity=0, time=656),\n",
       "    Message('note_on', channel=7, note=58, velocity=0, time=8),\n",
       "    Message('note_on', channel=7, note=63, velocity=0, time=4),\n",
       "    Message('note_on', channel=7, note=53, velocity=100, time=80),\n",
       "    Message('note_on', channel=7, note=56, velocity=103, time=0),\n",
       "    Message('note_on', channel=7, note=61, velocity=103, time=4),\n",
       "    Message('note_on', channel=7, note=56, velocity=0, time=664),\n",
       "    Message('note_on', channel=7, note=53, velocity=0, time=0),\n",
       "    Message('note_on', channel=7, note=61, velocity=0, time=20),\n",
       "    Message('note_on', channel=7, note=54, velocity=103, time=84),\n",
       "    Message('note_on', channel=7, note=58, velocity=103, time=0),\n",
       "    Message('note_on', channel=7, note=63, velocity=92, time=4),\n",
       "    Message('note_on', channel=7, note=63, velocity=0, time=672),\n",
       "    Message('note_on', channel=7, note=54, velocity=0, time=0),\n",
       "    Message('note_on', channel=7, note=58, velocity=0, time=4),\n",
       "    Message('note_on', channel=7, note=56, velocity=103, time=92),\n",
       "    Message('note_on', channel=7, note=53, velocity=88, time=4),\n",
       "    Message('note_on', channel=7, note=61, velocity=92, time=0),\n",
       "    Message('note_on', channel=7, note=53, velocity=0, time=680),\n",
       "    Message('note_on', channel=7, note=56, velocity=0, time=8),\n",
       "    Message('note_on', channel=7, note=61, velocity=0, time=8),\n",
       "    Message('note_on', channel=7, note=58, velocity=103, time=80),\n",
       "    Message('note_on', channel=7, note=54, velocity=92, time=4),\n",
       "    Message('note_on', channel=7, note=63, velocity=92, time=0),\n",
       "    Message('note_on', channel=7, note=54, velocity=0, time=668),\n",
       "    Message('note_on', channel=7, note=63, velocity=0, time=4),\n",
       "    Message('note_on', channel=7, note=58, velocity=0, time=4),\n",
       "    Message('note_on', channel=7, note=53, velocity=100, time=80),\n",
       "    Message('note_on', channel=7, note=56, velocity=92, time=4),\n",
       "    Message('note_on', channel=7, note=61, velocity=92, time=0),\n",
       "    Message('note_on', channel=7, note=53, velocity=0, time=676),\n",
       "    Message('note_on', channel=7, note=56, velocity=0, time=4),\n",
       "    Message('note_on', channel=7, note=61, velocity=0, time=4),\n",
       "    Message('note_on', channel=7, note=54, velocity=92, time=76),\n",
       "    Message('note_on', channel=7, note=58, velocity=103, time=4),\n",
       "    Message('note_on', channel=7, note=63, velocity=103, time=0),\n",
       "    Message('note_on', channel=7, note=54, velocity=0, time=664),\n",
       "    Message('note_on', channel=7, note=58, velocity=0, time=8),\n",
       "    Message('note_on', channel=7, note=63, velocity=0, time=8),\n",
       "    Message('note_on', channel=7, note=53, velocity=100, time=80),\n",
       "    Message('note_on', channel=7, note=56, velocity=92, time=0),\n",
       "    Message('note_on', channel=7, note=61, velocity=103, time=0),\n",
       "    Message('note_on', channel=7, note=56, velocity=0, time=664),\n",
       "    Message('note_on', channel=7, note=53, velocity=0, time=4),\n",
       "    Message('note_on', channel=7, note=61, velocity=0, time=28),\n",
       "    Message('note_on', channel=7, note=63, velocity=92, time=68),\n",
       "    Message('note_on', channel=7, note=54, velocity=92, time=4),\n",
       "    Message('note_on', channel=7, note=58, velocity=92, time=4),\n",
       "    Message('note_on', channel=7, note=63, velocity=0, time=680),\n",
       "    Message('note_on', channel=7, note=54, velocity=0, time=4),\n",
       "    Message('note_on', channel=7, note=58, velocity=0, time=8),\n",
       "    Message('note_on', channel=7, note=53, velocity=100, time=76),\n",
       "    Message('note_on', channel=7, note=56, velocity=92, time=4),\n",
       "    Message('note_on', channel=7, note=61, velocity=92, time=0),\n",
       "    Message('note_on', channel=7, note=53, velocity=0, time=664),\n",
       "    Message('note_on', channel=7, note=56, velocity=0, time=8),\n",
       "    Message('note_on', channel=7, note=61, velocity=0, time=8),\n",
       "    Message('note_on', channel=7, note=58, velocity=92, time=72),\n",
       "    Message('note_on', channel=7, note=54, velocity=92, time=4),\n",
       "    Message('note_on', channel=7, note=63, velocity=92, time=4),\n",
       "    Message('note_on', channel=7, note=63, velocity=0, time=668),\n",
       "    Message('note_on', channel=7, note=58, velocity=0, time=12),\n",
       "    Message('note_on', channel=7, note=54, velocity=0, time=4),\n",
       "    Message('note_on', channel=7, note=53, velocity=100, time=88),\n",
       "    Message('note_on', channel=7, note=56, velocity=92, time=0),\n",
       "    Message('note_on', channel=7, note=61, velocity=92, time=0),\n",
       "    Message('note_on', channel=7, note=53, velocity=0, time=676),\n",
       "    Message('note_on', channel=7, note=56, velocity=0, time=8),\n",
       "    Message('note_on', channel=7, note=61, velocity=0, time=20),\n",
       "    Message('note_on', channel=7, note=58, velocity=103, time=68),\n",
       "    Message('note_on', channel=7, note=54, velocity=103, time=4),\n",
       "    Message('note_on', channel=7, note=63, velocity=103, time=4),\n",
       "    Message('note_on', channel=7, note=58, velocity=0, time=656),\n",
       "    Message('note_on', channel=7, note=63, velocity=0, time=4),\n",
       "    Message('note_on', channel=7, note=54, velocity=0, time=4),\n",
       "    Message('note_on', channel=7, note=53, velocity=100, time=88),\n",
       "    Message('note_on', channel=7, note=56, velocity=92, time=4),\n",
       "    Message('note_on', channel=7, note=61, velocity=103, time=0),\n",
       "    Message('note_on', channel=7, note=56, velocity=0, time=676),\n",
       "    Message('note_on', channel=7, note=53, velocity=0, time=0),\n",
       "    Message('note_on', channel=7, note=61, velocity=0, time=16),\n",
       "    Message('note_on', channel=7, note=58, velocity=92, time=88),\n",
       "    Message('note_on', channel=7, note=54, velocity=103, time=4),\n",
       "    Message('note_on', channel=7, note=63, velocity=92, time=4),\n",
       "    Message('note_on', channel=7, note=63, velocity=0, time=640),\n",
       "    Message('note_on', channel=7, note=54, velocity=0, time=12),\n",
       "    Message('note_on', channel=7, note=58, velocity=0, time=0),\n",
       "    Message('note_on', channel=7, note=56, velocity=103, time=84),\n",
       "    Message('note_on', channel=7, note=53, velocity=100, time=4),\n",
       "    Message('note_on', channel=7, note=61, velocity=92, time=4),\n",
       "    Message('note_on', channel=7, note=53, velocity=0, time=664),\n",
       "    Message('note_on', channel=7, note=56, velocity=0, time=4),\n",
       "    Message('note_on', channel=7, note=61, velocity=0, time=8),\n",
       "    Message('note_on', channel=7, note=58, velocity=103, time=92),\n",
       "    Message('note_on', channel=7, note=54, velocity=92, time=0),\n",
       "    Message('note_on', channel=7, note=63, velocity=92, time=4),\n",
       "    Message('note_on', channel=7, note=63, velocity=0, time=676),\n",
       "    Message('note_on', channel=7, note=54, velocity=0, time=4),\n",
       "    Message('note_on', channel=7, note=58, velocity=0, time=4),\n",
       "    Message('note_on', channel=7, note=53, velocity=100, time=88),\n",
       "    Message('note_on', channel=7, note=56, velocity=92, time=4),\n",
       "    Message('note_on', channel=7, note=61, velocity=92, time=0),\n",
       "    Message('note_on', channel=7, note=53, velocity=0, time=672),\n",
       "    Message('note_on', channel=7, note=56, velocity=0, time=8),\n",
       "    Message('note_on', channel=7, note=61, velocity=0, time=4),\n",
       "    Message('note_on', channel=7, note=54, velocity=92, time=64),\n",
       "    Message('note_on', channel=7, note=58, velocity=103, time=4),\n",
       "    Message('note_on', channel=7, note=63, velocity=103, time=0),\n",
       "    Message('note_on', channel=7, note=54, velocity=0, time=696),\n",
       "    Message('note_on', channel=7, note=63, velocity=0, time=4),\n",
       "    Message('note_on', channel=7, note=58, velocity=0, time=0),\n",
       "    Message('note_on', channel=7, note=53, velocity=88, time=80),\n",
       "    Message('note_on', channel=7, note=56, velocity=103, time=0),\n",
       "    Message('note_on', channel=7, note=61, velocity=92, time=4),\n",
       "    Message('note_on', channel=7, note=56, velocity=0, time=684),\n",
       "    Message('note_on', channel=7, note=53, velocity=0, time=0),\n",
       "    Message('note_on', channel=7, note=61, velocity=0, time=4),\n",
       "    Message('note_on', channel=7, note=54, velocity=92, time=80),\n",
       "    Message('note_on', channel=7, note=58, velocity=92, time=0),\n",
       "    Message('note_on', channel=7, note=63, velocity=103, time=4),\n",
       "    Message('note_on', channel=7, note=63, velocity=0, time=656),\n",
       "    Message('note_on', channel=7, note=54, velocity=0, time=8),\n",
       "    Message('note_on', channel=7, note=58, velocity=0, time=4),\n",
       "    Message('note_on', channel=7, note=53, velocity=88, time=88),\n",
       "    Message('note_on', channel=7, note=56, velocity=92, time=0),\n",
       "    Message('note_on', channel=7, note=61, velocity=92, time=4),\n",
       "    Message('note_on', channel=7, note=53, velocity=0, time=668),\n",
       "    Message('note_on', channel=7, note=56, velocity=0, time=8),\n",
       "    Message('note_on', channel=7, note=61, velocity=0, time=4),\n",
       "    Message('note_on', channel=7, note=54, velocity=92, time=80),\n",
       "    Message('note_on', channel=7, note=58, velocity=103, time=4),\n",
       "    Message('note_on', channel=7, note=63, velocity=92, time=0),\n",
       "    Message('note_on', channel=7, note=63, velocity=0, time=684),\n",
       "    Message('note_on', channel=7, note=54, velocity=0, time=8),\n",
       "    Message('note_on', channel=7, note=58, velocity=0, time=4),\n",
       "    Message('note_on', channel=7, note=53, velocity=100, time=72),\n",
       "    Message('note_on', channel=7, note=56, velocity=92, time=0),\n",
       "    Message('note_on', channel=7, note=61, velocity=92, time=4),\n",
       "    Message('note_on', channel=7, note=53, velocity=0, time=644),\n",
       "    Message('note_on', channel=7, note=56, velocity=0, time=8),\n",
       "    Message('note_on', channel=7, note=61, velocity=0, time=16),\n",
       "    Message('note_on', channel=7, note=63, velocity=103, time=76),\n",
       "    Message('note_on', channel=7, note=54, velocity=92, time=4),\n",
       "    Message('note_on', channel=7, note=58, velocity=92, time=0),\n",
       "    Message('note_on', channel=7, note=63, velocity=0, time=696),\n",
       "    Message('note_on', channel=7, note=54, velocity=0, time=12),\n",
       "    Message('note_on', channel=7, note=58, velocity=0, time=4),\n",
       "    Message('note_on', channel=7, note=53, velocity=88, time=72),\n",
       "    Message('note_on', channel=7, note=56, velocity=92, time=4),\n",
       "    Message('note_on', channel=7, note=61, velocity=92, time=0),\n",
       "    Message('note_on', channel=7, note=56, velocity=0, time=632),\n",
       "    Message('note_on', channel=7, note=53, velocity=0, time=0),\n",
       "    Message('note_on', channel=7, note=61, velocity=0, time=8),\n",
       "    Message('note_on', channel=7, note=54, velocity=92, time=112),\n",
       "    Message('note_on', channel=7, note=58, velocity=92, time=0),\n",
       "    Message('note_on', channel=7, note=63, velocity=103, time=0),\n",
       "    Message('note_on', channel=7, note=63, velocity=0, time=688),\n",
       "    Message('note_on', channel=7, note=58, velocity=0, time=12),\n",
       "    Message('note_on', channel=7, note=54, velocity=0, time=0),\n",
       "    Message('note_on', channel=7, note=53, velocity=100, time=88),\n",
       "    Message('note_on', channel=7, note=56, velocity=92, time=4),\n",
       "    Message('note_on', channel=7, note=61, velocity=92, time=0),\n",
       "    Message('note_on', channel=7, note=53, velocity=0, time=652),\n",
       "    Message('note_on', channel=7, note=56, velocity=0, time=12),\n",
       "    Message('note_on', channel=7, note=61, velocity=0, time=8),\n",
       "    Message('note_on', channel=7, note=58, velocity=103, time=84),\n",
       "    Message('note_on', channel=7, note=54, velocity=92, time=4),\n",
       "    Message('note_on', channel=7, note=63, velocity=92, time=0),\n",
       "    Message('note_on', channel=7, note=63, velocity=0, time=656),\n",
       "    Message('note_on', channel=7, note=58, velocity=0, time=0),\n",
       "    Message('note_on', channel=7, note=54, velocity=0, time=12),\n",
       "    Message('note_on', channel=7, note=53, velocity=100, time=92),\n",
       "    Message('note_on', channel=7, note=61, velocity=103, time=0),\n",
       "    Message('note_on', channel=7, note=56, velocity=92, time=0),\n",
       "    Message('note_on', channel=7, note=56, velocity=0, time=148),\n",
       "    Message('note_on', channel=7, note=61, velocity=0, time=12),\n",
       "    Message('note_on', channel=7, note=53, velocity=0, time=0),\n",
       "    MetaMessage('end_of_track', time=0)]),\n",
       "  MidiTrack([\n",
       "    MetaMessage('midi_port', port=0, time=0),\n",
       "    MetaMessage('track_name', name='drums    ', time=0),\n",
       "    Message('control_change', channel=9, control=0, value=0, time=572),\n",
       "    Message('control_change', channel=9, control=32, value=0, time=0),\n",
       "    Message('program_change', channel=9, program=0, time=0),\n",
       "    Message('control_change', channel=9, control=7, value=95, time=4),\n",
       "    Message('control_change', channel=9, control=10, value=64, time=0),\n",
       "    Message('control_change', channel=9, control=11, value=127, time=0),\n",
       "    Message('control_change', channel=9, control=91, value=50, time=4),\n",
       "    Message('control_change', channel=9, control=93, value=0, time=0),\n",
       "    Message('note_on', channel=9, note=42, velocity=90, time=956),\n",
       "    Message('note_on', channel=9, note=42, velocity=0, time=44),\n",
       "    Message('note_on', channel=9, note=42, velocity=65, time=340),\n",
       "    Message('note_on', channel=9, note=42, velocity=0, time=44),\n",
       "    Message('note_on', channel=9, note=42, velocity=65, time=340),\n",
       "    Message('note_on', channel=9, note=42, velocity=0, time=44),\n",
       "    Message('note_on', channel=9, note=42, velocity=65, time=340),\n",
       "    Message('note_on', channel=9, note=42, velocity=0, time=44),\n",
       "    Message('note_on', channel=9, note=35, velocity=116, time=340),\n",
       "    Message('note_on', channel=9, note=49, velocity=110, time=0),\n",
       "    Message('note_on', channel=9, note=49, velocity=0, time=4),\n",
       "    Message('note_on', channel=9, note=35, velocity=0, time=0),\n",
       "    Message('note_on', channel=9, note=53, velocity=127, time=380),\n",
       "    Message('note_on', channel=9, note=53, velocity=0, time=4),\n",
       "    Message('note_on', channel=9, note=38, velocity=127, time=380),\n",
       "    Message('note_on', channel=9, note=49, velocity=110, time=0),\n",
       "    Message('note_on', channel=9, note=49, velocity=0, time=4),\n",
       "    Message('note_on', channel=9, note=38, velocity=0, time=0),\n",
       "    Message('note_on', channel=9, note=54, velocity=127, time=0),\n",
       "    Message('note_on', channel=9, note=54, velocity=0, time=4),\n",
       "    Message('note_on', channel=9, note=53, velocity=127, time=376),\n",
       "    Message('note_on', channel=9, note=53, velocity=0, time=4),\n",
       "    Message('note_on', channel=9, note=35, velocity=116, time=252),\n",
       "    Message('note_on', channel=9, note=35, velocity=0, time=4),\n",
       "    Message('note_on', channel=9, note=35, velocity=116, time=124),\n",
       "    Message('note_on', channel=9, note=53, velocity=127, time=0),\n",
       "    Message('note_on', channel=9, note=53, velocity=0, time=4),\n",
       "    Message('note_on', channel=9, note=35, velocity=0, time=0),\n",
       "    Message('note_on', channel=9, note=53, velocity=127, time=380),\n",
       "    Message('note_on', channel=9, note=53, velocity=0, time=4),\n",
       "    Message('note_on', channel=9, note=38, velocity=127, time=380),\n",
       "    Message('note_on', channel=9, note=49, velocity=110, time=0),\n",
       "    Message('note_on', channel=9, note=49, velocity=0, time=4),\n",
       "    Message('note_on', channel=9, note=38, velocity=0, time=0),\n",
       "    Message('note_on', channel=9, note=54, velocity=127, time=0),\n",
       "    Message('note_on', channel=9, note=54, velocity=0, time=4),\n",
       "    Message('note_on', channel=9, note=45, velocity=127, time=248),\n",
       "    Message('note_on', channel=9, note=45, velocity=0, time=4),\n",
       "    Message('note_on', channel=9, note=53, velocity=127, time=124),\n",
       "    Message('note_on', channel=9, note=53, velocity=0, time=4),\n",
       "    Message('note_on', channel=9, note=41, velocity=127, time=124),\n",
       "    Message('note_on', channel=9, note=41, velocity=0, time=4),\n",
       "    Message('note_on', channel=9, note=35, velocity=116, time=124),\n",
       "    Message('note_on', channel=9, note=35, velocity=0, time=4),\n",
       "    Message('note_on', channel=9, note=35, velocity=116, time=128),\n",
       "    Message('note_on', channel=9, note=49, velocity=110, time=0),\n",
       "    Message('note_on', channel=9, note=49, velocity=0, time=4),\n",
       "    Message('note_on', channel=9, note=35, velocity=0, time=0),\n",
       "    Message('note_on', channel=9, note=53, velocity=127, time=376),\n",
       "    Message('note_on', channel=9, note=53, velocity=0, time=4),\n",
       "    Message('note_on', channel=9, note=38, velocity=127, time=380),\n",
       "    Message('note_on', channel=9, note=49, velocity=110, time=0),\n",
       "    Message('note_on', channel=9, note=49, velocity=0, time=4),\n",
       "    Message('note_on', channel=9, note=38, velocity=0, time=0),\n",
       "    Message('note_on', channel=9, note=54, velocity=127, time=0),\n",
       "    Message('note_on', channel=9, note=54, velocity=0, time=4),\n",
       "    Message('note_on', channel=9, note=53, velocity=127, time=376),\n",
       "    Message('note_on', channel=9, note=53, velocity=0, time=4),\n",
       "    Message('note_on', channel=9, note=35, velocity=116, time=252),\n",
       "    Message('note_on', channel=9, note=35, velocity=0, time=4),\n",
       "    Message('note_on', channel=9, note=35, velocity=116, time=124),\n",
       "    Message('note_on', channel=9, note=53, velocity=127, time=0),\n",
       "    Message('note_on', channel=9, note=53, velocity=0, time=4),\n",
       "    Message('note_on', channel=9, note=35, velocity=0, time=0),\n",
       "    Message('note_on', channel=9, note=53, velocity=127, time=380),\n",
       "    Message('note_on', channel=9, note=53, velocity=0, time=4),\n",
       "    Message('note_on', channel=9, note=38, velocity=127, time=380),\n",
       "    Message('note_on', channel=9, note=49, velocity=110, time=0),\n",
       "    Message('note_on', channel=9, note=49, velocity=0, time=4),\n",
       "    Message('note_on', channel=9, note=38, velocity=0, time=0),\n",
       "    Message('note_on', channel=9, note=54, velocity=127, time=0),\n",
       "    Message('note_on', channel=9, note=54, velocity=0, time=4),\n",
       "    Message('note_on', channel=9, note=45, velocity=127, time=248),\n",
       "    Message('note_on', channel=9, note=45, velocity=0, time=4),\n",
       "    Message('note_on', channel=9, note=53, velocity=127, time=124),\n",
       "    Message('note_on', channel=9, note=53, velocity=0, time=4),\n",
       "    Message('note_on', channel=9, note=41, velocity=127, time=124),\n",
       "    Message('note_on', channel=9, note=41, velocity=0, time=4),\n",
       "    Message('note_on', channel=9, note=35, velocity=116, time=124),\n",
       "    Message('note_on', channel=9, note=35, velocity=0, time=4),\n",
       "    Message('note_on', channel=9, note=35, velocity=116, time=128),\n",
       "    Message('note_on', channel=9, note=49, velocity=110, time=0),\n",
       "    Message('note_on', channel=9, note=49, velocity=0, time=4),\n",
       "    Message('note_on', channel=9, note=35, velocity=0, time=0),\n",
       "    Message('note_on', channel=9, note=53, velocity=127, time=376),\n",
       "    Message('note_on', channel=9, note=53, velocity=0, time=4),\n",
       "    Message('note_on', channel=9, note=38, velocity=127, time=380),\n",
       "    Message('note_on', channel=9, note=49, velocity=110, time=0),\n",
       "    Message('note_on', channel=9, note=49, velocity=0, time=4),\n",
       "    Message('note_on', channel=9, note=38, velocity=0, time=0),\n",
       "    Message('note_on', channel=9, note=54, velocity=127, time=0),\n",
       "    Message('note_on', channel=9, note=54, velocity=0, time=4),\n",
       "    Message('note_on', channel=9, note=53, velocity=127, time=376),\n",
       "    Message('note_on', channel=9, note=53, velocity=0, time=4),\n",
       "    Message('note_on', channel=9, note=35, velocity=116, time=252),\n",
       "    Message('note_on', channel=9, note=35, velocity=0, time=4),\n",
       "    Message('note_on', channel=9, note=35, velocity=116, time=124),\n",
       "    Message('note_on', channel=9, note=53, velocity=127, time=0),\n",
       "    Message('note_on', channel=9, note=53, velocity=0, time=4),\n",
       "    Message('note_on', channel=9, note=35, velocity=0, time=0),\n",
       "    Message('note_on', channel=9, note=53, velocity=127, time=380),\n",
       "    Message('note_on', channel=9, note=53, velocity=0, time=4),\n",
       "    Message('note_on', channel=9, note=38, velocity=127, time=380),\n",
       "    Message('note_on', channel=9, note=49, velocity=110, time=0),\n",
       "    Message('note_on', channel=9, note=49, velocity=0, time=4),\n",
       "    Message('note_on', channel=9, note=38, velocity=0, time=0),\n",
       "    Message('note_on', channel=9, note=54, velocity=127, time=0),\n",
       "    Message('note_on', channel=9, note=54, velocity=0, time=4),\n",
       "    Message('note_on', channel=9, note=45, velocity=127, time=248),\n",
       "    Message('note_on', channel=9, note=45, velocity=0, time=4),\n",
       "    Message('note_on', channel=9, note=53, velocity=127, time=124),\n",
       "    Message('note_on', channel=9, note=53, velocity=0, time=4),\n",
       "    Message('note_on', channel=9, note=41, velocity=127, time=124),\n",
       "    Message('note_on', channel=9, note=41, velocity=0, time=4),\n",
       "    Message('note_on', channel=9, note=35, velocity=116, time=124),\n",
       "    Message('note_on', channel=9, note=35, velocity=0, time=4),\n",
       "    Message('note_on', channel=9, note=49, velocity=110, time=128),\n",
       "    Message('note_on', channel=9, note=35, velocity=116, time=0),\n",
       "    Message('note_on', channel=9, note=35, velocity=0, time=4),\n",
       "    Message('note_on', channel=9, note=49, velocity=0, time=0),\n",
       "    Message('note_on', channel=9, note=53, velocity=127, time=376),\n",
       "    Message('note_on', channel=9, note=53, velocity=0, time=4),\n",
       "    Message('note_on', channel=9, note=35, velocity=116, time=252),\n",
       "    Message('note_on', channel=9, note=35, velocity=0, time=4),\n",
       "    Message('note_on', channel=9, note=53, velocity=127, time=124),\n",
       "    Message('note_on', channel=9, note=53, velocity=0, time=4),\n",
       "    Message('note_on', channel=9, note=35, velocity=116, time=252),\n",
       "    Message('note_on', channel=9, note=35, velocity=0, time=4),\n",
       "    Message('note_on', channel=9, note=38, velocity=127, time=124),\n",
       "    Message('note_on', channel=9, note=49, velocity=110, time=0),\n",
       "    Message('note_on', channel=9, note=49, velocity=0, time=4),\n",
       "    Message('note_on', channel=9, note=38, velocity=0, time=0),\n",
       "    Message('note_on', channel=9, note=54, velocity=127, time=0),\n",
       "    Message('note_on', channel=9, note=54, velocity=0, time=4),\n",
       "    Message('note_on', channel=9, note=35, velocity=116, time=376),\n",
       "    Message('note_on', channel=9, note=38, velocity=47, time=0),\n",
       "    Message('note_on', channel=9, note=38, velocity=0, time=4),\n",
       "    Message('note_on', channel=9, note=35, velocity=0, time=0),\n",
       "    Message('note_on', channel=9, note=38, velocity=47, time=124),\n",
       "    Message('note_on', channel=9, note=38, velocity=0, time=4),\n",
       "    Message('note_on', channel=9, note=38, velocity=47, time=124),\n",
       "    Message('note_on', channel=9, note=38, velocity=0, time=4),\n",
       "    Message('note_on', channel=9, note=38, velocity=47, time=124),\n",
       "    Message('note_on', channel=9, note=38, velocity=0, time=4),\n",
       "    Message('note_on', channel=9, note=38, velocity=47, time=124),\n",
       "    Message('note_on', channel=9, note=38, velocity=0, time=4),\n",
       "    Message('note_on', channel=9, note=38, velocity=47, time=124),\n",
       "    Message('note_on', channel=9, note=38, velocity=0, time=4),\n",
       "    Message('note_on', channel=9, note=38, velocity=63, time=124),\n",
       "    Message('note_on', channel=9, note=38, velocity=0, time=4),\n",
       "    Message('note_on', channel=9, note=38, velocity=79, time=124),\n",
       "    Message('note_on', channel=9, note=38, velocity=0, time=4),\n",
       "    Message('note_on', channel=9, note=38, velocity=95, time=124),\n",
       "    Message('note_on', channel=9, note=38, velocity=0, time=4),\n",
       "    Message('note_on', channel=9, note=38, velocity=111, time=124),\n",
       "    Message('note_on', channel=9, note=38, velocity=0, time=4),\n",
       "    Message('note_on', channel=9, note=38, velocity=127, time=124),\n",
       "    Message('note_on', channel=9, note=38, velocity=0, time=4),\n",
       "    Message('note_on', channel=9, note=38, velocity=127, time=124),\n",
       "    Message('note_on', channel=9, note=38, velocity=0, time=4),\n",
       "    Message('note_on', channel=9, note=49, velocity=110, time=128),\n",
       "    Message('note_on', channel=9, note=35, velocity=116, time=0),\n",
       "    Message('note_on', channel=9, note=35, velocity=0, time=4),\n",
       "    Message('note_on', channel=9, note=49, velocity=0, time=0),\n",
       "    Message('note_on', channel=9, note=38, velocity=127, time=376),\n",
       "    Message('note_on', channel=9, note=42, velocity=107, time=0),\n",
       "    Message('note_on', channel=9, note=42, velocity=0, time=4),\n",
       "    Message('note_on', channel=9, note=38, velocity=0, time=0),\n",
       "    Message('note_on', channel=9, note=35, velocity=116, time=380),\n",
       "    Message('note_on', channel=9, note=42, velocity=107, time=0),\n",
       "    Message('note_on', channel=9, note=42, velocity=0, time=4),\n",
       "    Message('note_on', channel=9, note=35, velocity=0, time=0),\n",
       "    Message('note_on', channel=9, note=35, velocity=116, time=252),\n",
       "    Message('note_on', channel=9, note=35, velocity=0, time=4),\n",
       "    Message('note_on', channel=9, note=38, velocity=127, time=124),\n",
       "    Message('note_on', channel=9, note=42, velocity=107, time=0),\n",
       "    Message('note_on', channel=9, note=42, velocity=0, time=4),\n",
       "    Message('note_on', channel=9, note=38, velocity=0, time=0),\n",
       "    Message('note_on', channel=9, note=35, velocity=116, time=384),\n",
       "    Message('note_on', channel=9, note=42, velocity=107, time=0),\n",
       "    Message('note_on', channel=9, note=42, velocity=0, time=4),\n",
       "    Message('note_on', channel=9, note=35, velocity=0, time=0),\n",
       "    Message('note_on', channel=9, note=38, velocity=127, time=376),\n",
       "    Message('note_on', channel=9, note=42, velocity=107, time=0),\n",
       "    Message('note_on', channel=9, note=42, velocity=0, time=4),\n",
       "    Message('note_on', channel=9, note=38, velocity=0, time=0),\n",
       "    Message('note_on', channel=9, note=35, velocity=116, time=380),\n",
       "    Message('note_on', channel=9, note=42, velocity=107, time=0),\n",
       "    Message('note_on', channel=9, note=42, velocity=0, time=4),\n",
       "    Message('note_on', channel=9, note=35, velocity=0, time=0),\n",
       "    Message('note_on', channel=9, note=35, velocity=116, time=252),\n",
       "    Message('note_on', channel=9, note=35, velocity=0, time=4),\n",
       "    Message('note_on', channel=9, note=38, velocity=127, time=124),\n",
       "    Message('note_on', channel=9, note=42, velocity=107, time=0),\n",
       "    Message('note_on', channel=9, note=42, velocity=0, time=4),\n",
       "    Message('note_on', channel=9, note=38, velocity=0, time=0),\n",
       "    Message('note_on', channel=9, note=35, velocity=116, time=384),\n",
       "    Message('note_on', channel=9, note=42, velocity=107, time=0),\n",
       "    Message('note_on', channel=9, note=42, velocity=0, time=4),\n",
       "    Message('note_on', channel=9, note=35, velocity=0, time=0),\n",
       "    Message('note_on', channel=9, note=38, velocity=127, time=376),\n",
       "    Message('note_on', channel=9, note=42, velocity=107, time=0),\n",
       "    Message('note_on', channel=9, note=42, velocity=0, time=4),\n",
       "    Message('note_on', channel=9, note=38, velocity=0, time=0),\n",
       "    Message('note_on', channel=9, note=35, velocity=116, time=380),\n",
       "    Message('note_on', channel=9, note=42, velocity=107, time=0),\n",
       "    Message('note_on', channel=9, note=42, velocity=0, time=4),\n",
       "    Message('note_on', channel=9, note=35, velocity=0, time=0),\n",
       "    Message('note_on', channel=9, note=35, velocity=116, time=252),\n",
       "    Message('note_on', channel=9, note=35, velocity=0, time=4),\n",
       "    Message('note_on', channel=9, note=38, velocity=127, time=124),\n",
       "    Message('note_on', channel=9, note=42, velocity=107, time=0),\n",
       "    Message('note_on', channel=9, note=42, velocity=0, time=4),\n",
       "    Message('note_on', channel=9, note=38, velocity=0, time=0),\n",
       "    Message('note_on', channel=9, note=35, velocity=116, time=384),\n",
       "    Message('note_on', channel=9, note=42, velocity=107, time=0),\n",
       "    Message('note_on', channel=9, note=42, velocity=0, time=4),\n",
       "    Message('note_on', channel=9, note=35, velocity=0, time=0),\n",
       "    Message('note_on', channel=9, note=38, velocity=127, time=376),\n",
       "    Message('note_on', channel=9, note=42, velocity=107, time=0),\n",
       "    Message('note_on', channel=9, note=42, velocity=0, time=4),\n",
       "    Message('note_on', channel=9, note=38, velocity=0, time=0),\n",
       "    Message('note_on', channel=9, note=35, velocity=116, time=380),\n",
       "    Message('note_on', channel=9, note=42, velocity=107, time=0),\n",
       "    Message('note_on', channel=9, note=42, velocity=0, time=4),\n",
       "    Message('note_on', channel=9, note=35, velocity=0, time=0),\n",
       "    Message('note_on', channel=9, note=35, velocity=116, time=252),\n",
       "    Message('note_on', channel=9, note=35, velocity=0, time=4),\n",
       "    Message('note_on', channel=9, note=38, velocity=127, time=124),\n",
       "    Message('note_on', channel=9, note=42, velocity=107, time=0),\n",
       "    Message('note_on', channel=9, note=42, velocity=0, time=4),\n",
       "    Message('note_on', channel=9, note=38, velocity=0, time=0),\n",
       "    Message('note_on', channel=9, note=35, velocity=116, time=384),\n",
       "    Message('note_on', channel=9, note=42, velocity=107, time=0),\n",
       "    Message('note_on', channel=9, note=42, velocity=0, time=4),\n",
       "    Message('note_on', channel=9, note=35, velocity=0, time=0),\n",
       "    Message('note_on', channel=9, note=38, velocity=127, time=376),\n",
       "    Message('note_on', channel=9, note=42, velocity=107, time=0),\n",
       "    Message('note_on', channel=9, note=42, velocity=0, time=4),\n",
       "    Message('note_on', channel=9, note=38, velocity=0, time=0),\n",
       "    Message('note_on', channel=9, note=35, velocity=116, time=380),\n",
       "    Message('note_on', channel=9, note=42, velocity=107, time=0),\n",
       "    Message('note_on', channel=9, note=42, velocity=0, time=4),\n",
       "    Message('note_on', channel=9, note=35, velocity=0, time=0),\n",
       "    Message('note_on', channel=9, note=35, velocity=116, time=252),\n",
       "    Message('note_on', channel=9, note=35, velocity=0, time=4),\n",
       "    Message('note_on', channel=9, note=38, velocity=127, time=124),\n",
       "    Message('note_on', channel=9, note=42, velocity=107, time=0),\n",
       "    Message('note_on', channel=9, note=42, velocity=0, time=4),\n",
       "    Message('note_on', channel=9, note=38, velocity=0, time=0),\n",
       "    Message('note_on', channel=9, note=35, velocity=116, time=384),\n",
       "    Message('note_on', channel=9, note=42, velocity=107, time=0),\n",
       "    Message('note_on', channel=9, note=42, velocity=0, time=4),\n",
       "    Message('note_on', channel=9, note=35, velocity=0, time=0),\n",
       "    Message('note_on', channel=9, note=38, velocity=127, time=376),\n",
       "    Message('note_on', channel=9, note=42, velocity=107, time=0),\n",
       "    Message('note_on', channel=9, note=42, velocity=0, time=4),\n",
       "    Message('note_on', channel=9, note=38, velocity=0, time=0),\n",
       "    Message('note_on', channel=9, note=35, velocity=116, time=380),\n",
       "    Message('note_on', channel=9, note=42, velocity=107, time=0),\n",
       "    Message('note_on', channel=9, note=42, velocity=0, time=4),\n",
       "    Message('note_on', channel=9, note=35, velocity=0, time=0),\n",
       "    Message('note_on', channel=9, note=35, velocity=116, time=252),\n",
       "    Message('note_on', channel=9, note=35, velocity=0, time=4),\n",
       "    Message('note_on', channel=9, note=38, velocity=127, time=124),\n",
       "    Message('note_on', channel=9, note=42, velocity=107, time=0),\n",
       "    Message('note_on', channel=9, note=42, velocity=0, time=4),\n",
       "    Message('note_on', channel=9, note=38, velocity=0, time=0),\n",
       "    Message('note_on', channel=9, note=35, velocity=116, time=384),\n",
       "    Message('note_on', channel=9, note=42, velocity=107, time=0),\n",
       "    Message('note_on', channel=9, note=42, velocity=0, time=4),\n",
       "    Message('note_on', channel=9, note=35, velocity=0, time=0),\n",
       "    Message('note_on', channel=9, note=38, velocity=127, time=376),\n",
       "    Message('note_on', channel=9, note=42, velocity=107, time=0),\n",
       "    Message('note_on', channel=9, note=42, velocity=0, time=4),\n",
       "    Message('note_on', channel=9, note=38, velocity=0, time=0),\n",
       "    Message('note_on', channel=9, note=35, velocity=116, time=380),\n",
       "    Message('note_on', channel=9, note=42, velocity=107, time=0),\n",
       "    Message('note_on', channel=9, note=42, velocity=0, time=4),\n",
       "    Message('note_on', channel=9, note=35, velocity=0, time=0),\n",
       "    Message('note_on', channel=9, note=35, velocity=116, time=252),\n",
       "    Message('note_on', channel=9, note=38, velocity=63, time=0),\n",
       "    Message('note_on', channel=9, note=38, velocity=0, time=4),\n",
       "    Message('note_on', channel=9, note=35, velocity=0, time=0),\n",
       "    Message('note_on', channel=9, note=38, velocity=127, time=124),\n",
       "    Message('note_on', channel=9, note=42, velocity=107, time=0),\n",
       "    Message('note_on', channel=9, note=42, velocity=0, time=4),\n",
       "    Message('note_on', channel=9, note=38, velocity=0, time=0),\n",
       "    Message('note_on', channel=9, note=38, velocity=63, time=124),\n",
       "    Message('note_on', channel=9, note=45, velocity=127, time=0),\n",
       "    Message('note_on', channel=9, note=45, velocity=0, time=4),\n",
       "    Message('note_on', channel=9, note=38, velocity=0, time=0),\n",
       "    Message('note_on', channel=9, note=38, velocity=47, time=124),\n",
       "    Message('note_on', channel=9, note=41, velocity=127, time=0),\n",
       "    Message('note_on', channel=9, note=41, velocity=0, time=4),\n",
       "    Message('note_on', channel=9, note=38, velocity=0, time=0),\n",
       "    Message('note_on', channel=9, note=35, velocity=116, time=128),\n",
       "    Message('note_on', channel=9, note=38, velocity=127, time=0),\n",
       "    Message('note_on', channel=9, note=38, velocity=0, time=4),\n",
       "    Message('note_on', channel=9, note=35, velocity=0, time=0),\n",
       "    Message('note_on', channel=9, note=45, velocity=127, time=1400),\n",
       "    Message('note_on', channel=9, note=45, velocity=0, time=4),\n",
       "    Message('note_on', channel=9, note=49, velocity=110, time=128),\n",
       "    Message('note_on', channel=9, note=35, velocity=116, time=0),\n",
       "    Message('note_on', channel=9, note=35, velocity=0, time=4),\n",
       "    Message('note_on', channel=9, note=49, velocity=0, time=0),\n",
       "    Message('note_on', channel=9, note=38, velocity=127, time=376),\n",
       "    Message('note_on', channel=9, note=42, velocity=107, time=0),\n",
       "    Message('note_on', channel=9, note=42, velocity=0, time=4),\n",
       "    Message('note_on', channel=9, note=38, velocity=0, time=0),\n",
       "    Message('note_on', channel=9, note=35, velocity=116, time=380),\n",
       "    Message('note_on', channel=9, note=42, velocity=107, time=0),\n",
       "    Message('note_on', channel=9, note=42, velocity=0, time=4),\n",
       "    Message('note_on', channel=9, note=35, velocity=0, time=0),\n",
       "    Message('note_on', channel=9, note=35, velocity=116, time=252),\n",
       "    Message('note_on', channel=9, note=35, velocity=0, time=4),\n",
       "    Message('note_on', channel=9, note=38, velocity=127, time=124),\n",
       "    Message('note_on', channel=9, note=42, velocity=107, time=0),\n",
       "    Message('note_on', channel=9, note=42, velocity=0, time=4),\n",
       "    Message('note_on', channel=9, note=38, velocity=0, time=0),\n",
       "    Message('note_on', channel=9, note=35, velocity=116, time=384),\n",
       "    Message('note_on', channel=9, note=42, velocity=107, time=0),\n",
       "    Message('note_on', channel=9, note=42, velocity=0, time=4),\n",
       "    Message('note_on', channel=9, note=35, velocity=0, time=0),\n",
       "    Message('note_on', channel=9, note=38, velocity=127, time=376),\n",
       "    Message('note_on', channel=9, note=42, velocity=107, time=0),\n",
       "    Message('note_on', channel=9, note=42, velocity=0, time=4),\n",
       "    Message('note_on', channel=9, note=38, velocity=0, time=0),\n",
       "    Message('note_on', channel=9, note=35, velocity=116, time=380),\n",
       "    Message('note_on', channel=9, note=42, velocity=107, time=0),\n",
       "    Message('note_on', channel=9, note=42, velocity=0, time=4),\n",
       "    Message('note_on', channel=9, note=35, velocity=0, time=0),\n",
       "    Message('note_on', channel=9, note=35, velocity=116, time=252),\n",
       "    Message('note_on', channel=9, note=35, velocity=0, time=4),\n",
       "    Message('note_on', channel=9, note=38, velocity=127, time=124),\n",
       "    Message('note_on', channel=9, note=42, velocity=107, time=0),\n",
       "    Message('note_on', channel=9, note=42, velocity=0, time=4),\n",
       "    Message('note_on', channel=9, note=38, velocity=0, time=0),\n",
       "    Message('note_on', channel=9, note=35, velocity=116, time=384),\n",
       "    Message('note_on', channel=9, note=42, velocity=107, time=0),\n",
       "    Message('note_on', channel=9, note=42, velocity=0, time=4),\n",
       "    Message('note_on', channel=9, note=35, velocity=0, time=0),\n",
       "    Message('note_on', channel=9, note=38, velocity=127, time=376),\n",
       "    Message('note_on', channel=9, note=42, velocity=107, time=0),\n",
       "    Message('note_on', channel=9, note=42, velocity=0, time=4),\n",
       "    Message('note_on', channel=9, note=38, velocity=0, time=0),\n",
       "    Message('note_on', channel=9, note=35, velocity=116, time=380),\n",
       "    Message('note_on', channel=9, note=42, velocity=107, time=0),\n",
       "    Message('note_on', channel=9, note=42, velocity=0, time=4),\n",
       "    Message('note_on', channel=9, note=35, velocity=0, time=0),\n",
       "    Message('note_on', channel=9, note=35, velocity=116, time=252),\n",
       "    Message('note_on', channel=9, note=35, velocity=0, time=4),\n",
       "    Message('note_on', channel=9, note=38, velocity=127, time=124),\n",
       "    Message('note_on', channel=9, note=42, velocity=107, time=0),\n",
       "    Message('note_on', channel=9, note=42, velocity=0, time=4),\n",
       "    Message('note_on', channel=9, note=38, velocity=0, time=0),\n",
       "    Message('note_on', channel=9, note=35, velocity=116, time=384),\n",
       "    Message('note_on', channel=9, note=42, velocity=107, time=0),\n",
       "    Message('note_on', channel=9, note=42, velocity=0, time=4),\n",
       "    Message('note_on', channel=9, note=35, velocity=0, time=0),\n",
       "    Message('note_on', channel=9, note=38, velocity=127, time=376),\n",
       "    Message('note_on', channel=9, note=42, velocity=107, time=0),\n",
       "    Message('note_on', channel=9, note=42, velocity=0, time=4),\n",
       "    Message('note_on', channel=9, note=38, velocity=0, time=0),\n",
       "    Message('note_on', channel=9, note=35, velocity=116, time=380),\n",
       "    Message('note_on', channel=9, note=42, velocity=107, time=0),\n",
       "    Message('note_on', channel=9, note=42, velocity=0, time=4),\n",
       "    Message('note_on', channel=9, note=35, velocity=0, time=0),\n",
       "    Message('note_on', channel=9, note=35, velocity=116, time=252),\n",
       "    Message('note_on', channel=9, note=35, velocity=0, time=4),\n",
       "    Message('note_on', channel=9, note=38, velocity=127, time=124),\n",
       "    Message('note_on', channel=9, note=42, velocity=107, time=0),\n",
       "    Message('note_on', channel=9, note=42, velocity=0, time=4),\n",
       "    Message('note_on', channel=9, note=38, velocity=0, time=0),\n",
       "    Message('note_on', channel=9, note=35, velocity=116, time=384),\n",
       "    Message('note_on', channel=9, note=42, velocity=107, time=0),\n",
       "    Message('note_on', channel=9, note=42, velocity=0, time=4),\n",
       "    Message('note_on', channel=9, note=35, velocity=0, time=0),\n",
       "    Message('note_on', channel=9, note=38, velocity=127, time=376),\n",
       "    Message('note_on', channel=9, note=42, velocity=107, time=0),\n",
       "    Message('note_on', channel=9, note=42, velocity=0, time=4),\n",
       "    Message('note_on', channel=9, note=38, velocity=0, time=0),\n",
       "    Message('note_on', channel=9, note=35, velocity=116, time=380),\n",
       "    Message('note_on', channel=9, note=42, velocity=107, time=0),\n",
       "    Message('note_on', channel=9, note=42, velocity=0, time=4),\n",
       "    Message('note_on', channel=9, note=35, velocity=0, time=0),\n",
       "    Message('note_on', channel=9, note=35, velocity=116, time=252),\n",
       "    Message('note_on', channel=9, note=35, velocity=0, time=4),\n",
       "    Message('note_on', channel=9, note=38, velocity=127, time=124),\n",
       "    Message('note_on', channel=9, note=42, velocity=107, time=0),\n",
       "    Message('note_on', channel=9, note=42, velocity=0, time=4),\n",
       "    Message('note_on', channel=9, note=38, velocity=0, time=0),\n",
       "    Message('note_on', channel=9, note=35, velocity=116, time=384),\n",
       "    Message('note_on', channel=9, note=42, velocity=107, time=0),\n",
       "    Message('note_on', channel=9, note=42, velocity=0, time=4),\n",
       "    Message('note_on', channel=9, note=35, velocity=0, time=0),\n",
       "    Message('note_on', channel=9, note=38, velocity=127, time=376),\n",
       "    Message('note_on', channel=9, note=38, velocity=0, time=4),\n",
       "    Message('note_on', channel=9, note=42, velocity=107, time=0),\n",
       "    Message('note_on', channel=9, note=42, velocity=0, time=4),\n",
       "    Message('note_on', channel=9, note=35, velocity=116, time=376),\n",
       "    Message('note_on', channel=9, note=42, velocity=107, time=0),\n",
       "    Message('note_on', channel=9, note=42, velocity=0, time=4),\n",
       "    Message('note_on', channel=9, note=35, velocity=0, time=0),\n",
       "    Message('note_on', channel=9, note=38, velocity=127, time=380),\n",
       "    Message('note_on', channel=9, note=38, velocity=0, time=4),\n",
       "    Message('note_on', channel=9, note=42, velocity=107, time=0),\n",
       "    Message('note_on', channel=9, note=42, velocity=0, time=4),\n",
       "    Message('note_on', channel=9, note=35, velocity=116, time=380),\n",
       "    Message('note_on', channel=9, note=42, velocity=107, time=0),\n",
       "    Message('note_on', channel=9, note=42, velocity=0, time=4),\n",
       "    Message('note_on', channel=9, note=35, velocity=0, time=0),\n",
       "    Message('note_on', channel=9, note=38, velocity=127, time=376),\n",
       "    Message('note_on', channel=9, note=42, velocity=107, time=0),\n",
       "    Message('note_on', channel=9, note=42, velocity=0, time=4),\n",
       "    Message('note_on', channel=9, note=38, velocity=0, time=0),\n",
       "    Message('note_on', channel=9, note=35, velocity=116, time=380),\n",
       "    Message('note_on', channel=9, note=42, velocity=107, time=0),\n",
       "    Message('note_on', channel=9, note=42, velocity=0, time=4),\n",
       "    Message('note_on', channel=9, note=35, velocity=0, time=0),\n",
       "    Message('note_on', channel=9, note=35, velocity=116, time=252),\n",
       "    Message('note_on', channel=9, note=38, velocity=63, time=0),\n",
       "    Message('note_on', channel=9, note=38, velocity=0, time=4),\n",
       "    Message('note_on', channel=9, note=35, velocity=0, time=0),\n",
       "    Message('note_on', channel=9, note=38, velocity=127, time=124),\n",
       "    Message('note_on', channel=9, note=42, velocity=107, time=0),\n",
       "    Message('note_on', channel=9, note=42, velocity=0, time=4),\n",
       "    Message('note_on', channel=9, note=38, velocity=0, time=0),\n",
       "    Message('note_on', channel=9, note=38, velocity=63, time=124),\n",
       "    Message('note_on', channel=9, note=45, velocity=127, time=0),\n",
       "    Message('note_on', channel=9, note=45, velocity=0, time=4),\n",
       "    Message('note_on', channel=9, note=38, velocity=0, time=0),\n",
       "    Message('note_on', channel=9, note=38, velocity=47, time=124),\n",
       "    Message('note_on', channel=9, note=41, velocity=127, time=0),\n",
       "    Message('note_on', channel=9, note=41, velocity=0, time=4),\n",
       "    Message('note_on', channel=9, note=38, velocity=0, time=0),\n",
       "    Message('note_on', channel=9, note=35, velocity=116, time=128),\n",
       "    Message('note_on', channel=9, note=35, velocity=0, time=4),\n",
       "    Message('note_on', channel=9, note=38, velocity=127, time=0),\n",
       "    Message('note_on', channel=9, note=38, velocity=0, time=4),\n",
       "    Message('note_on', channel=9, note=45, velocity=127, time=1012),\n",
       "    Message('note_on', channel=9, note=45, velocity=0, time=4),\n",
       "    Message('note_on', channel=9, note=41, velocity=127, time=124),\n",
       "    Message('note_on', channel=9, note=41, velocity=0, time=4),\n",
       "    Message('note_on', channel=9, note=35, velocity=116, time=384),\n",
       "    Message('note_on', channel=9, note=49, velocity=110, time=0),\n",
       "    Message('note_on', channel=9, note=49, velocity=0, time=4),\n",
       "    Message('note_on', channel=9, note=35, velocity=0, time=0),\n",
       "    Message('note_on', channel=9, note=38, velocity=127, time=376),\n",
       "    Message('note_on', channel=9, note=51, velocity=127, time=0),\n",
       "    Message('note_on', channel=9, note=51, velocity=0, time=4),\n",
       "    Message('note_on', channel=9, note=38, velocity=0, time=0),\n",
       "    Message('note_on', channel=9, note=35, velocity=116, time=252),\n",
       "    Message('note_on', channel=9, note=35, velocity=0, time=4),\n",
       "    Message('note_on', channel=9, note=51, velocity=127, time=124),\n",
       "    Message('note_on', channel=9, note=51, velocity=0, time=4),\n",
       "    Message('note_on', channel=9, note=35, velocity=116, time=252),\n",
       "    Message('note_on', channel=9, note=35, velocity=0, time=4),\n",
       "    Message('note_on', channel=9, note=38, velocity=127, time=124),\n",
       "    Message('note_on', channel=9, note=51, velocity=127, time=0),\n",
       "    Message('note_on', channel=9, note=51, velocity=0, time=4),\n",
       "    Message('note_on', channel=9, note=38, velocity=0, time=0),\n",
       "    Message('note_on', channel=9, note=35, velocity=116, time=384),\n",
       "    Message('note_on', channel=9, note=51, velocity=127, time=0),\n",
       "    Message('note_on', channel=9, note=51, velocity=0, time=4),\n",
       "    Message('note_on', channel=9, note=35, velocity=0, time=0),\n",
       "    Message('note_on', channel=9, note=38, velocity=127, time=376),\n",
       "    Message('note_on', channel=9, note=51, velocity=127, time=0),\n",
       "    Message('note_on', channel=9, note=51, velocity=0, time=4),\n",
       "    Message('note_on', channel=9, note=38, velocity=0, time=0),\n",
       "    Message('note_on', channel=9, note=35, velocity=116, time=252),\n",
       "    Message('note_on', channel=9, note=35, velocity=0, time=4),\n",
       "    Message('note_on', channel=9, note=51, velocity=127, time=124),\n",
       "    Message('note_on', channel=9, note=51, velocity=0, time=4),\n",
       "    Message('note_on', channel=9, note=35, velocity=116, time=252),\n",
       "    Message('note_on', channel=9, note=35, velocity=0, time=4),\n",
       "    Message('note_on', channel=9, note=38, velocity=127, time=124),\n",
       "    Message('note_on', channel=9, note=51, velocity=127, time=0),\n",
       "    Message('note_on', channel=9, note=51, velocity=0, time=4),\n",
       "    Message('note_on', channel=9, note=38, velocity=0, time=0),\n",
       "    Message('note_on', channel=9, note=35, velocity=116, time=384),\n",
       "    Message('note_on', channel=9, note=51, velocity=127, time=0),\n",
       "    Message('note_on', channel=9, note=51, velocity=0, time=4),\n",
       "    Message('note_on', channel=9, note=35, velocity=0, time=0),\n",
       "    Message('note_on', channel=9, note=38, velocity=127, time=376),\n",
       "    Message('note_on', channel=9, note=51, velocity=127, time=0),\n",
       "    Message('note_on', channel=9, note=51, velocity=0, time=4),\n",
       "    Message('note_on', channel=9, note=38, velocity=0, time=0),\n",
       "    Message('note_on', channel=9, note=35, velocity=116, time=252),\n",
       "    Message('note_on', channel=9, note=35, velocity=0, time=4),\n",
       "    Message('note_on', channel=9, note=51, velocity=127, time=124),\n",
       "    Message('note_on', channel=9, note=51, velocity=0, time=4),\n",
       "    Message('note_on', channel=9, note=35, velocity=116, time=252),\n",
       "    Message('note_on', channel=9, note=35, velocity=0, time=4),\n",
       "    Message('note_on', channel=9, note=38, velocity=127, time=124),\n",
       "    Message('note_on', channel=9, note=51, velocity=127, time=0),\n",
       "    Message('note_on', channel=9, note=51, velocity=0, time=4),\n",
       "    Message('note_on', channel=9, note=38, velocity=0, time=0),\n",
       "    Message('note_on', channel=9, note=35, velocity=116, time=384),\n",
       "    Message('note_on', channel=9, note=51, velocity=127, time=0),\n",
       "    Message('note_on', channel=9, note=51, velocity=0, time=4),\n",
       "    Message('note_on', channel=9, note=35, velocity=0, time=0),\n",
       "    Message('note_on', channel=9, note=38, velocity=127, time=376),\n",
       "    Message('note_on', channel=9, note=51, velocity=127, time=0),\n",
       "    Message('note_on', channel=9, note=51, velocity=0, time=4),\n",
       "    Message('note_on', channel=9, note=38, velocity=0, time=0),\n",
       "    Message('note_on', channel=9, note=35, velocity=116, time=252),\n",
       "    Message('note_on', channel=9, note=35, velocity=0, time=4),\n",
       "    Message('note_on', channel=9, note=51, velocity=127, time=124),\n",
       "    Message('note_on', channel=9, note=51, velocity=0, time=4),\n",
       "    Message('note_on', channel=9, note=35, velocity=116, time=252),\n",
       "    Message('note_on', channel=9, note=35, velocity=0, time=4),\n",
       "    Message('note_on', channel=9, note=38, velocity=127, time=124),\n",
       "    Message('note_on', channel=9, note=51, velocity=127, time=0),\n",
       "    Message('note_on', channel=9, note=51, velocity=0, time=4),\n",
       "    Message('note_on', channel=9, note=38, velocity=0, time=0),\n",
       "    Message('note_on', channel=9, note=35, velocity=116, time=384),\n",
       "    Message('note_on', channel=9, note=51, velocity=127, time=0),\n",
       "    Message('note_on', channel=9, note=51, velocity=0, time=4),\n",
       "    Message('note_on', channel=9, note=35, velocity=0, time=0),\n",
       "    Message('note_on', channel=9, note=51, velocity=127, time=376),\n",
       "    Message('note_on', channel=9, note=38, velocity=127, time=0),\n",
       "    Message('note_on', channel=9, note=38, velocity=0, time=4),\n",
       "    Message('note_on', channel=9, note=51, velocity=0, time=0),\n",
       "    Message('note_on', channel=9, note=35, velocity=116, time=252),\n",
       "    Message('note_on', channel=9, note=35, velocity=0, time=4),\n",
       "    Message('note_on', channel=9, note=51, velocity=127, time=124),\n",
       "    Message('note_on', channel=9, note=51, velocity=0, time=4),\n",
       "    Message('note_on', channel=9, note=35, velocity=116, time=252),\n",
       "    Message('note_on', channel=9, note=35, velocity=0, time=4),\n",
       "    Message('note_on', channel=9, note=38, velocity=127, time=124),\n",
       "    Message('note_on', channel=9, note=51, velocity=127, time=0),\n",
       "    Message('note_on', channel=9, note=51, velocity=0, time=4),\n",
       "    Message('note_on', channel=9, note=38, velocity=0, time=0),\n",
       "    Message('note_on', channel=9, note=35, velocity=116, time=384),\n",
       "    Message('note_on', channel=9, note=51, velocity=127, time=0),\n",
       "    Message('note_on', channel=9, note=51, velocity=0, time=4),\n",
       "    Message('note_on', channel=9, note=35, velocity=0, time=0),\n",
       "    Message('note_on', channel=9, note=38, velocity=127, time=376),\n",
       "    Message('note_on', channel=9, note=51, velocity=127, time=0),\n",
       "    Message('note_on', channel=9, note=51, velocity=0, time=4),\n",
       "    Message('note_on', channel=9, note=38, velocity=0, time=0),\n",
       "    Message('note_on', channel=9, note=35, velocity=116, time=252),\n",
       "    Message('note_on', channel=9, note=35, velocity=0, time=4),\n",
       "    Message('note_on', channel=9, note=51, velocity=127, time=124),\n",
       "    Message('note_on', channel=9, note=51, velocity=0, time=4),\n",
       "    Message('note_on', channel=9, note=35, velocity=116, time=252),\n",
       "    Message('note_on', channel=9, note=35, velocity=0, time=4),\n",
       "    Message('note_on', channel=9, note=38, velocity=127, time=124),\n",
       "    Message('note_on', channel=9, note=51, velocity=127, time=0),\n",
       "    Message('note_on', channel=9, note=51, velocity=0, time=4),\n",
       "    Message('note_on', channel=9, note=38, velocity=0, time=0),\n",
       "    Message('note_on', channel=9, note=35, velocity=116, time=384),\n",
       "    Message('note_on', channel=9, note=51, velocity=127, time=0),\n",
       "    Message('note_on', channel=9, note=51, velocity=0, time=4),\n",
       "    Message('note_on', channel=9, note=35, velocity=0, time=0),\n",
       "    Message('note_on', channel=9, note=38, velocity=127, time=376),\n",
       "    Message('note_on', channel=9, note=51, velocity=127, time=0),\n",
       "    Message('note_on', channel=9, note=51, velocity=0, time=4),\n",
       "    Message('note_on', channel=9, note=38, velocity=0, time=0),\n",
       "    Message('note_on', channel=9, note=35, velocity=116, time=380),\n",
       "    Message('note_on', channel=9, note=51, velocity=127, time=0),\n",
       "    Message('note_on', channel=9, note=51, velocity=0, time=4),\n",
       "    Message('note_on', channel=9, note=35, velocity=0, time=0),\n",
       "    Message('note_on', channel=9, note=38, velocity=127, time=380),\n",
       "    Message('note_on', channel=9, note=51, velocity=127, time=0),\n",
       "    Message('note_on', channel=9, note=51, velocity=0, time=4),\n",
       "    Message('note_on', channel=9, note=38, velocity=0, time=0),\n",
       "    Message('note_on', channel=9, note=35, velocity=116, time=384),\n",
       "    Message('note_on', channel=9, note=51, velocity=127, time=0),\n",
       "    Message('note_on', channel=9, note=51, velocity=0, time=4),\n",
       "    Message('note_on', channel=9, note=35, velocity=0, time=0),\n",
       "    Message('note_on', channel=9, note=38, velocity=127, time=376),\n",
       "    Message('note_on', channel=9, note=38, velocity=0, time=4),\n",
       "    Message('note_on', channel=9, note=51, velocity=127, time=0),\n",
       "    Message('note_on', channel=9, note=51, velocity=0, time=4),\n",
       "    Message('note_on', channel=9, note=49, velocity=110, time=380),\n",
       "    Message('note_on', channel=9, note=35, velocity=116, time=0),\n",
       "    Message('note_on', channel=9, note=35, velocity=0, time=4),\n",
       "    Message('note_on', channel=9, note=49, velocity=0, time=0),\n",
       "    Message('note_on', channel=9, note=38, velocity=127, time=752),\n",
       "    Message('note_on', channel=9, note=38, velocity=0, time=4),\n",
       "    Message('note_on', channel=9, note=38, velocity=127, time=20),\n",
       "    Message('note_on', channel=9, note=38, velocity=0, time=4),\n",
       "    Message('note_on', channel=9, note=45, velocity=127, time=236),\n",
       "    Message('note_on', channel=9, note=45, velocity=0, time=4),\n",
       "    Message('note_on', channel=9, note=45, velocity=127, time=252),\n",
       "    Message('note_on', channel=9, note=45, velocity=0, time=4),\n",
       "    Message('note_on', channel=9, note=41, velocity=127, time=124),\n",
       "    Message('note_on', channel=9, note=41, velocity=0, time=4),\n",
       "    Message('note_on', channel=9, note=49, velocity=110, time=128),\n",
       "    Message('note_on', channel=9, note=35, velocity=116, time=0),\n",
       "    Message('note_on', channel=9, note=35, velocity=0, time=4),\n",
       "    Message('note_on', channel=9, note=49, velocity=0, time=0),\n",
       "    Message('note_on', channel=9, note=53, velocity=127, time=376),\n",
       "    Message('note_on', channel=9, note=53, velocity=0, time=4),\n",
       "    Message('note_on', channel=9, note=38, velocity=127, time=380),\n",
       "    Message('note_on', channel=9, note=49, velocity=110, time=0),\n",
       "    Message('note_on', channel=9, note=49, velocity=0, time=4),\n",
       "    Message('note_on', channel=9, note=38, velocity=0, time=0),\n",
       "    Message('note_on', channel=9, note=54, velocity=127, time=0),\n",
       "    Message('note_on', channel=9, note=54, velocity=0, time=4),\n",
       "    Message('note_on', channel=9, note=53, velocity=127, time=376),\n",
       "    Message('note_on', channel=9, note=53, velocity=0, time=4),\n",
       "    Message('note_on', channel=9, note=35, velocity=116, time=252),\n",
       "    Message('note_on', channel=9, note=35, velocity=0, time=4),\n",
       "    Message('note_on', channel=9, note=35, velocity=116, time=124),\n",
       "    Message('note_on', channel=9, note=53, velocity=127, time=0),\n",
       "    Message('note_on', channel=9, note=53, velocity=0, time=4),\n",
       "    Message('note_on', channel=9, note=35, velocity=0, time=0),\n",
       "    Message('note_on', channel=9, note=53, velocity=127, time=380),\n",
       "    Message('note_on', channel=9, note=53, velocity=0, time=4),\n",
       "    Message('note_on', channel=9, note=38, velocity=127, time=380),\n",
       "    Message('note_on', channel=9, note=49, velocity=110, time=0),\n",
       "    Message('note_on', channel=9, note=49, velocity=0, time=4),\n",
       "    Message('note_on', channel=9, note=38, velocity=0, time=0),\n",
       "    Message('note_on', channel=9, note=54, velocity=127, time=0),\n",
       "    Message('note_on', channel=9, note=54, velocity=0, time=4),\n",
       "    Message('note_on', channel=9, note=45, velocity=127, time=248),\n",
       "    Message('note_on', channel=9, note=45, velocity=0, time=4),\n",
       "    Message('note_on', channel=9, note=53, velocity=127, time=124),\n",
       "    Message('note_on', channel=9, note=53, velocity=0, time=4),\n",
       "    Message('note_on', channel=9, note=41, velocity=127, time=124),\n",
       "    Message('note_on', channel=9, note=41, velocity=0, time=4),\n",
       "    Message('note_on', channel=9, note=35, velocity=116, time=124),\n",
       "    Message('note_on', channel=9, note=35, velocity=0, time=4),\n",
       "    Message('note_on', channel=9, note=49, velocity=110, time=128),\n",
       "    Message('note_on', channel=9, note=35, velocity=116, time=0),\n",
       "    Message('note_on', channel=9, note=35, velocity=0, time=4),\n",
       "    Message('note_on', channel=9, note=49, velocity=0, time=0),\n",
       "    Message('note_on', channel=9, note=53, velocity=127, time=376),\n",
       "    Message('note_on', channel=9, note=53, velocity=0, time=4),\n",
       "    Message('note_on', channel=9, note=38, velocity=127, time=380),\n",
       "    Message('note_on', channel=9, note=49, velocity=110, time=0),\n",
       "    Message('note_on', channel=9, note=49, velocity=0, time=4),\n",
       "    Message('note_on', channel=9, note=38, velocity=0, time=0),\n",
       "    Message('note_on', channel=9, note=54, velocity=127, time=0),\n",
       "    Message('note_on', channel=9, note=54, velocity=0, time=4),\n",
       "    Message('note_on', channel=9, note=53, velocity=127, time=376),\n",
       "    Message('note_on', channel=9, note=53, velocity=0, time=4),\n",
       "    Message('note_on', channel=9, note=35, velocity=116, time=252),\n",
       "    Message('note_on', channel=9, note=35, velocity=0, time=4),\n",
       "    Message('note_on', channel=9, note=35, velocity=116, time=124),\n",
       "    Message('note_on', channel=9, note=53, velocity=127, time=0),\n",
       "    Message('note_on', channel=9, note=53, velocity=0, time=4),\n",
       "    Message('note_on', channel=9, note=35, velocity=0, time=0),\n",
       "    Message('note_on', channel=9, note=53, velocity=127, time=380),\n",
       "    Message('note_on', channel=9, note=53, velocity=0, time=4),\n",
       "    Message('note_on', channel=9, note=38, velocity=127, time=380),\n",
       "    Message('note_on', channel=9, note=49, velocity=110, time=0),\n",
       "    Message('note_on', channel=9, note=49, velocity=0, time=4),\n",
       "    Message('note_on', channel=9, note=38, velocity=0, time=0),\n",
       "    Message('note_on', channel=9, note=54, velocity=127, time=0),\n",
       "    Message('note_on', channel=9, note=54, velocity=0, time=4),\n",
       "    Message('note_on', channel=9, note=45, velocity=127, time=248),\n",
       "    Message('note_on', channel=9, note=45, velocity=0, time=4),\n",
       "    Message('note_on', channel=9, note=53, velocity=127, time=124),\n",
       "    Message('note_on', channel=9, note=53, velocity=0, time=4),\n",
       "    Message('note_on', channel=9, note=41, velocity=127, time=124),\n",
       "    Message('note_on', channel=9, note=41, velocity=0, time=4),\n",
       "    Message('note_on', channel=9, note=35, velocity=116, time=124),\n",
       "    Message('note_on', channel=9, note=35, velocity=0, time=4),\n",
       "    Message('note_on', channel=9, note=35, velocity=116, time=128),\n",
       "    Message('note_on', channel=9, note=49, velocity=110, time=0),\n",
       "    Message('note_on', channel=9, note=49, velocity=0, time=4),\n",
       "    Message('note_on', channel=9, note=35, velocity=0, time=0),\n",
       "    Message('note_on', channel=9, note=53, velocity=127, time=376),\n",
       "    Message('note_on', channel=9, note=53, velocity=0, time=4),\n",
       "    Message('note_on', channel=9, note=38, velocity=127, time=380),\n",
       "    Message('note_on', channel=9, note=49, velocity=110, time=0),\n",
       "    Message('note_on', channel=9, note=49, velocity=0, time=4),\n",
       "    Message('note_on', channel=9, note=38, velocity=0, time=0),\n",
       "    Message('note_on', channel=9, note=54, velocity=127, time=0),\n",
       "    Message('note_on', channel=9, note=54, velocity=0, time=4),\n",
       "    Message('note_on', channel=9, note=53, velocity=127, time=376),\n",
       "    Message('note_on', channel=9, note=53, velocity=0, time=4),\n",
       "    Message('note_on', channel=9, note=35, velocity=116, time=252),\n",
       "    Message('note_on', channel=9, note=35, velocity=0, time=4),\n",
       "    Message('note_on', channel=9, note=35, velocity=116, time=124),\n",
       "    Message('note_on', channel=9, note=53, velocity=127, time=0),\n",
       "    Message('note_on', channel=9, note=53, velocity=0, time=4),\n",
       "    Message('note_on', channel=9, note=35, velocity=0, time=0),\n",
       "    Message('note_on', channel=9, note=53, velocity=127, time=380),\n",
       "    Message('note_on', channel=9, note=53, velocity=0, time=4),\n",
       "    Message('note_on', channel=9, note=38, velocity=127, time=380),\n",
       "    Message('note_on', channel=9, note=49, velocity=110, time=0),\n",
       "    Message('note_on', channel=9, note=49, velocity=0, time=4),\n",
       "    Message('note_on', channel=9, note=38, velocity=0, time=0),\n",
       "    Message('note_on', channel=9, note=54, velocity=127, time=0),\n",
       "    Message('note_on', channel=9, note=54, velocity=0, time=4),\n",
       "    Message('note_on', channel=9, note=45, velocity=127, time=248),\n",
       "    Message('note_on', channel=9, note=45, velocity=0, time=4),\n",
       "    Message('note_on', channel=9, note=53, velocity=127, time=124),\n",
       "    Message('note_on', channel=9, note=53, velocity=0, time=4),\n",
       "    Message('note_on', channel=9, note=41, velocity=127, time=124),\n",
       "    Message('note_on', channel=9, note=41, velocity=0, time=4),\n",
       "    Message('note_on', channel=9, note=35, velocity=116, time=124),\n",
       "    Message('note_on', channel=9, note=35, velocity=0, time=4),\n",
       "    Message('note_on', channel=9, note=35, velocity=116, time=128),\n",
       "    Message('note_on', channel=9, note=49, velocity=110, time=0),\n",
       "    Message('note_on', channel=9, note=49, velocity=0, time=4),\n",
       "    Message('note_on', channel=9, note=35, velocity=0, time=0),\n",
       "    Message('note_on', channel=9, note=53, velocity=127, time=376),\n",
       "    Message('note_on', channel=9, note=53, velocity=0, time=4),\n",
       "    Message('note_on', channel=9, note=35, velocity=116, time=252),\n",
       "    Message('note_on', channel=9, note=35, velocity=0, time=4),\n",
       "    Message('note_on', channel=9, note=53, velocity=127, time=124),\n",
       "    Message('note_on', channel=9, note=53, velocity=0, time=4),\n",
       "    Message('note_on', channel=9, note=35, velocity=116, time=252),\n",
       "    Message('note_on', channel=9, note=35, velocity=0, time=4),\n",
       "    Message('note_on', channel=9, note=38, velocity=127, time=124),\n",
       "    Message('note_on', channel=9, note=49, velocity=110, time=0),\n",
       "    Message('note_on', channel=9, note=49, velocity=0, time=4),\n",
       "    Message('note_on', channel=9, note=38, velocity=0, time=0),\n",
       "    Message('note_on', channel=9, note=54, velocity=127, time=0),\n",
       "    Message('note_on', channel=9, note=54, velocity=0, time=4),\n",
       "    Message('note_on', channel=9, note=35, velocity=116, time=376),\n",
       "    Message('note_on', channel=9, note=53, velocity=127, time=0),\n",
       "    Message('note_on', channel=9, note=53, velocity=0, time=4),\n",
       "    Message('note_on', channel=9, note=35, velocity=0, time=0),\n",
       "    Message('note_on', channel=9, note=53, velocity=127, time=380),\n",
       "    Message('note_on', channel=9, note=53, velocity=0, time=4),\n",
       "    Message('note_on', channel=9, note=35, velocity=116, time=252),\n",
       "    Message('note_on', channel=9, note=35, velocity=0, time=4),\n",
       "    Message('note_on', channel=9, note=53, velocity=127, time=124),\n",
       "    Message('note_on', channel=9, note=53, velocity=0, time=4),\n",
       "    Message('note_on', channel=9, note=35, velocity=116, time=252),\n",
       "    Message('note_on', channel=9, note=35, velocity=0, time=4),\n",
       "    Message('note_on', channel=9, note=38, velocity=127, time=124),\n",
       "    Message('note_on', channel=9, note=38, velocity=0, time=4),\n",
       "    Message('note_on', channel=9, note=49, velocity=110, time=0),\n",
       "    Message('note_on', channel=9, note=53, velocity=127, time=0),\n",
       "    Message('note_on', channel=9, note=53, velocity=0, time=4),\n",
       "    Message('note_on', channel=9, note=49, velocity=0, time=0),\n",
       "    Message('note_on', channel=9, note=35, velocity=116, time=380),\n",
       "    Message('note_on', channel=9, note=49, velocity=110, time=0),\n",
       "    Message('note_on', channel=9, note=49, velocity=0, time=4),\n",
       "    Message('note_on', channel=9, note=35, velocity=0, time=0),\n",
       "    Message('note_on', channel=9, note=53, velocity=127, time=376),\n",
       "    Message('note_on', channel=9, note=53, velocity=0, time=4),\n",
       "    Message('note_on', channel=9, note=35, velocity=116, time=252),\n",
       "    Message('note_on', channel=9, note=35, velocity=0, time=4),\n",
       "    Message('note_on', channel=9, note=53, velocity=127, time=124),\n",
       "    Message('note_on', channel=9, note=53, velocity=0, time=4),\n",
       "    Message('note_on', channel=9, note=35, velocity=116, time=252),\n",
       "    Message('note_on', channel=9, note=35, velocity=0, time=4),\n",
       "    Message('note_on', channel=9, note=38, velocity=127, time=124),\n",
       "    Message('note_on', channel=9, note=49, velocity=110, time=0),\n",
       "    Message('note_on', channel=9, note=49, velocity=0, time=4),\n",
       "    Message('note_on', channel=9, note=38, velocity=0, time=0),\n",
       "    Message('note_on', channel=9, note=54, velocity=127, time=0),\n",
       "    Message('note_on', channel=9, note=54, velocity=0, time=4),\n",
       "    Message('note_on', channel=9, note=35, velocity=116, time=376),\n",
       "    Message('note_on', channel=9, note=38, velocity=47, time=0),\n",
       "    Message('note_on', channel=9, note=38, velocity=0, time=4),\n",
       "    Message('note_on', channel=9, note=35, velocity=0, time=0),\n",
       "    Message('note_on', channel=9, note=38, velocity=47, time=124),\n",
       "    Message('note_on', channel=9, note=38, velocity=0, time=4),\n",
       "    Message('note_on', channel=9, note=38, velocity=47, time=124),\n",
       "    Message('note_on', channel=9, note=38, velocity=0, time=4),\n",
       "    Message('note_on', channel=9, note=38, velocity=47, time=124),\n",
       "    Message('note_on', channel=9, note=38, velocity=0, time=4),\n",
       "    Message('note_on', channel=9, note=38, velocity=47, time=124),\n",
       "    Message('note_on', channel=9, note=38, velocity=0, time=4),\n",
       "    Message('note_on', channel=9, note=38, velocity=47, time=124),\n",
       "    Message('note_on', channel=9, note=38, velocity=0, time=4),\n",
       "    Message('note_on', channel=9, note=38, velocity=63, time=124),\n",
       "    Message('note_on', channel=9, note=38, velocity=0, time=4),\n",
       "    Message('note_on', channel=9, note=38, velocity=79, time=124),\n",
       "    Message('note_on', channel=9, note=38, velocity=0, time=4),\n",
       "    Message('note_on', channel=9, note=38, velocity=95, time=124),\n",
       "    Message('note_on', channel=9, note=38, velocity=0, time=4),\n",
       "    Message('note_on', channel=9, note=38, velocity=111, time=124),\n",
       "    Message('note_on', channel=9, note=38, velocity=0, time=4),\n",
       "    Message('note_on', channel=9, note=38, velocity=127, time=124),\n",
       "    Message('note_on', channel=9, note=38, velocity=0, time=4),\n",
       "    Message('note_on', channel=9, note=38, velocity=127, time=124),\n",
       "    Message('note_on', channel=9, note=38, velocity=0, time=4),\n",
       "    Message('note_on', channel=9, note=35, velocity=116, time=128),\n",
       "    Message('note_on', channel=9, note=49, velocity=110, time=0),\n",
       "    Message('note_on', channel=9, note=49, velocity=0, time=4),\n",
       "    Message('note_on', channel=9, note=35, velocity=0, time=0),\n",
       "    Message('note_on', channel=9, note=38, velocity=127, time=376),\n",
       "    Message('note_on', channel=9, note=51, velocity=127, time=0),\n",
       "    Message('note_on', channel=9, note=51, velocity=0, time=4),\n",
       "    Message('note_on', channel=9, note=38, velocity=0, time=0),\n",
       "    Message('note_on', channel=9, note=35, velocity=116, time=252),\n",
       "    Message('note_on', channel=9, note=35, velocity=0, time=4),\n",
       "    Message('note_on', channel=9, note=51, velocity=127, time=124),\n",
       "    Message('note_on', channel=9, note=51, velocity=0, time=4),\n",
       "    Message('note_on', channel=9, note=35, velocity=116, time=252),\n",
       "    Message('note_on', channel=9, note=35, velocity=0, time=4),\n",
       "    Message('note_on', channel=9, note=38, velocity=127, time=124),\n",
       "    Message('note_on', channel=9, note=51, velocity=127, time=0),\n",
       "    Message('note_on', channel=9, note=51, velocity=0, time=4),\n",
       "    Message('note_on', channel=9, note=38, velocity=0, time=0),\n",
       "    Message('note_on', channel=9, note=35, velocity=116, time=384),\n",
       "    Message('note_on', channel=9, note=51, velocity=127, time=0),\n",
       "    Message('note_on', channel=9, note=51, velocity=0, time=4),\n",
       "    Message('note_on', channel=9, note=35, velocity=0, time=0),\n",
       "    Message('note_on', channel=9, note=38, velocity=127, time=376),\n",
       "    Message('note_on', channel=9, note=51, velocity=127, time=0),\n",
       "    Message('note_on', channel=9, note=51, velocity=0, time=4),\n",
       "    Message('note_on', channel=9, note=38, velocity=0, time=0),\n",
       "    Message('note_on', channel=9, note=35, velocity=116, time=252),\n",
       "    Message('note_on', channel=9, note=35, velocity=0, time=4),\n",
       "    Message('note_on', channel=9, note=51, velocity=127, time=124),\n",
       "    Message('note_on', channel=9, note=51, velocity=0, time=4),\n",
       "    Message('note_on', channel=9, note=35, velocity=116, time=252),\n",
       "    Message('note_on', channel=9, note=35, velocity=0, time=4),\n",
       "    Message('note_on', channel=9, note=38, velocity=127, time=124),\n",
       "    Message('note_on', channel=9, note=51, velocity=127, time=0),\n",
       "    Message('note_on', channel=9, note=51, velocity=0, time=4),\n",
       "    Message('note_on', channel=9, note=38, velocity=0, time=0),\n",
       "    Message('note_on', channel=9, note=35, velocity=116, time=384),\n",
       "    Message('note_on', channel=9, note=51, velocity=127, time=0),\n",
       "    Message('note_on', channel=9, note=51, velocity=0, time=4),\n",
       "    Message('note_on', channel=9, note=35, velocity=0, time=0),\n",
       "    Message('note_on', channel=9, note=38, velocity=127, time=376),\n",
       "    Message('note_on', channel=9, note=51, velocity=127, time=0),\n",
       "    Message('note_on', channel=9, note=51, velocity=0, time=4),\n",
       "    Message('note_on', channel=9, note=38, velocity=0, time=0),\n",
       "    Message('note_on', channel=9, note=35, velocity=116, time=252),\n",
       "    Message('note_on', channel=9, note=35, velocity=0, time=4),\n",
       "    Message('note_on', channel=9, note=51, velocity=127, time=124),\n",
       "    Message('note_on', channel=9, note=51, velocity=0, time=4),\n",
       "    Message('note_on', channel=9, note=35, velocity=116, time=252),\n",
       "    Message('note_on', channel=9, note=35, velocity=0, time=4),\n",
       "    Message('note_on', channel=9, note=38, velocity=127, time=124),\n",
       "    Message('note_on', channel=9, note=51, velocity=127, time=0),\n",
       "    Message('note_on', channel=9, note=51, velocity=0, time=4),\n",
       "    Message('note_on', channel=9, note=38, velocity=0, time=0),\n",
       "    Message('note_on', channel=9, note=35, velocity=116, time=384),\n",
       "    Message('note_on', channel=9, note=51, velocity=127, time=0),\n",
       "    Message('note_on', channel=9, note=51, velocity=0, time=4),\n",
       "    Message('note_on', channel=9, note=35, velocity=0, time=0),\n",
       "    Message('note_on', channel=9, note=38, velocity=127, time=376),\n",
       "    Message('note_on', channel=9, note=51, velocity=127, time=0),\n",
       "    Message('note_on', channel=9, note=51, velocity=0, time=4),\n",
       "    Message('note_on', channel=9, note=38, velocity=0, time=0),\n",
       "    Message('note_on', channel=9, note=35, velocity=116, time=252),\n",
       "    Message('note_on', channel=9, note=35, velocity=0, time=4),\n",
       "    Message('note_on', channel=9, note=51, velocity=127, time=124),\n",
       "    Message('note_on', channel=9, note=51, velocity=0, time=4),\n",
       "    Message('note_on', channel=9, note=35, velocity=116, time=252),\n",
       "    Message('note_on', channel=9, note=35, velocity=0, time=4),\n",
       "    Message('note_on', channel=9, note=38, velocity=127, time=124),\n",
       "    Message('note_on', channel=9, note=51, velocity=127, time=0),\n",
       "    Message('note_on', channel=9, note=51, velocity=0, time=4),\n",
       "    Message('note_on', channel=9, note=38, velocity=0, time=0),\n",
       "    Message('note_on', channel=9, note=35, velocity=116, time=384),\n",
       "    Message('note_on', channel=9, note=51, velocity=127, time=0),\n",
       "    Message('note_on', channel=9, note=51, velocity=0, time=4),\n",
       "    Message('note_on', channel=9, note=35, velocity=0, time=0),\n",
       "    Message('note_on', channel=9, note=38, velocity=127, time=376),\n",
       "    Message('note_on', channel=9, note=51, velocity=127, time=0),\n",
       "    Message('note_on', channel=9, note=51, velocity=0, time=4),\n",
       "    Message('note_on', channel=9, note=38, velocity=0, time=0),\n",
       "    Message('note_on', channel=9, note=35, velocity=116, time=252),\n",
       "    Message('note_on', channel=9, note=35, velocity=0, time=4),\n",
       "    Message('note_on', channel=9, note=51, velocity=127, time=124),\n",
       "    Message('note_on', channel=9, note=51, velocity=0, time=4),\n",
       "    Message('note_on', channel=9, note=35, velocity=116, time=252),\n",
       "    Message('note_on', channel=9, note=35, velocity=0, time=4),\n",
       "    Message('note_on', channel=9, note=38, velocity=127, time=124),\n",
       "    Message('note_on', channel=9, note=51, velocity=127, time=0),\n",
       "    Message('note_on', channel=9, note=51, velocity=0, time=4),\n",
       "    Message('note_on', channel=9, note=38, velocity=0, time=0),\n",
       "    Message('note_on', channel=9, note=35, velocity=116, time=384),\n",
       "    Message('note_on', channel=9, note=51, velocity=127, time=0),\n",
       "    Message('note_on', channel=9, note=51, velocity=0, time=4),\n",
       "    Message('note_on', channel=9, note=35, velocity=0, time=0),\n",
       "    Message('note_on', channel=9, note=51, velocity=127, time=376),\n",
       "    Message('note_on', channel=9, note=38, velocity=127, time=0),\n",
       "    Message('note_on', channel=9, note=38, velocity=0, time=4),\n",
       "    Message('note_on', channel=9, note=51, velocity=0, time=0),\n",
       "    Message('note_on', channel=9, note=35, velocity=116, time=380),\n",
       "    Message('note_on', channel=9, note=51, velocity=127, time=0),\n",
       "    Message('note_on', channel=9, note=51, velocity=0, time=4),\n",
       "    Message('note_on', channel=9, note=35, velocity=0, time=0),\n",
       "    Message('note_on', channel=9, note=38, velocity=127, time=380),\n",
       "    Message('note_on', channel=9, note=51, velocity=127, time=0),\n",
       "    Message('note_on', channel=9, note=51, velocity=0, time=4),\n",
       "    Message('note_on', channel=9, note=38, velocity=0, time=0),\n",
       "    Message('note_on', channel=9, note=35, velocity=116, time=384),\n",
       "    Message('note_on', channel=9, note=49, velocity=110, time=0),\n",
       "    Message('note_on', channel=9, note=49, velocity=0, time=4),\n",
       "    Message('note_on', channel=9, note=35, velocity=0, time=0),\n",
       "    Message('note_on', channel=9, note=38, velocity=127, time=376),\n",
       "    Message('note_on', channel=9, note=51, velocity=127, time=0),\n",
       "    Message('note_on', channel=9, note=51, velocity=0, time=4),\n",
       "    Message('note_on', channel=9, note=38, velocity=0, time=0),\n",
       "    Message('note_on', channel=9, note=35, velocity=116, time=252),\n",
       "    Message('note_on', channel=9, note=35, velocity=0, time=4),\n",
       "    Message('note_on', channel=9, note=51, velocity=127, time=124),\n",
       "    Message('note_on', channel=9, note=51, velocity=0, time=4),\n",
       "    Message('note_on', channel=9, note=35, velocity=116, time=252),\n",
       "    Message('note_on', channel=9, note=35, velocity=0, time=4),\n",
       "    Message('note_on', channel=9, note=38, velocity=127, time=124),\n",
       "    Message('note_on', channel=9, note=51, velocity=127, time=0),\n",
       "    Message('note_on', channel=9, note=51, velocity=0, time=4),\n",
       "    Message('note_on', channel=9, note=38, velocity=0, time=0),\n",
       "    Message('note_on', channel=9, note=35, velocity=116, time=384),\n",
       "    Message('note_on', channel=9, note=38, velocity=127, time=0),\n",
       "    Message('note_on', channel=9, note=38, velocity=0, time=4),\n",
       "    Message('note_on', channel=9, note=35, velocity=0, time=0),\n",
       "    Message('note_on', channel=9, note=45, velocity=127, time=1016),\n",
       "    Message('note_on', channel=9, note=45, velocity=0, time=4),\n",
       "    Message('note_on', channel=9, note=41, velocity=127, time=124),\n",
       "    Message('note_on', channel=9, note=41, velocity=0, time=4),\n",
       "    Message('note_on', channel=9, note=35, velocity=116, time=384),\n",
       "    Message('note_on', channel=9, note=49, velocity=110, time=0),\n",
       "    Message('note_on', channel=9, note=49, velocity=0, time=4),\n",
       "    Message('note_on', channel=9, note=35, velocity=0, time=0),\n",
       "    Message('note_on', channel=9, note=38, velocity=127, time=376),\n",
       "    Message('note_on', channel=9, note=51, velocity=127, time=0),\n",
       "    Message('note_on', channel=9, note=51, velocity=0, time=4),\n",
       "    Message('note_on', channel=9, note=38, velocity=0, time=0),\n",
       "    Message('note_on', channel=9, note=35, velocity=116, time=252),\n",
       "    Message('note_on', channel=9, note=35, velocity=0, time=4),\n",
       "    Message('note_on', channel=9, note=51, velocity=127, time=124),\n",
       "    Message('note_on', channel=9, note=51, velocity=0, time=4),\n",
       "    Message('note_on', channel=9, note=35, velocity=116, time=252),\n",
       "    Message('note_on', channel=9, note=35, velocity=0, time=4),\n",
       "    Message('note_on', channel=9, note=38, velocity=127, time=124),\n",
       "    Message('note_on', channel=9, note=51, velocity=127, time=0),\n",
       "    Message('note_on', channel=9, note=51, velocity=0, time=4),\n",
       "    Message('note_on', channel=9, note=38, velocity=0, time=0),\n",
       "    Message('note_on', channel=9, note=35, velocity=116, time=384),\n",
       "    Message('note_on', channel=9, note=51, velocity=127, time=0),\n",
       "    Message('note_on', channel=9, note=51, velocity=0, time=4),\n",
       "    Message('note_on', channel=9, note=35, velocity=0, time=0),\n",
       "    Message('note_on', channel=9, note=38, velocity=127, time=376),\n",
       "    Message('note_on', channel=9, note=51, velocity=127, time=0),\n",
       "    Message('note_on', channel=9, note=51, velocity=0, time=4),\n",
       "    Message('note_on', channel=9, note=38, velocity=0, time=0),\n",
       "    Message('note_on', channel=9, note=35, velocity=116, time=252),\n",
       "    Message('note_on', channel=9, note=35, velocity=0, time=4),\n",
       "    Message('note_on', channel=9, note=51, velocity=127, time=124),\n",
       "    Message('note_on', channel=9, note=51, velocity=0, time=4),\n",
       "    Message('note_on', channel=9, note=35, velocity=116, time=252),\n",
       "    Message('note_on', channel=9, note=35, velocity=0, time=4),\n",
       "    Message('note_on', channel=9, note=38, velocity=127, time=124),\n",
       "    Message('note_on', channel=9, note=51, velocity=127, time=0),\n",
       "    Message('note_on', channel=9, note=51, velocity=0, time=4),\n",
       "    Message('note_on', channel=9, note=38, velocity=0, time=0),\n",
       "    Message('note_on', channel=9, note=35, velocity=116, time=384),\n",
       "    Message('note_on', channel=9, note=51, velocity=127, time=0),\n",
       "    Message('note_on', channel=9, note=51, velocity=0, time=4),\n",
       "    Message('note_on', channel=9, note=35, velocity=0, time=0),\n",
       "    Message('note_on', channel=9, note=38, velocity=127, time=376),\n",
       "    Message('note_on', channel=9, note=51, velocity=127, time=0),\n",
       "    Message('note_on', channel=9, note=51, velocity=0, time=4),\n",
       "    Message('note_on', channel=9, note=38, velocity=0, time=0),\n",
       "    Message('note_on', channel=9, note=35, velocity=116, time=252),\n",
       "    Message('note_on', channel=9, note=35, velocity=0, time=4),\n",
       "    Message('note_on', channel=9, note=51, velocity=127, time=124),\n",
       "    Message('note_on', channel=9, note=51, velocity=0, time=4),\n",
       "    Message('note_on', channel=9, note=35, velocity=116, time=252),\n",
       "    Message('note_on', channel=9, note=35, velocity=0, time=4),\n",
       "    Message('note_on', channel=9, note=38, velocity=127, time=124),\n",
       "    Message('note_on', channel=9, note=51, velocity=127, time=0),\n",
       "    Message('note_on', channel=9, note=51, velocity=0, time=4),\n",
       "    Message('note_on', channel=9, note=38, velocity=0, time=0),\n",
       "    Message('note_on', channel=9, note=35, velocity=116, time=384),\n",
       "    Message('note_on', channel=9, note=51, velocity=127, time=0),\n",
       "    Message('note_on', channel=9, note=51, velocity=0, time=4),\n",
       "    Message('note_on', channel=9, note=35, velocity=0, time=0),\n",
       "    Message('note_on', channel=9, note=38, velocity=127, time=376),\n",
       "    Message('note_on', channel=9, note=51, velocity=127, time=0),\n",
       "    Message('note_on', channel=9, note=51, velocity=0, time=4),\n",
       "    Message('note_on', channel=9, note=38, velocity=0, time=0),\n",
       "    Message('note_on', channel=9, note=35, velocity=116, time=252),\n",
       "    Message('note_on', channel=9, note=35, velocity=0, time=4),\n",
       "    Message('note_on', channel=9, note=51, velocity=127, time=124),\n",
       "    Message('note_on', channel=9, note=51, velocity=0, time=4),\n",
       "    Message('note_on', channel=9, note=35, velocity=116, time=252),\n",
       "    Message('note_on', channel=9, note=35, velocity=0, time=4),\n",
       "    Message('note_on', channel=9, note=38, velocity=127, time=124),\n",
       "    Message('note_on', channel=9, note=51, velocity=127, time=0),\n",
       "    Message('note_on', channel=9, note=51, velocity=0, time=4),\n",
       "    Message('note_on', channel=9, note=38, velocity=0, time=0),\n",
       "    Message('note_on', channel=9, note=35, velocity=116, time=384),\n",
       "    Message('note_on', channel=9, note=51, velocity=127, time=0),\n",
       "    Message('note_on', channel=9, note=51, velocity=0, time=4),\n",
       "    Message('note_on', channel=9, note=35, velocity=0, time=0),\n",
       "    Message('note_on', channel=9, note=38, velocity=127, time=376),\n",
       "    Message('note_on', channel=9, note=51, velocity=127, time=0),\n",
       "    Message('note_on', channel=9, note=51, velocity=0, time=4),\n",
       "    Message('note_on', channel=9, note=38, velocity=0, time=0),\n",
       "    Message('note_on', channel=9, note=35, velocity=116, time=252),\n",
       "    Message('note_on', channel=9, note=35, velocity=0, time=4),\n",
       "    Message('note_on', channel=9, note=51, velocity=127, time=124),\n",
       "    Message('note_on', channel=9, note=51, velocity=0, time=4),\n",
       "    Message('note_on', channel=9, note=35, velocity=116, time=252),\n",
       "    Message('note_on', channel=9, note=35, velocity=0, time=4),\n",
       "    Message('note_on', channel=9, note=38, velocity=127, time=124),\n",
       "    Message('note_on', channel=9, note=51, velocity=127, time=0),\n",
       "    Message('note_on', channel=9, note=51, velocity=0, time=4),\n",
       "    Message('note_on', channel=9, note=38, velocity=0, time=0),\n",
       "    Message('note_on', channel=9, note=35, velocity=116, time=384),\n",
       "    Message('note_on', channel=9, note=51, velocity=127, time=0),\n",
       "    Message('note_on', channel=9, note=51, velocity=0, time=4),\n",
       "    Message('note_on', channel=9, note=35, velocity=0, time=0),\n",
       "    Message('note_on', channel=9, note=38, velocity=127, time=376),\n",
       "    Message('note_on', channel=9, note=51, velocity=127, time=0),\n",
       "    Message('note_on', channel=9, note=51, velocity=0, time=4),\n",
       "    Message('note_on', channel=9, note=38, velocity=0, time=0),\n",
       "    Message('note_on', channel=9, note=35, velocity=116, time=252),\n",
       "    Message('note_on', channel=9, note=35, velocity=0, time=4),\n",
       "    Message('note_on', channel=9, note=51, velocity=127, time=124),\n",
       "    Message('note_on', channel=9, note=51, velocity=0, time=4),\n",
       "    Message('note_on', channel=9, note=35, velocity=116, time=252),\n",
       "    Message('note_on', channel=9, note=35, velocity=0, time=4),\n",
       "    Message('note_on', channel=9, note=38, velocity=127, time=124),\n",
       "    Message('note_on', channel=9, note=51, velocity=127, time=0),\n",
       "    Message('note_on', channel=9, note=51, velocity=0, time=4),\n",
       "    Message('note_on', channel=9, note=38, velocity=0, time=0),\n",
       "    Message('note_on', channel=9, note=35, velocity=116, time=384),\n",
       "    Message('note_on', channel=9, note=51, velocity=127, time=0),\n",
       "    Message('note_on', channel=9, note=51, velocity=0, time=4),\n",
       "    Message('note_on', channel=9, note=35, velocity=0, time=0),\n",
       "    Message('note_on', channel=9, note=38, velocity=127, time=376),\n",
       "    Message('note_on', channel=9, note=51, velocity=127, time=0),\n",
       "    Message('note_on', channel=9, note=51, velocity=0, time=4),\n",
       "    Message('note_on', channel=9, note=38, velocity=0, time=0),\n",
       "    Message('note_on', channel=9, note=35, velocity=116, time=380),\n",
       "    Message('note_on', channel=9, note=51, velocity=127, time=0),\n",
       "    Message('note_on', channel=9, note=51, velocity=0, time=4),\n",
       "    Message('note_on', channel=9, note=35, velocity=0, time=0),\n",
       "    Message('note_on', channel=9, note=51, velocity=127, time=380),\n",
       "    Message('note_on', channel=9, note=38, velocity=127, time=0),\n",
       "    Message('note_on', channel=9, note=38, velocity=0, time=4),\n",
       "    Message('note_on', channel=9, note=51, velocity=0, time=0),\n",
       "    Message('note_on', channel=9, note=35, velocity=116, time=384),\n",
       "    Message('note_on', channel=9, note=51, velocity=127, time=0),\n",
       "    Message('note_on', channel=9, note=51, velocity=0, time=4),\n",
       "    Message('note_on', channel=9, note=35, velocity=0, time=0),\n",
       "    Message('note_on', channel=9, note=38, velocity=127, time=376),\n",
       "    Message('note_on', channel=9, note=38, velocity=0, time=4),\n",
       "    Message('note_on', channel=9, note=51, velocity=127, time=0),\n",
       "    Message('note_on', channel=9, note=51, velocity=0, time=4),\n",
       "    Message('note_on', channel=9, note=49, velocity=110, time=380),\n",
       "    Message('note_on', channel=9, note=35, velocity=116, time=0),\n",
       "    Message('note_on', channel=9, note=35, velocity=0, time=4),\n",
       "    Message('note_on', channel=9, note=49, velocity=0, time=0),\n",
       "    Message('note_on', channel=9, note=38, velocity=127, time=752),\n",
       "    Message('note_on', channel=9, note=38, velocity=0, time=4),\n",
       "    Message('note_on', channel=9, note=38, velocity=127, time=20),\n",
       "    Message('note_on', channel=9, note=38, velocity=0, time=4),\n",
       "    Message('note_on', channel=9, note=45, velocity=127, time=236),\n",
       "    Message('note_on', channel=9, note=45, velocity=0, time=4),\n",
       "    Message('note_on', channel=9, note=45, velocity=127, time=252),\n",
       "    Message('note_on', channel=9, note=45, velocity=0, time=4),\n",
       "    Message('note_on', channel=9, note=41, velocity=127, time=124),\n",
       "    Message('note_on', channel=9, note=41, velocity=0, time=4),\n",
       "    Message('note_on', channel=9, note=49, velocity=110, time=128),\n",
       "    Message('note_on', channel=9, note=35, velocity=116, time=0),\n",
       "    Message('note_on', channel=9, note=35, velocity=0, time=4),\n",
       "    Message('note_on', channel=9, note=49, velocity=0, time=0),\n",
       "    Message('note_on', channel=9, note=53, velocity=127, time=376),\n",
       "    Message('note_on', channel=9, note=53, velocity=0, time=4),\n",
       "    Message('note_on', channel=9, note=38, velocity=127, time=380),\n",
       "    Message('note_on', channel=9, note=49, velocity=110, time=0),\n",
       "    Message('note_on', channel=9, note=49, velocity=0, time=4),\n",
       "    Message('note_on', channel=9, note=38, velocity=0, time=0),\n",
       "    Message('note_on', channel=9, note=54, velocity=127, time=0),\n",
       "    Message('note_on', channel=9, note=54, velocity=0, time=4),\n",
       "    Message('note_on', channel=9, note=53, velocity=127, time=376),\n",
       "    Message('note_on', channel=9, note=53, velocity=0, time=4),\n",
       "    Message('note_on', channel=9, note=35, velocity=116, time=252),\n",
       "    Message('note_on', channel=9, note=35, velocity=0, time=4),\n",
       "    Message('note_on', channel=9, note=35, velocity=116, time=124),\n",
       "    Message('note_on', channel=9, note=53, velocity=127, time=0),\n",
       "    Message('note_on', channel=9, note=53, velocity=0, time=4),\n",
       "    Message('note_on', channel=9, note=35, velocity=0, time=0),\n",
       "    Message('note_on', channel=9, note=53, velocity=127, time=380),\n",
       "    Message('note_on', channel=9, note=53, velocity=0, time=4),\n",
       "    Message('note_on', channel=9, note=38, velocity=127, time=380),\n",
       "    Message('note_on', channel=9, note=49, velocity=110, time=0),\n",
       "    Message('note_on', channel=9, note=49, velocity=0, time=4),\n",
       "    Message('note_on', channel=9, note=38, velocity=0, time=0),\n",
       "    Message('note_on', channel=9, note=54, velocity=127, time=0),\n",
       "    Message('note_on', channel=9, note=54, velocity=0, time=4),\n",
       "    Message('note_on', channel=9, note=45, velocity=127, time=248),\n",
       "    Message('note_on', channel=9, note=45, velocity=0, time=4),\n",
       "    Message('note_on', channel=9, note=53, velocity=127, time=124),\n",
       "    Message('note_on', channel=9, note=53, velocity=0, time=4),\n",
       "    Message('note_on', channel=9, note=41, velocity=127, time=124),\n",
       "    Message('note_on', channel=9, note=41, velocity=0, time=4),\n",
       "    Message('note_on', channel=9, note=35, velocity=116, time=124),\n",
       "    Message('note_on', channel=9, note=35, velocity=0, time=4),\n",
       "    Message('note_on', channel=9, note=35, velocity=116, time=128),\n",
       "    Message('note_on', channel=9, note=49, velocity=110, time=0),\n",
       "    Message('note_on', channel=9, note=49, velocity=0, time=4),\n",
       "    Message('note_on', channel=9, note=35, velocity=0, time=0),\n",
       "    Message('note_on', channel=9, note=53, velocity=127, time=376),\n",
       "    Message('note_on', channel=9, note=53, velocity=0, time=4),\n",
       "    Message('note_on', channel=9, note=38, velocity=127, time=380),\n",
       "    Message('note_on', channel=9, note=49, velocity=110, time=0),\n",
       "    Message('note_on', channel=9, note=49, velocity=0, time=4),\n",
       "    Message('note_on', channel=9, note=38, velocity=0, time=0),\n",
       "    Message('note_on', channel=9, note=54, velocity=127, time=0),\n",
       "    Message('note_on', channel=9, note=54, velocity=0, time=4),\n",
       "    Message('note_on', channel=9, note=53, velocity=127, time=376),\n",
       "    Message('note_on', channel=9, note=53, velocity=0, time=4),\n",
       "    Message('note_on', channel=9, note=35, velocity=116, time=252),\n",
       "    Message('note_on', channel=9, note=35, velocity=0, time=4),\n",
       "    Message('note_on', channel=9, note=35, velocity=116, time=124),\n",
       "    Message('note_on', channel=9, note=53, velocity=127, time=0),\n",
       "    Message('note_on', channel=9, note=53, velocity=0, time=4),\n",
       "    Message('note_on', channel=9, note=35, velocity=0, time=0),\n",
       "    Message('note_on', channel=9, note=53, velocity=127, time=380),\n",
       "    Message('note_on', channel=9, note=53, velocity=0, time=4),\n",
       "    Message('note_on', channel=9, note=38, velocity=127, time=380),\n",
       "    Message('note_on', channel=9, note=49, velocity=110, time=0),\n",
       "    Message('note_on', channel=9, note=49, velocity=0, time=4),\n",
       "    Message('note_on', channel=9, note=38, velocity=0, time=0),\n",
       "    Message('note_on', channel=9, note=54, velocity=127, time=0),\n",
       "    Message('note_on', channel=9, note=54, velocity=0, time=4),\n",
       "    Message('note_on', channel=9, note=45, velocity=127, time=248),\n",
       "    Message('note_on', channel=9, note=45, velocity=0, time=4),\n",
       "    Message('note_on', channel=9, note=53, velocity=127, time=124),\n",
       "    Message('note_on', channel=9, note=53, velocity=0, time=4),\n",
       "    Message('note_on', channel=9, note=41, velocity=127, time=124),\n",
       "    Message('note_on', channel=9, note=41, velocity=0, time=4),\n",
       "    Message('note_on', channel=9, note=35, velocity=116, time=124),\n",
       "    Message('note_on', channel=9, note=35, velocity=0, time=4),\n",
       "    Message('note_on', channel=9, note=35, velocity=116, time=128),\n",
       "    Message('note_on', channel=9, note=49, velocity=110, time=0),\n",
       "    Message('note_on', channel=9, note=49, velocity=0, time=4),\n",
       "    Message('note_on', channel=9, note=35, velocity=0, time=0),\n",
       "    Message('note_on', channel=9, note=53, velocity=127, time=376),\n",
       "    Message('note_on', channel=9, note=53, velocity=0, time=4),\n",
       "    Message('note_on', channel=9, note=38, velocity=127, time=380),\n",
       "    Message('note_on', channel=9, note=49, velocity=110, time=0),\n",
       "    Message('note_on', channel=9, note=49, velocity=0, time=4),\n",
       "    Message('note_on', channel=9, note=38, velocity=0, time=0),\n",
       "    Message('note_on', channel=9, note=54, velocity=127, time=0),\n",
       "    Message('note_on', channel=9, note=54, velocity=0, time=4),\n",
       "    Message('note_on', channel=9, note=53, velocity=127, time=376),\n",
       "    Message('note_on', channel=9, note=53, velocity=0, time=4),\n",
       "    Message('note_on', channel=9, note=35, velocity=116, time=252),\n",
       "    Message('note_on', channel=9, note=35, velocity=0, time=4),\n",
       "    Message('note_on', channel=9, note=35, velocity=116, time=124),\n",
       "    Message('note_on', channel=9, note=53, velocity=127, time=0),\n",
       "    Message('note_on', channel=9, note=53, velocity=0, time=4),\n",
       "    Message('note_on', channel=9, note=35, velocity=0, time=0),\n",
       "    Message('note_on', channel=9, note=53, velocity=127, time=380),\n",
       "    Message('note_on', channel=9, note=53, velocity=0, time=4),\n",
       "    Message('note_on', channel=9, note=38, velocity=127, time=380),\n",
       "    Message('note_on', channel=9, note=49, velocity=110, time=0),\n",
       "    Message('note_on', channel=9, note=49, velocity=0, time=4),\n",
       "    Message('note_on', channel=9, note=38, velocity=0, time=0),\n",
       "    Message('note_on', channel=9, note=54, velocity=127, time=0),\n",
       "    Message('note_on', channel=9, note=54, velocity=0, time=4),\n",
       "    Message('note_on', channel=9, note=45, velocity=127, time=248),\n",
       "    Message('note_on', channel=9, note=45, velocity=0, time=4),\n",
       "    Message('note_on', channel=9, note=53, velocity=127, time=124),\n",
       "    Message('note_on', channel=9, note=53, velocity=0, time=4),\n",
       "    Message('note_on', channel=9, note=41, velocity=127, time=124),\n",
       "    Message('note_on', channel=9, note=41, velocity=0, time=4),\n",
       "    Message('note_on', channel=9, note=35, velocity=116, time=124),\n",
       "    Message('note_on', channel=9, note=35, velocity=0, time=4),\n",
       "    Message('note_on', channel=9, note=49, velocity=110, time=128),\n",
       "    Message('note_on', channel=9, note=35, velocity=116, time=0),\n",
       "    Message('note_on', channel=9, note=35, velocity=0, time=4),\n",
       "    Message('note_on', channel=9, note=49, velocity=0, time=0),\n",
       "    Message('note_on', channel=9, note=53, velocity=127, time=376),\n",
       "    Message('note_on', channel=9, note=53, velocity=0, time=4),\n",
       "    Message('note_on', channel=9, note=35, velocity=116, time=252),\n",
       "    Message('note_on', channel=9, note=35, velocity=0, time=4),\n",
       "    Message('note_on', channel=9, note=53, velocity=127, time=124),\n",
       "    Message('note_on', channel=9, note=53, velocity=0, time=4),\n",
       "    Message('note_on', channel=9, note=35, velocity=116, time=252),\n",
       "    Message('note_on', channel=9, note=35, velocity=0, time=4),\n",
       "    Message('note_on', channel=9, note=38, velocity=127, time=124),\n",
       "    Message('note_on', channel=9, note=49, velocity=110, time=0),\n",
       "    Message('note_on', channel=9, note=49, velocity=0, time=4),\n",
       "    Message('note_on', channel=9, note=38, velocity=0, time=0),\n",
       "    Message('note_on', channel=9, note=54, velocity=127, time=0),\n",
       "    Message('note_on', channel=9, note=54, velocity=0, time=4),\n",
       "    Message('note_on', channel=9, note=35, velocity=116, time=376),\n",
       "    Message('note_on', channel=9, note=38, velocity=47, time=0),\n",
       "    Message('note_on', channel=9, note=38, velocity=0, time=4),\n",
       "    Message('note_on', channel=9, note=35, velocity=0, time=0),\n",
       "    Message('note_on', channel=9, note=38, velocity=47, time=124),\n",
       "    Message('note_on', channel=9, note=38, velocity=0, time=4),\n",
       "    Message('note_on', channel=9, note=38, velocity=47, time=124),\n",
       "    Message('note_on', channel=9, note=38, velocity=0, time=4),\n",
       "    Message('note_on', channel=9, note=38, velocity=47, time=124),\n",
       "    Message('note_on', channel=9, note=38, velocity=0, time=4),\n",
       "    Message('note_on', channel=9, note=38, velocity=47, time=124),\n",
       "    Message('note_on', channel=9, note=38, velocity=0, time=4),\n",
       "    Message('note_on', channel=9, note=38, velocity=47, time=124),\n",
       "    Message('note_on', channel=9, note=38, velocity=0, time=4),\n",
       "    Message('note_on', channel=9, note=38, velocity=63, time=124),\n",
       "    Message('note_on', channel=9, note=38, velocity=0, time=4),\n",
       "    Message('note_on', channel=9, note=38, velocity=79, time=124),\n",
       "    Message('note_on', channel=9, note=38, velocity=0, time=4),\n",
       "    Message('note_on', channel=9, note=38, velocity=95, time=124),\n",
       "    Message('note_on', channel=9, note=38, velocity=0, time=4),\n",
       "    Message('note_on', channel=9, note=38, velocity=111, time=124),\n",
       "    Message('note_on', channel=9, note=38, velocity=0, time=4),\n",
       "    Message('note_on', channel=9, note=38, velocity=127, time=124),\n",
       "    Message('note_on', channel=9, note=38, velocity=0, time=4),\n",
       "    Message('note_on', channel=9, note=38, velocity=127, time=124),\n",
       "    Message('note_on', channel=9, note=38, velocity=0, time=4),\n",
       "    Message('note_on', channel=9, note=35, velocity=116, time=128),\n",
       "    Message('note_on', channel=9, note=49, velocity=110, time=0),\n",
       "    Message('note_on', channel=9, note=49, velocity=0, time=4),\n",
       "    Message('note_on', channel=9, note=35, velocity=0, time=0),\n",
       "    Message('note_on', channel=9, note=38, velocity=127, time=376),\n",
       "    Message('note_on', channel=9, note=51, velocity=127, time=0),\n",
       "    Message('note_on', channel=9, note=51, velocity=0, time=4),\n",
       "    Message('note_on', channel=9, note=38, velocity=0, time=0),\n",
       "    Message('note_on', channel=9, note=35, velocity=116, time=252),\n",
       "    Message('note_on', channel=9, note=35, velocity=0, time=4),\n",
       "    Message('note_on', channel=9, note=51, velocity=127, time=124),\n",
       "    Message('note_on', channel=9, note=51, velocity=0, time=4),\n",
       "    Message('note_on', channel=9, note=35, velocity=116, time=252),\n",
       "    Message('note_on', channel=9, note=35, velocity=0, time=4),\n",
       "    Message('note_on', channel=9, note=51, velocity=127, time=124),\n",
       "    Message('note_on', channel=9, note=38, velocity=127, time=0),\n",
       "    Message('note_on', channel=9, note=38, velocity=0, time=4),\n",
       "    Message('note_on', channel=9, note=51, velocity=0, time=0),\n",
       "    Message('note_on', channel=9, note=35, velocity=116, time=384),\n",
       "    Message('note_on', channel=9, note=51, velocity=127, time=0),\n",
       "    Message('note_on', channel=9, note=51, velocity=0, time=4),\n",
       "    Message('note_on', channel=9, note=35, velocity=0, time=0),\n",
       "    Message('note_on', channel=9, note=38, velocity=127, time=376),\n",
       "    Message('note_on', channel=9, note=51, velocity=127, time=0),\n",
       "    Message('note_on', channel=9, note=51, velocity=0, time=4),\n",
       "    Message('note_on', channel=9, note=38, velocity=0, time=0),\n",
       "    Message('note_on', channel=9, note=35, velocity=116, time=252),\n",
       "    Message('note_on', channel=9, note=35, velocity=0, time=4),\n",
       "    Message('note_on', channel=9, note=51, velocity=127, time=124),\n",
       "    Message('note_on', channel=9, note=51, velocity=0, time=4),\n",
       "    Message('note_on', channel=9, note=35, velocity=116, time=252),\n",
       "    Message('note_on', channel=9, note=35, velocity=0, time=4),\n",
       "    Message('note_on', channel=9, note=38, velocity=127, time=124),\n",
       "    Message('note_on', channel=9, note=51, velocity=127, time=0),\n",
       "    Message('note_on', channel=9, note=51, velocity=0, time=4),\n",
       "    Message('note_on', channel=9, note=38, velocity=0, time=0),\n",
       "    Message('note_on', channel=9, note=35, velocity=116, time=384),\n",
       "    Message('note_on', channel=9, note=51, velocity=127, time=0),\n",
       "    Message('note_on', channel=9, note=51, velocity=0, time=4),\n",
       "    Message('note_on', channel=9, note=35, velocity=0, time=0),\n",
       "    Message('note_on', channel=9, note=38, velocity=127, time=376),\n",
       "    Message('note_on', channel=9, note=51, velocity=127, time=0),\n",
       "    Message('note_on', channel=9, note=51, velocity=0, time=4),\n",
       "    Message('note_on', channel=9, note=38, velocity=0, time=0),\n",
       "    Message('note_on', channel=9, note=35, velocity=116, time=252),\n",
       "    Message('note_on', channel=9, note=35, velocity=0, time=4),\n",
       "    Message('note_on', channel=9, note=51, velocity=127, time=124),\n",
       "    Message('note_on', channel=9, note=51, velocity=0, time=4),\n",
       "    Message('note_on', channel=9, note=35, velocity=116, time=252),\n",
       "    Message('note_on', channel=9, note=35, velocity=0, time=4),\n",
       "    Message('note_on', channel=9, note=38, velocity=127, time=124),\n",
       "    Message('note_on', channel=9, note=51, velocity=127, time=0),\n",
       "    Message('note_on', channel=9, note=51, velocity=0, time=4),\n",
       "    Message('note_on', channel=9, note=38, velocity=0, time=0),\n",
       "    Message('note_on', channel=9, note=35, velocity=116, time=384),\n",
       "    Message('note_on', channel=9, note=51, velocity=127, time=0),\n",
       "    Message('note_on', channel=9, note=51, velocity=0, time=4),\n",
       "    Message('note_on', channel=9, note=35, velocity=0, time=0),\n",
       "    Message('note_on', channel=9, note=38, velocity=127, time=376),\n",
       "    Message('note_on', channel=9, note=51, velocity=127, time=0),\n",
       "    Message('note_on', channel=9, note=51, velocity=0, time=4),\n",
       "    Message('note_on', channel=9, note=38, velocity=0, time=0),\n",
       "    Message('note_on', channel=9, note=35, velocity=116, time=252),\n",
       "    Message('note_on', channel=9, note=35, velocity=0, time=4),\n",
       "    Message('note_on', channel=9, note=51, velocity=127, time=124),\n",
       "    Message('note_on', channel=9, note=51, velocity=0, time=4),\n",
       "    Message('note_on', channel=9, note=35, velocity=116, time=252),\n",
       "    Message('note_on', channel=9, note=35, velocity=0, time=4),\n",
       "    Message('note_on', channel=9, note=38, velocity=127, time=124),\n",
       "    Message('note_on', channel=9, note=51, velocity=127, time=0),\n",
       "    Message('note_on', channel=9, note=51, velocity=0, time=4),\n",
       "    Message('note_on', channel=9, note=38, velocity=0, time=0),\n",
       "    Message('note_on', channel=9, note=35, velocity=116, time=384),\n",
       "    Message('note_on', channel=9, note=51, velocity=127, time=0),\n",
       "    Message('note_on', channel=9, note=51, velocity=0, time=4),\n",
       "    Message('note_on', channel=9, note=35, velocity=0, time=0),\n",
       "    Message('note_on', channel=9, note=38, velocity=127, time=376),\n",
       "    Message('note_on', channel=9, note=51, velocity=127, time=0),\n",
       "    Message('note_on', channel=9, note=51, velocity=0, time=4),\n",
       "    Message('note_on', channel=9, note=38, velocity=0, time=0),\n",
       "    Message('note_on', channel=9, note=35, velocity=116, time=252),\n",
       "    Message('note_on', channel=9, note=35, velocity=0, time=4),\n",
       "    Message('note_on', channel=9, note=51, velocity=127, time=124),\n",
       "    Message('note_on', channel=9, note=51, velocity=0, time=4),\n",
       "    Message('note_on', channel=9, note=35, velocity=116, time=252),\n",
       "    Message('note_on', channel=9, note=35, velocity=0, time=4),\n",
       "    Message('note_on', channel=9, note=38, velocity=127, time=124),\n",
       "    Message('note_on', channel=9, note=51, velocity=127, time=0),\n",
       "    Message('note_on', channel=9, note=51, velocity=0, time=4),\n",
       "    Message('note_on', channel=9, note=38, velocity=0, time=0),\n",
       "    Message('note_on', channel=9, note=35, velocity=116, time=384),\n",
       "    Message('note_on', channel=9, note=51, velocity=127, time=0),\n",
       "    Message('note_on', channel=9, note=51, velocity=0, time=4),\n",
       "    Message('note_on', channel=9, note=35, velocity=0, time=0),\n",
       "    Message('note_on', channel=9, note=38, velocity=127, time=376),\n",
       "    Message('note_on', channel=9, note=51, velocity=127, time=0),\n",
       "    Message('note_on', channel=9, note=51, velocity=0, time=4),\n",
       "    Message('note_on', channel=9, note=38, velocity=0, time=0),\n",
       "    Message('note_on', channel=9, note=35, velocity=116, time=380),\n",
       "    Message('note_on', channel=9, note=51, velocity=127, time=0),\n",
       "    Message('note_on', channel=9, note=51, velocity=0, time=4),\n",
       "    Message('note_on', channel=9, note=35, velocity=0, time=0),\n",
       "    Message('note_on', channel=9, note=38, velocity=127, time=380),\n",
       "    Message('note_on', channel=9, note=51, velocity=127, time=0),\n",
       "    Message('note_on', channel=9, note=51, velocity=0, time=4),\n",
       "    Message('note_on', channel=9, note=38, velocity=0, time=0),\n",
       "    Message('note_on', channel=9, note=35, velocity=116, time=384),\n",
       "    Message('note_on', channel=9, note=51, velocity=127, time=0),\n",
       "    Message('note_on', channel=9, note=51, velocity=0, time=4),\n",
       "    Message('note_on', channel=9, note=35, velocity=0, time=0),\n",
       "    Message('note_on', channel=9, note=39, velocity=107, time=248),\n",
       "    Message('note_on', channel=9, note=39, velocity=0, time=4),\n",
       "    Message('note_on', channel=9, note=38, velocity=127, time=124),\n",
       "    Message('note_on', channel=9, note=38, velocity=0, time=4),\n",
       "    Message('note_on', channel=9, note=39, velocity=107, time=0),\n",
       "    Message('note_on', channel=9, note=51, velocity=127, time=0),\n",
       "    Message('note_on', channel=9, note=51, velocity=0, time=4),\n",
       "    Message('note_on', channel=9, note=39, velocity=0, time=0),\n",
       "    Message('note_on', channel=9, note=35, velocity=116, time=376),\n",
       "    Message('note_on', channel=9, note=51, velocity=127, time=0),\n",
       "    Message('note_on', channel=9, note=51, velocity=0, time=4),\n",
       "    Message('note_on', channel=9, note=35, velocity=0, time=0),\n",
       "    Message('note_on', channel=9, note=38, velocity=127, time=380),\n",
       "    Message('note_on', channel=9, note=38, velocity=0, time=4),\n",
       "    Message('note_on', channel=9, note=51, velocity=127, time=0),\n",
       "    Message('note_on', channel=9, note=51, velocity=0, time=4),\n",
       "    Message('note_on', channel=9, note=38, velocity=127, time=248),\n",
       "    Message('note_on', channel=9, note=38, velocity=0, time=4),\n",
       "    Message('note_on', channel=9, note=35, velocity=116, time=128),\n",
       "    Message('note_on', channel=9, note=51, velocity=127, time=0),\n",
       "    Message('note_on', channel=9, note=51, velocity=0, time=4),\n",
       "    Message('note_on', channel=9, note=35, velocity=0, time=0),\n",
       "    Message('note_on', channel=9, note=39, velocity=107, time=248),\n",
       "    Message('note_on', channel=9, note=39, velocity=0, time=4),\n",
       "    Message('note_on', channel=9, note=38, velocity=127, time=124),\n",
       "    Message('note_on', channel=9, note=38, velocity=0, time=4),\n",
       "    Message('note_on', channel=9, note=39, velocity=107, time=0),\n",
       "    Message('note_on', channel=9, note=51, velocity=127, time=0),\n",
       "    Message('note_on', channel=9, note=51, velocity=0, time=4),\n",
       "    Message('note_on', channel=9, note=39, velocity=0, time=0),\n",
       "    Message('note_on', channel=9, note=35, velocity=116, time=376),\n",
       "    Message('note_on', channel=9, note=51, velocity=127, time=0),\n",
       "    Message('note_on', channel=9, note=51, velocity=0, time=4),\n",
       "    Message('note_on', channel=9, note=35, velocity=0, time=0),\n",
       "    Message('note_on', channel=9, note=38, velocity=127, time=380),\n",
       "    Message('note_on', channel=9, note=38, velocity=0, time=4),\n",
       "    Message('note_on', channel=9, note=51, velocity=127, time=0),\n",
       "    Message('note_on', channel=9, note=51, velocity=0, time=4),\n",
       "    Message('note_on', channel=9, note=38, velocity=127, time=248),\n",
       "    Message('note_on', channel=9, note=38, velocity=0, time=4),\n",
       "    Message('note_on', channel=9, note=35, velocity=116, time=128),\n",
       "    Message('note_on', channel=9, note=51, velocity=127, time=0),\n",
       "    Message('note_on', channel=9, note=51, velocity=0, time=4),\n",
       "    Message('note_on', channel=9, note=35, velocity=0, time=0),\n",
       "    Message('note_on', channel=9, note=39, velocity=107, time=248),\n",
       "    Message('note_on', channel=9, note=39, velocity=0, time=4),\n",
       "    Message('note_on', channel=9, note=38, velocity=127, time=124),\n",
       "    Message('note_on', channel=9, note=38, velocity=0, time=4),\n",
       "    Message('note_on', channel=9, note=51, velocity=127, time=0),\n",
       "    Message('note_on', channel=9, note=39, velocity=107, time=0),\n",
       "    Message('note_on', channel=9, note=39, velocity=0, time=4),\n",
       "    Message('note_on', channel=9, note=51, velocity=0, time=0),\n",
       "    Message('note_on', channel=9, note=35, velocity=116, time=376),\n",
       "    Message('note_on', channel=9, note=51, velocity=127, time=0),\n",
       "    Message('note_on', channel=9, note=51, velocity=0, time=4),\n",
       "    Message('note_on', channel=9, note=35, velocity=0, time=0),\n",
       "    Message('note_on', channel=9, note=38, velocity=127, time=380),\n",
       "    Message('note_on', channel=9, note=38, velocity=0, time=4),\n",
       "    Message('note_on', channel=9, note=51, velocity=127, time=0),\n",
       "    Message('note_on', channel=9, note=51, velocity=0, time=4),\n",
       "    Message('note_on', channel=9, note=38, velocity=127, time=248),\n",
       "    Message('note_on', channel=9, note=38, velocity=0, time=4),\n",
       "    Message('note_on', channel=9, note=35, velocity=116, time=128),\n",
       "    Message('note_on', channel=9, note=51, velocity=127, time=0),\n",
       "    Message('note_on', channel=9, note=51, velocity=0, time=4),\n",
       "    Message('note_on', channel=9, note=35, velocity=0, time=0),\n",
       "    Message('note_on', channel=9, note=39, velocity=107, time=248),\n",
       "    Message('note_on', channel=9, note=39, velocity=0, time=4),\n",
       "    Message('note_on', channel=9, note=38, velocity=127, time=124),\n",
       "    Message('note_on', channel=9, note=38, velocity=0, time=4),\n",
       "    Message('note_on', channel=9, note=39, velocity=107, time=0),\n",
       "    Message('note_on', channel=9, note=51, velocity=127, time=0),\n",
       "    Message('note_on', channel=9, note=51, velocity=0, time=4),\n",
       "    Message('note_on', channel=9, note=39, velocity=0, time=0),\n",
       "    Message('note_on', channel=9, note=35, velocity=116, time=376),\n",
       "    Message('note_on', channel=9, note=51, velocity=127, time=0),\n",
       "    Message('note_on', channel=9, note=51, velocity=0, time=4),\n",
       "    Message('note_on', channel=9, note=35, velocity=0, time=0),\n",
       "    Message('note_on', channel=9, note=38, velocity=127, time=380),\n",
       "    Message('note_on', channel=9, note=38, velocity=0, time=4),\n",
       "    Message('note_on', channel=9, note=51, velocity=127, time=0),\n",
       "    Message('note_on', channel=9, note=51, velocity=0, time=4),\n",
       "    Message('note_on', channel=9, note=38, velocity=127, time=248),\n",
       "    Message('note_on', channel=9, note=38, velocity=0, time=4),\n",
       "    Message('note_on', channel=9, note=35, velocity=116, time=128),\n",
       "    Message('note_on', channel=9, note=51, velocity=127, time=0),\n",
       "    Message('note_on', channel=9, note=51, velocity=0, time=4),\n",
       "    Message('note_on', channel=9, note=35, velocity=0, time=0),\n",
       "    Message('note_on', channel=9, note=39, velocity=107, time=248),\n",
       "    Message('note_on', channel=9, note=39, velocity=0, time=4),\n",
       "    Message('note_on', channel=9, note=38, velocity=127, time=124),\n",
       "    Message('note_on', channel=9, note=38, velocity=0, time=4),\n",
       "    Message('note_on', channel=9, note=51, velocity=127, time=0),\n",
       "    Message('note_on', channel=9, note=39, velocity=107, time=0),\n",
       "    Message('note_on', channel=9, note=39, velocity=0, time=4),\n",
       "    Message('note_on', channel=9, note=51, velocity=0, time=0),\n",
       "    Message('note_on', channel=9, note=35, velocity=116, time=376),\n",
       "    Message('note_on', channel=9, note=51, velocity=127, time=0),\n",
       "    Message('note_on', channel=9, note=51, velocity=0, time=4),\n",
       "    Message('note_on', channel=9, note=35, velocity=0, time=0),\n",
       "    Message('note_on', channel=9, note=38, velocity=127, time=380),\n",
       "    Message('note_on', channel=9, note=38, velocity=0, time=4),\n",
       "    Message('note_on', channel=9, note=51, velocity=127, time=0),\n",
       "    Message('note_on', channel=9, note=51, velocity=0, time=4),\n",
       "    Message('note_on', channel=9, note=38, velocity=127, time=248),\n",
       "    Message('note_on', channel=9, note=38, velocity=0, time=4),\n",
       "    Message('note_on', channel=9, note=35, velocity=116, time=128),\n",
       "    Message('note_on', channel=9, note=51, velocity=127, time=0),\n",
       "    Message('note_on', channel=9, note=51, velocity=0, time=4),\n",
       "    Message('note_on', channel=9, note=35, velocity=0, time=0),\n",
       "    Message('note_on', channel=9, note=39, velocity=107, time=248),\n",
       "    Message('note_on', channel=9, note=39, velocity=0, time=4),\n",
       "    Message('note_on', channel=9, note=38, velocity=127, time=124),\n",
       "    Message('note_on', channel=9, note=38, velocity=0, time=4),\n",
       "    Message('note_on', channel=9, note=51, velocity=127, time=0),\n",
       "    Message('note_on', channel=9, note=39, velocity=107, time=0),\n",
       "    Message('note_on', channel=9, note=39, velocity=0, time=4),\n",
       "    Message('note_on', channel=9, note=51, velocity=0, time=0),\n",
       "    Message('note_on', channel=9, note=35, velocity=116, time=376),\n",
       "    Message('note_on', channel=9, note=51, velocity=127, time=0),\n",
       "    Message('note_on', channel=9, note=51, velocity=0, time=4),\n",
       "    Message('note_on', channel=9, note=35, velocity=0, time=0),\n",
       "    Message('note_on', channel=9, note=38, velocity=127, time=380),\n",
       "    Message('note_on', channel=9, note=38, velocity=0, time=4),\n",
       "    Message('note_on', channel=9, note=51, velocity=127, time=0),\n",
       "    Message('note_on', channel=9, note=51, velocity=0, time=4),\n",
       "    Message('note_on', channel=9, note=38, velocity=127, time=248),\n",
       "    Message('note_on', channel=9, note=38, velocity=0, time=4),\n",
       "    Message('note_on', channel=9, note=35, velocity=116, time=128),\n",
       "    Message('note_on', channel=9, note=51, velocity=127, time=0),\n",
       "    Message('note_on', channel=9, note=51, velocity=0, time=4),\n",
       "    Message('note_on', channel=9, note=35, velocity=0, time=0),\n",
       "    Message('note_on', channel=9, note=39, velocity=107, time=248),\n",
       "    Message('note_on', channel=9, note=39, velocity=0, time=4),\n",
       "    Message('note_on', channel=9, note=38, velocity=127, time=124),\n",
       "    Message('note_on', channel=9, note=38, velocity=0, time=4),\n",
       "    Message('note_on', channel=9, note=39, velocity=107, time=0),\n",
       "    Message('note_on', channel=9, note=51, velocity=127, time=0),\n",
       "    Message('note_on', channel=9, note=51, velocity=0, time=4),\n",
       "    Message('note_on', channel=9, note=39, velocity=0, time=0),\n",
       "    Message('note_on', channel=9, note=35, velocity=116, time=376),\n",
       "    Message('note_on', channel=9, note=51, velocity=127, time=0),\n",
       "    Message('note_on', channel=9, note=51, velocity=0, time=4),\n",
       "    Message('note_on', channel=9, note=35, velocity=0, time=0),\n",
       "    Message('note_on', channel=9, note=38, velocity=127, time=380),\n",
       "    Message('note_on', channel=9, note=38, velocity=0, time=4),\n",
       "    Message('note_on', channel=9, note=51, velocity=127, time=0),\n",
       "    Message('note_on', channel=9, note=51, velocity=0, time=4),\n",
       "    Message('note_on', channel=9, note=38, velocity=127, time=248),\n",
       "    Message('note_on', channel=9, note=38, velocity=0, time=4),\n",
       "    Message('note_on', channel=9, note=35, velocity=116, time=128),\n",
       "    Message('note_on', channel=9, note=51, velocity=127, time=0),\n",
       "    Message('note_on', channel=9, note=51, velocity=0, time=4),\n",
       "    Message('note_on', channel=9, note=35, velocity=0, time=0),\n",
       "    Message('note_on', channel=9, note=39, velocity=107, time=248),\n",
       "    Message('note_on', channel=9, note=39, velocity=0, time=4),\n",
       "    Message('note_on', channel=9, note=38, velocity=127, time=124),\n",
       "    Message('note_on', channel=9, note=38, velocity=0, time=4),\n",
       "    Message('note_on', channel=9, note=51, velocity=127, time=0),\n",
       "    Message('note_on', channel=9, note=39, velocity=107, time=0),\n",
       "    Message('note_on', channel=9, note=39, velocity=0, time=4),\n",
       "    Message('note_on', channel=9, note=51, velocity=0, time=0),\n",
       "    Message('note_on', channel=9, note=35, velocity=116, time=376),\n",
       "    Message('note_on', channel=9, note=51, velocity=127, time=0),\n",
       "    Message('note_on', channel=9, note=51, velocity=0, time=4),\n",
       "    Message('note_on', channel=9, note=35, velocity=0, time=0),\n",
       "    Message('note_on', channel=9, note=38, velocity=127, time=380),\n",
       "    Message('note_on', channel=9, note=38, velocity=0, time=4),\n",
       "    Message('note_on', channel=9, note=51, velocity=127, time=0),\n",
       "    Message('note_on', channel=9, note=51, velocity=0, time=4),\n",
       "    Message('note_on', channel=9, note=38, velocity=127, time=248),\n",
       "    Message('note_on', channel=9, note=38, velocity=0, time=4),\n",
       "    Message('note_on', channel=9, note=35, velocity=116, time=128),\n",
       "    Message('note_on', channel=9, note=51, velocity=127, time=0),\n",
       "    Message('note_on', channel=9, note=51, velocity=0, time=4),\n",
       "    Message('note_on', channel=9, note=35, velocity=0, time=0),\n",
       "    Message('note_on', channel=9, note=39, velocity=107, time=248),\n",
       "    Message('note_on', channel=9, note=39, velocity=0, time=4),\n",
       "    Message('note_on', channel=9, note=38, velocity=127, time=124),\n",
       "    Message('note_on', channel=9, note=51, velocity=127, time=0),\n",
       "    Message('note_on', channel=9, note=51, velocity=0, time=4),\n",
       "    Message('note_on', channel=9, note=38, velocity=0, time=0),\n",
       "    Message('note_on', channel=9, note=39, velocity=107, time=0),\n",
       "    Message('note_on', channel=9, note=39, velocity=0, time=4),\n",
       "    Message('note_on', channel=9, note=35, velocity=116, time=376),\n",
       "    Message('note_on', channel=9, note=51, velocity=127, time=0),\n",
       "    Message('note_on', channel=9, note=51, velocity=0, time=4),\n",
       "    Message('note_on', channel=9, note=35, velocity=0, time=0),\n",
       "    Message('note_on', channel=9, note=38, velocity=127, time=380),\n",
       "    Message('note_on', channel=9, note=38, velocity=0, time=4),\n",
       "    Message('note_on', channel=9, note=51, velocity=127, time=0),\n",
       "    Message('note_on', channel=9, note=51, velocity=0, time=4),\n",
       "    Message('note_on', channel=9, note=38, velocity=127, time=248),\n",
       "    Message('note_on', channel=9, note=38, velocity=0, time=4),\n",
       "    Message('note_on', channel=9, note=35, velocity=116, time=128),\n",
       "    Message('note_on', channel=9, note=51, velocity=127, time=0),\n",
       "    Message('note_on', channel=9, note=51, velocity=0, time=4),\n",
       "    Message('note_on', channel=9, note=35, velocity=0, time=0),\n",
       "    Message('note_on', channel=9, note=39, velocity=107, time=248),\n",
       "    Message('note_on', channel=9, note=39, velocity=0, time=4),\n",
       "    Message('note_on', channel=9, note=38, velocity=127, time=124),\n",
       "    Message('note_on', channel=9, note=38, velocity=0, time=4),\n",
       "    Message('note_on', channel=9, note=39, velocity=107, time=0),\n",
       "    Message('note_on', channel=9, note=51, velocity=127, time=0),\n",
       "    Message('note_on', channel=9, note=51, velocity=0, time=4),\n",
       "    Message('note_on', channel=9, note=39, velocity=0, time=0),\n",
       "    Message('note_on', channel=9, note=35, velocity=116, time=376),\n",
       "    Message('note_on', channel=9, note=51, velocity=127, time=0),\n",
       "    Message('note_on', channel=9, note=51, velocity=0, time=4),\n",
       "    Message('note_on', channel=9, note=35, velocity=0, time=0),\n",
       "    Message('note_on', channel=9, note=38, velocity=127, time=380),\n",
       "    Message('note_on', channel=9, note=38, velocity=0, time=4),\n",
       "    Message('note_on', channel=9, note=51, velocity=127, time=0),\n",
       "    Message('note_on', channel=9, note=51, velocity=0, time=4),\n",
       "    Message('note_on', channel=9, note=38, velocity=127, time=248),\n",
       "    Message('note_on', channel=9, note=38, velocity=0, time=4),\n",
       "    Message('note_on', channel=9, note=35, velocity=116, time=128),\n",
       "    Message('note_on', channel=9, note=51, velocity=127, time=0),\n",
       "    Message('note_on', channel=9, note=51, velocity=0, time=4),\n",
       "    Message('note_on', channel=9, note=35, velocity=0, time=0),\n",
       "    Message('note_on', channel=9, note=39, velocity=107, time=248),\n",
       "    Message('note_on', channel=9, note=39, velocity=0, time=4),\n",
       "    Message('note_on', channel=9, note=38, velocity=127, time=124),\n",
       "    Message('note_on', channel=9, note=38, velocity=0, time=4),\n",
       "    Message('note_on', channel=9, note=51, velocity=127, time=0),\n",
       "    Message('note_on', channel=9, note=39, velocity=107, time=0),\n",
       "    Message('note_on', channel=9, note=39, velocity=0, time=4),\n",
       "    Message('note_on', channel=9, note=51, velocity=0, time=0),\n",
       "    Message('note_on', channel=9, note=35, velocity=116, time=376),\n",
       "    Message('note_on', channel=9, note=51, velocity=127, time=0),\n",
       "    Message('note_on', channel=9, note=51, velocity=0, time=4),\n",
       "    Message('note_on', channel=9, note=35, velocity=0, time=0),\n",
       "    Message('note_on', channel=9, note=38, velocity=127, time=380),\n",
       "    Message('note_on', channel=9, note=38, velocity=0, time=4),\n",
       "    Message('note_on', channel=9, note=51, velocity=127, time=0),\n",
       "    Message('note_on', channel=9, note=51, velocity=0, time=4),\n",
       "    Message('note_on', channel=9, note=38, velocity=127, time=248),\n",
       "    Message('note_on', channel=9, note=38, velocity=0, time=4),\n",
       "    Message('note_on', channel=9, note=35, velocity=116, time=128),\n",
       "    Message('note_on', channel=9, note=51, velocity=127, time=0),\n",
       "    Message('note_on', channel=9, note=51, velocity=0, time=4),\n",
       "    Message('note_on', channel=9, note=35, velocity=0, time=0),\n",
       "    Message('note_on', channel=9, note=39, velocity=107, time=248),\n",
       "    Message('note_on', channel=9, note=39, velocity=0, time=4),\n",
       "    Message('note_on', channel=9, note=38, velocity=127, time=124),\n",
       "    Message('note_on', channel=9, note=38, velocity=0, time=4),\n",
       "    Message('note_on', channel=9, note=51, velocity=127, time=0),\n",
       "    Message('note_on', channel=9, note=39, velocity=107, time=0),\n",
       "    Message('note_on', channel=9, note=39, velocity=0, time=4),\n",
       "    Message('note_on', channel=9, note=51, velocity=0, time=0),\n",
       "    Message('note_on', channel=9, note=35, velocity=116, time=376),\n",
       "    Message('note_on', channel=9, note=51, velocity=127, time=0),\n",
       "    Message('note_on', channel=9, note=51, velocity=0, time=4),\n",
       "    Message('note_on', channel=9, note=35, velocity=0, time=0),\n",
       "    Message('note_on', channel=9, note=38, velocity=127, time=380),\n",
       "    Message('note_on', channel=9, note=38, velocity=0, time=4),\n",
       "    Message('note_on', channel=9, note=51, velocity=127, time=0),\n",
       "    Message('note_on', channel=9, note=51, velocity=0, time=4),\n",
       "    Message('note_on', channel=9, note=38, velocity=127, time=248),\n",
       "    Message('note_on', channel=9, note=38, velocity=0, time=4),\n",
       "    Message('note_on', channel=9, note=35, velocity=116, time=128),\n",
       "    Message('note_on', channel=9, note=51, velocity=127, time=0),\n",
       "    Message('note_on', channel=9, note=51, velocity=0, time=4),\n",
       "    Message('note_on', channel=9, note=35, velocity=0, time=0),\n",
       "    Message('note_on', channel=9, note=39, velocity=107, time=248),\n",
       "    Message('note_on', channel=9, note=39, velocity=0, time=4),\n",
       "    Message('note_on', channel=9, note=38, velocity=127, time=124),\n",
       "    Message('note_on', channel=9, note=38, velocity=0, time=4),\n",
       "    Message('note_on', channel=9, note=51, velocity=127, time=0),\n",
       "    Message('note_on', channel=9, note=39, velocity=107, time=0),\n",
       "    Message('note_on', channel=9, note=39, velocity=0, time=4),\n",
       "    Message('note_on', channel=9, note=51, velocity=0, time=0),\n",
       "    Message('note_on', channel=9, note=35, velocity=116, time=376),\n",
       "    Message('note_on', channel=9, note=51, velocity=127, time=0),\n",
       "    Message('note_on', channel=9, note=51, velocity=0, time=4),\n",
       "    Message('note_on', channel=9, note=35, velocity=0, time=0),\n",
       "    Message('note_on', channel=9, note=38, velocity=127, time=380),\n",
       "    Message('note_on', channel=9, note=38, velocity=0, time=4),\n",
       "    Message('note_on', channel=9, note=51, velocity=127, time=0),\n",
       "    Message('note_on', channel=9, note=51, velocity=0, time=4),\n",
       "    Message('note_on', channel=9, note=38, velocity=127, time=248),\n",
       "    Message('note_on', channel=9, note=38, velocity=0, time=4),\n",
       "    Message('note_on', channel=9, note=35, velocity=116, time=128),\n",
       "    Message('note_on', channel=9, note=51, velocity=127, time=0),\n",
       "    Message('note_on', channel=9, note=51, velocity=0, time=4),\n",
       "    Message('note_on', channel=9, note=35, velocity=0, time=0),\n",
       "    Message('note_on', channel=9, note=39, velocity=107, time=248),\n",
       "    Message('note_on', channel=9, note=39, velocity=0, time=4),\n",
       "    Message('note_on', channel=9, note=38, velocity=127, time=124),\n",
       "    Message('note_on', channel=9, note=38, velocity=0, time=4),\n",
       "    Message('note_on', channel=9, note=51, velocity=127, time=0),\n",
       "    Message('note_on', channel=9, note=39, velocity=107, time=0),\n",
       "    Message('note_on', channel=9, note=39, velocity=0, time=4),\n",
       "    Message('note_on', channel=9, note=51, velocity=0, time=0),\n",
       "    Message('note_on', channel=9, note=35, velocity=116, time=376),\n",
       "    Message('note_on', channel=9, note=51, velocity=127, time=0),\n",
       "    Message('note_on', channel=9, note=51, velocity=0, time=4),\n",
       "    Message('note_on', channel=9, note=35, velocity=0, time=0),\n",
       "    Message('note_on', channel=9, note=38, velocity=127, time=380),\n",
       "    Message('note_on', channel=9, note=38, velocity=0, time=4),\n",
       "    Message('note_on', channel=9, note=51, velocity=127, time=0),\n",
       "    Message('note_on', channel=9, note=51, velocity=0, time=4),\n",
       "    Message('note_on', channel=9, note=38, velocity=127, time=248),\n",
       "    Message('note_on', channel=9, note=38, velocity=0, time=4),\n",
       "    Message('note_on', channel=9, note=35, velocity=116, time=128),\n",
       "    Message('note_on', channel=9, note=51, velocity=127, time=0),\n",
       "    Message('note_on', channel=9, note=51, velocity=0, time=4),\n",
       "    Message('note_on', channel=9, note=35, velocity=0, time=0),\n",
       "    Message('note_on', channel=9, note=39, velocity=107, time=248),\n",
       "    Message('note_on', channel=9, note=39, velocity=0, time=4),\n",
       "    Message('note_on', channel=9, note=38, velocity=127, time=124),\n",
       "    Message('note_on', channel=9, note=38, velocity=0, time=4),\n",
       "    Message('note_on', channel=9, note=51, velocity=127, time=0),\n",
       "    Message('note_on', channel=9, note=39, velocity=107, time=0),\n",
       "    Message('note_on', channel=9, note=39, velocity=0, time=4),\n",
       "    Message('note_on', channel=9, note=51, velocity=0, time=0),\n",
       "    Message('note_on', channel=9, note=35, velocity=116, time=376),\n",
       "    Message('note_on', channel=9, note=51, velocity=127, time=0),\n",
       "    Message('note_on', channel=9, note=51, velocity=0, time=4),\n",
       "    Message('note_on', channel=9, note=35, velocity=0, time=0),\n",
       "    Message('note_on', channel=9, note=38, velocity=127, time=380),\n",
       "    Message('note_on', channel=9, note=38, velocity=0, time=4),\n",
       "    Message('note_on', channel=9, note=51, velocity=127, time=0),\n",
       "    Message('note_on', channel=9, note=51, velocity=0, time=4),\n",
       "    Message('note_on', channel=9, note=38, velocity=127, time=248),\n",
       "    Message('note_on', channel=9, note=38, velocity=0, time=4),\n",
       "    Message('note_on', channel=9, note=35, velocity=116, time=128),\n",
       "    Message('note_on', channel=9, note=39, velocity=107, time=0),\n",
       "    Message('note_on', channel=9, note=38, velocity=127, time=0),\n",
       "    Message('note_on', channel=9, note=38, velocity=0, time=4),\n",
       "    Message('note_on', channel=9, note=39, velocity=0, time=0),\n",
       "    Message('note_on', channel=9, note=35, velocity=0, time=0),\n",
       "    MetaMessage('end_of_track', time=0)])\n",
       "])"
      ]
     },
     "execution_count": 29,
     "metadata": {},
     "output_type": "execute_result"
    }
   ],
   "source": [
    "first_track"
   ]
  },
  {
   "cell_type": "code",
   "execution_count": 30,
   "id": "3241b88e-1ef5-4581-a98a-58ffe9d2f031",
   "metadata": {},
   "outputs": [
    {
     "name": "stdout",
     "output_type": "stream",
     "text": [
      "<class 'music21.stream.base.Score'>\n"
     ]
    }
   ],
   "source": [
    "#Exploration of our first file in music21 stream format\n",
    "first_track_music21 = all_midis[0]\n",
    "print(type(first_track_music21))"
   ]
  },
  {
   "cell_type": "code",
   "execution_count": 58,
   "id": "c126ad9b-71b3-4882-b815-6014e900909a",
   "metadata": {},
   "outputs": [],
   "source": [
    "last_track_music21 = all_midis[-1]"
   ]
  },
  {
   "cell_type": "code",
   "execution_count": 33,
   "id": "eee4713d-d860-4353-a571-9466edd0277a",
   "metadata": {},
   "outputs": [
    {
     "name": "stdout",
     "output_type": "stream",
     "text": [
      "Part: 139740334612416\n",
      "<music21.stream.Measure 1 offset=0.0>\n",
      "<music21.stream.Measure 2 offset=4.0>\n",
      "<music21.stream.Measure 3 offset=8.0>\n",
      "<music21.stream.Measure 4 offset=12.0>\n",
      "<music21.stream.Measure 5 offset=16.0>\n",
      "<music21.stream.Measure 6 offset=20.0>\n",
      "<music21.stream.Measure 7 offset=24.0>\n",
      "<music21.stream.Measure 8 offset=28.0>\n",
      "<music21.stream.Measure 9 offset=32.0>\n",
      "<music21.stream.Measure 10 offset=36.0>\n",
      "<music21.stream.Measure 11 offset=40.0>\n",
      "<music21.stream.Measure 12 offset=44.0>\n",
      "<music21.stream.Measure 13 offset=48.0>\n",
      "<music21.stream.Measure 14 offset=52.0>\n",
      "<music21.stream.Measure 15 offset=56.0>\n",
      "<music21.stream.Measure 16 offset=60.0>\n",
      "<music21.stream.Measure 17 offset=64.0>\n",
      "<music21.stream.Measure 18 offset=68.0>\n",
      "<music21.stream.Measure 19 offset=72.0>\n",
      "<music21.stream.Measure 20 offset=76.0>\n",
      "<music21.stream.Measure 21 offset=80.0>\n",
      "<music21.stream.Measure 22 offset=84.0>\n",
      "<music21.stream.Measure 23 offset=88.0>\n",
      "<music21.stream.Measure 24 offset=92.0>\n",
      "<music21.stream.Measure 25 offset=96.0>\n",
      "<music21.stream.Measure 26 offset=100.0>\n",
      "<music21.stream.Measure 27 offset=104.0>\n",
      "<music21.stream.Measure 28 offset=108.0>\n",
      "<music21.stream.Measure 29 offset=112.0>\n",
      "<music21.stream.Measure 30 offset=116.0>\n",
      "<music21.stream.Measure 31 offset=120.0>\n",
      "<music21.stream.Measure 32 offset=124.0>\n",
      "<music21.stream.Measure 33 offset=128.0>\n",
      "<music21.stream.Measure 34 offset=132.0>\n",
      "<music21.stream.Measure 35 offset=136.0>\n",
      "<music21.stream.Measure 36 offset=140.0>\n",
      "<music21.stream.Measure 37 offset=144.0>\n",
      "<music21.stream.Measure 38 offset=148.0>\n",
      "<music21.stream.Measure 39 offset=152.0>\n",
      "<music21.stream.Measure 40 offset=156.0>\n",
      "<music21.stream.Measure 41 offset=160.0>\n",
      "<music21.stream.Measure 42 offset=164.0>\n",
      "<music21.stream.Measure 43 offset=168.0>\n",
      "<music21.stream.Measure 44 offset=172.0>\n",
      "<music21.stream.Measure 45 offset=176.0>\n",
      "<music21.stream.Measure 46 offset=180.0>\n",
      "<music21.stream.Measure 47 offset=184.0>\n",
      "<music21.stream.Measure 48 offset=188.0>\n",
      "<music21.stream.Measure 49 offset=192.0>\n",
      "<music21.stream.Measure 50 offset=196.0>\n",
      "<music21.stream.Measure 51 offset=200.0>\n",
      "<music21.stream.Measure 52 offset=204.0>\n",
      "<music21.stream.Measure 53 offset=208.0>\n",
      "<music21.stream.Measure 54 offset=212.0>\n",
      "<music21.stream.Measure 55 offset=216.0>\n",
      "<music21.stream.Measure 56 offset=220.0>\n",
      "<music21.stream.Measure 57 offset=224.0>\n",
      "<music21.stream.Measure 58 offset=228.0>\n",
      "<music21.stream.Measure 59 offset=232.0>\n",
      "<music21.stream.Measure 60 offset=236.0>\n",
      "<music21.stream.Measure 61 offset=240.0>\n",
      "<music21.stream.Measure 62 offset=244.0>\n",
      "<music21.stream.Measure 63 offset=248.0>\n",
      "<music21.stream.Measure 64 offset=252.0>\n",
      "<music21.stream.Measure 65 offset=256.0>\n",
      "<music21.stream.Measure 66 offset=260.0>\n",
      "<music21.stream.Measure 67 offset=264.0>\n",
      "<music21.stream.Measure 68 offset=268.0>\n",
      "<music21.stream.Measure 69 offset=272.0>\n",
      "<music21.stream.Measure 70 offset=276.0>\n",
      "<music21.stream.Measure 71 offset=280.0>\n",
      "<music21.stream.Measure 72 offset=284.0>\n",
      "<music21.stream.Measure 73 offset=288.0>\n",
      "<music21.stream.Measure 74 offset=292.0>\n",
      "<music21.stream.Measure 75 offset=296.0>\n",
      "<music21.stream.Measure 76 offset=300.0>\n",
      "<music21.stream.Measure 77 offset=304.0>\n",
      "<music21.stream.Measure 78 offset=308.0>\n",
      "<music21.stream.Measure 79 offset=312.0>\n",
      "<music21.stream.Measure 80 offset=316.0>\n",
      "<music21.stream.Measure 81 offset=320.0>\n",
      "<music21.stream.Measure 82 offset=324.0>\n",
      "<music21.stream.Measure 83 offset=328.0>\n",
      "<music21.stream.Measure 84 offset=332.0>\n",
      "<music21.stream.Measure 85 offset=336.0>\n",
      "<music21.stream.Measure 86 offset=340.0>\n",
      "<music21.stream.Measure 87 offset=344.0>\n",
      "<music21.stream.Measure 88 offset=348.0>\n",
      "<music21.stream.Measure 89 offset=352.0>\n",
      "<music21.stream.Measure 90 offset=356.0>\n",
      "<music21.stream.Measure 91 offset=360.0>\n",
      "Part: 139740336866304\n",
      "<music21.stream.Measure 1 offset=0.0>\n",
      "<music21.stream.Measure 2 offset=4.0>\n",
      "<music21.stream.Measure 3 offset=8.0>\n",
      "<music21.stream.Measure 4 offset=12.0>\n",
      "<music21.stream.Measure 5 offset=16.0>\n",
      "<music21.stream.Measure 6 offset=20.0>\n",
      "<music21.stream.Measure 7 offset=24.0>\n",
      "<music21.stream.Measure 8 offset=28.0>\n",
      "<music21.stream.Measure 9 offset=32.0>\n",
      "<music21.stream.Measure 10 offset=36.0>\n",
      "<music21.stream.Measure 11 offset=40.0>\n",
      "<music21.stream.Measure 12 offset=44.0>\n",
      "<music21.stream.Measure 13 offset=48.0>\n",
      "<music21.stream.Measure 14 offset=52.0>\n",
      "<music21.stream.Measure 15 offset=56.0>\n",
      "<music21.stream.Measure 16 offset=60.0>\n",
      "<music21.stream.Measure 17 offset=64.0>\n",
      "<music21.stream.Measure 18 offset=68.0>\n",
      "<music21.stream.Measure 19 offset=72.0>\n",
      "<music21.stream.Measure 20 offset=76.0>\n",
      "<music21.stream.Measure 21 offset=80.0>\n",
      "<music21.stream.Measure 22 offset=84.0>\n",
      "<music21.stream.Measure 23 offset=88.0>\n",
      "<music21.stream.Measure 24 offset=92.0>\n",
      "<music21.stream.Measure 25 offset=96.0>\n",
      "<music21.stream.Measure 26 offset=100.0>\n",
      "<music21.stream.Measure 27 offset=104.0>\n",
      "<music21.stream.Measure 28 offset=108.0>\n",
      "<music21.stream.Measure 29 offset=112.0>\n",
      "<music21.stream.Measure 30 offset=116.0>\n",
      "<music21.stream.Measure 31 offset=120.0>\n",
      "<music21.stream.Measure 32 offset=124.0>\n",
      "<music21.stream.Measure 33 offset=128.0>\n",
      "<music21.stream.Measure 34 offset=132.0>\n",
      "<music21.stream.Measure 35 offset=136.0>\n",
      "<music21.stream.Measure 36 offset=140.0>\n",
      "<music21.stream.Measure 37 offset=144.0>\n",
      "<music21.stream.Measure 38 offset=148.0>\n",
      "<music21.stream.Measure 39 offset=152.0>\n",
      "<music21.stream.Measure 40 offset=156.0>\n",
      "<music21.stream.Measure 41 offset=160.0>\n",
      "<music21.stream.Measure 42 offset=164.0>\n",
      "<music21.stream.Measure 43 offset=168.0>\n",
      "<music21.stream.Measure 44 offset=172.0>\n",
      "<music21.stream.Measure 45 offset=176.0>\n",
      "<music21.stream.Measure 46 offset=180.0>\n",
      "<music21.stream.Measure 47 offset=184.0>\n",
      "<music21.stream.Measure 48 offset=188.0>\n",
      "<music21.stream.Measure 49 offset=192.0>\n",
      "<music21.stream.Measure 50 offset=196.0>\n",
      "<music21.stream.Measure 51 offset=200.0>\n",
      "<music21.stream.Measure 52 offset=204.0>\n",
      "<music21.stream.Measure 53 offset=208.0>\n",
      "<music21.stream.Measure 54 offset=212.0>\n",
      "<music21.stream.Measure 55 offset=216.0>\n",
      "<music21.stream.Measure 56 offset=220.0>\n",
      "<music21.stream.Measure 57 offset=224.0>\n",
      "<music21.stream.Measure 58 offset=228.0>\n",
      "<music21.stream.Measure 59 offset=232.0>\n",
      "<music21.stream.Measure 60 offset=236.0>\n",
      "<music21.stream.Measure 61 offset=240.0>\n",
      "<music21.stream.Measure 62 offset=244.0>\n",
      "<music21.stream.Measure 63 offset=248.0>\n",
      "<music21.stream.Measure 64 offset=252.0>\n",
      "<music21.stream.Measure 65 offset=256.0>\n",
      "<music21.stream.Measure 66 offset=260.0>\n",
      "<music21.stream.Measure 67 offset=264.0>\n",
      "<music21.stream.Measure 68 offset=268.0>\n",
      "<music21.stream.Measure 69 offset=272.0>\n",
      "<music21.stream.Measure 70 offset=276.0>\n",
      "<music21.stream.Measure 71 offset=280.0>\n",
      "<music21.stream.Measure 72 offset=284.0>\n",
      "<music21.stream.Measure 73 offset=288.0>\n",
      "<music21.stream.Measure 74 offset=292.0>\n",
      "<music21.stream.Measure 75 offset=296.0>\n",
      "<music21.stream.Measure 76 offset=300.0>\n",
      "<music21.stream.Measure 77 offset=304.0>\n",
      "<music21.stream.Measure 78 offset=308.0>\n",
      "<music21.stream.Measure 79 offset=312.0>\n",
      "<music21.stream.Measure 80 offset=316.0>\n",
      "<music21.stream.Measure 81 offset=320.0>\n",
      "<music21.stream.Measure 82 offset=324.0>\n",
      "<music21.stream.Measure 83 offset=328.0>\n",
      "<music21.stream.Measure 84 offset=332.0>\n",
      "<music21.stream.Measure 85 offset=336.0>\n",
      "<music21.stream.Measure 86 offset=340.0>\n",
      "<music21.stream.Measure 87 offset=344.0>\n",
      "<music21.stream.Measure 88 offset=348.0>\n",
      "<music21.stream.Measure 89 offset=352.0>\n",
      "<music21.stream.Measure 90 offset=356.0>\n",
      "<music21.stream.Measure 91 offset=360.0>\n",
      "Part: 139740311022144\n",
      "<music21.stream.Measure 1 offset=0.0>\n",
      "<music21.stream.Measure 2 offset=4.0>\n",
      "<music21.stream.Measure 3 offset=8.0>\n",
      "<music21.stream.Measure 4 offset=12.0>\n",
      "<music21.stream.Measure 5 offset=16.0>\n",
      "<music21.stream.Measure 6 offset=20.0>\n",
      "<music21.stream.Measure 7 offset=24.0>\n",
      "<music21.stream.Measure 8 offset=28.0>\n",
      "<music21.stream.Measure 9 offset=32.0>\n",
      "<music21.stream.Measure 10 offset=36.0>\n",
      "<music21.stream.Measure 11 offset=40.0>\n",
      "<music21.stream.Measure 12 offset=44.0>\n",
      "<music21.stream.Measure 13 offset=48.0>\n",
      "<music21.stream.Measure 14 offset=52.0>\n",
      "<music21.stream.Measure 15 offset=56.0>\n",
      "<music21.stream.Measure 16 offset=60.0>\n",
      "<music21.stream.Measure 17 offset=64.0>\n",
      "<music21.stream.Measure 18 offset=68.0>\n",
      "<music21.stream.Measure 19 offset=72.0>\n",
      "<music21.stream.Measure 20 offset=76.0>\n",
      "<music21.stream.Measure 21 offset=80.0>\n",
      "<music21.stream.Measure 22 offset=84.0>\n",
      "<music21.stream.Measure 23 offset=88.0>\n",
      "<music21.stream.Measure 24 offset=92.0>\n",
      "<music21.stream.Measure 25 offset=96.0>\n",
      "<music21.stream.Measure 26 offset=100.0>\n",
      "<music21.stream.Measure 27 offset=104.0>\n",
      "<music21.stream.Measure 28 offset=108.0>\n",
      "<music21.stream.Measure 29 offset=112.0>\n",
      "<music21.stream.Measure 30 offset=116.0>\n",
      "<music21.stream.Measure 31 offset=120.0>\n",
      "<music21.stream.Measure 32 offset=124.0>\n",
      "<music21.stream.Measure 33 offset=128.0>\n",
      "<music21.stream.Measure 34 offset=132.0>\n",
      "<music21.stream.Measure 35 offset=136.0>\n",
      "<music21.stream.Measure 36 offset=140.0>\n",
      "<music21.stream.Measure 37 offset=144.0>\n",
      "<music21.stream.Measure 38 offset=148.0>\n",
      "<music21.stream.Measure 39 offset=152.0>\n",
      "<music21.stream.Measure 40 offset=156.0>\n",
      "<music21.stream.Measure 41 offset=160.0>\n",
      "<music21.stream.Measure 42 offset=164.0>\n",
      "<music21.stream.Measure 43 offset=168.0>\n",
      "<music21.stream.Measure 44 offset=172.0>\n",
      "<music21.stream.Measure 45 offset=176.0>\n",
      "<music21.stream.Measure 46 offset=180.0>\n",
      "<music21.stream.Measure 47 offset=184.0>\n",
      "<music21.stream.Measure 48 offset=188.0>\n",
      "<music21.stream.Measure 49 offset=192.0>\n",
      "<music21.stream.Measure 50 offset=196.0>\n",
      "<music21.stream.Measure 51 offset=200.0>\n",
      "<music21.stream.Measure 52 offset=204.0>\n",
      "<music21.stream.Measure 53 offset=208.0>\n",
      "<music21.stream.Measure 54 offset=212.0>\n",
      "<music21.stream.Measure 55 offset=216.0>\n",
      "<music21.stream.Measure 56 offset=220.0>\n",
      "<music21.stream.Measure 57 offset=224.0>\n",
      "<music21.stream.Measure 58 offset=228.0>\n",
      "<music21.stream.Measure 59 offset=232.0>\n",
      "<music21.stream.Measure 60 offset=236.0>\n",
      "<music21.stream.Measure 61 offset=240.0>\n",
      "<music21.stream.Measure 62 offset=244.0>\n",
      "<music21.stream.Measure 63 offset=248.0>\n",
      "<music21.stream.Measure 64 offset=252.0>\n",
      "<music21.stream.Measure 65 offset=256.0>\n",
      "<music21.stream.Measure 66 offset=260.0>\n",
      "<music21.stream.Measure 67 offset=264.0>\n",
      "<music21.stream.Measure 68 offset=268.0>\n",
      "<music21.stream.Measure 69 offset=272.0>\n",
      "Part: 139740334705440\n",
      "<music21.stream.Measure 1 offset=0.0>\n",
      "<music21.stream.Measure 2 offset=4.0>\n",
      "<music21.stream.Measure 3 offset=8.0>\n",
      "<music21.stream.Measure 4 offset=12.0>\n",
      "<music21.stream.Measure 5 offset=16.0>\n",
      "<music21.stream.Measure 6 offset=20.0>\n",
      "<music21.stream.Measure 7 offset=24.0>\n",
      "<music21.stream.Measure 8 offset=28.0>\n",
      "<music21.stream.Measure 9 offset=32.0>\n",
      "<music21.stream.Measure 10 offset=36.0>\n",
      "<music21.stream.Measure 11 offset=40.0>\n",
      "<music21.stream.Measure 12 offset=44.0>\n",
      "<music21.stream.Measure 13 offset=48.0>\n",
      "<music21.stream.Measure 14 offset=52.0>\n",
      "<music21.stream.Measure 15 offset=56.0>\n",
      "<music21.stream.Measure 16 offset=60.0>\n",
      "<music21.stream.Measure 17 offset=64.0>\n",
      "<music21.stream.Measure 18 offset=68.0>\n",
      "<music21.stream.Measure 19 offset=72.0>\n",
      "<music21.stream.Measure 20 offset=76.0>\n",
      "<music21.stream.Measure 21 offset=80.0>\n",
      "<music21.stream.Measure 22 offset=84.0>\n",
      "<music21.stream.Measure 23 offset=88.0>\n",
      "<music21.stream.Measure 24 offset=92.0>\n",
      "<music21.stream.Measure 25 offset=96.0>\n",
      "<music21.stream.Measure 26 offset=100.0>\n",
      "<music21.stream.Measure 27 offset=104.0>\n",
      "<music21.stream.Measure 28 offset=108.0>\n",
      "<music21.stream.Measure 29 offset=112.0>\n",
      "<music21.stream.Measure 30 offset=116.0>\n",
      "<music21.stream.Measure 31 offset=120.0>\n",
      "<music21.stream.Measure 32 offset=124.0>\n",
      "<music21.stream.Measure 33 offset=128.0>\n",
      "<music21.stream.Measure 34 offset=132.0>\n",
      "<music21.stream.Measure 35 offset=136.0>\n",
      "<music21.stream.Measure 36 offset=140.0>\n",
      "<music21.stream.Measure 37 offset=144.0>\n",
      "<music21.stream.Measure 38 offset=148.0>\n",
      "<music21.stream.Measure 39 offset=152.0>\n",
      "<music21.stream.Measure 40 offset=156.0>\n",
      "<music21.stream.Measure 41 offset=160.0>\n",
      "<music21.stream.Measure 42 offset=164.0>\n",
      "<music21.stream.Measure 43 offset=168.0>\n",
      "<music21.stream.Measure 44 offset=172.0>\n",
      "<music21.stream.Measure 45 offset=176.0>\n",
      "<music21.stream.Measure 46 offset=180.0>\n",
      "<music21.stream.Measure 47 offset=184.0>\n",
      "<music21.stream.Measure 48 offset=188.0>\n",
      "<music21.stream.Measure 49 offset=192.0>\n",
      "<music21.stream.Measure 50 offset=196.0>\n",
      "<music21.stream.Measure 51 offset=200.0>\n",
      "<music21.stream.Measure 52 offset=204.0>\n",
      "<music21.stream.Measure 53 offset=208.0>\n",
      "<music21.stream.Measure 54 offset=212.0>\n",
      "<music21.stream.Measure 55 offset=216.0>\n",
      "<music21.stream.Measure 56 offset=220.0>\n",
      "<music21.stream.Measure 57 offset=224.0>\n",
      "<music21.stream.Measure 58 offset=228.0>\n",
      "<music21.stream.Measure 59 offset=232.0>\n",
      "<music21.stream.Measure 60 offset=236.0>\n",
      "<music21.stream.Measure 61 offset=240.0>\n",
      "<music21.stream.Measure 62 offset=244.0>\n",
      "<music21.stream.Measure 63 offset=248.0>\n",
      "<music21.stream.Measure 64 offset=252.0>\n",
      "<music21.stream.Measure 65 offset=256.0>\n",
      "<music21.stream.Measure 66 offset=260.0>\n",
      "<music21.stream.Measure 67 offset=264.0>\n",
      "<music21.stream.Measure 68 offset=268.0>\n",
      "<music21.stream.Measure 69 offset=272.0>\n",
      "Part: 139740334111616\n",
      "<music21.stream.Measure 1 offset=0.0>\n",
      "<music21.stream.Measure 2 offset=4.0>\n",
      "<music21.stream.Measure 3 offset=8.0>\n",
      "<music21.stream.Measure 4 offset=12.0>\n",
      "<music21.stream.Measure 5 offset=16.0>\n",
      "<music21.stream.Measure 6 offset=20.0>\n",
      "<music21.stream.Measure 7 offset=24.0>\n",
      "<music21.stream.Measure 8 offset=28.0>\n",
      "<music21.stream.Measure 9 offset=32.0>\n",
      "<music21.stream.Measure 10 offset=36.0>\n",
      "<music21.stream.Measure 11 offset=40.0>\n",
      "<music21.stream.Measure 12 offset=44.0>\n",
      "<music21.stream.Measure 13 offset=48.0>\n",
      "<music21.stream.Measure 14 offset=52.0>\n",
      "<music21.stream.Measure 15 offset=56.0>\n",
      "<music21.stream.Measure 16 offset=60.0>\n",
      "<music21.stream.Measure 17 offset=64.0>\n",
      "<music21.stream.Measure 18 offset=68.0>\n",
      "<music21.stream.Measure 19 offset=72.0>\n",
      "<music21.stream.Measure 20 offset=76.0>\n",
      "<music21.stream.Measure 21 offset=80.0>\n",
      "<music21.stream.Measure 22 offset=84.0>\n",
      "<music21.stream.Measure 23 offset=88.0>\n",
      "<music21.stream.Measure 24 offset=92.0>\n",
      "<music21.stream.Measure 25 offset=96.0>\n",
      "<music21.stream.Measure 26 offset=100.0>\n",
      "<music21.stream.Measure 27 offset=104.0>\n",
      "<music21.stream.Measure 28 offset=108.0>\n",
      "<music21.stream.Measure 29 offset=112.0>\n",
      "<music21.stream.Measure 30 offset=116.0>\n",
      "<music21.stream.Measure 31 offset=120.0>\n",
      "<music21.stream.Measure 32 offset=124.0>\n",
      "<music21.stream.Measure 33 offset=128.0>\n",
      "<music21.stream.Measure 34 offset=132.0>\n",
      "<music21.stream.Measure 35 offset=136.0>\n",
      "<music21.stream.Measure 36 offset=140.0>\n",
      "<music21.stream.Measure 37 offset=144.0>\n",
      "<music21.stream.Measure 38 offset=148.0>\n",
      "<music21.stream.Measure 39 offset=152.0>\n",
      "<music21.stream.Measure 40 offset=156.0>\n",
      "<music21.stream.Measure 41 offset=160.0>\n",
      "<music21.stream.Measure 42 offset=164.0>\n",
      "<music21.stream.Measure 43 offset=168.0>\n",
      "<music21.stream.Measure 44 offset=172.0>\n",
      "<music21.stream.Measure 45 offset=176.0>\n",
      "<music21.stream.Measure 46 offset=180.0>\n",
      "<music21.stream.Measure 47 offset=184.0>\n",
      "<music21.stream.Measure 48 offset=188.0>\n",
      "<music21.stream.Measure 49 offset=192.0>\n",
      "<music21.stream.Measure 50 offset=196.0>\n",
      "<music21.stream.Measure 51 offset=200.0>\n",
      "<music21.stream.Measure 52 offset=204.0>\n",
      "<music21.stream.Measure 53 offset=208.0>\n",
      "<music21.stream.Measure 54 offset=212.0>\n",
      "<music21.stream.Measure 55 offset=216.0>\n",
      "<music21.stream.Measure 56 offset=220.0>\n",
      "<music21.stream.Measure 57 offset=224.0>\n",
      "<music21.stream.Measure 58 offset=228.0>\n",
      "<music21.stream.Measure 59 offset=232.0>\n",
      "<music21.stream.Measure 60 offset=236.0>\n",
      "<music21.stream.Measure 61 offset=240.0>\n",
      "<music21.stream.Measure 62 offset=244.0>\n",
      "<music21.stream.Measure 63 offset=248.0>\n",
      "<music21.stream.Measure 64 offset=252.0>\n",
      "<music21.stream.Measure 65 offset=256.0>\n",
      "<music21.stream.Measure 66 offset=260.0>\n",
      "<music21.stream.Measure 67 offset=264.0>\n",
      "<music21.stream.Measure 68 offset=268.0>\n",
      "<music21.stream.Measure 69 offset=272.0>\n",
      "<music21.stream.Measure 70 offset=276.0>\n",
      "<music21.stream.Measure 71 offset=280.0>\n",
      "<music21.stream.Measure 72 offset=284.0>\n",
      "<music21.stream.Measure 73 offset=288.0>\n",
      "<music21.stream.Measure 74 offset=292.0>\n",
      "<music21.stream.Measure 75 offset=296.0>\n",
      "<music21.stream.Measure 76 offset=300.0>\n",
      "<music21.stream.Measure 77 offset=304.0>\n",
      "<music21.stream.Measure 78 offset=308.0>\n",
      "<music21.stream.Measure 79 offset=312.0>\n",
      "<music21.stream.Measure 80 offset=316.0>\n",
      "<music21.stream.Measure 81 offset=320.0>\n",
      "<music21.stream.Measure 82 offset=324.0>\n",
      "<music21.stream.Measure 83 offset=328.0>\n",
      "<music21.stream.Measure 84 offset=332.0>\n",
      "<music21.stream.Measure 85 offset=336.0>\n",
      "<music21.stream.Measure 86 offset=340.0>\n",
      "<music21.stream.Measure 87 offset=344.0>\n",
      "<music21.stream.Measure 88 offset=348.0>\n",
      "<music21.stream.Measure 89 offset=352.0>\n",
      "<music21.stream.Measure 90 offset=356.0>\n",
      "<music21.stream.Measure 91 offset=360.0>\n",
      "Part: 139740308642576\n",
      "<music21.stream.Measure 1 offset=0.0>\n",
      "<music21.stream.Measure 2 offset=4.0>\n",
      "<music21.stream.Measure 3 offset=8.0>\n",
      "<music21.stream.Measure 4 offset=12.0>\n",
      "<music21.stream.Measure 5 offset=16.0>\n",
      "<music21.stream.Measure 6 offset=20.0>\n",
      "<music21.stream.Measure 7 offset=24.0>\n",
      "<music21.stream.Measure 8 offset=28.0>\n",
      "<music21.stream.Measure 9 offset=32.0>\n",
      "<music21.stream.Measure 10 offset=36.0>\n",
      "<music21.stream.Measure 11 offset=40.0>\n",
      "<music21.stream.Measure 12 offset=44.0>\n",
      "<music21.stream.Measure 13 offset=48.0>\n",
      "<music21.stream.Measure 14 offset=52.0>\n",
      "<music21.stream.Measure 15 offset=56.0>\n",
      "<music21.stream.Measure 16 offset=60.0>\n",
      "<music21.stream.Measure 17 offset=64.0>\n",
      "<music21.stream.Measure 18 offset=68.0>\n",
      "<music21.stream.Measure 19 offset=72.0>\n",
      "<music21.stream.Measure 20 offset=76.0>\n",
      "<music21.stream.Measure 21 offset=80.0>\n",
      "<music21.stream.Measure 22 offset=84.0>\n",
      "<music21.stream.Measure 23 offset=88.0>\n",
      "<music21.stream.Measure 24 offset=92.0>\n",
      "<music21.stream.Measure 25 offset=96.0>\n",
      "<music21.stream.Measure 26 offset=100.0>\n",
      "<music21.stream.Measure 27 offset=104.0>\n",
      "<music21.stream.Measure 28 offset=108.0>\n",
      "<music21.stream.Measure 29 offset=112.0>\n",
      "<music21.stream.Measure 30 offset=116.0>\n",
      "<music21.stream.Measure 31 offset=120.0>\n",
      "<music21.stream.Measure 32 offset=124.0>\n",
      "<music21.stream.Measure 33 offset=128.0>\n",
      "<music21.stream.Measure 34 offset=132.0>\n",
      "<music21.stream.Measure 35 offset=136.0>\n",
      "<music21.stream.Measure 36 offset=140.0>\n",
      "<music21.stream.Measure 37 offset=144.0>\n",
      "<music21.stream.Measure 38 offset=148.0>\n",
      "<music21.stream.Measure 39 offset=152.0>\n",
      "<music21.stream.Measure 40 offset=156.0>\n",
      "<music21.stream.Measure 41 offset=160.0>\n",
      "<music21.stream.Measure 42 offset=164.0>\n",
      "<music21.stream.Measure 43 offset=168.0>\n",
      "<music21.stream.Measure 44 offset=172.0>\n",
      "<music21.stream.Measure 45 offset=176.0>\n",
      "<music21.stream.Measure 46 offset=180.0>\n",
      "<music21.stream.Measure 47 offset=184.0>\n",
      "<music21.stream.Measure 48 offset=188.0>\n",
      "<music21.stream.Measure 49 offset=192.0>\n",
      "<music21.stream.Measure 50 offset=196.0>\n",
      "<music21.stream.Measure 51 offset=200.0>\n",
      "<music21.stream.Measure 52 offset=204.0>\n",
      "<music21.stream.Measure 53 offset=208.0>\n",
      "<music21.stream.Measure 54 offset=212.0>\n",
      "<music21.stream.Measure 55 offset=216.0>\n",
      "<music21.stream.Measure 56 offset=220.0>\n",
      "<music21.stream.Measure 57 offset=224.0>\n",
      "<music21.stream.Measure 58 offset=228.0>\n",
      "<music21.stream.Measure 59 offset=232.0>\n",
      "<music21.stream.Measure 60 offset=236.0>\n",
      "<music21.stream.Measure 61 offset=240.0>\n",
      "<music21.stream.Measure 62 offset=244.0>\n",
      "<music21.stream.Measure 63 offset=248.0>\n",
      "<music21.stream.Measure 64 offset=252.0>\n",
      "<music21.stream.Measure 65 offset=256.0>\n",
      "<music21.stream.Measure 66 offset=260.0>\n",
      "<music21.stream.Measure 67 offset=264.0>\n",
      "<music21.stream.Measure 68 offset=268.0>\n",
      "<music21.stream.Measure 69 offset=272.0>\n",
      "<music21.stream.Measure 70 offset=276.0>\n",
      "<music21.stream.Measure 71 offset=280.0>\n",
      "<music21.stream.Measure 72 offset=284.0>\n",
      "<music21.stream.Measure 73 offset=288.0>\n",
      "<music21.stream.Measure 74 offset=292.0>\n",
      "<music21.stream.Measure 75 offset=296.0>\n",
      "<music21.stream.Measure 76 offset=300.0>\n",
      "<music21.stream.Measure 77 offset=304.0>\n",
      "<music21.stream.Measure 78 offset=308.0>\n",
      "<music21.stream.Measure 79 offset=312.0>\n",
      "<music21.stream.Measure 80 offset=316.0>\n",
      "<music21.stream.Measure 81 offset=320.0>\n",
      "<music21.stream.Measure 82 offset=324.0>\n",
      "<music21.stream.Measure 83 offset=328.0>\n",
      "<music21.stream.Measure 84 offset=332.0>\n",
      "<music21.stream.Measure 85 offset=336.0>\n",
      "<music21.stream.Measure 86 offset=340.0>\n",
      "<music21.stream.Measure 87 offset=344.0>\n",
      "<music21.stream.Measure 88 offset=348.0>\n",
      "<music21.stream.Measure 89 offset=352.0>\n",
      "<music21.stream.Measure 90 offset=356.0>\n",
      "<music21.stream.Measure 91 offset=360.0>\n",
      "Part: 139740307707824\n",
      "<music21.stream.Measure 1 offset=0.0>\n",
      "<music21.stream.Measure 2 offset=4.0>\n",
      "<music21.stream.Measure 3 offset=8.0>\n",
      "<music21.stream.Measure 4 offset=12.0>\n",
      "<music21.stream.Measure 5 offset=16.0>\n",
      "<music21.stream.Measure 6 offset=20.0>\n",
      "<music21.stream.Measure 7 offset=24.0>\n",
      "<music21.stream.Measure 8 offset=28.0>\n",
      "<music21.stream.Measure 9 offset=32.0>\n",
      "<music21.stream.Measure 10 offset=36.0>\n",
      "<music21.stream.Measure 11 offset=40.0>\n",
      "<music21.stream.Measure 12 offset=44.0>\n",
      "<music21.stream.Measure 13 offset=48.0>\n",
      "<music21.stream.Measure 14 offset=52.0>\n",
      "<music21.stream.Measure 15 offset=56.0>\n",
      "<music21.stream.Measure 16 offset=60.0>\n",
      "<music21.stream.Measure 17 offset=64.0>\n",
      "<music21.stream.Measure 18 offset=68.0>\n",
      "<music21.stream.Measure 19 offset=72.0>\n",
      "<music21.stream.Measure 20 offset=76.0>\n",
      "<music21.stream.Measure 21 offset=80.0>\n",
      "<music21.stream.Measure 22 offset=84.0>\n",
      "<music21.stream.Measure 23 offset=88.0>\n",
      "<music21.stream.Measure 24 offset=92.0>\n",
      "<music21.stream.Measure 25 offset=96.0>\n",
      "<music21.stream.Measure 26 offset=100.0>\n",
      "<music21.stream.Measure 27 offset=104.0>\n",
      "<music21.stream.Measure 28 offset=108.0>\n",
      "<music21.stream.Measure 29 offset=112.0>\n",
      "<music21.stream.Measure 30 offset=116.0>\n",
      "<music21.stream.Measure 31 offset=120.0>\n",
      "<music21.stream.Measure 32 offset=124.0>\n",
      "<music21.stream.Measure 33 offset=128.0>\n",
      "<music21.stream.Measure 34 offset=132.0>\n",
      "<music21.stream.Measure 35 offset=136.0>\n",
      "<music21.stream.Measure 36 offset=140.0>\n",
      "<music21.stream.Measure 37 offset=144.0>\n",
      "<music21.stream.Measure 38 offset=148.0>\n",
      "<music21.stream.Measure 39 offset=152.0>\n",
      "<music21.stream.Measure 40 offset=156.0>\n",
      "<music21.stream.Measure 41 offset=160.0>\n",
      "<music21.stream.Measure 42 offset=164.0>\n",
      "<music21.stream.Measure 43 offset=168.0>\n",
      "<music21.stream.Measure 44 offset=172.0>\n",
      "<music21.stream.Measure 45 offset=176.0>\n",
      "<music21.stream.Measure 46 offset=180.0>\n",
      "<music21.stream.Measure 47 offset=184.0>\n",
      "<music21.stream.Measure 48 offset=188.0>\n",
      "<music21.stream.Measure 49 offset=192.0>\n",
      "<music21.stream.Measure 50 offset=196.0>\n",
      "<music21.stream.Measure 51 offset=200.0>\n",
      "<music21.stream.Measure 52 offset=204.0>\n",
      "<music21.stream.Measure 53 offset=208.0>\n",
      "<music21.stream.Measure 54 offset=212.0>\n",
      "<music21.stream.Measure 55 offset=216.0>\n",
      "<music21.stream.Measure 56 offset=220.0>\n",
      "<music21.stream.Measure 57 offset=224.0>\n",
      "<music21.stream.Measure 58 offset=228.0>\n",
      "<music21.stream.Measure 59 offset=232.0>\n",
      "<music21.stream.Measure 60 offset=236.0>\n",
      "<music21.stream.Measure 61 offset=240.0>\n",
      "<music21.stream.Measure 62 offset=244.0>\n",
      "<music21.stream.Measure 63 offset=248.0>\n",
      "<music21.stream.Measure 64 offset=252.0>\n",
      "<music21.stream.Measure 65 offset=256.0>\n",
      "<music21.stream.Measure 66 offset=260.0>\n",
      "<music21.stream.Measure 67 offset=264.0>\n",
      "<music21.stream.Measure 68 offset=268.0>\n",
      "<music21.stream.Measure 69 offset=272.0>\n",
      "<music21.stream.Measure 70 offset=276.0>\n",
      "<music21.stream.Measure 71 offset=280.0>\n",
      "<music21.stream.Measure 72 offset=284.0>\n",
      "<music21.stream.Measure 73 offset=288.0>\n",
      "<music21.stream.Measure 74 offset=292.0>\n",
      "<music21.stream.Measure 75 offset=296.0>\n",
      "<music21.stream.Measure 76 offset=300.0>\n",
      "<music21.stream.Measure 77 offset=304.0>\n",
      "<music21.stream.Measure 78 offset=308.0>\n",
      "<music21.stream.Measure 79 offset=312.0>\n",
      "<music21.stream.Measure 80 offset=316.0>\n",
      "<music21.stream.Measure 81 offset=320.0>\n",
      "<music21.stream.Measure 82 offset=324.0>\n",
      "<music21.stream.Measure 83 offset=328.0>\n",
      "<music21.stream.Measure 84 offset=332.0>\n",
      "<music21.stream.Measure 85 offset=336.0>\n",
      "<music21.stream.Measure 86 offset=340.0>\n",
      "<music21.stream.Measure 87 offset=344.0>\n",
      "<music21.stream.Measure 88 offset=348.0>\n",
      "<music21.stream.Measure 89 offset=352.0>\n",
      "<music21.stream.Measure 90 offset=356.0>\n",
      "<music21.stream.Measure 91 offset=360.0>\n"
     ]
    }
   ],
   "source": [
    "for part in first_track_music21.parts:\n",
    "    print(\"Part:\", part.id)\n",
    "    for element in part.elements:\n",
    "        print(element)"
   ]
  },
  {
   "cell_type": "code",
   "execution_count": 35,
   "id": "1f594d8e-675c-4c2e-92eb-b7556651b883",
   "metadata": {},
   "outputs": [
    {
     "name": "stdout",
     "output_type": "stream",
     "text": [
      "7\n"
     ]
    }
   ],
   "source": [
    "print(len(first_track_music21.parts))"
   ]
  },
  {
   "cell_type": "code",
   "execution_count": 37,
   "id": "72c0ede9-4e9d-4e88-bcab-3109739bd9bf",
   "metadata": {},
   "outputs": [
    {
     "name": "stdout",
     "output_type": "stream",
     "text": [
      "['_DOC_ATTR', '_DOC_ORDER', '__add__', '__annotations__', '__bool__', '__class__', '__class_getitem__', '__contains__', '__deepcopy__', '__delattr__', '__delitem__', '__dict__', '__dir__', '__doc__', '__eq__', '__format__', '__ge__', '__getattribute__', '__getitem__', '__getstate__', '__gt__', '__hash__', '__init__', '__init_subclass__', '__iter__', '__le__', '__len__', '__lt__', '__module__', '__ne__', '__new__', '__orig_bases__', '__parameters__', '__reduce__', '__reduce_ex__', '__repr__', '__setattr__', '__setitem__', '__setstate__', '__sizeof__', '__slots__', '__str__', '__subclasshook__', '__weakref__', '_accumulatedSeconds', '_activeSite', '_activeSiteStoredOffset', '_atSoundingPitch', '_cache', '_classSetCacheDict', '_classTupleCacheDict', '_consolidateLayering', '_created_via_deprecated_flat', '_deepcopySubclassable', '_derivation', '_durSpanOverlap', '_duration', '_editorial', '_elements', '_endElements', '_findLayering', '_fixMeasureNumbers', '_getActiveSite', '_getDurSpan', '_getDuration', '_getFinalBarline', '_getMeasureNumberListByStartEnd', '_getMeasureOffset', '_getMetadata', '_getPriority', '_getSeconds', '_getSecondsMap', '_getTimeSignatureForBeat', '_id', '_insertDeletionVariant', '_insertInsertionVariant', '_insertReplacementVariant', '_is_protocol', '_maxVoiceCount', '_mutable', '_naiveOffset', '_offsetDict', '_priority', '_removeIteration', '_removeOrExpandGaps', '_replaceSpannerBundleForDeepcopy', '_reprInternal', '_reprText', '_reprTextLine', '_setActiveSite', '_setDuration', '_setFinalBarline', '_setHighestTime', '_setMetadata', '_setPriority', '_setSeconds', '_style', '_styleClass', '_transposeByInstrument', '_treatAtSoundingPitch', '_uniqueOffsetsAndEndTimes', '_unlinkedDuration', 'activateVariants', 'activeSite', 'addGroupForElements', 'allPlayingWhileSounding', 'analyze', 'append', 'asTimespans', 'asTree', 'atSoundingPitch', 'attachIntervalsBetweenStreams', 'attachMelodicIntervals', 'augmentOrDiminish', 'autoSort', 'beat', 'beatAndMeasureFromOffset', 'beatDuration', 'beatStr', 'beatStrength', 'chordify', 'classSet', 'classSortOrder', 'classes', 'clear', 'clearCache', 'clef', 'cloneEmpty', 'containerHierarchy', 'containerInHierarchy', 'contextSites', 'coreAppend', 'coreCopyAsDerivation', 'coreElementsChanged', 'coreGatherMissingSpanners', 'coreGetElementByMemoryLocation', 'coreGuardBeforeAddElement', 'coreHasElementByMemoryLocation', 'coreInsert', 'coreSelfActiveSite', 'coreSetElementOffset', 'coreStoreAtEnd', 'definesExplicitPageBreaks', 'definesExplicitSystemBreaks', 'derivation', 'duration', 'editorial', 'elementOffset', 'elements', 'equalityAttributes', 'expandRepeats', 'explode', 'extendDuration', 'extendTies', 'extractContext', 'finalBarline', 'findConsecutiveNotes', 'findGaps', 'first', 'flat', 'flatten', 'flattenUnnecessaryVoices', 'getAllContextsByClass', 'getContextByClass', 'getElementAfterElement', 'getElementAtOrBefore', 'getElementBeforeOffset', 'getElementById', 'getElementsByClass', 'getElementsByGroup', 'getElementsByOffset', 'getElementsNotOfClass', 'getInstrument', 'getInstruments', 'getOffsetBySite', 'getOffsetInHierarchy', 'getOverlaps', 'getSpannerSites', 'getTimeSignatures', 'groups', 'hasEditorialInformation', 'hasElement', 'hasElementOfClass', 'hasMeasures', 'hasPartLikeStreams', 'hasStyleInformation', 'hasVoices', 'haveAccidentalsBeenMade', 'highestOffset', 'highestTime', 'id', 'implode', 'index', 'informSites', 'insert', 'insertAndShift', 'insertIntoNoteOrChord', 'invertDiatonic', 'isClassOrSubclass', 'isFlat', 'isGapless', 'isMeasure', 'isSequence', 'isSorted', 'isStream', 'isTwelveTone', 'isWellFormedNotation', 'iter', 'keySignature', 'last', 'lowestOffset', 'lyrics', 'makeAccidentals', 'makeBeams', 'makeImmutable', 'makeMeasures', 'makeMutable', 'makeNotation', 'makeRests', 'makeTies', 'makeVoices', 'measure', 'measureNumber', 'measureOffsetMap', 'measures', 'melodicIntervals', 'mergeAttributes', 'mergeElements', 'metadata', 'metronomeMarkBoundaries', 'next', 'notes', 'notesAndRests', 'offset', 'offsetMap', 'parts', 'partsToVoices', 'pitches', 'playingWhenAttacked', 'plot', 'pop', 'previous', 'priority', 'purgeLocations', 'purgeOrphans', 'quantize', 'quarterLength', 'recurse', 'recurseRepr', 'recursionType', 'remove', 'removeByClass', 'removeByNotOfClass', 'repeatAppend', 'repeatInsert', 'replace', 'scaleDurations', 'scaleOffsets', 'seconds', 'secondsMap', 'setDerivationMethod', 'setElementOffset', 'setOffsetBySite', 'shiftElements', 'show', 'showVariantAsOssialikePart', 'simultaneousAttacks', 'sites', 'sliceAtOffsets', 'sliceByBeat', 'sliceByGreatestDivisor', 'sliceByQuarterLengths', 'sort', 'sortTuple', 'sorted', 'spannerBundle', 'spanners', 'splitAtDurations', 'splitAtQuarterLength', 'splitByClass', 'splitByQuarterLengths', 'staffLines', 'storeAtEnd', 'streamStatus', 'stripTies', 'style', 'template', 'timeSignature', 'toSoundingPitch', 'toWrittenPitch', 'transferOffsetToElements', 'transpose', 'voices', 'voicesToParts', 'write']\n"
     ]
    }
   ],
   "source": [
    "attributes = dir(first_track_music21)\n",
    "print(attributes)\n",
    "\n"
   ]
  },
  {
   "cell_type": "code",
   "execution_count": 38,
   "id": "c9b0d957-43ed-4fd8-9116-4c1c1c7b3a5d",
   "metadata": {},
   "outputs": [
    {
     "name": "stdout",
     "output_type": "stream",
     "text": [
      "Total notes in all the first 10 songs midis in the dataset: 21391\n"
     ]
    }
   ],
   "source": [
    "#Following the example\n",
    "\n",
    "#Helping function        \n",
    "def extract_notes(file):\n",
    "    notes = []\n",
    "    pick = None\n",
    "    for j in file:\n",
    "        songs = instrument.partitionByInstrument(j)\n",
    "        for part in songs.parts:\n",
    "            pick = part.recurse()\n",
    "            for element in pick:\n",
    "                if isinstance(element, note.Note):\n",
    "                    notes.append(str(element.pitch))\n",
    "                elif isinstance(element, chord.Chord):\n",
    "                    notes.append(\".\".join(str(n) for n in element.normalOrder))\n",
    "\n",
    "    return notes\n",
    "#Getting the list of notes as Corpus\n",
    "Corpus= extract_notes(all_midis)\n",
    "print(\"Total notes in all the first 10 songs midis in the dataset:\", len(Corpus))"
   ]
  },
  {
   "cell_type": "code",
   "execution_count": 43,
   "id": "6c4ff0e7-d5f8-4c9c-9d67-c7f0de7c2563",
   "metadata": {},
   "outputs": [
    {
     "name": "stdout",
     "output_type": "stream",
     "text": [
      "lenght of unique notes in the dataset 298\n"
     ]
    }
   ],
   "source": [
    "unique_values = list(set(Corpus))\n",
    "print(\"lenght of unique notes in the dataset\", len(unique_values))\n"
   ]
  },
  {
   "cell_type": "code",
   "execution_count": 44,
   "id": "e36e22a7-65e0-49aa-b04e-7fcf332e37c3",
   "metadata": {},
   "outputs": [],
   "source": [
    "#For some reason, she removes the least appearing notes as \"they would create a lot of problems\"\n",
    "#She removes the ones that appear less than a 100 times"
   ]
  },
  {
   "cell_type": "code",
   "execution_count": 60,
   "id": "280a2aff-50e2-4267-b84b-bd20ce4992cf",
   "metadata": {},
   "outputs": [
    {
     "name": "stdout",
     "output_type": "stream",
     "text": [
      "Number of measures: 0\n"
     ]
    }
   ],
   "source": [
    "#Mark request about bars\n",
    "print(\"Number of measures:\", len(first_track_music21.getElementsByClass('Measure')))\n",
    "#If you access like that it doesn't print anything"
   ]
  },
  {
   "cell_type": "code",
   "execution_count": 51,
   "id": "2f09d274-06ea-4594-8aa2-0731dbb94612",
   "metadata": {},
   "outputs": [
    {
     "name": "stdout",
     "output_type": "stream",
     "text": [
      "hi\n"
     ]
    }
   ],
   "source": [
    "\n",
    "\n",
    "for measure in first_track_music21.getElementsByClass('Measure'):\n",
    "    print(\"number\", measure.number)  # Print measure number\n",
    "    print(\"offset\", measure.offset)  # Print measure offset (position within the stream)\n",
    "    print(\"barDuration\", measure.barDuration)  # Print measure duration\n",
    "\n"
   ]
  },
  {
   "cell_type": "code",
   "execution_count": 57,
   "id": "99eac401-6e39-4523-baf6-fa7514e02fab",
   "metadata": {},
   "outputs": [
    {
     "name": "stdout",
     "output_type": "stream",
     "text": [
      "number: 1\n",
      "offset: 0.0\n",
      "barDuration: 4.0\n",
      "number: 2\n",
      "offset: 4.0\n",
      "barDuration: 4.0\n",
      "number: 3\n",
      "offset: 8.0\n",
      "barDuration: 4.0\n",
      "number: 4\n",
      "offset: 12.0\n",
      "barDuration: 4.0\n",
      "number: 5\n",
      "offset: 16.0\n",
      "barDuration: 4.0\n",
      "number: 6\n",
      "offset: 20.0\n",
      "barDuration: 4.0\n",
      "number: 7\n",
      "offset: 24.0\n",
      "barDuration: 4.0\n",
      "number: 8\n",
      "offset: 28.0\n",
      "barDuration: 4.0\n",
      "number: 9\n",
      "offset: 32.0\n",
      "barDuration: 4.0\n",
      "number: 10\n",
      "offset: 36.0\n",
      "barDuration: 4.0\n",
      "number: 11\n",
      "offset: 40.0\n",
      "barDuration: 4.0\n",
      "number: 12\n",
      "offset: 44.0\n",
      "barDuration: 4.0\n",
      "number: 13\n",
      "offset: 48.0\n",
      "barDuration: 4.0\n",
      "number: 14\n",
      "offset: 52.0\n",
      "barDuration: 4.0\n",
      "number: 15\n",
      "offset: 56.0\n",
      "barDuration: 4.0\n",
      "number: 16\n",
      "offset: 60.0\n",
      "barDuration: 4.0\n",
      "number: 17\n",
      "offset: 64.0\n",
      "barDuration: 4.0\n",
      "number: 18\n",
      "offset: 68.0\n",
      "barDuration: 4.0\n",
      "number: 19\n",
      "offset: 72.0\n",
      "barDuration: 4.0\n",
      "number: 20\n",
      "offset: 76.0\n",
      "barDuration: 4.0\n",
      "number: 21\n",
      "offset: 80.0\n",
      "barDuration: 4.0\n",
      "number: 22\n",
      "offset: 84.0\n",
      "barDuration: 4.0\n",
      "number: 23\n",
      "offset: 88.0\n",
      "barDuration: 4.0\n",
      "number: 24\n",
      "offset: 92.0\n",
      "barDuration: 4.0\n",
      "number: 25\n",
      "offset: 96.0\n",
      "barDuration: 4.0\n",
      "number: 26\n",
      "offset: 100.0\n",
      "barDuration: 4.0\n",
      "number: 27\n",
      "offset: 104.0\n",
      "barDuration: 4.0\n",
      "number: 28\n",
      "offset: 108.0\n",
      "barDuration: 4.0\n",
      "number: 29\n",
      "offset: 112.0\n",
      "barDuration: 4.0\n",
      "number: 30\n",
      "offset: 116.0\n",
      "barDuration: 4.0\n",
      "number: 31\n",
      "offset: 120.0\n",
      "barDuration: 4.0\n",
      "number: 32\n",
      "offset: 124.0\n",
      "barDuration: 4.0\n",
      "number: 33\n",
      "offset: 128.0\n",
      "barDuration: 4.0\n",
      "number: 34\n",
      "offset: 132.0\n",
      "barDuration: 4.0\n",
      "number: 35\n",
      "offset: 136.0\n",
      "barDuration: 4.0\n",
      "number: 36\n",
      "offset: 140.0\n",
      "barDuration: 4.0\n",
      "number: 37\n",
      "offset: 144.0\n",
      "barDuration: 4.0\n",
      "number: 38\n",
      "offset: 148.0\n",
      "barDuration: 4.0\n",
      "number: 39\n",
      "offset: 152.0\n",
      "barDuration: 4.0\n",
      "number: 40\n",
      "offset: 156.0\n",
      "barDuration: 4.0\n",
      "number: 41\n",
      "offset: 160.0\n",
      "barDuration: 4.0\n",
      "number: 42\n",
      "offset: 164.0\n",
      "barDuration: 4.0\n",
      "number: 43\n",
      "offset: 168.0\n",
      "barDuration: 4.0\n",
      "number: 44\n",
      "offset: 172.0\n",
      "barDuration: 4.0\n",
      "number: 45\n",
      "offset: 176.0\n",
      "barDuration: 4.0\n",
      "number: 46\n",
      "offset: 180.0\n",
      "barDuration: 4.0\n",
      "number: 47\n",
      "offset: 184.0\n",
      "barDuration: 4.0\n",
      "number: 48\n",
      "offset: 188.0\n",
      "barDuration: 4.0\n",
      "number: 49\n",
      "offset: 192.0\n",
      "barDuration: 4.0\n",
      "number: 50\n",
      "offset: 196.0\n",
      "barDuration: 4.0\n",
      "number: 51\n",
      "offset: 200.0\n",
      "barDuration: 4.0\n",
      "number: 52\n",
      "offset: 204.0\n",
      "barDuration: 4.0\n",
      "number: 53\n",
      "offset: 208.0\n",
      "barDuration: 4.0\n",
      "number: 54\n",
      "offset: 212.0\n",
      "barDuration: 4.0\n",
      "number: 55\n",
      "offset: 216.0\n",
      "barDuration: 4.0\n",
      "number: 56\n",
      "offset: 220.0\n",
      "barDuration: 4.0\n",
      "number: 57\n",
      "offset: 224.0\n",
      "barDuration: 4.0\n",
      "number: 58\n",
      "offset: 228.0\n",
      "barDuration: 4.0\n",
      "number: 59\n",
      "offset: 232.0\n",
      "barDuration: 4.0\n",
      "number: 60\n",
      "offset: 236.0\n",
      "barDuration: 4.0\n",
      "number: 61\n",
      "offset: 240.0\n",
      "barDuration: 4.0\n",
      "number: 62\n",
      "offset: 244.0\n",
      "barDuration: 4.0\n",
      "number: 63\n",
      "offset: 248.0\n",
      "barDuration: 4.0\n",
      "number: 64\n",
      "offset: 252.0\n",
      "barDuration: 4.0\n",
      "number: 65\n",
      "offset: 256.0\n",
      "barDuration: 4.0\n",
      "number: 66\n",
      "offset: 260.0\n",
      "barDuration: 4.0\n",
      "number: 67\n",
      "offset: 264.0\n",
      "barDuration: 4.0\n",
      "number: 68\n",
      "offset: 268.0\n",
      "barDuration: 4.0\n",
      "number: 69\n",
      "offset: 272.0\n",
      "barDuration: 4.0\n",
      "number: 70\n",
      "offset: 276.0\n",
      "barDuration: 4.0\n",
      "number: 71\n",
      "offset: 280.0\n",
      "barDuration: 4.0\n",
      "number: 72\n",
      "offset: 284.0\n",
      "barDuration: 4.0\n",
      "number: 73\n",
      "offset: 288.0\n",
      "barDuration: 4.0\n",
      "number: 74\n",
      "offset: 292.0\n",
      "barDuration: 4.0\n",
      "number: 75\n",
      "offset: 296.0\n",
      "barDuration: 4.0\n",
      "number: 76\n",
      "offset: 300.0\n",
      "barDuration: 4.0\n",
      "number: 77\n",
      "offset: 304.0\n",
      "barDuration: 4.0\n",
      "number: 78\n",
      "offset: 308.0\n",
      "barDuration: 4.0\n",
      "number: 79\n",
      "offset: 312.0\n",
      "barDuration: 4.0\n",
      "number: 80\n",
      "offset: 316.0\n",
      "barDuration: 4.0\n",
      "number: 81\n",
      "offset: 320.0\n",
      "barDuration: 4.0\n",
      "number: 82\n",
      "offset: 324.0\n",
      "barDuration: 4.0\n",
      "number: 83\n",
      "offset: 328.0\n",
      "barDuration: 4.0\n",
      "number: 84\n",
      "offset: 332.0\n",
      "barDuration: 4.0\n",
      "number: 85\n",
      "offset: 336.0\n",
      "barDuration: 4.0\n",
      "number: 86\n",
      "offset: 340.0\n",
      "barDuration: 4.0\n",
      "number: 87\n",
      "offset: 344.0\n",
      "barDuration: 4.0\n",
      "number: 88\n",
      "offset: 348.0\n",
      "barDuration: 4.0\n",
      "number: 89\n",
      "offset: 352.0\n",
      "barDuration: 4.0\n",
      "number: 90\n",
      "offset: 356.0\n",
      "barDuration: 4.0\n",
      "number: 91\n",
      "offset: 360.0\n",
      "barDuration: 4.0\n",
      "number: 1\n",
      "offset: 0.0\n",
      "barDuration: 4.0\n",
      "number: 2\n",
      "offset: 4.0\n",
      "barDuration: 4.0\n",
      "number: 3\n",
      "offset: 8.0\n",
      "barDuration: 4.0\n",
      "number: 4\n",
      "offset: 12.0\n",
      "barDuration: 4.0\n",
      "number: 5\n",
      "offset: 16.0\n",
      "barDuration: 4.0\n",
      "number: 6\n",
      "offset: 20.0\n",
      "barDuration: 4.0\n",
      "number: 7\n",
      "offset: 24.0\n",
      "barDuration: 4.0\n",
      "number: 8\n",
      "offset: 28.0\n",
      "barDuration: 4.0\n",
      "number: 9\n",
      "offset: 32.0\n",
      "barDuration: 4.0\n",
      "number: 10\n",
      "offset: 36.0\n",
      "barDuration: 4.0\n",
      "number: 11\n",
      "offset: 40.0\n",
      "barDuration: 4.0\n",
      "number: 12\n",
      "offset: 44.0\n",
      "barDuration: 4.0\n",
      "number: 13\n",
      "offset: 48.0\n",
      "barDuration: 4.0\n",
      "number: 14\n",
      "offset: 52.0\n",
      "barDuration: 4.0\n",
      "number: 15\n",
      "offset: 56.0\n",
      "barDuration: 4.0\n",
      "number: 16\n",
      "offset: 60.0\n",
      "barDuration: 4.0\n",
      "number: 17\n",
      "offset: 64.0\n",
      "barDuration: 4.0\n",
      "number: 18\n",
      "offset: 68.0\n",
      "barDuration: 4.0\n",
      "number: 19\n",
      "offset: 72.0\n",
      "barDuration: 4.0\n",
      "number: 20\n",
      "offset: 76.0\n",
      "barDuration: 4.0\n",
      "number: 21\n",
      "offset: 80.0\n",
      "barDuration: 4.0\n",
      "number: 22\n",
      "offset: 84.0\n",
      "barDuration: 4.0\n",
      "number: 23\n",
      "offset: 88.0\n",
      "barDuration: 4.0\n",
      "number: 24\n",
      "offset: 92.0\n",
      "barDuration: 4.0\n",
      "number: 25\n",
      "offset: 96.0\n",
      "barDuration: 4.0\n",
      "number: 26\n",
      "offset: 100.0\n",
      "barDuration: 4.0\n",
      "number: 27\n",
      "offset: 104.0\n",
      "barDuration: 4.0\n",
      "number: 28\n",
      "offset: 108.0\n",
      "barDuration: 4.0\n",
      "number: 29\n",
      "offset: 112.0\n",
      "barDuration: 4.0\n",
      "number: 30\n",
      "offset: 116.0\n",
      "barDuration: 4.0\n",
      "number: 31\n",
      "offset: 120.0\n",
      "barDuration: 4.0\n",
      "number: 32\n",
      "offset: 124.0\n",
      "barDuration: 4.0\n",
      "number: 33\n",
      "offset: 128.0\n",
      "barDuration: 4.0\n",
      "number: 34\n",
      "offset: 132.0\n",
      "barDuration: 4.0\n",
      "number: 35\n",
      "offset: 136.0\n",
      "barDuration: 4.0\n",
      "number: 36\n",
      "offset: 140.0\n",
      "barDuration: 4.0\n",
      "number: 37\n",
      "offset: 144.0\n",
      "barDuration: 4.0\n",
      "number: 38\n",
      "offset: 148.0\n",
      "barDuration: 4.0\n",
      "number: 39\n",
      "offset: 152.0\n",
      "barDuration: 4.0\n",
      "number: 40\n",
      "offset: 156.0\n",
      "barDuration: 4.0\n",
      "number: 41\n",
      "offset: 160.0\n",
      "barDuration: 4.0\n",
      "number: 42\n",
      "offset: 164.0\n",
      "barDuration: 4.0\n",
      "number: 43\n",
      "offset: 168.0\n",
      "barDuration: 4.0\n",
      "number: 44\n",
      "offset: 172.0\n",
      "barDuration: 4.0\n",
      "number: 45\n",
      "offset: 176.0\n",
      "barDuration: 4.0\n",
      "number: 46\n",
      "offset: 180.0\n",
      "barDuration: 4.0\n",
      "number: 47\n",
      "offset: 184.0\n",
      "barDuration: 4.0\n",
      "number: 48\n",
      "offset: 188.0\n",
      "barDuration: 4.0\n",
      "number: 49\n",
      "offset: 192.0\n",
      "barDuration: 4.0\n",
      "number: 50\n",
      "offset: 196.0\n",
      "barDuration: 4.0\n",
      "number: 51\n",
      "offset: 200.0\n",
      "barDuration: 4.0\n",
      "number: 52\n",
      "offset: 204.0\n",
      "barDuration: 4.0\n",
      "number: 53\n",
      "offset: 208.0\n",
      "barDuration: 4.0\n",
      "number: 54\n",
      "offset: 212.0\n",
      "barDuration: 4.0\n",
      "number: 55\n",
      "offset: 216.0\n",
      "barDuration: 4.0\n",
      "number: 56\n",
      "offset: 220.0\n",
      "barDuration: 4.0\n",
      "number: 57\n",
      "offset: 224.0\n",
      "barDuration: 4.0\n",
      "number: 58\n",
      "offset: 228.0\n",
      "barDuration: 4.0\n",
      "number: 59\n",
      "offset: 232.0\n",
      "barDuration: 4.0\n",
      "number: 60\n",
      "offset: 236.0\n",
      "barDuration: 4.0\n",
      "number: 61\n",
      "offset: 240.0\n",
      "barDuration: 4.0\n",
      "number: 62\n",
      "offset: 244.0\n",
      "barDuration: 4.0\n",
      "number: 63\n",
      "offset: 248.0\n",
      "barDuration: 4.0\n",
      "number: 64\n",
      "offset: 252.0\n",
      "barDuration: 4.0\n",
      "number: 65\n",
      "offset: 256.0\n",
      "barDuration: 4.0\n",
      "number: 66\n",
      "offset: 260.0\n",
      "barDuration: 4.0\n",
      "number: 67\n",
      "offset: 264.0\n",
      "barDuration: 4.0\n",
      "number: 68\n",
      "offset: 268.0\n",
      "barDuration: 4.0\n",
      "number: 69\n",
      "offset: 272.0\n",
      "barDuration: 4.0\n",
      "number: 70\n",
      "offset: 276.0\n",
      "barDuration: 4.0\n",
      "number: 71\n",
      "offset: 280.0\n",
      "barDuration: 4.0\n",
      "number: 72\n",
      "offset: 284.0\n",
      "barDuration: 4.0\n",
      "number: 73\n",
      "offset: 288.0\n",
      "barDuration: 4.0\n",
      "number: 74\n",
      "offset: 292.0\n",
      "barDuration: 4.0\n",
      "number: 75\n",
      "offset: 296.0\n",
      "barDuration: 4.0\n",
      "number: 76\n",
      "offset: 300.0\n",
      "barDuration: 4.0\n",
      "number: 77\n",
      "offset: 304.0\n",
      "barDuration: 4.0\n",
      "number: 78\n",
      "offset: 308.0\n",
      "barDuration: 4.0\n",
      "number: 79\n",
      "offset: 312.0\n",
      "barDuration: 4.0\n",
      "number: 80\n",
      "offset: 316.0\n",
      "barDuration: 4.0\n",
      "number: 81\n",
      "offset: 320.0\n",
      "barDuration: 4.0\n",
      "number: 82\n",
      "offset: 324.0\n",
      "barDuration: 4.0\n",
      "number: 83\n",
      "offset: 328.0\n",
      "barDuration: 4.0\n",
      "number: 84\n",
      "offset: 332.0\n",
      "barDuration: 4.0\n",
      "number: 85\n",
      "offset: 336.0\n",
      "barDuration: 4.0\n",
      "number: 86\n",
      "offset: 340.0\n",
      "barDuration: 4.0\n",
      "number: 87\n",
      "offset: 344.0\n",
      "barDuration: 4.0\n",
      "number: 88\n",
      "offset: 348.0\n",
      "barDuration: 4.0\n",
      "number: 89\n",
      "offset: 352.0\n",
      "barDuration: 4.0\n",
      "number: 90\n",
      "offset: 356.0\n",
      "barDuration: 4.0\n",
      "number: 91\n",
      "offset: 360.0\n",
      "barDuration: 4.0\n",
      "number: 1\n",
      "offset: 0.0\n",
      "barDuration: 4.0\n",
      "number: 2\n",
      "offset: 4.0\n",
      "barDuration: 4.0\n",
      "number: 3\n",
      "offset: 8.0\n",
      "barDuration: 4.0\n",
      "number: 4\n",
      "offset: 12.0\n",
      "barDuration: 4.0\n",
      "number: 5\n",
      "offset: 16.0\n",
      "barDuration: 4.0\n",
      "number: 6\n",
      "offset: 20.0\n",
      "barDuration: 4.0\n",
      "number: 7\n",
      "offset: 24.0\n",
      "barDuration: 4.0\n",
      "number: 8\n",
      "offset: 28.0\n",
      "barDuration: 4.0\n",
      "number: 9\n",
      "offset: 32.0\n",
      "barDuration: 4.0\n",
      "number: 10\n",
      "offset: 36.0\n",
      "barDuration: 4.0\n",
      "number: 11\n",
      "offset: 40.0\n",
      "barDuration: 4.0\n",
      "number: 12\n",
      "offset: 44.0\n",
      "barDuration: 4.0\n",
      "number: 13\n",
      "offset: 48.0\n",
      "barDuration: 4.0\n",
      "number: 14\n",
      "offset: 52.0\n",
      "barDuration: 4.0\n",
      "number: 15\n",
      "offset: 56.0\n",
      "barDuration: 4.0\n",
      "number: 16\n",
      "offset: 60.0\n",
      "barDuration: 4.0\n",
      "number: 17\n",
      "offset: 64.0\n",
      "barDuration: 4.0\n",
      "number: 18\n",
      "offset: 68.0\n",
      "barDuration: 4.0\n",
      "number: 19\n",
      "offset: 72.0\n",
      "barDuration: 4.0\n",
      "number: 20\n",
      "offset: 76.0\n",
      "barDuration: 4.0\n",
      "number: 21\n",
      "offset: 80.0\n",
      "barDuration: 4.0\n",
      "number: 22\n",
      "offset: 84.0\n",
      "barDuration: 4.0\n",
      "number: 23\n",
      "offset: 88.0\n",
      "barDuration: 4.0\n",
      "number: 24\n",
      "offset: 92.0\n",
      "barDuration: 4.0\n",
      "number: 25\n",
      "offset: 96.0\n",
      "barDuration: 4.0\n",
      "number: 26\n",
      "offset: 100.0\n",
      "barDuration: 4.0\n",
      "number: 27\n",
      "offset: 104.0\n",
      "barDuration: 4.0\n",
      "number: 28\n",
      "offset: 108.0\n",
      "barDuration: 4.0\n",
      "number: 29\n",
      "offset: 112.0\n",
      "barDuration: 4.0\n",
      "number: 30\n",
      "offset: 116.0\n",
      "barDuration: 4.0\n",
      "number: 31\n",
      "offset: 120.0\n",
      "barDuration: 4.0\n",
      "number: 32\n",
      "offset: 124.0\n",
      "barDuration: 4.0\n",
      "number: 33\n",
      "offset: 128.0\n",
      "barDuration: 4.0\n",
      "number: 34\n",
      "offset: 132.0\n",
      "barDuration: 4.0\n",
      "number: 35\n",
      "offset: 136.0\n",
      "barDuration: 4.0\n",
      "number: 36\n",
      "offset: 140.0\n",
      "barDuration: 4.0\n",
      "number: 37\n",
      "offset: 144.0\n",
      "barDuration: 4.0\n",
      "number: 38\n",
      "offset: 148.0\n",
      "barDuration: 4.0\n",
      "number: 39\n",
      "offset: 152.0\n",
      "barDuration: 4.0\n",
      "number: 40\n",
      "offset: 156.0\n",
      "barDuration: 4.0\n",
      "number: 41\n",
      "offset: 160.0\n",
      "barDuration: 4.0\n",
      "number: 42\n",
      "offset: 164.0\n",
      "barDuration: 4.0\n",
      "number: 43\n",
      "offset: 168.0\n",
      "barDuration: 4.0\n",
      "number: 44\n",
      "offset: 172.0\n",
      "barDuration: 4.0\n",
      "number: 45\n",
      "offset: 176.0\n",
      "barDuration: 4.0\n",
      "number: 46\n",
      "offset: 180.0\n",
      "barDuration: 4.0\n",
      "number: 47\n",
      "offset: 184.0\n",
      "barDuration: 4.0\n",
      "number: 48\n",
      "offset: 188.0\n",
      "barDuration: 4.0\n",
      "number: 49\n",
      "offset: 192.0\n",
      "barDuration: 4.0\n",
      "number: 50\n",
      "offset: 196.0\n",
      "barDuration: 4.0\n",
      "number: 51\n",
      "offset: 200.0\n",
      "barDuration: 4.0\n",
      "number: 52\n",
      "offset: 204.0\n",
      "barDuration: 4.0\n",
      "number: 53\n",
      "offset: 208.0\n",
      "barDuration: 4.0\n",
      "number: 54\n",
      "offset: 212.0\n",
      "barDuration: 4.0\n",
      "number: 55\n",
      "offset: 216.0\n",
      "barDuration: 4.0\n",
      "number: 56\n",
      "offset: 220.0\n",
      "barDuration: 4.0\n",
      "number: 57\n",
      "offset: 224.0\n",
      "barDuration: 4.0\n",
      "number: 58\n",
      "offset: 228.0\n",
      "barDuration: 4.0\n",
      "number: 59\n",
      "offset: 232.0\n",
      "barDuration: 4.0\n",
      "number: 60\n",
      "offset: 236.0\n",
      "barDuration: 4.0\n",
      "number: 61\n",
      "offset: 240.0\n",
      "barDuration: 4.0\n",
      "number: 62\n",
      "offset: 244.0\n",
      "barDuration: 4.0\n",
      "number: 63\n",
      "offset: 248.0\n",
      "barDuration: 4.0\n",
      "number: 64\n",
      "offset: 252.0\n",
      "barDuration: 4.0\n",
      "number: 65\n",
      "offset: 256.0\n",
      "barDuration: 4.0\n",
      "number: 66\n",
      "offset: 260.0\n",
      "barDuration: 4.0\n",
      "number: 67\n",
      "offset: 264.0\n",
      "barDuration: 4.0\n",
      "number: 68\n",
      "offset: 268.0\n",
      "barDuration: 4.0\n",
      "number: 69\n",
      "offset: 272.0\n",
      "barDuration: 4.0\n",
      "number: 1\n",
      "offset: 0.0\n",
      "barDuration: 4.0\n",
      "number: 2\n",
      "offset: 4.0\n",
      "barDuration: 4.0\n",
      "number: 3\n",
      "offset: 8.0\n",
      "barDuration: 4.0\n",
      "number: 4\n",
      "offset: 12.0\n",
      "barDuration: 4.0\n",
      "number: 5\n",
      "offset: 16.0\n",
      "barDuration: 4.0\n",
      "number: 6\n",
      "offset: 20.0\n",
      "barDuration: 4.0\n",
      "number: 7\n",
      "offset: 24.0\n",
      "barDuration: 4.0\n",
      "number: 8\n",
      "offset: 28.0\n",
      "barDuration: 4.0\n",
      "number: 9\n",
      "offset: 32.0\n",
      "barDuration: 4.0\n",
      "number: 10\n",
      "offset: 36.0\n",
      "barDuration: 4.0\n",
      "number: 11\n",
      "offset: 40.0\n",
      "barDuration: 4.0\n",
      "number: 12\n",
      "offset: 44.0\n",
      "barDuration: 4.0\n",
      "number: 13\n",
      "offset: 48.0\n",
      "barDuration: 4.0\n",
      "number: 14\n",
      "offset: 52.0\n",
      "barDuration: 4.0\n",
      "number: 15\n",
      "offset: 56.0\n",
      "barDuration: 4.0\n",
      "number: 16\n",
      "offset: 60.0\n",
      "barDuration: 4.0\n",
      "number: 17\n",
      "offset: 64.0\n",
      "barDuration: 4.0\n",
      "number: 18\n",
      "offset: 68.0\n",
      "barDuration: 4.0\n",
      "number: 19\n",
      "offset: 72.0\n",
      "barDuration: 4.0\n",
      "number: 20\n",
      "offset: 76.0\n",
      "barDuration: 4.0\n",
      "number: 21\n",
      "offset: 80.0\n",
      "barDuration: 4.0\n",
      "number: 22\n",
      "offset: 84.0\n",
      "barDuration: 4.0\n",
      "number: 23\n",
      "offset: 88.0\n",
      "barDuration: 4.0\n",
      "number: 24\n",
      "offset: 92.0\n",
      "barDuration: 4.0\n",
      "number: 25\n",
      "offset: 96.0\n",
      "barDuration: 4.0\n",
      "number: 26\n",
      "offset: 100.0\n",
      "barDuration: 4.0\n",
      "number: 27\n",
      "offset: 104.0\n",
      "barDuration: 4.0\n",
      "number: 28\n",
      "offset: 108.0\n",
      "barDuration: 4.0\n",
      "number: 29\n",
      "offset: 112.0\n",
      "barDuration: 4.0\n",
      "number: 30\n",
      "offset: 116.0\n",
      "barDuration: 4.0\n",
      "number: 31\n",
      "offset: 120.0\n",
      "barDuration: 4.0\n",
      "number: 32\n",
      "offset: 124.0\n",
      "barDuration: 4.0\n",
      "number: 33\n",
      "offset: 128.0\n",
      "barDuration: 4.0\n",
      "number: 34\n",
      "offset: 132.0\n",
      "barDuration: 4.0\n",
      "number: 35\n",
      "offset: 136.0\n",
      "barDuration: 4.0\n",
      "number: 36\n",
      "offset: 140.0\n",
      "barDuration: 4.0\n",
      "number: 37\n",
      "offset: 144.0\n",
      "barDuration: 4.0\n",
      "number: 38\n",
      "offset: 148.0\n",
      "barDuration: 4.0\n",
      "number: 39\n",
      "offset: 152.0\n",
      "barDuration: 4.0\n",
      "number: 40\n",
      "offset: 156.0\n",
      "barDuration: 4.0\n",
      "number: 41\n",
      "offset: 160.0\n",
      "barDuration: 4.0\n",
      "number: 42\n",
      "offset: 164.0\n",
      "barDuration: 4.0\n",
      "number: 43\n",
      "offset: 168.0\n",
      "barDuration: 4.0\n",
      "number: 44\n",
      "offset: 172.0\n",
      "barDuration: 4.0\n",
      "number: 45\n",
      "offset: 176.0\n",
      "barDuration: 4.0\n",
      "number: 46\n",
      "offset: 180.0\n",
      "barDuration: 4.0\n",
      "number: 47\n",
      "offset: 184.0\n",
      "barDuration: 4.0\n",
      "number: 48\n",
      "offset: 188.0\n",
      "barDuration: 4.0\n",
      "number: 49\n",
      "offset: 192.0\n",
      "barDuration: 4.0\n",
      "number: 50\n",
      "offset: 196.0\n",
      "barDuration: 4.0\n",
      "number: 51\n",
      "offset: 200.0\n",
      "barDuration: 4.0\n",
      "number: 52\n",
      "offset: 204.0\n",
      "barDuration: 4.0\n",
      "number: 53\n",
      "offset: 208.0\n",
      "barDuration: 4.0\n",
      "number: 54\n",
      "offset: 212.0\n",
      "barDuration: 4.0\n",
      "number: 55\n",
      "offset: 216.0\n",
      "barDuration: 4.0\n",
      "number: 56\n",
      "offset: 220.0\n",
      "barDuration: 4.0\n",
      "number: 57\n",
      "offset: 224.0\n",
      "barDuration: 4.0\n",
      "number: 58\n",
      "offset: 228.0\n",
      "barDuration: 4.0\n",
      "number: 59\n",
      "offset: 232.0\n",
      "barDuration: 4.0\n",
      "number: 60\n",
      "offset: 236.0\n",
      "barDuration: 4.0\n",
      "number: 61\n",
      "offset: 240.0\n",
      "barDuration: 4.0\n",
      "number: 62\n",
      "offset: 244.0\n",
      "barDuration: 4.0\n",
      "number: 63\n",
      "offset: 248.0\n",
      "barDuration: 4.0\n",
      "number: 64\n",
      "offset: 252.0\n",
      "barDuration: 4.0\n",
      "number: 65\n",
      "offset: 256.0\n",
      "barDuration: 4.0\n",
      "number: 66\n",
      "offset: 260.0\n",
      "barDuration: 4.0\n",
      "number: 67\n",
      "offset: 264.0\n",
      "barDuration: 4.0\n",
      "number: 68\n",
      "offset: 268.0\n",
      "barDuration: 4.0\n",
      "number: 69\n",
      "offset: 272.0\n",
      "barDuration: 4.0\n",
      "number: 1\n",
      "offset: 0.0\n",
      "barDuration: 4.0\n",
      "number: 2\n",
      "offset: 4.0\n",
      "barDuration: 4.0\n",
      "number: 3\n",
      "offset: 8.0\n",
      "barDuration: 4.0\n",
      "number: 4\n",
      "offset: 12.0\n",
      "barDuration: 4.0\n",
      "number: 5\n",
      "offset: 16.0\n",
      "barDuration: 4.0\n",
      "number: 6\n",
      "offset: 20.0\n",
      "barDuration: 4.0\n",
      "number: 7\n",
      "offset: 24.0\n",
      "barDuration: 4.0\n",
      "number: 8\n",
      "offset: 28.0\n",
      "barDuration: 4.0\n",
      "number: 9\n",
      "offset: 32.0\n",
      "barDuration: 4.0\n",
      "number: 10\n",
      "offset: 36.0\n",
      "barDuration: 4.0\n",
      "number: 11\n",
      "offset: 40.0\n",
      "barDuration: 4.0\n",
      "number: 12\n",
      "offset: 44.0\n",
      "barDuration: 4.0\n",
      "number: 13\n",
      "offset: 48.0\n",
      "barDuration: 4.0\n",
      "number: 14\n",
      "offset: 52.0\n",
      "barDuration: 4.0\n",
      "number: 15\n",
      "offset: 56.0\n",
      "barDuration: 4.0\n",
      "number: 16\n",
      "offset: 60.0\n",
      "barDuration: 4.0\n",
      "number: 17\n",
      "offset: 64.0\n",
      "barDuration: 4.0\n",
      "number: 18\n",
      "offset: 68.0\n",
      "barDuration: 4.0\n",
      "number: 19\n",
      "offset: 72.0\n",
      "barDuration: 4.0\n",
      "number: 20\n",
      "offset: 76.0\n",
      "barDuration: 4.0\n",
      "number: 21\n",
      "offset: 80.0\n",
      "barDuration: 4.0\n",
      "number: 22\n",
      "offset: 84.0\n",
      "barDuration: 4.0\n",
      "number: 23\n",
      "offset: 88.0\n",
      "barDuration: 4.0\n",
      "number: 24\n",
      "offset: 92.0\n",
      "barDuration: 4.0\n",
      "number: 25\n",
      "offset: 96.0\n",
      "barDuration: 4.0\n",
      "number: 26\n",
      "offset: 100.0\n",
      "barDuration: 4.0\n",
      "number: 27\n",
      "offset: 104.0\n",
      "barDuration: 4.0\n",
      "number: 28\n",
      "offset: 108.0\n",
      "barDuration: 4.0\n",
      "number: 29\n",
      "offset: 112.0\n",
      "barDuration: 4.0\n",
      "number: 30\n",
      "offset: 116.0\n",
      "barDuration: 4.0\n",
      "number: 31\n",
      "offset: 120.0\n",
      "barDuration: 4.0\n",
      "number: 32\n",
      "offset: 124.0\n",
      "barDuration: 4.0\n",
      "number: 33\n",
      "offset: 128.0\n",
      "barDuration: 4.0\n",
      "number: 34\n",
      "offset: 132.0\n",
      "barDuration: 4.0\n",
      "number: 35\n",
      "offset: 136.0\n",
      "barDuration: 4.0\n",
      "number: 36\n",
      "offset: 140.0\n",
      "barDuration: 4.0\n",
      "number: 37\n",
      "offset: 144.0\n",
      "barDuration: 4.0\n",
      "number: 38\n",
      "offset: 148.0\n",
      "barDuration: 4.0\n",
      "number: 39\n",
      "offset: 152.0\n",
      "barDuration: 4.0\n",
      "number: 40\n",
      "offset: 156.0\n",
      "barDuration: 4.0\n",
      "number: 41\n",
      "offset: 160.0\n",
      "barDuration: 4.0\n",
      "number: 42\n",
      "offset: 164.0\n",
      "barDuration: 4.0\n",
      "number: 43\n",
      "offset: 168.0\n",
      "barDuration: 4.0\n",
      "number: 44\n",
      "offset: 172.0\n",
      "barDuration: 4.0\n",
      "number: 45\n",
      "offset: 176.0\n",
      "barDuration: 4.0\n",
      "number: 46\n",
      "offset: 180.0\n",
      "barDuration: 4.0\n",
      "number: 47\n",
      "offset: 184.0\n",
      "barDuration: 4.0\n",
      "number: 48\n",
      "offset: 188.0\n",
      "barDuration: 4.0\n",
      "number: 49\n",
      "offset: 192.0\n",
      "barDuration: 4.0\n",
      "number: 50\n",
      "offset: 196.0\n",
      "barDuration: 4.0\n",
      "number: 51\n",
      "offset: 200.0\n",
      "barDuration: 4.0\n",
      "number: 52\n",
      "offset: 204.0\n",
      "barDuration: 4.0\n",
      "number: 53\n",
      "offset: 208.0\n",
      "barDuration: 4.0\n",
      "number: 54\n",
      "offset: 212.0\n",
      "barDuration: 4.0\n",
      "number: 55\n",
      "offset: 216.0\n",
      "barDuration: 4.0\n",
      "number: 56\n",
      "offset: 220.0\n",
      "barDuration: 4.0\n",
      "number: 57\n",
      "offset: 224.0\n",
      "barDuration: 4.0\n",
      "number: 58\n",
      "offset: 228.0\n",
      "barDuration: 4.0\n",
      "number: 59\n",
      "offset: 232.0\n",
      "barDuration: 4.0\n",
      "number: 60\n",
      "offset: 236.0\n",
      "barDuration: 4.0\n",
      "number: 61\n",
      "offset: 240.0\n",
      "barDuration: 4.0\n",
      "number: 62\n",
      "offset: 244.0\n",
      "barDuration: 4.0\n",
      "number: 63\n",
      "offset: 248.0\n",
      "barDuration: 4.0\n",
      "number: 64\n",
      "offset: 252.0\n",
      "barDuration: 4.0\n",
      "number: 65\n",
      "offset: 256.0\n",
      "barDuration: 4.0\n",
      "number: 66\n",
      "offset: 260.0\n",
      "barDuration: 4.0\n",
      "number: 67\n",
      "offset: 264.0\n",
      "barDuration: 4.0\n",
      "number: 68\n",
      "offset: 268.0\n",
      "barDuration: 4.0\n",
      "number: 69\n",
      "offset: 272.0\n",
      "barDuration: 4.0\n",
      "number: 70\n",
      "offset: 276.0\n",
      "barDuration: 4.0\n",
      "number: 71\n",
      "offset: 280.0\n",
      "barDuration: 4.0\n",
      "number: 72\n",
      "offset: 284.0\n",
      "barDuration: 4.0\n",
      "number: 73\n",
      "offset: 288.0\n",
      "barDuration: 4.0\n",
      "number: 74\n",
      "offset: 292.0\n",
      "barDuration: 4.0\n",
      "number: 75\n",
      "offset: 296.0\n",
      "barDuration: 4.0\n",
      "number: 76\n",
      "offset: 300.0\n",
      "barDuration: 4.0\n",
      "number: 77\n",
      "offset: 304.0\n",
      "barDuration: 4.0\n",
      "number: 78\n",
      "offset: 308.0\n",
      "barDuration: 4.0\n",
      "number: 79\n",
      "offset: 312.0\n",
      "barDuration: 4.0\n",
      "number: 80\n",
      "offset: 316.0\n",
      "barDuration: 4.0\n",
      "number: 81\n",
      "offset: 320.0\n",
      "barDuration: 4.0\n",
      "number: 82\n",
      "offset: 324.0\n",
      "barDuration: 4.0\n",
      "number: 83\n",
      "offset: 328.0\n",
      "barDuration: 4.0\n",
      "number: 84\n",
      "offset: 332.0\n",
      "barDuration: 4.0\n",
      "number: 85\n",
      "offset: 336.0\n",
      "barDuration: 4.0\n",
      "number: 86\n",
      "offset: 340.0\n",
      "barDuration: 4.0\n",
      "number: 87\n",
      "offset: 344.0\n",
      "barDuration: 4.0\n",
      "number: 88\n",
      "offset: 348.0\n",
      "barDuration: 4.0\n",
      "number: 89\n",
      "offset: 352.0\n",
      "barDuration: 4.0\n",
      "number: 90\n",
      "offset: 356.0\n",
      "barDuration: 4.0\n",
      "number: 91\n",
      "offset: 360.0\n",
      "barDuration: 4.0\n",
      "number: 1\n",
      "offset: 0.0\n",
      "barDuration: 4.0\n",
      "number: 2\n",
      "offset: 4.0\n",
      "barDuration: 4.0\n",
      "number: 3\n",
      "offset: 8.0\n",
      "barDuration: 4.0\n",
      "number: 4\n",
      "offset: 12.0\n",
      "barDuration: 4.0\n",
      "number: 5\n",
      "offset: 16.0\n",
      "barDuration: 4.0\n",
      "number: 6\n",
      "offset: 20.0\n",
      "barDuration: 4.0\n",
      "number: 7\n",
      "offset: 24.0\n",
      "barDuration: 4.0\n",
      "number: 8\n",
      "offset: 28.0\n",
      "barDuration: 4.0\n",
      "number: 9\n",
      "offset: 32.0\n",
      "barDuration: 4.0\n",
      "number: 10\n",
      "offset: 36.0\n",
      "barDuration: 4.0\n",
      "number: 11\n",
      "offset: 40.0\n",
      "barDuration: 4.0\n",
      "number: 12\n",
      "offset: 44.0\n",
      "barDuration: 4.0\n",
      "number: 13\n",
      "offset: 48.0\n",
      "barDuration: 4.0\n",
      "number: 14\n",
      "offset: 52.0\n",
      "barDuration: 4.0\n",
      "number: 15\n",
      "offset: 56.0\n",
      "barDuration: 4.0\n",
      "number: 16\n",
      "offset: 60.0\n",
      "barDuration: 4.0\n",
      "number: 17\n",
      "offset: 64.0\n",
      "barDuration: 4.0\n",
      "number: 18\n",
      "offset: 68.0\n",
      "barDuration: 4.0\n",
      "number: 19\n",
      "offset: 72.0\n",
      "barDuration: 4.0\n",
      "number: 20\n",
      "offset: 76.0\n",
      "barDuration: 4.0\n",
      "number: 21\n",
      "offset: 80.0\n",
      "barDuration: 4.0\n",
      "number: 22\n",
      "offset: 84.0\n",
      "barDuration: 4.0\n",
      "number: 23\n",
      "offset: 88.0\n",
      "barDuration: 4.0\n",
      "number: 24\n",
      "offset: 92.0\n",
      "barDuration: 4.0\n",
      "number: 25\n",
      "offset: 96.0\n",
      "barDuration: 4.0\n",
      "number: 26\n",
      "offset: 100.0\n",
      "barDuration: 4.0\n",
      "number: 27\n",
      "offset: 104.0\n",
      "barDuration: 4.0\n",
      "number: 28\n",
      "offset: 108.0\n",
      "barDuration: 4.0\n",
      "number: 29\n",
      "offset: 112.0\n",
      "barDuration: 4.0\n",
      "number: 30\n",
      "offset: 116.0\n",
      "barDuration: 4.0\n",
      "number: 31\n",
      "offset: 120.0\n",
      "barDuration: 4.0\n",
      "number: 32\n",
      "offset: 124.0\n",
      "barDuration: 4.0\n",
      "number: 33\n",
      "offset: 128.0\n",
      "barDuration: 4.0\n",
      "number: 34\n",
      "offset: 132.0\n",
      "barDuration: 4.0\n",
      "number: 35\n",
      "offset: 136.0\n",
      "barDuration: 4.0\n",
      "number: 36\n",
      "offset: 140.0\n",
      "barDuration: 4.0\n",
      "number: 37\n",
      "offset: 144.0\n",
      "barDuration: 4.0\n",
      "number: 38\n",
      "offset: 148.0\n",
      "barDuration: 4.0\n",
      "number: 39\n",
      "offset: 152.0\n",
      "barDuration: 4.0\n",
      "number: 40\n",
      "offset: 156.0\n",
      "barDuration: 4.0\n",
      "number: 41\n",
      "offset: 160.0\n",
      "barDuration: 4.0\n",
      "number: 42\n",
      "offset: 164.0\n",
      "barDuration: 4.0\n",
      "number: 43\n",
      "offset: 168.0\n",
      "barDuration: 4.0\n",
      "number: 44\n",
      "offset: 172.0\n",
      "barDuration: 4.0\n",
      "number: 45\n",
      "offset: 176.0\n",
      "barDuration: 4.0\n",
      "number: 46\n",
      "offset: 180.0\n",
      "barDuration: 4.0\n",
      "number: 47\n",
      "offset: 184.0\n",
      "barDuration: 4.0\n",
      "number: 48\n",
      "offset: 188.0\n",
      "barDuration: 4.0\n",
      "number: 49\n",
      "offset: 192.0\n",
      "barDuration: 4.0\n",
      "number: 50\n",
      "offset: 196.0\n",
      "barDuration: 4.0\n",
      "number: 51\n",
      "offset: 200.0\n",
      "barDuration: 4.0\n",
      "number: 52\n",
      "offset: 204.0\n",
      "barDuration: 4.0\n",
      "number: 53\n",
      "offset: 208.0\n",
      "barDuration: 4.0\n",
      "number: 54\n",
      "offset: 212.0\n",
      "barDuration: 4.0\n",
      "number: 55\n",
      "offset: 216.0\n",
      "barDuration: 4.0\n",
      "number: 56\n",
      "offset: 220.0\n",
      "barDuration: 4.0\n",
      "number: 57\n",
      "offset: 224.0\n",
      "barDuration: 4.0\n",
      "number: 58\n",
      "offset: 228.0\n",
      "barDuration: 4.0\n",
      "number: 59\n",
      "offset: 232.0\n",
      "barDuration: 4.0\n",
      "number: 60\n",
      "offset: 236.0\n",
      "barDuration: 4.0\n",
      "number: 61\n",
      "offset: 240.0\n",
      "barDuration: 4.0\n",
      "number: 62\n",
      "offset: 244.0\n",
      "barDuration: 4.0\n",
      "number: 63\n",
      "offset: 248.0\n",
      "barDuration: 4.0\n",
      "number: 64\n",
      "offset: 252.0\n",
      "barDuration: 4.0\n",
      "number: 65\n",
      "offset: 256.0\n",
      "barDuration: 4.0\n",
      "number: 66\n",
      "offset: 260.0\n",
      "barDuration: 4.0\n",
      "number: 67\n",
      "offset: 264.0\n",
      "barDuration: 4.0\n",
      "number: 68\n",
      "offset: 268.0\n",
      "barDuration: 4.0\n",
      "number: 69\n",
      "offset: 272.0\n",
      "barDuration: 4.0\n",
      "number: 70\n",
      "offset: 276.0\n",
      "barDuration: 4.0\n",
      "number: 71\n",
      "offset: 280.0\n",
      "barDuration: 4.0\n",
      "number: 72\n",
      "offset: 284.0\n",
      "barDuration: 4.0\n",
      "number: 73\n",
      "offset: 288.0\n",
      "barDuration: 4.0\n",
      "number: 74\n",
      "offset: 292.0\n",
      "barDuration: 4.0\n",
      "number: 75\n",
      "offset: 296.0\n",
      "barDuration: 4.0\n",
      "number: 76\n",
      "offset: 300.0\n",
      "barDuration: 4.0\n",
      "number: 77\n",
      "offset: 304.0\n",
      "barDuration: 4.0\n",
      "number: 78\n",
      "offset: 308.0\n",
      "barDuration: 4.0\n",
      "number: 79\n",
      "offset: 312.0\n",
      "barDuration: 4.0\n",
      "number: 80\n",
      "offset: 316.0\n",
      "barDuration: 4.0\n",
      "number: 81\n",
      "offset: 320.0\n",
      "barDuration: 4.0\n",
      "number: 82\n",
      "offset: 324.0\n",
      "barDuration: 4.0\n",
      "number: 83\n",
      "offset: 328.0\n",
      "barDuration: 4.0\n",
      "number: 84\n",
      "offset: 332.0\n",
      "barDuration: 4.0\n",
      "number: 85\n",
      "offset: 336.0\n",
      "barDuration: 4.0\n",
      "number: 86\n",
      "offset: 340.0\n",
      "barDuration: 4.0\n",
      "number: 87\n",
      "offset: 344.0\n",
      "barDuration: 4.0\n",
      "number: 88\n",
      "offset: 348.0\n",
      "barDuration: 4.0\n",
      "number: 89\n",
      "offset: 352.0\n",
      "barDuration: 4.0\n",
      "number: 90\n",
      "offset: 356.0\n",
      "barDuration: 4.0\n",
      "number: 91\n",
      "offset: 360.0\n",
      "barDuration: 4.0\n",
      "number: 1\n",
      "offset: 0.0\n",
      "barDuration: 4.0\n",
      "number: 2\n",
      "offset: 4.0\n",
      "barDuration: 4.0\n",
      "number: 3\n",
      "offset: 8.0\n",
      "barDuration: 4.0\n",
      "number: 4\n",
      "offset: 12.0\n",
      "barDuration: 4.0\n",
      "number: 5\n",
      "offset: 16.0\n",
      "barDuration: 4.0\n",
      "number: 6\n",
      "offset: 20.0\n",
      "barDuration: 4.0\n",
      "number: 7\n",
      "offset: 24.0\n",
      "barDuration: 4.0\n",
      "number: 8\n",
      "offset: 28.0\n",
      "barDuration: 4.0\n",
      "number: 9\n",
      "offset: 32.0\n",
      "barDuration: 4.0\n",
      "number: 10\n",
      "offset: 36.0\n",
      "barDuration: 4.0\n",
      "number: 11\n",
      "offset: 40.0\n",
      "barDuration: 4.0\n",
      "number: 12\n",
      "offset: 44.0\n",
      "barDuration: 4.0\n",
      "number: 13\n",
      "offset: 48.0\n",
      "barDuration: 4.0\n",
      "number: 14\n",
      "offset: 52.0\n",
      "barDuration: 4.0\n",
      "number: 15\n",
      "offset: 56.0\n",
      "barDuration: 4.0\n",
      "number: 16\n",
      "offset: 60.0\n",
      "barDuration: 4.0\n",
      "number: 17\n",
      "offset: 64.0\n",
      "barDuration: 4.0\n",
      "number: 18\n",
      "offset: 68.0\n",
      "barDuration: 4.0\n",
      "number: 19\n",
      "offset: 72.0\n",
      "barDuration: 4.0\n",
      "number: 20\n",
      "offset: 76.0\n",
      "barDuration: 4.0\n",
      "number: 21\n",
      "offset: 80.0\n",
      "barDuration: 4.0\n",
      "number: 22\n",
      "offset: 84.0\n",
      "barDuration: 4.0\n",
      "number: 23\n",
      "offset: 88.0\n",
      "barDuration: 4.0\n",
      "number: 24\n",
      "offset: 92.0\n",
      "barDuration: 4.0\n",
      "number: 25\n",
      "offset: 96.0\n",
      "barDuration: 4.0\n",
      "number: 26\n",
      "offset: 100.0\n",
      "barDuration: 4.0\n",
      "number: 27\n",
      "offset: 104.0\n",
      "barDuration: 4.0\n",
      "number: 28\n",
      "offset: 108.0\n",
      "barDuration: 4.0\n",
      "number: 29\n",
      "offset: 112.0\n",
      "barDuration: 4.0\n",
      "number: 30\n",
      "offset: 116.0\n",
      "barDuration: 4.0\n",
      "number: 31\n",
      "offset: 120.0\n",
      "barDuration: 4.0\n",
      "number: 32\n",
      "offset: 124.0\n",
      "barDuration: 4.0\n",
      "number: 33\n",
      "offset: 128.0\n",
      "barDuration: 4.0\n",
      "number: 34\n",
      "offset: 132.0\n",
      "barDuration: 4.0\n",
      "number: 35\n",
      "offset: 136.0\n",
      "barDuration: 4.0\n",
      "number: 36\n",
      "offset: 140.0\n",
      "barDuration: 4.0\n",
      "number: 37\n",
      "offset: 144.0\n",
      "barDuration: 4.0\n",
      "number: 38\n",
      "offset: 148.0\n",
      "barDuration: 4.0\n",
      "number: 39\n",
      "offset: 152.0\n",
      "barDuration: 4.0\n",
      "number: 40\n",
      "offset: 156.0\n",
      "barDuration: 4.0\n",
      "number: 41\n",
      "offset: 160.0\n",
      "barDuration: 4.0\n",
      "number: 42\n",
      "offset: 164.0\n",
      "barDuration: 4.0\n",
      "number: 43\n",
      "offset: 168.0\n",
      "barDuration: 4.0\n",
      "number: 44\n",
      "offset: 172.0\n",
      "barDuration: 4.0\n",
      "number: 45\n",
      "offset: 176.0\n",
      "barDuration: 4.0\n",
      "number: 46\n",
      "offset: 180.0\n",
      "barDuration: 4.0\n",
      "number: 47\n",
      "offset: 184.0\n",
      "barDuration: 4.0\n",
      "number: 48\n",
      "offset: 188.0\n",
      "barDuration: 4.0\n",
      "number: 49\n",
      "offset: 192.0\n",
      "barDuration: 4.0\n",
      "number: 50\n",
      "offset: 196.0\n",
      "barDuration: 4.0\n",
      "number: 51\n",
      "offset: 200.0\n",
      "barDuration: 4.0\n",
      "number: 52\n",
      "offset: 204.0\n",
      "barDuration: 4.0\n",
      "number: 53\n",
      "offset: 208.0\n",
      "barDuration: 4.0\n",
      "number: 54\n",
      "offset: 212.0\n",
      "barDuration: 4.0\n",
      "number: 55\n",
      "offset: 216.0\n",
      "barDuration: 4.0\n",
      "number: 56\n",
      "offset: 220.0\n",
      "barDuration: 4.0\n",
      "number: 57\n",
      "offset: 224.0\n",
      "barDuration: 4.0\n",
      "number: 58\n",
      "offset: 228.0\n",
      "barDuration: 4.0\n",
      "number: 59\n",
      "offset: 232.0\n",
      "barDuration: 4.0\n",
      "number: 60\n",
      "offset: 236.0\n",
      "barDuration: 4.0\n",
      "number: 61\n",
      "offset: 240.0\n",
      "barDuration: 4.0\n",
      "number: 62\n",
      "offset: 244.0\n",
      "barDuration: 4.0\n",
      "number: 63\n",
      "offset: 248.0\n",
      "barDuration: 4.0\n",
      "number: 64\n",
      "offset: 252.0\n",
      "barDuration: 4.0\n",
      "number: 65\n",
      "offset: 256.0\n",
      "barDuration: 4.0\n",
      "number: 66\n",
      "offset: 260.0\n",
      "barDuration: 4.0\n",
      "number: 67\n",
      "offset: 264.0\n",
      "barDuration: 4.0\n",
      "number: 68\n",
      "offset: 268.0\n",
      "barDuration: 4.0\n",
      "number: 69\n",
      "offset: 272.0\n",
      "barDuration: 4.0\n",
      "number: 70\n",
      "offset: 276.0\n",
      "barDuration: 4.0\n",
      "number: 71\n",
      "offset: 280.0\n",
      "barDuration: 4.0\n",
      "number: 72\n",
      "offset: 284.0\n",
      "barDuration: 4.0\n",
      "number: 73\n",
      "offset: 288.0\n",
      "barDuration: 4.0\n",
      "number: 74\n",
      "offset: 292.0\n",
      "barDuration: 4.0\n",
      "number: 75\n",
      "offset: 296.0\n",
      "barDuration: 4.0\n",
      "number: 76\n",
      "offset: 300.0\n",
      "barDuration: 4.0\n",
      "number: 77\n",
      "offset: 304.0\n",
      "barDuration: 4.0\n",
      "number: 78\n",
      "offset: 308.0\n",
      "barDuration: 4.0\n",
      "number: 79\n",
      "offset: 312.0\n",
      "barDuration: 4.0\n",
      "number: 80\n",
      "offset: 316.0\n",
      "barDuration: 4.0\n",
      "number: 81\n",
      "offset: 320.0\n",
      "barDuration: 4.0\n",
      "number: 82\n",
      "offset: 324.0\n",
      "barDuration: 4.0\n",
      "number: 83\n",
      "offset: 328.0\n",
      "barDuration: 4.0\n",
      "number: 84\n",
      "offset: 332.0\n",
      "barDuration: 4.0\n",
      "number: 85\n",
      "offset: 336.0\n",
      "barDuration: 4.0\n",
      "number: 86\n",
      "offset: 340.0\n",
      "barDuration: 4.0\n",
      "number: 87\n",
      "offset: 344.0\n",
      "barDuration: 4.0\n",
      "number: 88\n",
      "offset: 348.0\n",
      "barDuration: 4.0\n",
      "number: 89\n",
      "offset: 352.0\n",
      "barDuration: 4.0\n",
      "number: 90\n",
      "offset: 356.0\n",
      "barDuration: 4.0\n",
      "number: 91\n",
      "offset: 360.0\n",
      "barDuration: 4.0\n"
     ]
    }
   ],
   "source": [
    "for part in first_track_music21.getElementsByClass('Part'):\n",
    "    for measure in part.getElementsByClass('Measure'):\n",
    "        print(\"number:\", measure.number)\n",
    "        print(\"offset:\", measure.offset)\n",
    "        print(\"barDuration:\", measure.barDuration.quarterLength)\n"
   ]
  },
  {
   "cell_type": "code",
   "execution_count": 59,
   "id": "810e806e-ec2c-4bc1-b024-30ac3f122da6",
   "metadata": {},
   "outputs": [
    {
     "name": "stdout",
     "output_type": "stream",
     "text": [
      "number: 1\n",
      "offset: 0.0\n",
      "barDuration: 4.0\n",
      "number: 2\n",
      "offset: 4.0\n",
      "barDuration: 4.0\n",
      "number: 3\n",
      "offset: 8.0\n",
      "barDuration: 4.0\n",
      "number: 4\n",
      "offset: 12.0\n",
      "barDuration: 4.0\n",
      "number: 5\n",
      "offset: 16.0\n",
      "barDuration: 4.0\n",
      "number: 6\n",
      "offset: 20.0\n",
      "barDuration: 4.0\n",
      "number: 7\n",
      "offset: 24.0\n",
      "barDuration: 4.0\n",
      "number: 8\n",
      "offset: 28.0\n",
      "barDuration: 4.0\n",
      "number: 9\n",
      "offset: 32.0\n",
      "barDuration: 4.0\n",
      "number: 10\n",
      "offset: 36.0\n",
      "barDuration: 4.0\n",
      "number: 11\n",
      "offset: 40.0\n",
      "barDuration: 4.0\n",
      "number: 12\n",
      "offset: 44.0\n",
      "barDuration: 4.0\n",
      "number: 13\n",
      "offset: 48.0\n",
      "barDuration: 4.0\n",
      "number: 14\n",
      "offset: 52.0\n",
      "barDuration: 4.0\n",
      "number: 15\n",
      "offset: 56.0\n",
      "barDuration: 4.0\n",
      "number: 16\n",
      "offset: 60.0\n",
      "barDuration: 4.0\n",
      "number: 17\n",
      "offset: 64.0\n",
      "barDuration: 4.0\n",
      "number: 18\n",
      "offset: 68.0\n",
      "barDuration: 4.0\n",
      "number: 19\n",
      "offset: 72.0\n",
      "barDuration: 4.0\n",
      "number: 20\n",
      "offset: 76.0\n",
      "barDuration: 4.0\n",
      "number: 21\n",
      "offset: 80.0\n",
      "barDuration: 4.0\n",
      "number: 22\n",
      "offset: 84.0\n",
      "barDuration: 4.0\n",
      "number: 23\n",
      "offset: 88.0\n",
      "barDuration: 4.0\n",
      "number: 24\n",
      "offset: 92.0\n",
      "barDuration: 4.0\n",
      "number: 25\n",
      "offset: 96.0\n",
      "barDuration: 4.0\n",
      "number: 26\n",
      "offset: 100.0\n",
      "barDuration: 4.0\n",
      "number: 27\n",
      "offset: 104.0\n",
      "barDuration: 4.0\n",
      "number: 28\n",
      "offset: 108.0\n",
      "barDuration: 4.0\n",
      "number: 29\n",
      "offset: 112.0\n",
      "barDuration: 4.0\n",
      "number: 30\n",
      "offset: 116.0\n",
      "barDuration: 4.0\n",
      "number: 31\n",
      "offset: 120.0\n",
      "barDuration: 4.0\n",
      "number: 32\n",
      "offset: 124.0\n",
      "barDuration: 4.0\n",
      "number: 33\n",
      "offset: 128.0\n",
      "barDuration: 4.0\n",
      "number: 34\n",
      "offset: 132.0\n",
      "barDuration: 4.0\n",
      "number: 35\n",
      "offset: 136.0\n",
      "barDuration: 4.0\n",
      "number: 36\n",
      "offset: 140.0\n",
      "barDuration: 4.0\n",
      "number: 37\n",
      "offset: 144.0\n",
      "barDuration: 4.0\n",
      "number: 38\n",
      "offset: 148.0\n",
      "barDuration: 4.0\n",
      "number: 39\n",
      "offset: 152.0\n",
      "barDuration: 4.0\n",
      "number: 40\n",
      "offset: 156.0\n",
      "barDuration: 4.0\n",
      "number: 41\n",
      "offset: 160.0\n",
      "barDuration: 4.0\n",
      "number: 42\n",
      "offset: 164.0\n",
      "barDuration: 4.0\n",
      "number: 43\n",
      "offset: 168.0\n",
      "barDuration: 4.0\n",
      "number: 44\n",
      "offset: 172.0\n",
      "barDuration: 4.0\n",
      "number: 45\n",
      "offset: 176.0\n",
      "barDuration: 4.0\n",
      "number: 46\n",
      "offset: 180.0\n",
      "barDuration: 4.0\n",
      "number: 47\n",
      "offset: 184.0\n",
      "barDuration: 4.0\n",
      "number: 48\n",
      "offset: 188.0\n",
      "barDuration: 4.0\n",
      "number: 49\n",
      "offset: 192.0\n",
      "barDuration: 4.0\n",
      "number: 50\n",
      "offset: 196.0\n",
      "barDuration: 4.0\n",
      "number: 51\n",
      "offset: 200.0\n",
      "barDuration: 4.0\n",
      "number: 52\n",
      "offset: 204.0\n",
      "barDuration: 4.0\n",
      "number: 53\n",
      "offset: 208.0\n",
      "barDuration: 4.0\n",
      "number: 54\n",
      "offset: 212.0\n",
      "barDuration: 4.0\n",
      "number: 55\n",
      "offset: 216.0\n",
      "barDuration: 4.0\n",
      "number: 56\n",
      "offset: 220.0\n",
      "barDuration: 4.0\n",
      "number: 57\n",
      "offset: 224.0\n",
      "barDuration: 4.0\n",
      "number: 58\n",
      "offset: 228.0\n",
      "barDuration: 4.0\n",
      "number: 59\n",
      "offset: 232.0\n",
      "barDuration: 4.0\n",
      "number: 60\n",
      "offset: 236.0\n",
      "barDuration: 4.0\n",
      "number: 61\n",
      "offset: 240.0\n",
      "barDuration: 4.0\n",
      "number: 62\n",
      "offset: 244.0\n",
      "barDuration: 4.0\n",
      "number: 63\n",
      "offset: 248.0\n",
      "barDuration: 4.0\n",
      "number: 64\n",
      "offset: 252.0\n",
      "barDuration: 4.0\n",
      "number: 65\n",
      "offset: 256.0\n",
      "barDuration: 4.0\n",
      "number: 66\n",
      "offset: 260.0\n",
      "barDuration: 4.0\n",
      "number: 67\n",
      "offset: 264.0\n",
      "barDuration: 4.0\n",
      "number: 68\n",
      "offset: 268.0\n",
      "barDuration: 4.0\n",
      "number: 69\n",
      "offset: 272.0\n",
      "barDuration: 4.0\n",
      "number: 70\n",
      "offset: 276.0\n",
      "barDuration: 4.0\n",
      "number: 71\n",
      "offset: 280.0\n",
      "barDuration: 4.0\n",
      "number: 72\n",
      "offset: 284.0\n",
      "barDuration: 4.0\n",
      "number: 73\n",
      "offset: 288.0\n",
      "barDuration: 4.0\n",
      "number: 74\n",
      "offset: 292.0\n",
      "barDuration: 4.0\n",
      "number: 75\n",
      "offset: 296.0\n",
      "barDuration: 4.0\n",
      "number: 76\n",
      "offset: 300.0\n",
      "barDuration: 4.0\n",
      "number: 77\n",
      "offset: 304.0\n",
      "barDuration: 4.0\n",
      "number: 78\n",
      "offset: 308.0\n",
      "barDuration: 4.0\n",
      "number: 79\n",
      "offset: 312.0\n",
      "barDuration: 4.0\n",
      "number: 80\n",
      "offset: 316.0\n",
      "barDuration: 4.0\n",
      "number: 81\n",
      "offset: 320.0\n",
      "barDuration: 4.0\n",
      "number: 82\n",
      "offset: 324.0\n",
      "barDuration: 4.0\n",
      "number: 83\n",
      "offset: 328.0\n",
      "barDuration: 4.0\n",
      "number: 84\n",
      "offset: 332.0\n",
      "barDuration: 4.0\n",
      "number: 85\n",
      "offset: 336.0\n",
      "barDuration: 4.0\n",
      "number: 86\n",
      "offset: 340.0\n",
      "barDuration: 4.0\n",
      "number: 87\n",
      "offset: 344.0\n",
      "barDuration: 4.0\n",
      "number: 88\n",
      "offset: 348.0\n",
      "barDuration: 4.0\n",
      "number: 89\n",
      "offset: 352.0\n",
      "barDuration: 4.0\n",
      "number: 90\n",
      "offset: 356.0\n",
      "barDuration: 4.0\n",
      "number: 91\n",
      "offset: 360.0\n",
      "barDuration: 4.0\n",
      "number: 92\n",
      "offset: 364.0\n",
      "barDuration: 4.0\n",
      "number: 93\n",
      "offset: 368.0\n",
      "barDuration: 4.0\n",
      "number: 94\n",
      "offset: 372.0\n",
      "barDuration: 4.0\n",
      "number: 1\n",
      "offset: 0.0\n",
      "barDuration: 4.0\n",
      "number: 2\n",
      "offset: 4.0\n",
      "barDuration: 4.0\n",
      "number: 3\n",
      "offset: 8.0\n",
      "barDuration: 4.0\n",
      "number: 4\n",
      "offset: 12.0\n",
      "barDuration: 4.0\n",
      "number: 5\n",
      "offset: 16.0\n",
      "barDuration: 4.0\n",
      "number: 6\n",
      "offset: 20.0\n",
      "barDuration: 4.0\n",
      "number: 7\n",
      "offset: 24.0\n",
      "barDuration: 4.0\n",
      "number: 8\n",
      "offset: 28.0\n",
      "barDuration: 4.0\n",
      "number: 9\n",
      "offset: 32.0\n",
      "barDuration: 4.0\n",
      "number: 10\n",
      "offset: 36.0\n",
      "barDuration: 4.0\n",
      "number: 11\n",
      "offset: 40.0\n",
      "barDuration: 4.0\n",
      "number: 12\n",
      "offset: 44.0\n",
      "barDuration: 4.0\n",
      "number: 13\n",
      "offset: 48.0\n",
      "barDuration: 4.0\n",
      "number: 14\n",
      "offset: 52.0\n",
      "barDuration: 4.0\n",
      "number: 15\n",
      "offset: 56.0\n",
      "barDuration: 4.0\n",
      "number: 16\n",
      "offset: 60.0\n",
      "barDuration: 4.0\n",
      "number: 17\n",
      "offset: 64.0\n",
      "barDuration: 4.0\n",
      "number: 18\n",
      "offset: 68.0\n",
      "barDuration: 4.0\n",
      "number: 19\n",
      "offset: 72.0\n",
      "barDuration: 4.0\n",
      "number: 20\n",
      "offset: 76.0\n",
      "barDuration: 4.0\n",
      "number: 21\n",
      "offset: 80.0\n",
      "barDuration: 4.0\n",
      "number: 22\n",
      "offset: 84.0\n",
      "barDuration: 4.0\n",
      "number: 23\n",
      "offset: 88.0\n",
      "barDuration: 4.0\n",
      "number: 24\n",
      "offset: 92.0\n",
      "barDuration: 4.0\n",
      "number: 25\n",
      "offset: 96.0\n",
      "barDuration: 4.0\n",
      "number: 26\n",
      "offset: 100.0\n",
      "barDuration: 4.0\n",
      "number: 27\n",
      "offset: 104.0\n",
      "barDuration: 4.0\n",
      "number: 28\n",
      "offset: 108.0\n",
      "barDuration: 4.0\n",
      "number: 29\n",
      "offset: 112.0\n",
      "barDuration: 4.0\n",
      "number: 30\n",
      "offset: 116.0\n",
      "barDuration: 4.0\n",
      "number: 31\n",
      "offset: 120.0\n",
      "barDuration: 4.0\n",
      "number: 32\n",
      "offset: 124.0\n",
      "barDuration: 4.0\n",
      "number: 33\n",
      "offset: 128.0\n",
      "barDuration: 4.0\n",
      "number: 34\n",
      "offset: 132.0\n",
      "barDuration: 4.0\n",
      "number: 35\n",
      "offset: 136.0\n",
      "barDuration: 4.0\n",
      "number: 36\n",
      "offset: 140.0\n",
      "barDuration: 4.0\n",
      "number: 37\n",
      "offset: 144.0\n",
      "barDuration: 4.0\n",
      "number: 38\n",
      "offset: 148.0\n",
      "barDuration: 4.0\n",
      "number: 39\n",
      "offset: 152.0\n",
      "barDuration: 4.0\n",
      "number: 40\n",
      "offset: 156.0\n",
      "barDuration: 4.0\n",
      "number: 41\n",
      "offset: 160.0\n",
      "barDuration: 4.0\n",
      "number: 42\n",
      "offset: 164.0\n",
      "barDuration: 4.0\n",
      "number: 43\n",
      "offset: 168.0\n",
      "barDuration: 4.0\n",
      "number: 44\n",
      "offset: 172.0\n",
      "barDuration: 4.0\n",
      "number: 45\n",
      "offset: 176.0\n",
      "barDuration: 4.0\n",
      "number: 46\n",
      "offset: 180.0\n",
      "barDuration: 4.0\n",
      "number: 47\n",
      "offset: 184.0\n",
      "barDuration: 4.0\n",
      "number: 48\n",
      "offset: 188.0\n",
      "barDuration: 4.0\n",
      "number: 49\n",
      "offset: 192.0\n",
      "barDuration: 4.0\n",
      "number: 50\n",
      "offset: 196.0\n",
      "barDuration: 4.0\n",
      "number: 51\n",
      "offset: 200.0\n",
      "barDuration: 4.0\n",
      "number: 52\n",
      "offset: 204.0\n",
      "barDuration: 4.0\n",
      "number: 53\n",
      "offset: 208.0\n",
      "barDuration: 4.0\n",
      "number: 54\n",
      "offset: 212.0\n",
      "barDuration: 4.0\n",
      "number: 55\n",
      "offset: 216.0\n",
      "barDuration: 4.0\n",
      "number: 56\n",
      "offset: 220.0\n",
      "barDuration: 4.0\n",
      "number: 57\n",
      "offset: 224.0\n",
      "barDuration: 4.0\n",
      "number: 58\n",
      "offset: 228.0\n",
      "barDuration: 4.0\n",
      "number: 59\n",
      "offset: 232.0\n",
      "barDuration: 4.0\n",
      "number: 60\n",
      "offset: 236.0\n",
      "barDuration: 4.0\n",
      "number: 61\n",
      "offset: 240.0\n",
      "barDuration: 4.0\n",
      "number: 62\n",
      "offset: 244.0\n",
      "barDuration: 4.0\n",
      "number: 63\n",
      "offset: 248.0\n",
      "barDuration: 4.0\n",
      "number: 64\n",
      "offset: 252.0\n",
      "barDuration: 4.0\n",
      "number: 65\n",
      "offset: 256.0\n",
      "barDuration: 4.0\n",
      "number: 66\n",
      "offset: 260.0\n",
      "barDuration: 4.0\n",
      "number: 67\n",
      "offset: 264.0\n",
      "barDuration: 4.0\n",
      "number: 68\n",
      "offset: 268.0\n",
      "barDuration: 4.0\n",
      "number: 69\n",
      "offset: 272.0\n",
      "barDuration: 4.0\n",
      "number: 70\n",
      "offset: 276.0\n",
      "barDuration: 4.0\n",
      "number: 71\n",
      "offset: 280.0\n",
      "barDuration: 4.0\n",
      "number: 72\n",
      "offset: 284.0\n",
      "barDuration: 4.0\n",
      "number: 73\n",
      "offset: 288.0\n",
      "barDuration: 4.0\n",
      "number: 74\n",
      "offset: 292.0\n",
      "barDuration: 4.0\n",
      "number: 75\n",
      "offset: 296.0\n",
      "barDuration: 4.0\n",
      "number: 76\n",
      "offset: 300.0\n",
      "barDuration: 4.0\n",
      "number: 77\n",
      "offset: 304.0\n",
      "barDuration: 4.0\n",
      "number: 78\n",
      "offset: 308.0\n",
      "barDuration: 4.0\n",
      "number: 79\n",
      "offset: 312.0\n",
      "barDuration: 4.0\n",
      "number: 80\n",
      "offset: 316.0\n",
      "barDuration: 4.0\n",
      "number: 81\n",
      "offset: 320.0\n",
      "barDuration: 4.0\n",
      "number: 82\n",
      "offset: 324.0\n",
      "barDuration: 4.0\n",
      "number: 83\n",
      "offset: 328.0\n",
      "barDuration: 4.0\n",
      "number: 84\n",
      "offset: 332.0\n",
      "barDuration: 4.0\n",
      "number: 85\n",
      "offset: 336.0\n",
      "barDuration: 4.0\n",
      "number: 1\n",
      "offset: 0.0\n",
      "barDuration: 4.0\n",
      "number: 2\n",
      "offset: 4.0\n",
      "barDuration: 4.0\n",
      "number: 3\n",
      "offset: 8.0\n",
      "barDuration: 4.0\n",
      "number: 4\n",
      "offset: 12.0\n",
      "barDuration: 4.0\n",
      "number: 5\n",
      "offset: 16.0\n",
      "barDuration: 4.0\n",
      "number: 6\n",
      "offset: 20.0\n",
      "barDuration: 4.0\n",
      "number: 7\n",
      "offset: 24.0\n",
      "barDuration: 4.0\n",
      "number: 8\n",
      "offset: 28.0\n",
      "barDuration: 4.0\n",
      "number: 9\n",
      "offset: 32.0\n",
      "barDuration: 4.0\n",
      "number: 10\n",
      "offset: 36.0\n",
      "barDuration: 4.0\n",
      "number: 11\n",
      "offset: 40.0\n",
      "barDuration: 4.0\n",
      "number: 12\n",
      "offset: 44.0\n",
      "barDuration: 4.0\n",
      "number: 13\n",
      "offset: 48.0\n",
      "barDuration: 4.0\n",
      "number: 14\n",
      "offset: 52.0\n",
      "barDuration: 4.0\n",
      "number: 15\n",
      "offset: 56.0\n",
      "barDuration: 4.0\n",
      "number: 16\n",
      "offset: 60.0\n",
      "barDuration: 4.0\n",
      "number: 17\n",
      "offset: 64.0\n",
      "barDuration: 4.0\n",
      "number: 18\n",
      "offset: 68.0\n",
      "barDuration: 4.0\n",
      "number: 19\n",
      "offset: 72.0\n",
      "barDuration: 4.0\n",
      "number: 20\n",
      "offset: 76.0\n",
      "barDuration: 4.0\n",
      "number: 21\n",
      "offset: 80.0\n",
      "barDuration: 4.0\n",
      "number: 22\n",
      "offset: 84.0\n",
      "barDuration: 4.0\n",
      "number: 23\n",
      "offset: 88.0\n",
      "barDuration: 4.0\n",
      "number: 24\n",
      "offset: 92.0\n",
      "barDuration: 4.0\n",
      "number: 25\n",
      "offset: 96.0\n",
      "barDuration: 4.0\n",
      "number: 26\n",
      "offset: 100.0\n",
      "barDuration: 4.0\n",
      "number: 27\n",
      "offset: 104.0\n",
      "barDuration: 4.0\n",
      "number: 28\n",
      "offset: 108.0\n",
      "barDuration: 4.0\n",
      "number: 29\n",
      "offset: 112.0\n",
      "barDuration: 4.0\n",
      "number: 30\n",
      "offset: 116.0\n",
      "barDuration: 4.0\n",
      "number: 31\n",
      "offset: 120.0\n",
      "barDuration: 4.0\n",
      "number: 32\n",
      "offset: 124.0\n",
      "barDuration: 4.0\n",
      "number: 33\n",
      "offset: 128.0\n",
      "barDuration: 4.0\n",
      "number: 34\n",
      "offset: 132.0\n",
      "barDuration: 4.0\n",
      "number: 35\n",
      "offset: 136.0\n",
      "barDuration: 4.0\n",
      "number: 36\n",
      "offset: 140.0\n",
      "barDuration: 4.0\n",
      "number: 37\n",
      "offset: 144.0\n",
      "barDuration: 4.0\n",
      "number: 38\n",
      "offset: 148.0\n",
      "barDuration: 4.0\n",
      "number: 39\n",
      "offset: 152.0\n",
      "barDuration: 4.0\n",
      "number: 40\n",
      "offset: 156.0\n",
      "barDuration: 4.0\n",
      "number: 41\n",
      "offset: 160.0\n",
      "barDuration: 4.0\n",
      "number: 42\n",
      "offset: 164.0\n",
      "barDuration: 4.0\n",
      "number: 43\n",
      "offset: 168.0\n",
      "barDuration: 4.0\n",
      "number: 44\n",
      "offset: 172.0\n",
      "barDuration: 4.0\n",
      "number: 45\n",
      "offset: 176.0\n",
      "barDuration: 4.0\n",
      "number: 46\n",
      "offset: 180.0\n",
      "barDuration: 4.0\n",
      "number: 47\n",
      "offset: 184.0\n",
      "barDuration: 4.0\n",
      "number: 48\n",
      "offset: 188.0\n",
      "barDuration: 4.0\n",
      "number: 49\n",
      "offset: 192.0\n",
      "barDuration: 4.0\n",
      "number: 50\n",
      "offset: 196.0\n",
      "barDuration: 4.0\n",
      "number: 51\n",
      "offset: 200.0\n",
      "barDuration: 4.0\n",
      "number: 52\n",
      "offset: 204.0\n",
      "barDuration: 4.0\n",
      "number: 53\n",
      "offset: 208.0\n",
      "barDuration: 4.0\n",
      "number: 54\n",
      "offset: 212.0\n",
      "barDuration: 4.0\n",
      "number: 55\n",
      "offset: 216.0\n",
      "barDuration: 4.0\n",
      "number: 56\n",
      "offset: 220.0\n",
      "barDuration: 4.0\n",
      "number: 57\n",
      "offset: 224.0\n",
      "barDuration: 4.0\n",
      "number: 58\n",
      "offset: 228.0\n",
      "barDuration: 4.0\n",
      "number: 59\n",
      "offset: 232.0\n",
      "barDuration: 4.0\n",
      "number: 60\n",
      "offset: 236.0\n",
      "barDuration: 4.0\n",
      "number: 61\n",
      "offset: 240.0\n",
      "barDuration: 4.0\n",
      "number: 62\n",
      "offset: 244.0\n",
      "barDuration: 4.0\n",
      "number: 63\n",
      "offset: 248.0\n",
      "barDuration: 4.0\n",
      "number: 64\n",
      "offset: 252.0\n",
      "barDuration: 4.0\n",
      "number: 65\n",
      "offset: 256.0\n",
      "barDuration: 4.0\n",
      "number: 66\n",
      "offset: 260.0\n",
      "barDuration: 4.0\n",
      "number: 67\n",
      "offset: 264.0\n",
      "barDuration: 4.0\n",
      "number: 68\n",
      "offset: 268.0\n",
      "barDuration: 4.0\n",
      "number: 69\n",
      "offset: 272.0\n",
      "barDuration: 4.0\n",
      "number: 70\n",
      "offset: 276.0\n",
      "barDuration: 4.0\n",
      "number: 71\n",
      "offset: 280.0\n",
      "barDuration: 4.0\n",
      "number: 72\n",
      "offset: 284.0\n",
      "barDuration: 4.0\n",
      "number: 73\n",
      "offset: 288.0\n",
      "barDuration: 4.0\n",
      "number: 74\n",
      "offset: 292.0\n",
      "barDuration: 4.0\n",
      "number: 75\n",
      "offset: 296.0\n",
      "barDuration: 4.0\n",
      "number: 76\n",
      "offset: 300.0\n",
      "barDuration: 4.0\n",
      "number: 77\n",
      "offset: 304.0\n",
      "barDuration: 4.0\n",
      "number: 78\n",
      "offset: 308.0\n",
      "barDuration: 4.0\n",
      "number: 79\n",
      "offset: 312.0\n",
      "barDuration: 4.0\n",
      "number: 80\n",
      "offset: 316.0\n",
      "barDuration: 4.0\n",
      "number: 81\n",
      "offset: 320.0\n",
      "barDuration: 4.0\n",
      "number: 82\n",
      "offset: 324.0\n",
      "barDuration: 4.0\n",
      "number: 83\n",
      "offset: 328.0\n",
      "barDuration: 4.0\n",
      "number: 84\n",
      "offset: 332.0\n",
      "barDuration: 4.0\n",
      "number: 85\n",
      "offset: 336.0\n",
      "barDuration: 4.0\n",
      "number: 86\n",
      "offset: 340.0\n",
      "barDuration: 4.0\n",
      "number: 87\n",
      "offset: 344.0\n",
      "barDuration: 4.0\n",
      "number: 88\n",
      "offset: 348.0\n",
      "barDuration: 4.0\n",
      "number: 89\n",
      "offset: 352.0\n",
      "barDuration: 4.0\n",
      "number: 90\n",
      "offset: 356.0\n",
      "barDuration: 4.0\n",
      "number: 91\n",
      "offset: 360.0\n",
      "barDuration: 4.0\n",
      "number: 92\n",
      "offset: 364.0\n",
      "barDuration: 4.0\n",
      "number: 93\n",
      "offset: 368.0\n",
      "barDuration: 4.0\n",
      "number: 94\n",
      "offset: 372.0\n",
      "barDuration: 4.0\n",
      "number: 1\n",
      "offset: 0.0\n",
      "barDuration: 4.0\n",
      "number: 2\n",
      "offset: 4.0\n",
      "barDuration: 4.0\n",
      "number: 3\n",
      "offset: 8.0\n",
      "barDuration: 4.0\n",
      "number: 4\n",
      "offset: 12.0\n",
      "barDuration: 4.0\n",
      "number: 5\n",
      "offset: 16.0\n",
      "barDuration: 4.0\n",
      "number: 6\n",
      "offset: 20.0\n",
      "barDuration: 4.0\n",
      "number: 7\n",
      "offset: 24.0\n",
      "barDuration: 4.0\n",
      "number: 8\n",
      "offset: 28.0\n",
      "barDuration: 4.0\n",
      "number: 9\n",
      "offset: 32.0\n",
      "barDuration: 4.0\n",
      "number: 10\n",
      "offset: 36.0\n",
      "barDuration: 4.0\n",
      "number: 11\n",
      "offset: 40.0\n",
      "barDuration: 4.0\n",
      "number: 12\n",
      "offset: 44.0\n",
      "barDuration: 4.0\n",
      "number: 13\n",
      "offset: 48.0\n",
      "barDuration: 4.0\n",
      "number: 14\n",
      "offset: 52.0\n",
      "barDuration: 4.0\n",
      "number: 15\n",
      "offset: 56.0\n",
      "barDuration: 4.0\n",
      "number: 16\n",
      "offset: 60.0\n",
      "barDuration: 4.0\n",
      "number: 17\n",
      "offset: 64.0\n",
      "barDuration: 4.0\n",
      "number: 18\n",
      "offset: 68.0\n",
      "barDuration: 4.0\n",
      "number: 19\n",
      "offset: 72.0\n",
      "barDuration: 4.0\n",
      "number: 20\n",
      "offset: 76.0\n",
      "barDuration: 4.0\n",
      "number: 21\n",
      "offset: 80.0\n",
      "barDuration: 4.0\n",
      "number: 22\n",
      "offset: 84.0\n",
      "barDuration: 4.0\n",
      "number: 23\n",
      "offset: 88.0\n",
      "barDuration: 4.0\n",
      "number: 24\n",
      "offset: 92.0\n",
      "barDuration: 4.0\n",
      "number: 25\n",
      "offset: 96.0\n",
      "barDuration: 4.0\n",
      "number: 26\n",
      "offset: 100.0\n",
      "barDuration: 4.0\n",
      "number: 27\n",
      "offset: 104.0\n",
      "barDuration: 4.0\n",
      "number: 28\n",
      "offset: 108.0\n",
      "barDuration: 4.0\n",
      "number: 29\n",
      "offset: 112.0\n",
      "barDuration: 4.0\n",
      "number: 30\n",
      "offset: 116.0\n",
      "barDuration: 4.0\n",
      "number: 31\n",
      "offset: 120.0\n",
      "barDuration: 4.0\n",
      "number: 32\n",
      "offset: 124.0\n",
      "barDuration: 4.0\n",
      "number: 33\n",
      "offset: 128.0\n",
      "barDuration: 4.0\n",
      "number: 34\n",
      "offset: 132.0\n",
      "barDuration: 4.0\n",
      "number: 35\n",
      "offset: 136.0\n",
      "barDuration: 4.0\n",
      "number: 36\n",
      "offset: 140.0\n",
      "barDuration: 4.0\n",
      "number: 37\n",
      "offset: 144.0\n",
      "barDuration: 4.0\n",
      "number: 38\n",
      "offset: 148.0\n",
      "barDuration: 4.0\n",
      "number: 39\n",
      "offset: 152.0\n",
      "barDuration: 4.0\n",
      "number: 40\n",
      "offset: 156.0\n",
      "barDuration: 4.0\n",
      "number: 41\n",
      "offset: 160.0\n",
      "barDuration: 4.0\n",
      "number: 42\n",
      "offset: 164.0\n",
      "barDuration: 4.0\n",
      "number: 43\n",
      "offset: 168.0\n",
      "barDuration: 4.0\n",
      "number: 44\n",
      "offset: 172.0\n",
      "barDuration: 4.0\n",
      "number: 45\n",
      "offset: 176.0\n",
      "barDuration: 4.0\n",
      "number: 46\n",
      "offset: 180.0\n",
      "barDuration: 4.0\n",
      "number: 47\n",
      "offset: 184.0\n",
      "barDuration: 4.0\n",
      "number: 48\n",
      "offset: 188.0\n",
      "barDuration: 4.0\n",
      "number: 49\n",
      "offset: 192.0\n",
      "barDuration: 4.0\n",
      "number: 50\n",
      "offset: 196.0\n",
      "barDuration: 4.0\n",
      "number: 51\n",
      "offset: 200.0\n",
      "barDuration: 4.0\n",
      "number: 52\n",
      "offset: 204.0\n",
      "barDuration: 4.0\n",
      "number: 53\n",
      "offset: 208.0\n",
      "barDuration: 4.0\n",
      "number: 54\n",
      "offset: 212.0\n",
      "barDuration: 4.0\n",
      "number: 55\n",
      "offset: 216.0\n",
      "barDuration: 4.0\n",
      "number: 56\n",
      "offset: 220.0\n",
      "barDuration: 4.0\n",
      "number: 57\n",
      "offset: 224.0\n",
      "barDuration: 4.0\n",
      "number: 58\n",
      "offset: 228.0\n",
      "barDuration: 4.0\n",
      "number: 59\n",
      "offset: 232.0\n",
      "barDuration: 4.0\n",
      "number: 60\n",
      "offset: 236.0\n",
      "barDuration: 4.0\n",
      "number: 61\n",
      "offset: 240.0\n",
      "barDuration: 4.0\n",
      "number: 62\n",
      "offset: 244.0\n",
      "barDuration: 4.0\n",
      "number: 63\n",
      "offset: 248.0\n",
      "barDuration: 4.0\n",
      "number: 64\n",
      "offset: 252.0\n",
      "barDuration: 4.0\n",
      "number: 65\n",
      "offset: 256.0\n",
      "barDuration: 4.0\n",
      "number: 66\n",
      "offset: 260.0\n",
      "barDuration: 4.0\n",
      "number: 67\n",
      "offset: 264.0\n",
      "barDuration: 4.0\n",
      "number: 68\n",
      "offset: 268.0\n",
      "barDuration: 4.0\n",
      "number: 69\n",
      "offset: 272.0\n",
      "barDuration: 4.0\n",
      "number: 70\n",
      "offset: 276.0\n",
      "barDuration: 4.0\n",
      "number: 71\n",
      "offset: 280.0\n",
      "barDuration: 4.0\n",
      "number: 72\n",
      "offset: 284.0\n",
      "barDuration: 4.0\n",
      "number: 73\n",
      "offset: 288.0\n",
      "barDuration: 4.0\n",
      "number: 74\n",
      "offset: 292.0\n",
      "barDuration: 4.0\n",
      "number: 75\n",
      "offset: 296.0\n",
      "barDuration: 4.0\n",
      "number: 76\n",
      "offset: 300.0\n",
      "barDuration: 4.0\n",
      "number: 77\n",
      "offset: 304.0\n",
      "barDuration: 4.0\n",
      "number: 78\n",
      "offset: 308.0\n",
      "barDuration: 4.0\n",
      "number: 79\n",
      "offset: 312.0\n",
      "barDuration: 4.0\n",
      "number: 80\n",
      "offset: 316.0\n",
      "barDuration: 4.0\n",
      "number: 81\n",
      "offset: 320.0\n",
      "barDuration: 4.0\n",
      "number: 82\n",
      "offset: 324.0\n",
      "barDuration: 4.0\n",
      "number: 83\n",
      "offset: 328.0\n",
      "barDuration: 4.0\n",
      "number: 84\n",
      "offset: 332.0\n",
      "barDuration: 4.0\n",
      "number: 85\n",
      "offset: 336.0\n",
      "barDuration: 4.0\n",
      "number: 86\n",
      "offset: 340.0\n",
      "barDuration: 4.0\n",
      "number: 87\n",
      "offset: 344.0\n",
      "barDuration: 4.0\n",
      "number: 88\n",
      "offset: 348.0\n",
      "barDuration: 4.0\n",
      "number: 89\n",
      "offset: 352.0\n",
      "barDuration: 4.0\n",
      "number: 90\n",
      "offset: 356.0\n",
      "barDuration: 4.0\n",
      "number: 91\n",
      "offset: 360.0\n",
      "barDuration: 4.0\n",
      "number: 92\n",
      "offset: 364.0\n",
      "barDuration: 4.0\n",
      "number: 93\n",
      "offset: 368.0\n",
      "barDuration: 4.0\n",
      "number: 94\n",
      "offset: 372.0\n",
      "barDuration: 4.0\n",
      "number: 1\n",
      "offset: 0.0\n",
      "barDuration: 4.0\n",
      "number: 2\n",
      "offset: 4.0\n",
      "barDuration: 4.0\n",
      "number: 3\n",
      "offset: 8.0\n",
      "barDuration: 4.0\n",
      "number: 4\n",
      "offset: 12.0\n",
      "barDuration: 4.0\n",
      "number: 5\n",
      "offset: 16.0\n",
      "barDuration: 4.0\n",
      "number: 6\n",
      "offset: 20.0\n",
      "barDuration: 4.0\n",
      "number: 7\n",
      "offset: 24.0\n",
      "barDuration: 4.0\n",
      "number: 8\n",
      "offset: 28.0\n",
      "barDuration: 4.0\n",
      "number: 9\n",
      "offset: 32.0\n",
      "barDuration: 4.0\n",
      "number: 10\n",
      "offset: 36.0\n",
      "barDuration: 4.0\n",
      "number: 11\n",
      "offset: 40.0\n",
      "barDuration: 4.0\n",
      "number: 12\n",
      "offset: 44.0\n",
      "barDuration: 4.0\n",
      "number: 13\n",
      "offset: 48.0\n",
      "barDuration: 4.0\n",
      "number: 14\n",
      "offset: 52.0\n",
      "barDuration: 4.0\n",
      "number: 15\n",
      "offset: 56.0\n",
      "barDuration: 4.0\n",
      "number: 16\n",
      "offset: 60.0\n",
      "barDuration: 4.0\n",
      "number: 17\n",
      "offset: 64.0\n",
      "barDuration: 4.0\n",
      "number: 18\n",
      "offset: 68.0\n",
      "barDuration: 4.0\n",
      "number: 19\n",
      "offset: 72.0\n",
      "barDuration: 4.0\n",
      "number: 20\n",
      "offset: 76.0\n",
      "barDuration: 4.0\n",
      "number: 21\n",
      "offset: 80.0\n",
      "barDuration: 4.0\n",
      "number: 22\n",
      "offset: 84.0\n",
      "barDuration: 4.0\n",
      "number: 23\n",
      "offset: 88.0\n",
      "barDuration: 4.0\n",
      "number: 24\n",
      "offset: 92.0\n",
      "barDuration: 4.0\n",
      "number: 25\n",
      "offset: 96.0\n",
      "barDuration: 4.0\n",
      "number: 26\n",
      "offset: 100.0\n",
      "barDuration: 4.0\n",
      "number: 27\n",
      "offset: 104.0\n",
      "barDuration: 4.0\n",
      "number: 28\n",
      "offset: 108.0\n",
      "barDuration: 4.0\n",
      "number: 29\n",
      "offset: 112.0\n",
      "barDuration: 4.0\n",
      "number: 30\n",
      "offset: 116.0\n",
      "barDuration: 4.0\n",
      "number: 31\n",
      "offset: 120.0\n",
      "barDuration: 4.0\n",
      "number: 32\n",
      "offset: 124.0\n",
      "barDuration: 4.0\n",
      "number: 33\n",
      "offset: 128.0\n",
      "barDuration: 4.0\n",
      "number: 34\n",
      "offset: 132.0\n",
      "barDuration: 4.0\n",
      "number: 35\n",
      "offset: 136.0\n",
      "barDuration: 4.0\n",
      "number: 36\n",
      "offset: 140.0\n",
      "barDuration: 4.0\n",
      "number: 37\n",
      "offset: 144.0\n",
      "barDuration: 4.0\n",
      "number: 38\n",
      "offset: 148.0\n",
      "barDuration: 4.0\n",
      "number: 39\n",
      "offset: 152.0\n",
      "barDuration: 4.0\n",
      "number: 40\n",
      "offset: 156.0\n",
      "barDuration: 4.0\n",
      "number: 41\n",
      "offset: 160.0\n",
      "barDuration: 4.0\n",
      "number: 42\n",
      "offset: 164.0\n",
      "barDuration: 4.0\n",
      "number: 43\n",
      "offset: 168.0\n",
      "barDuration: 4.0\n",
      "number: 44\n",
      "offset: 172.0\n",
      "barDuration: 4.0\n",
      "number: 45\n",
      "offset: 176.0\n",
      "barDuration: 4.0\n",
      "number: 46\n",
      "offset: 180.0\n",
      "barDuration: 4.0\n",
      "number: 47\n",
      "offset: 184.0\n",
      "barDuration: 4.0\n",
      "number: 48\n",
      "offset: 188.0\n",
      "barDuration: 4.0\n",
      "number: 49\n",
      "offset: 192.0\n",
      "barDuration: 4.0\n",
      "number: 50\n",
      "offset: 196.0\n",
      "barDuration: 4.0\n",
      "number: 51\n",
      "offset: 200.0\n",
      "barDuration: 4.0\n",
      "number: 52\n",
      "offset: 204.0\n",
      "barDuration: 4.0\n",
      "number: 53\n",
      "offset: 208.0\n",
      "barDuration: 4.0\n",
      "number: 54\n",
      "offset: 212.0\n",
      "barDuration: 4.0\n",
      "number: 55\n",
      "offset: 216.0\n",
      "barDuration: 4.0\n",
      "number: 56\n",
      "offset: 220.0\n",
      "barDuration: 4.0\n",
      "number: 57\n",
      "offset: 224.0\n",
      "barDuration: 4.0\n",
      "number: 58\n",
      "offset: 228.0\n",
      "barDuration: 4.0\n",
      "number: 59\n",
      "offset: 232.0\n",
      "barDuration: 4.0\n",
      "number: 60\n",
      "offset: 236.0\n",
      "barDuration: 4.0\n",
      "number: 61\n",
      "offset: 240.0\n",
      "barDuration: 4.0\n",
      "number: 62\n",
      "offset: 244.0\n",
      "barDuration: 4.0\n",
      "number: 63\n",
      "offset: 248.0\n",
      "barDuration: 4.0\n",
      "number: 64\n",
      "offset: 252.0\n",
      "barDuration: 4.0\n",
      "number: 65\n",
      "offset: 256.0\n",
      "barDuration: 4.0\n",
      "number: 66\n",
      "offset: 260.0\n",
      "barDuration: 4.0\n",
      "number: 67\n",
      "offset: 264.0\n",
      "barDuration: 4.0\n",
      "number: 68\n",
      "offset: 268.0\n",
      "barDuration: 4.0\n",
      "number: 69\n",
      "offset: 272.0\n",
      "barDuration: 4.0\n",
      "number: 70\n",
      "offset: 276.0\n",
      "barDuration: 4.0\n",
      "number: 71\n",
      "offset: 280.0\n",
      "barDuration: 4.0\n",
      "number: 72\n",
      "offset: 284.0\n",
      "barDuration: 4.0\n",
      "number: 73\n",
      "offset: 288.0\n",
      "barDuration: 4.0\n",
      "number: 74\n",
      "offset: 292.0\n",
      "barDuration: 4.0\n",
      "number: 75\n",
      "offset: 296.0\n",
      "barDuration: 4.0\n",
      "number: 76\n",
      "offset: 300.0\n",
      "barDuration: 4.0\n",
      "number: 77\n",
      "offset: 304.0\n",
      "barDuration: 4.0\n",
      "number: 78\n",
      "offset: 308.0\n",
      "barDuration: 4.0\n",
      "number: 79\n",
      "offset: 312.0\n",
      "barDuration: 4.0\n",
      "number: 80\n",
      "offset: 316.0\n",
      "barDuration: 4.0\n",
      "number: 81\n",
      "offset: 320.0\n",
      "barDuration: 4.0\n",
      "number: 82\n",
      "offset: 324.0\n",
      "barDuration: 4.0\n",
      "number: 83\n",
      "offset: 328.0\n",
      "barDuration: 4.0\n",
      "number: 84\n",
      "offset: 332.0\n",
      "barDuration: 4.0\n",
      "number: 85\n",
      "offset: 336.0\n",
      "barDuration: 4.0\n",
      "number: 86\n",
      "offset: 340.0\n",
      "barDuration: 4.0\n",
      "number: 87\n",
      "offset: 344.0\n",
      "barDuration: 4.0\n",
      "number: 88\n",
      "offset: 348.0\n",
      "barDuration: 4.0\n",
      "number: 89\n",
      "offset: 352.0\n",
      "barDuration: 4.0\n",
      "number: 90\n",
      "offset: 356.0\n",
      "barDuration: 4.0\n",
      "number: 91\n",
      "offset: 360.0\n",
      "barDuration: 4.0\n",
      "number: 92\n",
      "offset: 364.0\n",
      "barDuration: 4.0\n",
      "number: 93\n",
      "offset: 368.0\n",
      "barDuration: 4.0\n",
      "number: 94\n",
      "offset: 372.0\n",
      "barDuration: 4.0\n"
     ]
    }
   ],
   "source": [
    "for part in last_track_music21.getElementsByClass('Part'):\n",
    "    for measure in part.getElementsByClass('Measure'):\n",
    "        print(\"number:\", measure.number)\n",
    "        print(\"offset:\", measure.offset)\n",
    "        print(\"barDuration:\", measure.barDuration.quarterLength)"
   ]
  },
  {
   "cell_type": "code",
   "execution_count": 61,
   "id": "f91b21f6-8b14-4abf-8652-4726972fed0b",
   "metadata": {},
   "outputs": [],
   "source": [
    "#To do the processing we are interested in extracting attributes associated with musical notes\n",
    "#such as frequency, wavelength, and duration"
   ]
  },
  {
   "cell_type": "code",
   "execution_count": 62,
   "id": "e92bf870-1146-40d4-949e-3c99201e4044",
   "metadata": {},
   "outputs": [],
   "source": [
    "#I believe that only with music21 you can extract attributos of musical elements such as notes\n",
    "#chords and measures"
   ]
  },
  {
   "cell_type": "code",
   "execution_count": 63,
   "id": "4700a789-28dd-46d8-b76e-72b93ba08a66",
   "metadata": {},
   "outputs": [],
   "source": [
    "#Preprocess -> convert notes (B+) -> to numbers in a dictionary"
   ]
  },
  {
   "cell_type": "code",
   "execution_count": 65,
   "id": "db5a6fe9-ed1c-404a-9824-91b3cbf5f469",
   "metadata": {},
   "outputs": [],
   "source": [
    "#As I understood they are taking 40 notes and then select the next one as a target. \n",
    "#So, they will take the first X features as 1-40 nots and the target is the 41\n",
    "#and for the next the X features are 2-41 and the target the 42\n",
    "\n",
    "#By creating feature-target pairs in this manner, the code prepares the data \n",
    "#for use in a machine learning model where the objective is to predict the \n",
    "#next element (note) in a sequence based on the preceding elements. \n",
    "#This is a common approach in sequence prediction tasks, such as \n",
    "#language modeling, music generation, and time series forecasting."
   ]
  },
  {
   "cell_type": "code",
   "execution_count": null,
   "id": "badeae2b-fc47-4adc-bb64-14972b981a31",
   "metadata": {},
   "outputs": [],
   "source": []
  }
 ],
 "metadata": {
  "kernelspec": {
   "display_name": "Python 3 (ipykernel)",
   "language": "python",
   "name": "python3"
  },
  "language_info": {
   "codemirror_mode": {
    "name": "ipython",
    "version": 3
   },
   "file_extension": ".py",
   "mimetype": "text/x-python",
   "name": "python",
   "nbconvert_exporter": "python",
   "pygments_lexer": "ipython3",
   "version": "3.10.6"
  }
 },
 "nbformat": 4,
 "nbformat_minor": 5
}
